G04*
G04 #@! TF.GenerationSoftware,Altium Limited,Altium Designer,24.2.2 (26)*
G04*
G04 Layer_Color=32896*
%FSLAX25Y25*%
%MOIN*%
G70*
G04*
G04 #@! TF.SameCoordinates,F296BD43-7A1A-4B5F-AFD2-8FBC70BB071E*
G04*
G04*
G04 #@! TF.FilePolarity,Positive*
G04*
G01*
G75*
%ADD10C,0.00787*%
%ADD14C,0.00197*%
%ADD15C,0.00394*%
%ADD20C,0.01000*%
G36*
X179691Y187050D02*
X180491D01*
Y186250D01*
X181291D01*
Y185450D01*
Y184650D01*
Y183850D01*
Y183050D01*
Y182250D01*
Y181450D01*
Y180650D01*
X182091D01*
Y179850D01*
Y179050D01*
Y178250D01*
Y177450D01*
Y176650D01*
Y175850D01*
X182891D01*
Y175050D01*
Y174250D01*
Y173450D01*
Y172650D01*
Y171850D01*
X183691D01*
Y171050D01*
Y170250D01*
Y169450D01*
X182891D01*
Y168650D01*
Y167850D01*
X182091D01*
Y167050D01*
X181291D01*
Y166250D01*
Y165450D01*
X180491D01*
Y164650D01*
X179691D01*
Y163850D01*
Y163050D01*
X178891D01*
Y162250D01*
Y161450D01*
Y160650D01*
Y159850D01*
Y159050D01*
Y158250D01*
Y157450D01*
X179691D01*
Y156650D01*
Y155850D01*
Y155050D01*
X180491D01*
Y154250D01*
Y153450D01*
Y152650D01*
Y151850D01*
Y151050D01*
Y150250D01*
Y149450D01*
Y148650D01*
Y147850D01*
Y147050D01*
Y146250D01*
Y145450D01*
Y144650D01*
X179691D01*
Y143850D01*
Y143050D01*
X178891D01*
Y142250D01*
Y141450D01*
X178091D01*
Y140650D01*
X177291D01*
Y139850D01*
Y139050D01*
X176491D01*
Y138250D01*
X175691D01*
Y137450D01*
X174891D01*
Y136650D01*
X174091D01*
Y135850D01*
X173291D01*
Y135050D01*
X172491D01*
Y134250D01*
X171691D01*
Y133450D01*
Y132650D01*
X170891D01*
Y131850D01*
Y131050D01*
X170091D01*
Y130250D01*
Y129450D01*
X169291D01*
Y128650D01*
Y127850D01*
X168491D01*
Y127050D01*
Y126250D01*
Y125450D01*
Y124650D01*
Y123850D01*
X167691D01*
Y123050D01*
Y122250D01*
Y121450D01*
Y120650D01*
Y119850D01*
Y119050D01*
Y118250D01*
Y117450D01*
Y116650D01*
Y115850D01*
Y115050D01*
Y114250D01*
Y113450D01*
Y112650D01*
Y111850D01*
Y111050D01*
Y110250D01*
X168491D01*
Y109450D01*
Y108650D01*
Y107850D01*
X169291D01*
Y107050D01*
Y106250D01*
X170091D01*
Y105450D01*
Y104650D01*
X170891D01*
Y103850D01*
X171691D01*
Y103050D01*
X172491D01*
Y102250D01*
X173291D01*
Y101450D01*
X174091D01*
Y100650D01*
X174891D01*
Y99850D01*
Y99050D01*
X175691D01*
Y98250D01*
Y97450D01*
Y96650D01*
Y95850D01*
X174891D01*
Y95050D01*
X174091D01*
Y94250D01*
X170891D01*
Y95050D01*
X169291D01*
Y95850D01*
X167691D01*
Y96650D01*
X166891D01*
Y97450D01*
X166091D01*
Y98250D01*
X165291D01*
Y99050D01*
X164491D01*
Y99850D01*
X163691D01*
Y100650D01*
Y101450D01*
X162891D01*
Y102250D01*
X162091D01*
Y103050D01*
Y103850D01*
X161291D01*
Y104650D01*
Y105450D01*
X160491D01*
Y106250D01*
Y107050D01*
Y107850D01*
Y108650D01*
Y109450D01*
X159691D01*
Y110250D01*
Y111050D01*
Y111850D01*
Y112650D01*
Y113450D01*
X158891D01*
Y114250D01*
X158091D01*
Y115050D01*
X152491D01*
Y114250D01*
X151691D01*
Y113450D01*
X150891D01*
Y112650D01*
X150091D01*
Y111850D01*
X149291D01*
Y111050D01*
Y110250D01*
X148491D01*
Y109450D01*
X147691D01*
Y108650D01*
Y107850D01*
X146891D01*
Y107050D01*
Y106250D01*
X146091D01*
Y105450D01*
Y104650D01*
X145291D01*
Y103850D01*
Y103050D01*
X144491D01*
Y102250D01*
Y101450D01*
X149291D01*
Y100650D01*
X151691D01*
Y99850D01*
X152491D01*
Y99050D01*
Y98250D01*
X153291D01*
Y97450D01*
Y96650D01*
Y95850D01*
Y95050D01*
X116491D01*
Y95850D01*
X115691D01*
Y96650D01*
X114091D01*
Y97450D01*
X109291D01*
Y96650D01*
X106891D01*
Y95850D01*
X104491D01*
Y95050D01*
X102891D01*
Y94250D01*
X100491D01*
Y93450D01*
X98891D01*
Y92650D01*
X96491D01*
Y91850D01*
X94891D01*
Y91050D01*
X93291D01*
Y90250D01*
X91691D01*
Y89450D01*
X90891D01*
Y88650D01*
X90091D01*
Y87850D01*
X89291D01*
Y87050D01*
X88491D01*
Y86250D01*
Y85450D01*
Y84650D01*
Y83850D01*
X89291D01*
Y83050D01*
Y82250D01*
X90091D01*
Y81450D01*
X90891D01*
Y80650D01*
X91691D01*
Y79850D01*
X92491D01*
Y79050D01*
X93291D01*
Y78250D01*
Y77450D01*
X89291D01*
Y78250D01*
X87691D01*
Y79050D01*
X86091D01*
Y79850D01*
X85291D01*
Y80650D01*
X84491D01*
Y81450D01*
X83691D01*
Y82250D01*
X82891D01*
Y83050D01*
X82091D01*
Y83850D01*
Y84650D01*
X81291D01*
Y85450D01*
Y86250D01*
Y87050D01*
Y87850D01*
Y88650D01*
X82091D01*
Y89450D01*
Y90250D01*
Y91050D01*
X82891D01*
Y91850D01*
Y92650D01*
X83691D01*
Y93450D01*
X84491D01*
Y94250D01*
X86091D01*
Y95050D01*
X87691D01*
Y95850D01*
X89291D01*
Y96650D01*
X90891D01*
Y97450D01*
X93291D01*
Y98250D01*
X94891D01*
Y99050D01*
X96491D01*
Y99850D01*
X98091D01*
Y100650D01*
X98891D01*
Y101450D01*
X100491D01*
Y102250D01*
X101291D01*
Y103050D01*
X102891D01*
Y103850D01*
X103691D01*
Y104650D01*
X104491D01*
Y105450D01*
X105291D01*
Y106250D01*
X106091D01*
Y107050D01*
X106891D01*
Y107850D01*
X107691D01*
Y108650D01*
Y109450D01*
X108491D01*
Y110250D01*
X109291D01*
Y111050D01*
Y111850D01*
Y112650D01*
X110091D01*
Y113450D01*
Y114250D01*
Y115050D01*
X110891D01*
Y115850D01*
Y116650D01*
Y117450D01*
Y118250D01*
X111691D01*
Y119050D01*
Y119850D01*
Y120650D01*
Y121450D01*
X112491D01*
Y122250D01*
Y123050D01*
Y123850D01*
X113291D01*
Y124650D01*
Y125450D01*
Y126250D01*
Y127050D01*
X114091D01*
Y127850D01*
Y128650D01*
Y129450D01*
X114891D01*
Y130250D01*
Y131050D01*
X115691D01*
Y131850D01*
Y132650D01*
Y133450D01*
X116491D01*
Y134250D01*
Y135050D01*
X117291D01*
Y135850D01*
Y136650D01*
X118091D01*
Y137450D01*
X118891D01*
Y138250D01*
Y139050D01*
X119691D01*
Y139850D01*
Y140650D01*
X120491D01*
Y141450D01*
X121291D01*
Y142250D01*
X122091D01*
Y143050D01*
Y143850D01*
X122891D01*
Y144650D01*
X123691D01*
Y145450D01*
X124491D01*
Y146250D01*
X125291D01*
Y147050D01*
X126091D01*
Y147850D01*
X126891D01*
Y148650D01*
X128491D01*
Y149450D01*
X129291D01*
Y150250D01*
X130091D01*
Y151050D01*
X131691D01*
Y151850D01*
X133291D01*
Y152650D01*
X134891D01*
Y153450D01*
X136491D01*
Y154250D01*
X138091D01*
Y155050D01*
X141291D01*
Y155850D01*
X143691D01*
Y156650D01*
X147691D01*
Y157450D01*
X153291D01*
Y158250D01*
X155691D01*
Y159050D01*
X156491D01*
Y159850D01*
X157291D01*
Y160650D01*
Y161450D01*
Y162250D01*
X158091D01*
Y163050D01*
X157291D01*
Y163850D01*
Y164650D01*
Y165450D01*
Y166250D01*
Y167050D01*
Y167850D01*
X156491D01*
Y168650D01*
Y169450D01*
Y170250D01*
X155691D01*
Y171050D01*
Y171850D01*
Y172650D01*
X154891D01*
Y173450D01*
Y174250D01*
Y175050D01*
X154091D01*
Y175850D01*
Y176650D01*
Y177450D01*
Y178250D01*
X153291D01*
Y179050D01*
Y179850D01*
Y180650D01*
Y181450D01*
Y182250D01*
Y183050D01*
X154091D01*
Y183850D01*
Y184650D01*
X157291D01*
Y183850D01*
X158891D01*
Y183050D01*
X160491D01*
Y182250D01*
X162091D01*
Y181450D01*
X165291D01*
Y180650D01*
X168491D01*
Y181450D01*
X170891D01*
Y182250D01*
X171691D01*
Y183050D01*
X172491D01*
Y183850D01*
X173291D01*
Y184650D01*
X174091D01*
Y185450D01*
X174891D01*
Y186250D01*
X175691D01*
Y187050D01*
X176491D01*
Y187850D01*
X179691D01*
Y187050D01*
D02*
G37*
G36*
X321311Y11347D02*
X322886Y12922D01*
X319737D01*
X321311Y11347D01*
D02*
G37*
D10*
X327848Y80245D02*
G03*
X327848Y80245I-394J0D01*
G01*
X294384Y10953D02*
Y54260D01*
Y10953D02*
X309738D01*
Y54260D01*
X294384D02*
X309738D01*
D14*
X379063Y45058D02*
X379260Y45255D01*
X379654D01*
X379850Y45058D01*
Y44271D01*
X379654Y44074D01*
X379260D01*
X379063Y44271D01*
X378670Y45058D02*
X378473Y45255D01*
X378079D01*
X377883Y45058D01*
Y44861D01*
X378079Y44664D01*
X378276D01*
X378079D01*
X377883Y44467D01*
Y44271D01*
X378079Y44074D01*
X378473D01*
X378670Y44271D01*
X377489Y45058D02*
X377292Y45255D01*
X376899D01*
X376702Y45058D01*
Y44861D01*
X376899Y44664D01*
X377095D01*
X376899D01*
X376702Y44467D01*
Y44271D01*
X376899Y44074D01*
X377292D01*
X377489Y44271D01*
D15*
X353958Y41484D02*
G03*
X357895Y41484I1969J0D01*
G01*
X381391Y30245D02*
X385328D01*
X381391D02*
Y41268D01*
X385328D01*
Y30245D02*
Y41268D01*
X390446Y30245D02*
Y41268D01*
X386509D02*
X390446D01*
X386509Y30245D02*
Y41268D01*
Y30245D02*
X390446D01*
X376273Y31745D02*
X380210D01*
X376273D02*
Y42768D01*
X380210D01*
Y31745D02*
Y42768D01*
X371155Y31745D02*
X375092D01*
X371155D02*
Y42768D01*
X375092D01*
Y31745D02*
Y42768D01*
X326903Y88512D02*
X327061D01*
Y82213D02*
Y88512D01*
X326903Y82213D02*
X327061D01*
X316076Y82253D02*
X316195D01*
X316076D02*
Y88552D01*
X316195D01*
X308360Y93906D02*
Y102016D01*
Y93906D02*
X325289D01*
X308360Y102016D02*
X325289D01*
Y93906D02*
Y102016D01*
X308950Y87331D02*
X312888D01*
X308950Y84182D02*
X312888D01*
X318793Y69221D02*
X322730D01*
X318793Y72371D02*
X322730D01*
X310919Y68827D02*
X314856D01*
X310919Y71977D02*
X314856D01*
X339264Y47146D02*
Y51083D01*
X350288D01*
Y47146D02*
Y51083D01*
X339264Y47146D02*
X350288D01*
X364935Y46111D02*
X368714D01*
X364935Y52961D02*
X368714D01*
X348052Y40500D02*
Y41484D01*
X363800Y40500D02*
Y41484D01*
X348052Y6445D02*
Y7429D01*
Y6445D02*
X363800D01*
Y7429D01*
X348052Y41484D02*
X353958D01*
X357895D02*
X363800D01*
X377380Y5591D02*
X381317D01*
X377380D02*
Y16615D01*
X381317D01*
Y5591D02*
Y16615D01*
X337572Y30545D02*
X341509D01*
X337572D02*
Y41568D01*
X341509D01*
Y30545D02*
Y41568D01*
X332454D02*
X336391D01*
Y30545D02*
Y41568D01*
X332454Y30545D02*
X336391D01*
X332454D02*
Y41568D01*
X327314Y25596D02*
Y29533D01*
X338338D01*
Y25596D02*
Y29533D01*
X327314Y25596D02*
X338338D01*
X327114Y17046D02*
Y20983D01*
X338138D01*
Y17046D02*
Y20983D01*
X327114Y17046D02*
X338138D01*
X320130Y11347D02*
X322493D01*
X319737Y19221D02*
X323674D01*
X319737D02*
Y30245D01*
X323674D01*
Y19221D02*
Y30245D01*
X322338Y59396D02*
Y63333D01*
X311314Y59396D02*
X322338D01*
X311314D02*
Y63333D01*
X322338D01*
X389935Y18512D02*
Y22292D01*
X383084Y18512D02*
Y22292D01*
X381391Y46780D02*
Y57804D01*
X377454D02*
X381391D01*
X377454Y46780D02*
Y57804D01*
Y46780D02*
X381391D01*
X338084Y99930D02*
Y103867D01*
X327061Y99930D02*
X338084D01*
X327061D02*
Y103867D01*
X338084D01*
X370364Y25596D02*
X381388D01*
Y29533D01*
X370364D02*
X381388D01*
X370364Y25596D02*
Y29533D01*
X376199Y5591D02*
Y16615D01*
X372262D02*
X376199D01*
X372262Y5591D02*
Y16615D01*
Y5591D02*
X376199D01*
X324698Y76307D02*
X328636D01*
Y65284D02*
Y76307D01*
X324698Y65284D02*
X328636D01*
X324698D02*
Y76307D01*
X318886Y46848D02*
X322823D01*
X318886Y43699D02*
X322823D01*
X326366Y46848D02*
X330303D01*
X326366Y43699D02*
X330303D01*
X311406Y46848D02*
X315343D01*
X311406Y43699D02*
X315343D01*
X377244Y110997D02*
X375932D01*
X376588D01*
Y109029D01*
X375276Y108701D02*
X373964D01*
X373308Y109029D02*
Y110997D01*
X372324D01*
X371996Y110669D01*
Y110013D01*
X372324Y109685D01*
X373308D01*
X371340Y108701D02*
X370029D01*
X368061Y110669D02*
X368389Y110997D01*
X369045D01*
X369373Y110669D01*
Y109357D01*
X369045Y109029D01*
X368389D01*
X368061Y109357D01*
Y110013D01*
X368717D01*
X367405Y109029D02*
Y110997D01*
X366093Y109029D01*
Y110997D01*
X365437D02*
Y109029D01*
X364453D01*
X364125Y109357D01*
Y110669D01*
X364453Y110997D01*
X365437D01*
X296746Y55441D02*
Y56097D01*
Y55769D01*
X298714D01*
X298386Y55441D01*
X300814Y56074D02*
Y56402D01*
X301142Y56730D01*
X302782D01*
X301798Y58042D02*
X301470Y58370D01*
Y59026D01*
X301798Y59354D01*
X303110D01*
X303438Y59026D01*
Y58370D01*
X303110Y58042D01*
X302782D01*
X302454Y58370D01*
Y59354D01*
X329660Y88974D02*
X328020D01*
X327692Y89302D01*
Y89958D01*
X328020Y90286D01*
X329660D01*
X329332Y90942D02*
X329660Y91270D01*
Y91926D01*
X329332Y92254D01*
X329004D01*
X328676Y91926D01*
X328348Y92254D01*
X328020D01*
X327692Y91926D01*
Y91270D01*
X328020Y90942D01*
X328348D01*
X328676Y91270D01*
X329004Y90942D01*
X329332D01*
X328676Y91270D02*
Y91926D01*
X356760Y42324D02*
X355120D01*
X354792Y42652D01*
Y43308D01*
X355120Y43636D01*
X356760D01*
Y44292D02*
Y45604D01*
X356432D01*
X355120Y44292D01*
X354792D01*
X314942Y103340D02*
X316910D01*
Y104324D01*
X316582Y104652D01*
X315926D01*
X315598Y104324D01*
Y103340D01*
Y103996D02*
X314942Y104652D01*
X316910Y105308D02*
Y106620D01*
Y105964D01*
X314942D01*
Y108588D02*
Y107276D01*
X316254Y108588D01*
X316582D01*
X316910Y108260D01*
Y107604D01*
X316582Y107276D01*
X331392Y105341D02*
X333360D01*
Y106324D01*
X333032Y106652D01*
X332376D01*
X332048Y106324D01*
Y105341D01*
Y105996D02*
X331392Y106652D01*
X333032Y107308D02*
X333360Y107636D01*
Y108292D01*
X333032Y108620D01*
X332704D01*
X332376Y108292D01*
Y107964D01*
Y108292D01*
X332048Y108620D01*
X331720D01*
X331392Y108292D01*
Y107636D01*
X331720Y107308D01*
X333032Y109276D02*
X333360Y109604D01*
Y110260D01*
X333032Y110588D01*
X332704D01*
X332376Y110260D01*
Y109932D01*
Y110260D01*
X332048Y110588D01*
X331720D01*
X331392Y110260D01*
Y109604D01*
X331720Y109276D01*
X307842Y58941D02*
X309810D01*
Y59924D01*
X309482Y60252D01*
X308826D01*
X308498Y59924D01*
Y58941D01*
Y59597D02*
X307842Y60252D01*
X309482Y60908D02*
X309810Y61236D01*
Y61892D01*
X309482Y62220D01*
X309154D01*
X308826Y61892D01*
Y61564D01*
Y61892D01*
X308498Y62220D01*
X308170D01*
X307842Y61892D01*
Y61236D01*
X308170Y60908D01*
X309810Y64188D02*
X309482Y63532D01*
X308826Y62876D01*
X308170D01*
X307842Y63204D01*
Y63860D01*
X308170Y64188D01*
X308498D01*
X308826Y63860D01*
Y62876D01*
X330092Y68041D02*
X332060D01*
Y69024D01*
X331732Y69352D01*
X331076D01*
X330748Y69024D01*
Y68041D01*
Y68696D02*
X330092Y69352D01*
X331732Y70008D02*
X332060Y70336D01*
Y70992D01*
X331732Y71320D01*
X331404D01*
X331076Y70992D01*
Y70664D01*
Y70992D01*
X330748Y71320D01*
X330420D01*
X330092Y70992D01*
Y70336D01*
X330420Y70008D01*
X330092Y72960D02*
X332060D01*
X331076Y71976D01*
Y73288D01*
X372992Y18240D02*
X374960D01*
Y19224D01*
X374632Y19552D01*
X373976D01*
X373648Y19224D01*
Y18240D01*
Y18896D02*
X372992Y19552D01*
Y21520D02*
Y20208D01*
X374304Y21520D01*
X374632D01*
X374960Y21192D01*
Y20536D01*
X374632Y20208D01*
X373320Y22176D02*
X372992Y22504D01*
Y23160D01*
X373320Y23488D01*
X374632D01*
X374960Y23160D01*
Y22504D01*
X374632Y22176D01*
X374304D01*
X373976Y22504D01*
Y23488D01*
X378642Y59390D02*
X380610D01*
Y60374D01*
X380282Y60702D01*
X379626D01*
X379298Y60374D01*
Y59390D01*
Y60046D02*
X378642Y60702D01*
Y62670D02*
Y61358D01*
X379954Y62670D01*
X380282D01*
X380610Y62342D01*
Y61686D01*
X380282Y61358D01*
X380610Y64638D02*
X380282Y63982D01*
X379626Y63326D01*
X378970D01*
X378642Y63654D01*
Y64310D01*
X378970Y64638D01*
X379298D01*
X379626Y64310D01*
Y63326D01*
X331492Y10968D02*
X333460D01*
Y11952D01*
X333132Y12280D01*
X332476D01*
X332148Y11952D01*
Y10968D01*
Y11624D02*
X331492Y12280D01*
X333132Y12936D02*
X333460Y13264D01*
Y13920D01*
X333132Y14248D01*
X332804D01*
X332476Y13920D01*
Y13592D01*
Y13920D01*
X332148Y14248D01*
X331820D01*
X331492Y13920D01*
Y13264D01*
X331820Y12936D01*
X331492Y14904D02*
Y15560D01*
Y15232D01*
X333460D01*
X333132Y14904D01*
X383492Y42840D02*
X385460D01*
Y43824D01*
X385132Y44152D01*
X384476D01*
X384148Y43824D01*
Y42840D01*
Y43496D02*
X383492Y44152D01*
Y46120D02*
Y44808D01*
X384804Y46120D01*
X385132D01*
X385460Y45792D01*
Y45136D01*
X385132Y44808D01*
X385460Y48088D02*
Y46776D01*
X384476D01*
X384804Y47432D01*
Y47760D01*
X384476Y48088D01*
X383820D01*
X383492Y47760D01*
Y47104D01*
X383820Y46776D01*
X327092Y31040D02*
X329060D01*
Y32024D01*
X328732Y32352D01*
X328076D01*
X327748Y32024D01*
Y31040D01*
Y31696D02*
X327092Y32352D01*
X328732Y33008D02*
X329060Y33336D01*
Y33992D01*
X328732Y34320D01*
X328404D01*
X328076Y33992D01*
Y33664D01*
Y33992D01*
X327748Y34320D01*
X327420D01*
X327092Y33992D01*
Y33336D01*
X327420Y33008D01*
X327092Y36288D02*
Y34976D01*
X328404Y36288D01*
X328732D01*
X329060Y35960D01*
Y35304D01*
X328732Y34976D01*
X366992Y25091D02*
X368960D01*
Y26074D01*
X368632Y26402D01*
X367976D01*
X367648Y26074D01*
Y25091D01*
Y25746D02*
X366992Y26402D01*
Y28370D02*
Y27058D01*
X368304Y28370D01*
X368632D01*
X368960Y28042D01*
Y27386D01*
X368632Y27058D01*
X368960Y29026D02*
Y30338D01*
X368632D01*
X367320Y29026D01*
X366992D01*
X315892Y20090D02*
X317860D01*
Y21074D01*
X317532Y21402D01*
X316876D01*
X316548Y21074D01*
Y20090D01*
Y20746D02*
X315892Y21402D01*
X317532Y22058D02*
X317860Y22386D01*
Y23042D01*
X317532Y23370D01*
X317204D01*
X316876Y23042D01*
Y22714D01*
Y23042D01*
X316548Y23370D01*
X316220D01*
X315892Y23042D01*
Y22386D01*
X316220Y22058D01*
X317860Y25338D02*
Y24026D01*
X316876D01*
X317204Y24682D01*
Y25010D01*
X316876Y25338D01*
X316220D01*
X315892Y25010D01*
Y24354D01*
X316220Y24026D01*
X366942Y34490D02*
X368910D01*
Y35474D01*
X368582Y35802D01*
X367926D01*
X367598Y35474D01*
Y34490D01*
Y35146D02*
X366942Y35802D01*
Y37770D02*
Y36458D01*
X368254Y37770D01*
X368582D01*
X368910Y37442D01*
Y36786D01*
X368582Y36458D01*
Y38426D02*
X368910Y38754D01*
Y39410D01*
X368582Y39738D01*
X368254D01*
X367926Y39410D01*
X367598Y39738D01*
X367270D01*
X366942Y39410D01*
Y38754D01*
X367270Y38426D01*
X367598D01*
X367926Y38754D01*
X368254Y38426D01*
X368582D01*
X367926Y38754D02*
Y39410D01*
X342250Y43130D02*
Y45098D01*
X341266D01*
X340938Y44770D01*
Y44114D01*
X341266Y43786D01*
X342250D01*
X341594D02*
X340938Y43130D01*
X340282Y44770D02*
X339954Y45098D01*
X339298D01*
X338970Y44770D01*
Y44442D01*
X339298Y44114D01*
X339626D01*
X339298D01*
X338970Y43786D01*
Y43458D01*
X339298Y43130D01*
X339954D01*
X340282Y43458D01*
X338314Y44770D02*
X337986Y45098D01*
X337330D01*
X337002Y44770D01*
Y43458D01*
X337330Y43130D01*
X337986D01*
X338314Y43458D01*
Y44770D01*
X317010Y11324D02*
X315042D01*
Y12308D01*
X315370Y12636D01*
X316682D01*
X317010Y12308D01*
Y11324D01*
Y13292D02*
Y14604D01*
X316682D01*
X315370Y13292D01*
X315042D01*
X308682Y68952D02*
X309010Y68624D01*
Y67968D01*
X308682Y67641D01*
X307370D01*
X307042Y67968D01*
Y68624D01*
X307370Y68952D01*
X307042Y70592D02*
X309010D01*
X308026Y69608D01*
Y70920D01*
X307042Y72888D02*
Y71576D01*
X308354Y72888D01*
X308682D01*
X309010Y72560D01*
Y71904D01*
X308682Y71576D01*
X320482Y77977D02*
X320810Y77649D01*
Y76994D01*
X320482Y76666D01*
X319170D01*
X318842Y76994D01*
Y77649D01*
X319170Y77977D01*
X318842Y79617D02*
X320810D01*
X319826Y78633D01*
Y79945D01*
X320482Y80601D02*
X320810Y80929D01*
Y81585D01*
X320482Y81913D01*
X319170D01*
X318842Y81585D01*
Y80929D01*
X319170Y80601D01*
X320482D01*
X306882Y84602D02*
X307210Y84274D01*
Y83618D01*
X306882Y83290D01*
X305570D01*
X305242Y83618D01*
Y84274D01*
X305570Y84602D01*
X305242Y86242D02*
X307210D01*
X306226Y85258D01*
Y86570D01*
X306882Y87226D02*
X307210Y87554D01*
Y88210D01*
X306882Y88538D01*
X306554D01*
X306226Y88210D01*
Y87882D01*
Y88210D01*
X305898Y88538D01*
X305570D01*
X305242Y88210D01*
Y87554D01*
X305570Y87226D01*
X380082Y19452D02*
X380410Y19124D01*
Y18469D01*
X380082Y18140D01*
X378770D01*
X378442Y18469D01*
Y19124D01*
X378770Y19452D01*
X380082Y20108D02*
X380410Y20436D01*
Y21092D01*
X380082Y21420D01*
X379754D01*
X379426Y21092D01*
Y20764D01*
Y21092D01*
X379098Y21420D01*
X378770D01*
X378442Y21092D01*
Y20436D01*
X378770Y20108D01*
X378442Y23060D02*
X380410D01*
X379426Y22076D01*
Y23388D01*
X338182Y48352D02*
X338510Y48024D01*
Y47368D01*
X338182Y47041D01*
X336870D01*
X336542Y47368D01*
Y48024D01*
X336870Y48352D01*
X338182Y49008D02*
X338510Y49336D01*
Y49992D01*
X338182Y50320D01*
X337854D01*
X337526Y49992D01*
Y49664D01*
Y49992D01*
X337198Y50320D01*
X336870D01*
X336542Y49992D01*
Y49336D01*
X336870Y49008D01*
X338510Y52288D02*
X338182Y51632D01*
X337526Y50976D01*
X336870D01*
X336542Y51304D01*
Y51960D01*
X336870Y52288D01*
X337198D01*
X337526Y51960D01*
Y50976D01*
X356882Y48402D02*
X357210Y48074D01*
Y47418D01*
X356882Y47091D01*
X355570D01*
X355242Y47418D01*
Y48074D01*
X355570Y48402D01*
X356882Y49058D02*
X357210Y49386D01*
Y50042D01*
X356882Y50370D01*
X356554D01*
X356226Y50042D01*
Y49714D01*
Y50042D01*
X355898Y50370D01*
X355570D01*
X355242Y50042D01*
Y49386D01*
X355570Y49058D01*
X357210Y52338D02*
Y51026D01*
X356226D01*
X356554Y51682D01*
Y52010D01*
X356226Y52338D01*
X355570D01*
X355242Y52010D01*
Y51354D01*
X355570Y51026D01*
X389332Y44152D02*
X389660Y43824D01*
Y43169D01*
X389332Y42840D01*
X388020D01*
X387692Y43169D01*
Y43824D01*
X388020Y44152D01*
X389332Y44808D02*
X389660Y45136D01*
Y45792D01*
X389332Y46120D01*
X389004D01*
X388676Y45792D01*
Y45464D01*
Y45792D01*
X388348Y46120D01*
X388020D01*
X387692Y45792D01*
Y45136D01*
X388020Y44808D01*
X387692Y48088D02*
Y46776D01*
X389004Y48088D01*
X389332D01*
X389660Y47760D01*
Y47104D01*
X389332Y46776D01*
X328932Y52452D02*
X329260Y52124D01*
Y51468D01*
X328932Y51140D01*
X327620D01*
X327292Y51468D01*
Y52124D01*
X327620Y52452D01*
X328932Y53108D02*
X329260Y53436D01*
Y54092D01*
X328932Y54420D01*
X328604D01*
X328276Y54092D01*
Y53764D01*
Y54092D01*
X327948Y54420D01*
X327620D01*
X327292Y54092D01*
Y53436D01*
X327620Y53108D01*
X329260Y55076D02*
Y56388D01*
X328932D01*
X327620Y55076D01*
X327292D01*
X321432Y52452D02*
X321760Y52124D01*
Y51468D01*
X321432Y51140D01*
X320120D01*
X319792Y51468D01*
Y52124D01*
X320120Y52452D01*
X321432Y53108D02*
X321760Y53436D01*
Y54092D01*
X321432Y54420D01*
X321104D01*
X320776Y54092D01*
Y53764D01*
Y54092D01*
X320448Y54420D01*
X320120D01*
X319792Y54092D01*
Y53436D01*
X320120Y53108D01*
Y55076D02*
X319792Y55404D01*
Y56060D01*
X320120Y56388D01*
X321432D01*
X321760Y56060D01*
Y55404D01*
X321432Y55076D01*
X321104D01*
X320776Y55404D01*
Y56388D01*
X313532Y52452D02*
X313860Y52124D01*
Y51468D01*
X313532Y51140D01*
X312220D01*
X311892Y51468D01*
Y52124D01*
X312220Y52452D01*
X311892Y54092D02*
X313860D01*
X312876Y53108D01*
Y54420D01*
X311892Y55076D02*
Y55732D01*
Y55404D01*
X313860D01*
X313532Y55076D01*
X334732Y44302D02*
X335060Y43974D01*
Y43319D01*
X334732Y42990D01*
X333420D01*
X333092Y43319D01*
Y43974D01*
X333420Y44302D01*
X334732Y44958D02*
X335060Y45286D01*
Y45942D01*
X334732Y46270D01*
X334404D01*
X334076Y45942D01*
Y45614D01*
Y45942D01*
X333748Y46270D01*
X333420D01*
X333092Y45942D01*
Y45286D01*
X333420Y44958D01*
X334732Y46926D02*
X335060Y47254D01*
Y47910D01*
X334732Y48238D01*
X334404D01*
X334076Y47910D01*
X333748Y48238D01*
X333420D01*
X333092Y47910D01*
Y47254D01*
X333420Y46926D01*
X333748D01*
X334076Y47254D01*
X334404Y46926D01*
X334732D01*
X334076Y47254D02*
Y47910D01*
X389232Y8230D02*
X389560Y7902D01*
Y7247D01*
X389232Y6919D01*
X387920D01*
X387592Y7247D01*
Y7902D01*
X387920Y8230D01*
X389232Y8886D02*
X389560Y9214D01*
Y9870D01*
X389232Y10198D01*
X388904D01*
X388576Y9870D01*
Y9542D01*
Y9870D01*
X388248Y10198D01*
X387920D01*
X387592Y9870D01*
Y9214D01*
X387920Y8886D01*
X387592Y10854D02*
Y11510D01*
Y11182D01*
X389560D01*
X389232Y10854D01*
D20*
X378031Y98858D02*
G03*
X378031Y98858I-7874J0D01*
G01*
M02*
