G04*
G04 #@! TF.GenerationSoftware,Altium Limited,Altium Designer,24.2.2 (26)*
G04*
G04 Layer_Color=255*
%FSLAX25Y25*%
%MOIN*%
G70*
G04*
G04 #@! TF.SameCoordinates,F296BD43-7A1A-4B5F-AFD2-8FBC70BB071E*
G04*
G04*
G04 #@! TF.FilePolarity,Positive*
G04*
G01*
G75*
%ADD26R,0.03800X0.03100*%
%ADD30R,0.05512X0.03150*%
%ADD40R,0.03100X0.03800*%
%ADD110C,0.08268*%
%ADD150C,0.03937*%
%ADD151O,0.05906X0.04724*%
%ADD152C,0.05906*%
%ADD153C,0.09843*%
%ADD154C,0.01181*%
%ADD155O,0.14173X0.07087*%
%ADD156O,0.07874X0.15748*%
%ADD157O,0.15748X0.07874*%
%ADD158C,0.03543*%
%ADD159C,0.07874*%
%ADD160C,0.10039*%
%ADD161O,0.07087X0.14173*%
%ADD213R,0.02362X0.04331*%
%ADD214R,0.04528X0.06693*%
%ADD215R,0.05669X0.07165*%
G04:AMPARAMS|DCode=216|XSize=62.99mil|YSize=24.02mil|CornerRadius=3mil|HoleSize=0mil|Usage=FLASHONLY|Rotation=180.000|XOffset=0mil|YOffset=0mil|HoleType=Round|Shape=RoundedRectangle|*
%AMROUNDEDRECTD216*
21,1,0.06299,0.01801,0,0,180.0*
21,1,0.05699,0.02402,0,0,180.0*
1,1,0.00600,-0.02849,0.00901*
1,1,0.00600,0.02849,0.00901*
1,1,0.00600,0.02849,-0.00901*
1,1,0.00600,-0.02849,-0.00901*
%
%ADD216ROUNDEDRECTD216*%
%ADD217R,0.07165X0.05669*%
D26*
X341626Y49114D02*
D03*
X347926D02*
D03*
X329676Y27564D02*
D03*
X335976D02*
D03*
X329476Y19014D02*
D03*
X335776D02*
D03*
X319976Y61364D02*
D03*
X313676D02*
D03*
X335722Y101898D02*
D03*
X329422D02*
D03*
X379026Y27564D02*
D03*
X372726D02*
D03*
D30*
X310919Y89497D02*
D03*
Y82016D02*
D03*
X320761Y67056D02*
D03*
Y74536D02*
D03*
X312888Y66662D02*
D03*
Y74142D02*
D03*
X321311Y16662D02*
D03*
Y9182D02*
D03*
X320854Y49014D02*
D03*
Y41533D02*
D03*
X328335Y49014D02*
D03*
Y41533D02*
D03*
X313374Y49014D02*
D03*
Y41533D02*
D03*
D40*
X383360Y32606D02*
D03*
Y38906D02*
D03*
X388478D02*
D03*
Y32606D02*
D03*
X378242Y34106D02*
D03*
Y40406D02*
D03*
X373124Y34106D02*
D03*
Y40406D02*
D03*
X379348Y7953D02*
D03*
Y14253D02*
D03*
X339541Y32906D02*
D03*
Y39206D02*
D03*
X334422D02*
D03*
Y32906D02*
D03*
X321705Y21583D02*
D03*
Y27883D02*
D03*
X379423Y55442D02*
D03*
Y49142D02*
D03*
X374230Y14253D02*
D03*
Y7953D02*
D03*
X326667Y73945D02*
D03*
Y67645D02*
D03*
D110*
X181879Y9557D02*
D03*
X5980Y180874D02*
D03*
D150*
X345339Y81945D02*
D03*
Y96087D02*
D03*
X331197D02*
D03*
D151*
X303439Y47371D02*
D03*
Y41465D02*
D03*
Y35560D02*
D03*
Y29654D02*
D03*
Y23749D02*
D03*
Y17843D02*
D03*
X274099Y18150D02*
D03*
Y24056D02*
D03*
Y29961D02*
D03*
Y35867D02*
D03*
Y41772D02*
D03*
Y47678D02*
D03*
D152*
X202579Y177374D02*
D03*
X216498Y191293D02*
D03*
X13465Y293347D02*
D03*
X33150D02*
D03*
X13465Y248858D02*
D03*
X33150D02*
D03*
D153*
X193347Y323228D02*
D03*
X223346Y253228D02*
D03*
Y313228D02*
D03*
X193347Y293228D02*
D03*
Y253228D02*
D03*
X243740Y323228D02*
D03*
X273740Y253228D02*
D03*
Y313228D02*
D03*
X243740Y293228D02*
D03*
Y253228D02*
D03*
D154*
X55379Y55374D02*
D03*
Y62598D02*
D03*
X58991Y51762D02*
D03*
Y58986D02*
D03*
Y66211D02*
D03*
X62603Y55374D02*
D03*
Y62598D02*
D03*
X66215Y51762D02*
D03*
Y58986D02*
D03*
Y66211D02*
D03*
X69828Y55374D02*
D03*
Y62598D02*
D03*
D155*
X177548Y52077D02*
D03*
D156*
X200776Y39872D02*
D03*
X23697Y180874D02*
D03*
D157*
X181879Y27274D02*
D03*
X36295Y161976D02*
D03*
D158*
X118193Y9224D02*
D03*
X130004D02*
D03*
D159*
X76850Y227992D02*
D03*
X22279Y110632D02*
D03*
Y130316D02*
D03*
X159134Y345315D02*
D03*
X41024D02*
D03*
X96535Y306732D02*
D03*
X135906D02*
D03*
X155591Y227992D02*
D03*
D160*
X22520Y328780D02*
D03*
Y348780D02*
D03*
X268740Y345709D02*
D03*
X248740D02*
D03*
X218347D02*
D03*
X198346D02*
D03*
D161*
X48500Y185205D02*
D03*
D213*
X325289Y80245D02*
D03*
X321549D02*
D03*
X317809D02*
D03*
X325289Y90481D02*
D03*
X317809D02*
D03*
D214*
X311313Y97961D02*
D03*
X322336D02*
D03*
D215*
X361565Y49536D02*
D03*
X372084D02*
D03*
D216*
X345670Y38964D02*
D03*
Y33964D02*
D03*
Y28964D02*
D03*
Y23964D02*
D03*
Y18964D02*
D03*
Y13964D02*
D03*
Y8964D02*
D03*
X366182D02*
D03*
Y13964D02*
D03*
Y18964D02*
D03*
Y23964D02*
D03*
Y28964D02*
D03*
Y33964D02*
D03*
Y38964D02*
D03*
D217*
X386509Y15142D02*
D03*
Y25662D02*
D03*
M02*
