G04*
G04 #@! TF.GenerationSoftware,Altium Limited,Altium Designer,24.2.2 (26)*
G04*
G04 Layer_Color=8421504*
%FSLAX25Y25*%
%MOIN*%
G70*
G04*
G04 #@! TF.SameCoordinates,F296BD43-7A1A-4B5F-AFD2-8FBC70BB071E*
G04*
G04*
G04 #@! TF.FilePolarity,Positive*
G04*
G01*
G75*
%ADD24R,0.03150X0.05512*%
%ADD25R,0.04150X0.06512*%
%ADD26R,0.03800X0.03100*%
%ADD27R,0.04543X0.04150*%
%ADD28R,0.12811X0.06906*%
%ADD29R,0.06118X0.03559*%
%ADD30R,0.05512X0.03150*%
%ADD31R,0.06512X0.04150*%
G04:AMPARAMS|DCode=32|XSize=72.99mil|YSize=59.21mil|CornerRadius=0mil|HoleSize=0mil|Usage=FLASHONLY|Rotation=237.000|XOffset=0mil|YOffset=0mil|HoleType=Round|Shape=Rectangle|*
%AMROTATEDRECTD32*
4,1,4,-0.00495,0.04673,0.04471,0.01448,0.00495,-0.04673,-0.04471,-0.01448,-0.00495,0.04673,0.0*
%
%ADD32ROTATEDRECTD32*%

%ADD33R,0.02969X0.02575*%
%ADD34R,0.04150X0.04543*%
%ADD35R,0.01181X0.04724*%
%ADD36R,0.04724X0.01181*%
%ADD37R,0.06236X0.06236*%
%ADD38R,0.04543X0.08874*%
%ADD39R,0.08874X0.04543*%
%ADD40R,0.03100X0.03800*%
G04:AMPARAMS|DCode=41|XSize=57.64mil|YSize=33.23mil|CornerRadius=7.9mil|HoleSize=0mil|Usage=FLASHONLY|Rotation=270.000|XOffset=0mil|YOffset=0mil|HoleType=Round|Shape=RoundedRectangle|*
%AMROUNDEDRECTD41*
21,1,0.05764,0.01742,0,0,270.0*
21,1,0.04183,0.03323,0,0,270.0*
1,1,0.01581,-0.00871,-0.02092*
1,1,0.01581,-0.00871,0.02092*
1,1,0.01581,0.00871,0.02092*
1,1,0.01581,0.00871,-0.02092*
%
%ADD41ROUNDEDRECTD41*%
%ADD42R,0.04937X0.02969*%
%ADD43R,0.03087X0.02142*%
%ADD44R,0.08480X0.08480*%
%ADD45R,0.07299X0.06512*%
%ADD46R,0.06709X0.06118*%
%ADD47R,0.02575X0.06315*%
%ADD48R,0.16354X0.25410*%
%ADD49R,0.13992X0.18323*%
%ADD50R,0.03756X0.06906*%
%ADD51R,0.04937X0.04150*%
%ADD52R,0.04724X0.06299*%
%ADD53R,0.12992X0.06299*%
%ADD54R,0.05724X0.03559*%
%ADD55R,0.14386X0.06118*%
%ADD56R,0.09465X0.09858*%
%ADD57R,0.06102X0.04724*%
%ADD58R,0.05906X0.01968*%
%ADD59R,0.08874X0.05331*%
%ADD60R,0.25410X0.16354*%
%ADD61R,0.18323X0.13992*%
%ADD62R,0.05724X0.07299*%
D24*
X334869Y65674D02*
D03*
X126379Y88074D02*
D03*
X38079Y12604D02*
D03*
Y19904D02*
D03*
X163079Y161134D02*
D03*
X47239Y136074D02*
D03*
D25*
X342350Y65674D02*
D03*
X133859Y88074D02*
D03*
X30598Y12604D02*
D03*
Y19904D02*
D03*
X170559Y161134D02*
D03*
X54719Y136074D02*
D03*
D26*
X335109Y58424D02*
D03*
X341409D02*
D03*
X341418Y39424D02*
D03*
X335118D02*
D03*
X127329Y115674D02*
D03*
X133629D02*
D03*
X156089Y105252D02*
D03*
X162389D02*
D03*
X178329Y82374D02*
D03*
X184629D02*
D03*
X178379Y87574D02*
D03*
X184679D02*
D03*
X156089Y100134D02*
D03*
X162389D02*
D03*
X156089Y95016D02*
D03*
X162389D02*
D03*
X172929Y93074D02*
D03*
X179229D02*
D03*
X172479Y115974D02*
D03*
X178779D02*
D03*
X211129Y126474D02*
D03*
X204829D02*
D03*
X257629Y103591D02*
D03*
X263929D02*
D03*
X257629Y108315D02*
D03*
X263929D02*
D03*
X247579Y95174D02*
D03*
X253879D02*
D03*
X239029Y78274D02*
D03*
X232729D02*
D03*
X237440Y227304D02*
D03*
X243740D02*
D03*
X250929Y227274D02*
D03*
X257229D02*
D03*
X37469Y6234D02*
D03*
X31169D02*
D03*
X96429Y117174D02*
D03*
X102729D02*
D03*
X65229Y115874D02*
D03*
X58929D02*
D03*
X71929Y19954D02*
D03*
X65629D02*
D03*
X200429Y225574D02*
D03*
X206729D02*
D03*
D27*
X334872Y52414D02*
D03*
Y44934D02*
D03*
X342746Y48674D02*
D03*
X57706Y13844D02*
D03*
Y21324D02*
D03*
X49832Y17584D02*
D03*
X54416Y120834D02*
D03*
Y128314D02*
D03*
X46542Y124574D02*
D03*
D28*
X76668Y157174D02*
D03*
X100290D02*
D03*
D29*
X269302Y142274D02*
D03*
Y147274D02*
D03*
Y152274D02*
D03*
Y157274D02*
D03*
X247255D02*
D03*
Y152274D02*
D03*
Y147274D02*
D03*
Y142274D02*
D03*
D30*
X256179Y32114D02*
D03*
X198829Y92214D02*
D03*
X170279Y134914D02*
D03*
X239879Y142014D02*
D03*
X276379Y152274D02*
D03*
X263856Y48057D02*
D03*
X257164D02*
D03*
X250077D02*
D03*
X73086Y128074D02*
D03*
X79779Y128074D02*
D03*
X143096Y169634D02*
D03*
X135679D02*
D03*
X179110Y134914D02*
D03*
D31*
X256179Y24634D02*
D03*
X198829Y84734D02*
D03*
X170279Y127434D02*
D03*
X239879Y134534D02*
D03*
X276379Y159754D02*
D03*
X263856Y40576D02*
D03*
X257164D02*
D03*
X250077D02*
D03*
X73086Y135554D02*
D03*
X79779Y135554D02*
D03*
X143096Y177114D02*
D03*
X135679D02*
D03*
X179110Y127434D02*
D03*
D32*
X186902Y98328D02*
D03*
X194835Y110545D02*
D03*
X187571Y115262D02*
D03*
X179638Y103045D02*
D03*
D33*
X274167Y239803D02*
D03*
X263931D02*
D03*
X190236Y239803D02*
D03*
X200472D02*
D03*
D34*
X255019Y240091D02*
D03*
X258759Y232217D02*
D03*
X251279D02*
D03*
X205369D02*
D03*
X212849D02*
D03*
X209109Y240091D02*
D03*
D35*
X211042Y118746D02*
D03*
X213011D02*
D03*
X214979D02*
D03*
X216948D02*
D03*
X218916D02*
D03*
X220884D02*
D03*
X222853D02*
D03*
X224821D02*
D03*
X226790D02*
D03*
X228759D02*
D03*
X230727D02*
D03*
X232696D02*
D03*
Y85282D02*
D03*
X230727D02*
D03*
X228759D02*
D03*
X226790D02*
D03*
X224821D02*
D03*
X222853D02*
D03*
X220884D02*
D03*
X218916D02*
D03*
X216948D02*
D03*
X214979D02*
D03*
X213011D02*
D03*
X211042D02*
D03*
D36*
X238601Y112841D02*
D03*
Y110872D02*
D03*
Y108904D02*
D03*
Y106935D02*
D03*
Y104967D02*
D03*
Y102998D02*
D03*
Y101030D02*
D03*
Y99061D02*
D03*
Y97093D02*
D03*
Y95124D02*
D03*
Y93156D02*
D03*
Y91187D02*
D03*
X205136D02*
D03*
Y93156D02*
D03*
Y95124D02*
D03*
Y97093D02*
D03*
Y99061D02*
D03*
Y101030D02*
D03*
Y102998D02*
D03*
Y104967D02*
D03*
Y106935D02*
D03*
Y108904D02*
D03*
Y110872D02*
D03*
Y112841D02*
D03*
D37*
X69828Y66211D02*
D03*
X55379D02*
D03*
X62603D02*
D03*
X55379Y51762D02*
D03*
Y58986D02*
D03*
X62603Y51762D02*
D03*
Y58986D02*
D03*
X69828D02*
D03*
Y51762D02*
D03*
D38*
X33076Y96388D02*
D03*
X38076D02*
D03*
X43076D02*
D03*
X48076D02*
D03*
X53076D02*
D03*
X58076D02*
D03*
X63076D02*
D03*
X68076D02*
D03*
X73076D02*
D03*
X78076D02*
D03*
X83076D02*
D03*
X88076D02*
D03*
X93076D02*
D03*
X98076D02*
D03*
Y29459D02*
D03*
X93076D02*
D03*
X88076D02*
D03*
X83076D02*
D03*
X78076D02*
D03*
X73076D02*
D03*
X68076D02*
D03*
X63076D02*
D03*
X58076D02*
D03*
X53076D02*
D03*
X48076D02*
D03*
X43076D02*
D03*
X38076D02*
D03*
X33076D02*
D03*
D39*
X102013Y85423D02*
D03*
Y80423D02*
D03*
Y75423D02*
D03*
Y70423D02*
D03*
Y65423D02*
D03*
Y60423D02*
D03*
Y55423D02*
D03*
Y50423D02*
D03*
Y45423D02*
D03*
Y40423D02*
D03*
D40*
X216579Y135524D02*
D03*
Y129224D02*
D03*
X228179Y142124D02*
D03*
Y148424D02*
D03*
X233179D02*
D03*
Y142124D02*
D03*
X244579Y113874D02*
D03*
Y120174D02*
D03*
X225079Y72024D02*
D03*
Y65724D02*
D03*
X218079Y71524D02*
D03*
Y65224D02*
D03*
X103379Y9724D02*
D03*
Y16024D02*
D03*
X218109Y231964D02*
D03*
Y225664D02*
D03*
X44369Y17384D02*
D03*
Y11084D02*
D03*
D41*
X233020Y44465D02*
D03*
X240500D02*
D03*
X236760D02*
D03*
X233020Y34583D02*
D03*
X236760D02*
D03*
X240500D02*
D03*
D42*
X276379Y142509D02*
D03*
Y146839D02*
D03*
D43*
X281579Y149094D02*
D03*
Y151654D02*
D03*
X249579Y28295D02*
D03*
Y30854D02*
D03*
D44*
X240203Y7708D02*
D03*
X230754D02*
D03*
D45*
X248077Y17354D02*
D03*
X222880D02*
D03*
D46*
X248963Y7708D02*
D03*
X221994D02*
D03*
D47*
X240597Y18240D02*
D03*
X238038D02*
D03*
X235479D02*
D03*
X232920D02*
D03*
X230361D02*
D03*
D48*
X156485Y24518D02*
D03*
X207272D02*
D03*
D49*
X184438Y59754D02*
D03*
D50*
X115241Y16114D02*
D03*
X127051D02*
D03*
X132957D02*
D03*
D51*
X109729Y13358D02*
D03*
Y5090D02*
D03*
X138469Y13358D02*
D03*
Y5090D02*
D03*
D52*
X151758Y169879D02*
D03*
X169868D02*
D03*
X160813D02*
D03*
D53*
Y195076D02*
D03*
D54*
X126339Y95034D02*
D03*
Y100034D02*
D03*
Y105034D02*
D03*
Y110034D02*
D03*
X149173D02*
D03*
Y105034D02*
D03*
Y100034D02*
D03*
Y95034D02*
D03*
D55*
X122579Y126606D02*
D03*
Y134874D02*
D03*
D56*
X138839Y126603D02*
D03*
Y143925D02*
D03*
D57*
X110197Y200640D02*
D03*
X75787D02*
D03*
X110197Y180541D02*
D03*
X75787D02*
D03*
D58*
X87368Y123074D02*
D03*
Y128074D02*
D03*
Y133074D02*
D03*
Y138074D02*
D03*
X110990D02*
D03*
Y133074D02*
D03*
Y128074D02*
D03*
Y123074D02*
D03*
D59*
X240236Y216890D02*
D03*
Y206890D02*
D03*
Y196890D02*
D03*
Y186890D02*
D03*
Y176890D02*
D03*
D60*
X20941Y206268D02*
D03*
Y155480D02*
D03*
D61*
X56177Y178315D02*
D03*
D62*
X55067Y200374D02*
D03*
X66091D02*
D03*
M02*
