M48
;Layer_Color=9474304
;FILE_FORMAT=2:5
INCH,LZ
;TYPE=PLATED
T01F00S00C0.00787
T02F00S00C0.00984
T03F00S00C0.01181
T04F00S00C0.01200
T05F00S00C0.01378
T06F00S00C0.01575
T07F00S00C0.01600
T08F00S00C0.01968
T09F00S00C0.02756
T10F00S00C0.03150
T11F00S00C0.03543
T12F00S00C0.03937
T15F00S00C0.05118
T16F00S00C0.06693
;TYPE=NON_PLATED
T17F00S00C0.03543
T18F00S00C0.08268
%
T01
X0058991Y0051762
Y0058986
Y0066211
X0062603Y0062598
X0066215Y0066211
Y0058986
X0062603Y0055374
X0066215Y0051762
X0069828Y0055374
Y0062598
X0055379
Y0055374
T02
X023676Y0049174
T03
X0228834Y0023924
X0230779Y0065578
X0233979Y0068556
X0232679Y0074824
X0274895Y010306
X0276679Y0104844
X0194379Y0092374
T04
X0236979Y0038524
T05
X0041849Y0006934
X0044899
X0047949
X0078579Y0019874
X0127079Y0023555
X0250079Y0034074
X0252279Y0089174
X0222928Y0077025
X0215079Y0075374
X0214583Y0123394
X0219579Y0125374
X0222895Y0125927
X0226076Y0136474
X0229979Y0136274
X0233379Y0137774
X0247579Y0135874
X0234579Y0153374
X0225579Y0156374
X0255629Y0176524
X0282029Y0145474
X0281929Y0142374
X020827Y0086924
X0206779Y0081424
X0210079Y0069274
Y0059374
X0167079Y0103874
X0148679Y0121874
X0156579Y0146374
Y0151374
Y0156374
X0126279Y0145074
Y0141074
X0096509Y0148354
X0065079Y0129474
Y0125474
X0071879Y0118474
X0115729Y0093224
Y0090224
Y0087224
X0042079Y0104874
X004556Y0110355
X0042569Y0175544
Y0181614
X0042669Y0188014
X0057649Y0187324
Y0192744
X0231589Y020689
X0248883Y019689
Y018689
T06
X0026779Y0006174
X0027079Y0012824
Y0019824
X0054729Y0021174
X0255979Y0017824
X0260979
X0267229Y0018074
Y0010024
X0260729
X0255729
X0321707Y0027814
X0333907Y0023114
X0369007Y0005264
X0374007
X0380857Y0056714
X0311607Y0079664
X0313357Y0093864
X0270329Y0115324
X0265329
X0260329
X0248529Y0113824
X0241579Y0126924
X0239079Y0073974
X0250129Y0053574
X0254129
X0259129
X0263129
X0280829Y0158474
X0208579Y0168374
Y0172374
X0202579
Y0168374
X0196029Y0172374
Y0177374
X0168879Y0183574
X0164879
X0160879
X0156879
X0145029Y0145924
Y0142924
Y0139924
X0157879Y0126424
X0163379
X0187879Y0126974
X0192379
Y0135974
X0187879
X0139429Y0099874
Y0094374
Y0089374
X0223129Y0232224
X0227629
X0232129
X0246829Y0217024
X0252329
X0257829
T07
X0340507Y0096014
T08
X0345339Y0081945
Y0096087
X0331197
T09
X0202579Y0177374
X003315Y0248858
X0013465
Y0293347
X003315
X0216498Y0191293
T10
X0274099Y001815
Y0024056
X0303439Y0023749
Y0017843
Y0029654
Y003556
Y0041465
Y0047371
X0274099Y0047678
Y0041772
Y0035867
Y0029961
X0022279Y0110632
Y0130316
T11
X007685Y0227992
X0155591
X0135906Y0306732
X0096535
T12
X0159134Y0345315
X0041024
T15
X0193347Y0253228
Y0293228
Y0323228
X0223346Y0313228
X024374Y0323228
Y0293228
Y0253228
X0223346Y0253228
X027374Y0253228
Y0313228
T16
X002252Y032878
X0218347Y0345709
X024874
X026874
X0198346
X002252Y034878
T17
X0118193Y0009224
X0130004
T18
X0181879Y0009557
X000598Y0180874
M30
