G04*
G04 #@! TF.GenerationSoftware,Altium Limited,Altium Designer,24.2.2 (26)*
G04*
G04 Layer_Color=2752767*
%FSLAX25Y25*%
%MOIN*%
G70*
G04*
G04 #@! TF.SameCoordinates,F296BD43-7A1A-4B5F-AFD2-8FBC70BB071E*
G04*
G04*
G04 #@! TF.FilePolarity,Positive*
G04*
G01*
G75*
%ADD17C,0.00500*%
%ADD228C,0.00667*%
%ADD229C,0.00400*%
D17*
X301439Y45371D02*
Y49371D01*
X305439D01*
Y45371D01*
X301439D01*
Y39465D02*
Y43465D01*
X305439D01*
Y39465D01*
X301439D01*
Y33560D02*
Y37560D01*
X305439D01*
Y33560D01*
X301439D01*
Y27654D02*
Y31654D01*
X305439D01*
Y27654D01*
X301439D01*
Y21749D02*
Y25749D01*
X305439D01*
Y21749D01*
X301439D01*
Y15843D02*
Y19843D01*
X305439D01*
Y15843D01*
X301439D01*
X201579Y176374D02*
Y175374D01*
X203579D01*
Y176374D01*
X204579D01*
Y178374D01*
X203579D01*
Y179374D01*
X201579D01*
Y178374D01*
X200579D01*
Y176374D01*
X201579D01*
X215498Y190293D02*
Y189293D01*
X217498D01*
Y190293D01*
X218498D01*
Y192293D01*
X217498D01*
Y193293D01*
X215498D01*
Y192293D01*
X214498D01*
Y190293D01*
X215498D01*
X193347Y321228D02*
X191347Y325228D01*
X195346D01*
X193347Y321228D01*
X223346Y251228D02*
X221346Y255228D01*
X225346D01*
X223346Y251228D01*
Y311228D02*
X221346Y315228D01*
X225346D01*
X223346Y311228D01*
X193347Y291228D02*
X191347Y295228D01*
X195346D01*
X193347Y291228D01*
Y251228D02*
X191347Y255228D01*
X195346D01*
X193347Y251228D01*
X243740Y321228D02*
X241740Y325228D01*
X245740D01*
X243740Y321228D01*
X273740Y251228D02*
X271740Y255228D01*
X275740D01*
X273740Y251228D01*
Y311228D02*
X271740Y315228D01*
X275740D01*
X273740Y311228D01*
X243740Y291228D02*
X241740Y295228D01*
X245740D01*
X243740Y291228D01*
Y251228D02*
X241740Y255228D01*
X245740D01*
X243740Y251228D01*
X55379Y55374D02*
Y58706D01*
X57045Y60372D01*
X58711Y58706D01*
Y55374D01*
Y57873D01*
X55379D01*
Y62598D02*
Y65931D01*
X57045Y67597D01*
X58711Y65931D01*
Y62598D01*
Y65098D01*
X55379D01*
X58991Y51762D02*
Y55094D01*
X60657Y56760D01*
X62323Y55094D01*
Y51762D01*
Y54261D01*
X58991D01*
Y58986D02*
Y62318D01*
X60657Y63985D01*
X62323Y62318D01*
Y58986D01*
Y61485D01*
X58991D01*
Y66211D02*
Y69543D01*
X60657Y71209D01*
X62323Y69543D01*
Y66211D01*
Y68710D01*
X58991D01*
X62603Y55374D02*
Y58706D01*
X64269Y60372D01*
X65935Y58706D01*
Y55374D01*
Y57873D01*
X62603D01*
Y62598D02*
Y65931D01*
X64269Y67597D01*
X65935Y65931D01*
Y62598D01*
Y65098D01*
X62603D01*
X66215Y51762D02*
Y55094D01*
X67882Y56760D01*
X69548Y55094D01*
Y51762D01*
Y54261D01*
X66215D01*
Y58986D02*
Y62318D01*
X67882Y63985D01*
X69548Y62318D01*
Y58986D01*
Y61485D01*
X66215D01*
Y66211D02*
Y69543D01*
X67882Y71209D01*
X69548Y69543D01*
Y66211D01*
Y68710D01*
X66215D01*
X69828Y55374D02*
Y58706D01*
X71494Y60372D01*
X73160Y58706D01*
Y55374D01*
Y57873D01*
X69828D01*
Y62598D02*
Y65931D01*
X71494Y67597D01*
X73160Y65931D01*
Y62598D01*
Y65098D01*
X69828D01*
X175548Y52077D02*
X177548Y54077D01*
X179548Y52077D01*
X177548Y50077D01*
X175548Y52077D01*
X198776Y37872D02*
Y41872D01*
X202776D01*
Y37872D01*
X198776D01*
X199576Y38672D02*
Y41072D01*
X201976D01*
Y38672D01*
X199576D01*
X181879Y7558D02*
X179879Y11558D01*
X183879D01*
X181879Y7558D01*
Y8358D02*
X180679Y10757D01*
X183079D01*
X181879Y8358D01*
X116193Y7224D02*
X117193D01*
X118193Y8224D01*
X119193Y7224D01*
X120193D01*
Y8224D01*
X119193Y9224D01*
X120193Y10224D01*
Y11224D01*
X119193D01*
X118193Y10224D01*
X117193Y11224D01*
X116193D01*
Y10224D01*
X117193Y9224D01*
X116193Y8224D01*
Y7224D01*
X116993Y8024D02*
X117593D01*
X118193Y8624D01*
X118793Y8024D01*
X119393D01*
Y8624D01*
X118793Y9224D01*
X119393Y9824D01*
Y10424D01*
X118793D01*
X118193Y9824D01*
X117593Y10424D01*
X116993D01*
Y9824D01*
X117593Y9224D01*
X116993Y8624D01*
Y8024D01*
X128004Y7224D02*
X129004D01*
X130004Y8224D01*
X131004Y7224D01*
X132004D01*
Y8224D01*
X131004Y9224D01*
X132004Y10224D01*
Y11224D01*
X131004D01*
X130004Y10224D01*
X129004Y11224D01*
X128004D01*
Y10224D01*
X129004Y9224D01*
X128004Y8224D01*
Y7224D01*
X128804Y8024D02*
X129404D01*
X130004Y8624D01*
X130604Y8024D01*
X131204D01*
Y8624D01*
X130604Y9224D01*
X131204Y9824D01*
Y10424D01*
X130604D01*
X130004Y9824D01*
X129404Y10424D01*
X128804D01*
Y9824D01*
X129404Y9224D01*
X128804Y8624D01*
Y8024D01*
X272099Y16150D02*
Y20150D01*
X276099D01*
Y16150D01*
X272099D01*
Y22056D02*
Y26056D01*
X276099D01*
Y22056D01*
X272099D01*
Y27961D02*
Y31961D01*
X276099D01*
Y27961D01*
X272099D01*
Y33867D02*
Y37867D01*
X276099D01*
Y33867D01*
X272099D01*
Y39772D02*
Y43772D01*
X276099D01*
Y39772D01*
X272099D01*
Y45678D02*
Y49678D01*
X276099D01*
Y45678D01*
X272099D01*
X74850Y225992D02*
X75850Y227992D01*
X74850Y229992D01*
X76850Y228992D01*
X78850Y229992D01*
X77850Y227992D01*
X78850Y225992D01*
X76850Y226992D01*
X74850Y225992D01*
X20279Y108632D02*
Y112631D01*
X24279D01*
Y108632D01*
X20279D01*
Y128316D02*
Y132317D01*
X24279D01*
Y128316D01*
X20279D01*
X159134Y343315D02*
X160134Y344315D01*
X161134D01*
X160134Y345315D01*
X161134Y346315D01*
X160134D01*
X159134Y347315D01*
X158134Y346315D01*
X157134D01*
X158134Y345315D01*
X157134Y344315D01*
X158134D01*
X159134Y343315D01*
X41024D02*
X42024Y344315D01*
X43024D01*
X42024Y345315D01*
X43024Y346315D01*
X42024D01*
X41024Y347315D01*
X40024Y346315D01*
X39024D01*
X40024Y345315D01*
X39024Y344315D01*
X40024D01*
X41024Y343315D01*
X20520Y326780D02*
X21520D01*
X22520Y327780D01*
X23520Y326780D01*
X24520D01*
Y327780D01*
X23520Y328780D01*
X24520Y329780D01*
Y330780D01*
X23520D01*
X22520Y329780D01*
X21520Y330780D01*
X20520D01*
Y329780D01*
X21520Y328780D01*
X20520Y327780D01*
Y326780D01*
Y346779D02*
X21520D01*
X22520Y347779D01*
X23520Y346779D01*
X24520D01*
Y347779D01*
X23520Y348780D01*
X24520Y349780D01*
Y350780D01*
X23520D01*
X22520Y349780D01*
X21520Y350780D01*
X20520D01*
Y349780D01*
X21520Y348780D01*
X20520Y347779D01*
Y346779D01*
X12465Y292347D02*
Y291347D01*
X14465D01*
Y292347D01*
X15465D01*
Y294346D01*
X14465D01*
Y295346D01*
X12465D01*
Y294346D01*
X11465D01*
Y292347D01*
X12465D01*
X32150D02*
Y291347D01*
X34150D01*
Y292347D01*
X35150D01*
Y294346D01*
X34150D01*
Y295346D01*
X32150D01*
Y294346D01*
X31150D01*
Y292347D01*
X32150D01*
X12465Y247858D02*
Y246858D01*
X14465D01*
Y247858D01*
X15465D01*
Y249858D01*
X14465D01*
Y250858D01*
X12465D01*
Y249858D01*
X11465D01*
Y247858D01*
X12465D01*
X32150D02*
Y246858D01*
X34150D01*
Y247858D01*
X35150D01*
Y249858D01*
X34150D01*
Y250858D01*
X32150D01*
Y249858D01*
X31150D01*
Y247858D01*
X32150D01*
X46500Y185205D02*
X48500Y187205D01*
X50500Y185205D01*
X48500Y183205D01*
X46500Y185205D01*
X34295Y159976D02*
Y163976D01*
X38295D01*
Y159976D01*
X34295D01*
X35095Y160776D02*
Y163176D01*
X37495D01*
Y160776D01*
X35095D01*
X5980Y178874D02*
X3980Y182874D01*
X7980D01*
X5980Y178874D01*
Y179674D02*
X4780Y182074D01*
X7180D01*
X5980Y179674D01*
X266740Y343709D02*
X267740D01*
X268740Y344709D01*
X269740Y343709D01*
X270740D01*
Y344709D01*
X269740Y345709D01*
X270740Y346709D01*
Y347709D01*
X269740D01*
X268740Y346709D01*
X267740Y347709D01*
X266740D01*
Y346709D01*
X267740Y345709D01*
X266740Y344709D01*
Y343709D01*
X246740D02*
X247740D01*
X248740Y344709D01*
X249740Y343709D01*
X250740D01*
Y344709D01*
X249740Y345709D01*
X250740Y346709D01*
Y347709D01*
X249740D01*
X248740Y346709D01*
X247740Y347709D01*
X246740D01*
Y346709D01*
X247740Y345709D01*
X246740Y344709D01*
Y343709D01*
X216347D02*
X217347D01*
X218347Y344709D01*
X219346Y343709D01*
X220346D01*
Y344709D01*
X219346Y345709D01*
X220346Y346709D01*
Y347709D01*
X219346D01*
X218347Y346709D01*
X217347Y347709D01*
X216347D01*
Y346709D01*
X217347Y345709D01*
X216347Y344709D01*
Y343709D01*
X196346D02*
X197346D01*
X198346Y344709D01*
X199346Y343709D01*
X200346D01*
Y344709D01*
X199346Y345709D01*
X200346Y346709D01*
Y347709D01*
X199346D01*
X198346Y346709D01*
X197346Y347709D01*
X196346D01*
Y346709D01*
X197346Y345709D01*
X196346Y344709D01*
Y343709D01*
X94535Y304732D02*
X95535Y306732D01*
X94535Y308732D01*
X96535Y307732D01*
X98535Y308732D01*
X97535Y306732D01*
X98535Y304732D01*
X96535Y305732D01*
X94535Y304732D01*
X133905D02*
X134906Y306732D01*
X133905Y308732D01*
X135906Y307732D01*
X137906Y308732D01*
X136906Y306732D01*
X137906Y304732D01*
X135906Y305732D01*
X133905Y304732D01*
X153591Y225992D02*
X154591Y227992D01*
X153591Y229992D01*
X155591Y228992D01*
X157591Y229992D01*
X156591Y227992D01*
X157591Y225992D01*
X155591Y226992D01*
X153591Y225992D01*
X380857Y61713D02*
Y56714D01*
X383356D01*
X384189Y57547D01*
Y60880D01*
X383356Y61713D01*
X380857D01*
X374007Y10263D02*
Y5264D01*
X376506D01*
X377339Y6097D01*
Y9430D01*
X376506Y10263D01*
X374007D01*
X333907Y28113D02*
Y23114D01*
X336406D01*
X337239Y23947D01*
Y27280D01*
X336406Y28113D01*
X333907D01*
X321707Y32813D02*
Y27814D01*
X324206D01*
X325039Y28647D01*
Y31980D01*
X324206Y32813D01*
X321707D01*
X369007Y10263D02*
Y5264D01*
X371506D01*
X372339Y6097D01*
Y9430D01*
X371506Y10263D01*
X369007D01*
X311607Y84663D02*
Y79664D01*
X314106D01*
X314939Y80497D01*
Y83830D01*
X314106Y84663D01*
X311607D01*
X313357Y98863D02*
Y93864D01*
X315856D01*
X316689Y94697D01*
Y98030D01*
X315856Y98863D01*
X313357D01*
X340507Y94014D02*
X341507Y95014D01*
X342507D01*
X341507Y96014D01*
X342507Y97014D01*
X341507D01*
X340507Y98014D01*
X339507Y97014D01*
X338507D01*
X339507Y96014D01*
X338507Y95014D01*
X339507D01*
X340507Y94014D01*
Y94814D02*
X341107Y95414D01*
X341707D01*
X341107Y96014D01*
X341707Y96614D01*
X341107D01*
X340507Y97214D01*
X339907Y96614D01*
X339307D01*
X339907Y96014D01*
X339307Y95414D01*
X339907D01*
X340507Y94814D01*
X234111Y70576D02*
X230779D01*
Y65578D01*
X234111D01*
X230779Y68077D02*
X232445D01*
X237311Y73554D02*
X233979D01*
Y68556D01*
X237311D01*
X233979Y71055D02*
X235645D01*
X217915Y128392D02*
X214583D01*
Y125893D01*
X216249D01*
X214583D01*
Y123394D01*
X156879Y188572D02*
Y183574D01*
X159378D01*
X160211Y184407D01*
Y187739D01*
X159378Y188572D01*
X156879D01*
X160879D02*
Y183574D01*
X163378D01*
X164211Y184407D01*
Y187739D01*
X163378Y188572D01*
X160879D01*
X164879D02*
Y183574D01*
X167378D01*
X168211Y184407D01*
Y187739D01*
X167378Y188572D01*
X164879D01*
X168879D02*
Y183574D01*
X171378D01*
X172211Y184407D01*
Y187739D01*
X171378Y188572D01*
X168879D01*
X187879Y140972D02*
Y135974D01*
X190378D01*
X191211Y136807D01*
Y140139D01*
X190378Y140972D01*
X187879D01*
X192379D02*
Y135974D01*
X194878D01*
X195711Y136807D01*
Y140139D01*
X194878Y140972D01*
X192379D01*
X157879Y131422D02*
Y126424D01*
X160378D01*
X161211Y127257D01*
Y130589D01*
X160378Y131422D01*
X157879D01*
X260979Y22822D02*
Y17824D01*
X263478D01*
X264311Y18657D01*
Y21989D01*
X263478Y22822D01*
X260979D01*
X260729Y15022D02*
Y10024D01*
X263228D01*
X264061Y10857D01*
Y14189D01*
X263228Y15022D01*
X260729D01*
X270329Y120322D02*
Y115324D01*
X272828D01*
X273661Y116157D01*
Y119489D01*
X272828Y120322D01*
X270329D01*
X265329D02*
Y115324D01*
X267828D01*
X268661Y116157D01*
Y119489D01*
X267828Y120322D01*
X265329D01*
X260329D02*
Y115324D01*
X262828D01*
X263661Y116157D01*
Y119489D01*
X262828Y120322D01*
X260329D01*
X197711Y97372D02*
X194379D01*
Y92374D01*
X197711D01*
X194379Y94873D02*
X196045D01*
X267229Y15022D02*
Y10024D01*
X269728D01*
X270561Y10857D01*
Y14189D01*
X269728Y15022D01*
X267229D01*
X255729D02*
Y10024D01*
X258228D01*
X259061Y10857D01*
Y14189D01*
X258228Y15022D01*
X255729D01*
X267229Y23072D02*
Y18074D01*
X269728D01*
X270561Y18907D01*
Y22239D01*
X269728Y23072D01*
X267229D01*
X255979Y22822D02*
Y17824D01*
X258478D01*
X259311Y18657D01*
Y21989D01*
X258478Y22822D01*
X255979D01*
X232129Y237222D02*
Y232224D01*
X234628D01*
X235461Y233057D01*
Y236389D01*
X234628Y237222D01*
X232129D01*
X227629D02*
Y232224D01*
X230128D01*
X230961Y233057D01*
Y236389D01*
X230128Y237222D01*
X227629D01*
X208579Y173372D02*
Y168374D01*
X211078D01*
X211911Y169207D01*
Y172539D01*
X211078Y173372D01*
X208579D01*
X202579D02*
Y168374D01*
X205078D01*
X205911Y169207D01*
Y172539D01*
X205078Y173372D01*
X202579D01*
X208579Y177372D02*
Y172374D01*
X211078D01*
X211911Y173207D01*
Y176539D01*
X211078Y177372D01*
X208579D01*
X196029D02*
Y172374D01*
X198528D01*
X199361Y173207D01*
Y176539D01*
X198528Y177372D01*
X196029D01*
X202579D02*
Y172374D01*
X205078D01*
X205911Y173207D01*
Y176539D01*
X205078Y177372D01*
X202579D01*
X196029Y182372D02*
Y177374D01*
X198528D01*
X199361Y178207D01*
Y181539D01*
X198528Y182372D01*
X196029D01*
X139429Y94372D02*
Y89374D01*
X141928D01*
X142761Y90207D01*
Y93539D01*
X141928Y94372D01*
X139429D01*
Y99372D02*
Y94374D01*
X141928D01*
X142761Y95207D01*
Y98539D01*
X141928Y99372D01*
X139429D01*
Y104872D02*
Y99874D01*
X141928D01*
X142761Y100707D01*
Y104039D01*
X141928Y104872D01*
X139429D01*
X192379Y131972D02*
Y126974D01*
X194878D01*
X195711Y127807D01*
Y131139D01*
X194878Y131972D01*
X192379D01*
X187879D02*
Y126974D01*
X190378D01*
X191211Y127807D01*
Y131139D01*
X190378Y131972D01*
X187879D01*
X163379Y131422D02*
Y126424D01*
X165878D01*
X166711Y127257D01*
Y130589D01*
X165878Y131422D01*
X163379D01*
X145029Y144922D02*
Y139924D01*
X147528D01*
X148361Y140757D01*
Y144089D01*
X147528Y144922D01*
X145029D01*
Y147922D02*
Y142924D01*
X147528D01*
X148361Y143757D01*
Y147089D01*
X147528Y147922D01*
X145029D01*
Y150922D02*
Y145924D01*
X147528D01*
X148361Y146757D01*
Y150089D01*
X147528Y150922D01*
X145029D01*
X248529Y118822D02*
Y113824D01*
X251028D01*
X251861Y114657D01*
Y117989D01*
X251028Y118822D01*
X248529D01*
X236011Y79822D02*
X232679D01*
Y74824D01*
X236011D01*
X232679Y77323D02*
X234345D01*
X239079Y78972D02*
Y73974D01*
X241578D01*
X242411Y74807D01*
Y78139D01*
X241578Y78972D01*
X239079D01*
X255611Y94172D02*
X252279D01*
Y91673D01*
X253945D01*
X252279D01*
Y89174D01*
X232166Y28922D02*
X228834D01*
Y23924D01*
X232166D01*
X228834Y26423D02*
X230500D01*
X241579Y131922D02*
Y126924D01*
X244078D01*
X244911Y127757D01*
Y131089D01*
X244078Y131922D01*
X241579D01*
X280829Y163472D02*
Y158474D01*
X283328D01*
X284161Y159307D01*
Y162639D01*
X283328Y163472D01*
X280829D01*
X223129Y237222D02*
Y232224D01*
X225628D01*
X226461Y233057D01*
Y236389D01*
X225628Y237222D01*
X223129D01*
X252329Y222022D02*
Y217024D01*
X254828D01*
X255661Y217857D01*
Y221189D01*
X254828Y222022D01*
X252329D01*
X257829D02*
Y217024D01*
X260328D01*
X261161Y217857D01*
Y221189D01*
X260328Y222022D01*
X257829D01*
X246829D02*
Y217024D01*
X249328D01*
X250161Y217857D01*
Y221189D01*
X249328Y222022D01*
X246829D01*
X26779Y11172D02*
Y6174D01*
X29278D01*
X30111Y7007D01*
Y10339D01*
X29278Y11172D01*
X26779D01*
X27079Y17822D02*
Y12824D01*
X29578D01*
X30411Y13657D01*
Y16989D01*
X29578Y17822D01*
X27079D01*
Y24822D02*
Y19824D01*
X29578D01*
X30411Y20657D01*
Y23989D01*
X29578Y24822D01*
X27079D01*
X119061Y95222D02*
X115729D01*
Y92723D01*
X117395D01*
X115729D01*
Y90224D01*
X119061Y98222D02*
X115729D01*
Y95723D01*
X117395D01*
X115729D01*
Y93224D01*
X54729Y26172D02*
Y21174D01*
X57228D01*
X58061Y22007D01*
Y25339D01*
X57228Y26172D01*
X54729D01*
X240311Y43522D02*
X238645D01*
X239478D01*
Y39357D01*
X238645Y38524D01*
X237812D01*
X236979Y39357D01*
X236760Y54172D02*
Y49174D01*
Y50840D01*
X240092Y54172D01*
X237593Y51673D01*
X240092Y49174D01*
X254129Y58572D02*
Y53574D01*
X256628D01*
X257461Y54407D01*
Y57739D01*
X256628Y58572D01*
X254129D01*
X263129D02*
Y53574D01*
X265628D01*
X266461Y54407D01*
Y57739D01*
X265628Y58572D01*
X263129D01*
X259129D02*
Y53574D01*
X261628D01*
X262461Y54407D01*
Y57739D01*
X261628Y58572D01*
X259129D01*
X250129D02*
Y53574D01*
X252628D01*
X253461Y54407D01*
Y57739D01*
X252628Y58572D01*
X250129D01*
X211603Y91922D02*
X208270D01*
Y89423D01*
X209936D01*
X208270D01*
Y86924D01*
X226260Y82023D02*
X222928D01*
Y79524D01*
X224594D01*
X222928D01*
Y77025D01*
X222911Y130372D02*
X219579D01*
Y127873D01*
X221245D01*
X219579D01*
Y125374D01*
X210111Y86422D02*
X206779D01*
Y83923D01*
X208445D01*
X206779D01*
Y81424D01*
X280011Y109842D02*
X276679D01*
Y104844D01*
X280011D01*
X276679Y107343D02*
X278345D01*
X278227Y108059D02*
X274895D01*
Y103060D01*
X278227D01*
X274895Y105559D02*
X276561D01*
X152011Y126872D02*
X148679D01*
Y124373D01*
X150345D01*
X148679D01*
Y121874D01*
X170411Y108872D02*
X167079D01*
Y106373D01*
X168745D01*
X167079D01*
Y103874D01*
X258961Y181522D02*
X255629D01*
Y179023D01*
X257295D01*
X255629D01*
Y176524D01*
X119061Y92222D02*
X115729D01*
Y89723D01*
X117395D01*
X115729D01*
Y87224D01*
X129611Y150072D02*
X126279D01*
Y147573D01*
X127945D01*
X126279D01*
Y145074D01*
X285261Y147372D02*
X281929D01*
Y144873D01*
X283595D01*
X281929D01*
Y142374D01*
X285361Y150472D02*
X282029D01*
Y147973D01*
X283695D01*
X282029D01*
Y145474D01*
X250911Y140872D02*
X247579D01*
Y138373D01*
X249245D01*
X247579D01*
Y135874D01*
X213411Y64372D02*
X210079D01*
Y61873D01*
X211745D01*
X210079D01*
Y59374D01*
X236711Y142772D02*
X233379D01*
Y140273D01*
X235045D01*
X233379D01*
Y137774D01*
X237911Y158372D02*
X234579D01*
Y155873D01*
X236245D01*
X234579D01*
Y153374D01*
X234922Y211888D02*
X231589D01*
Y209389D01*
X233256D01*
X231589D01*
Y206890D01*
X252215Y191888D02*
X248883D01*
Y189389D01*
X250549D01*
X248883D01*
Y186890D01*
X252215Y201888D02*
X248883D01*
Y199389D01*
X250549D01*
X248883D01*
Y196890D01*
X229409Y141472D02*
X226076D01*
Y138973D01*
X227742D01*
X226076D01*
Y136474D01*
X233311Y141272D02*
X229979D01*
Y138773D01*
X231645D01*
X229979D01*
Y136274D01*
X213411Y74272D02*
X210079D01*
Y71773D01*
X211745D01*
X210079D01*
Y69274D01*
X75211Y123472D02*
X71879D01*
Y120973D01*
X73545D01*
X71879D01*
Y118474D01*
X48892Y115354D02*
X45560D01*
Y112854D01*
X47226D01*
X45560D01*
Y110355D01*
X45411Y109872D02*
X42079D01*
Y107373D01*
X43745D01*
X42079D01*
Y104874D01*
X218411Y80372D02*
X215079D01*
Y77873D01*
X216745D01*
X215079D01*
Y75374D01*
X130411Y28554D02*
X127079D01*
Y26054D01*
X128745D01*
X127079D01*
Y23555D01*
X81911Y24872D02*
X78579D01*
Y22373D01*
X80245D01*
X78579D01*
Y19874D01*
X226227Y130925D02*
X222895D01*
Y128426D01*
X224561D01*
X222895D01*
Y125927D01*
X228911Y161372D02*
X225579D01*
Y158873D01*
X227245D01*
X225579D01*
Y156374D01*
X159911Y151372D02*
X156579D01*
Y148873D01*
X158245D01*
X156579D01*
Y146374D01*
X159911Y156372D02*
X156579D01*
Y153873D01*
X158245D01*
X156579D01*
Y151374D01*
X159911Y161372D02*
X156579D01*
Y158873D01*
X158245D01*
X156579D01*
Y156374D01*
X253411Y39072D02*
X250079D01*
Y36573D01*
X251745D01*
X250079D01*
Y34074D01*
X129611Y146072D02*
X126279D01*
Y143573D01*
X127945D01*
X126279D01*
Y141074D01*
X99841Y153352D02*
X96509D01*
Y150853D01*
X98175D01*
X96509D01*
Y148354D01*
X48231Y11932D02*
X44899D01*
Y9433D01*
X46565D01*
X44899D01*
Y6934D01*
X51281Y11932D02*
X47949D01*
Y9433D01*
X49615D01*
X47949D01*
Y6934D01*
X45181Y11932D02*
X41849D01*
Y9433D01*
X43515D01*
X41849D01*
Y6934D01*
X46001Y193012D02*
X42669D01*
Y190513D01*
X44335D01*
X42669D01*
Y188014D01*
X45901Y186612D02*
X42569D01*
Y184113D01*
X44235D01*
X42569D01*
Y181614D01*
X68411Y130472D02*
X65079D01*
Y127973D01*
X66745D01*
X65079D01*
Y125474D01*
X68411Y134472D02*
X65079D01*
Y131973D01*
X66745D01*
X65079D01*
Y129474D01*
X45901Y180542D02*
X42569D01*
Y178043D01*
X44235D01*
X42569D01*
Y175544D01*
X60981Y192322D02*
X57649D01*
Y189823D01*
X59315D01*
X57649D01*
Y187324D01*
X60981Y197742D02*
X57649D01*
Y195243D01*
X59315D01*
X57649D01*
Y192744D01*
D228*
X347339Y81945D02*
G03*
X347339Y81945I-2000J0D01*
G01*
Y96087D02*
G03*
X347339Y96087I-2000J0D01*
G01*
X333197D02*
G03*
X333197Y96087I-2000J0D01*
G01*
X183879Y27274D02*
G03*
X183879Y27274I-2000J0D01*
G01*
X25697Y180874D02*
G03*
X25697Y180874I-2000J0D01*
G01*
D229*
X183079Y27274D02*
G03*
X183079Y27274I-1200J0D01*
G01*
X24897Y180874D02*
G03*
X24897Y180874I-1200J0D01*
G01*
M02*
