G04*
G04 #@! TF.GenerationSoftware,Altium Limited,Altium Designer,24.2.2 (26)*
G04*
G04 Layer_Physical_Order=4*
G04 Layer_Color=16711680*
%FSLAX25Y25*%
%MOIN*%
G70*
G04*
G04 #@! TF.SameCoordinates,F296BD43-7A1A-4B5F-AFD2-8FBC70BB071E*
G04*
G04*
G04 #@! TF.FilePolarity,Positive*
G04*
G01*
G75*
%ADD20C,0.01000*%
%ADD26R,0.03800X0.03100*%
%ADD30R,0.05512X0.03150*%
%ADD40R,0.03100X0.03800*%
%ADD110C,0.08268*%
%ADD139C,0.01500*%
%ADD140C,0.01470*%
%ADD144C,0.02000*%
%ADD147C,0.03000*%
%ADD148C,0.06000*%
%ADD150C,0.03937*%
%ADD151O,0.05906X0.04724*%
%ADD152C,0.05906*%
%ADD153C,0.09843*%
%ADD154C,0.01181*%
%ADD155O,0.14173X0.07087*%
%ADD156O,0.07874X0.15748*%
%ADD157O,0.15748X0.07874*%
%ADD158C,0.03543*%
%ADD159C,0.07874*%
%ADD160C,0.10039*%
%ADD161O,0.07087X0.14173*%
%ADD162C,0.02362*%
%ADD163C,0.02500*%
%ADD164C,0.01575*%
%ADD165C,0.01772*%
%ADD166C,0.02400*%
%ADD213R,0.02362X0.04331*%
%ADD214R,0.04528X0.06693*%
%ADD215R,0.05669X0.07165*%
G04:AMPARAMS|DCode=216|XSize=62.99mil|YSize=24.02mil|CornerRadius=3mil|HoleSize=0mil|Usage=FLASHONLY|Rotation=180.000|XOffset=0mil|YOffset=0mil|HoleType=Round|Shape=RoundedRectangle|*
%AMROUNDEDRECTD216*
21,1,0.06299,0.01801,0,0,180.0*
21,1,0.05699,0.02402,0,0,180.0*
1,1,0.00600,-0.02849,0.00901*
1,1,0.00600,0.02849,0.00901*
1,1,0.00600,0.02849,-0.00901*
1,1,0.00600,-0.02849,-0.00901*
%
%ADD216ROUNDEDRECTD216*%
%ADD217R,0.07165X0.05669*%
G36*
X21229Y296324D02*
Y226274D01*
X33379Y214124D01*
Y168274D01*
X118129D01*
X169929Y220074D01*
Y234874D01*
X222620D01*
X222695Y234405D01*
X221893Y234073D01*
X221280Y233459D01*
X220975Y232724D01*
X223129D01*
Y232224D01*
X223629D01*
Y230070D01*
X224364Y230375D01*
X224978Y230989D01*
X225108Y231303D01*
X225649D01*
X225780Y230989D01*
X226393Y230375D01*
X227129Y230070D01*
Y232224D01*
X228129D01*
Y230070D01*
X228864Y230375D01*
X229478Y230989D01*
X229608Y231303D01*
X230149D01*
X230280Y230989D01*
X230893Y230375D01*
X231629Y230070D01*
Y232224D01*
X232129D01*
Y232724D01*
X234282D01*
X233978Y233459D01*
X233364Y234073D01*
X232563Y234405D01*
X232638Y234874D01*
X278379D01*
X283622Y229631D01*
Y147619D01*
X283122Y147382D01*
X282463Y147655D01*
X281595D01*
X280793Y147323D01*
X280180Y146710D01*
X279848Y145908D01*
Y145040D01*
X280180Y144238D01*
X280444Y143974D01*
X280080Y143609D01*
X279748Y142808D01*
Y141940D01*
X280080Y141139D01*
X280693Y140525D01*
X281495Y140193D01*
X282363D01*
X283122Y140507D01*
X283622Y140330D01*
Y119001D01*
X283122Y118794D01*
X267866Y134050D01*
X267370Y134381D01*
X266785Y134498D01*
X249911D01*
X249576Y134998D01*
X249760Y135440D01*
Y135892D01*
X252471Y138604D01*
X252803Y139100D01*
X252919Y139685D01*
Y184383D01*
X252803Y184968D01*
X252471Y185464D01*
X251064Y186872D01*
Y187324D01*
X250732Y188125D01*
X250118Y188739D01*
X249317Y189071D01*
X248449D01*
X247648Y188739D01*
X247034Y188125D01*
X246702Y187324D01*
Y186456D01*
X247034Y185654D01*
X247648Y185041D01*
X248449Y184709D01*
X248901D01*
X249860Y183749D01*
Y140319D01*
X247597Y138055D01*
X247145D01*
X246343Y137723D01*
X245730Y137109D01*
X245398Y136308D01*
Y135440D01*
X245581Y134998D01*
X245247Y134498D01*
X231940D01*
X231749Y134959D01*
X231828Y135038D01*
X232004Y135463D01*
X232622Y135727D01*
X232945Y135593D01*
X233813D01*
X234614Y135925D01*
X235228Y136539D01*
X235560Y137340D01*
Y137792D01*
X242212Y144445D01*
X242544Y144941D01*
X242660Y145526D01*
Y188504D01*
X248865Y194709D01*
X249317D01*
X250118Y195041D01*
X250732Y195654D01*
X251064Y196456D01*
Y197324D01*
X250732Y198125D01*
X250118Y198739D01*
X249317Y199071D01*
X248449D01*
X247648Y198739D01*
X247034Y198125D01*
X246702Y197324D01*
Y196872D01*
X240049Y190219D01*
X239718Y189723D01*
X239601Y189138D01*
Y146160D01*
X233397Y139955D01*
X232945D01*
X232143Y139623D01*
X232008Y139488D01*
X231508Y139695D01*
Y144349D01*
X238341Y151182D01*
X238673Y151678D01*
X238789Y152263D01*
Y173149D01*
X238673Y173734D01*
X238341Y174230D01*
X233119Y179453D01*
Y205335D01*
X233438Y205654D01*
X233771Y206456D01*
Y207324D01*
X233438Y208125D01*
X232825Y208739D01*
X232023Y209071D01*
X231156D01*
X230354Y208739D01*
X229740Y208125D01*
X229408Y207324D01*
Y206456D01*
X229740Y205654D01*
X230060Y205335D01*
Y178819D01*
X230176Y178234D01*
X230508Y177738D01*
X235731Y172515D01*
Y155708D01*
X235315Y155430D01*
X235013Y155555D01*
X234145D01*
X233802Y155413D01*
X228842D01*
X228061Y155258D01*
X228002Y155218D01*
X227598Y155550D01*
X227760Y155940D01*
Y156808D01*
X227428Y157609D01*
X226814Y158223D01*
X226013Y158555D01*
X225145D01*
X224343Y158223D01*
X223730Y157609D01*
X223588Y157267D01*
X218137Y151816D01*
X217695Y151154D01*
X217540Y150374D01*
Y126151D01*
X217398Y125808D01*
Y124940D01*
X217730Y124138D01*
X218343Y123525D01*
X219145Y123193D01*
X220013D01*
X220814Y123525D01*
X221428Y124138D01*
X221902Y123977D01*
X222461Y123746D01*
X223329D01*
X224131Y124078D01*
X224744Y124691D01*
X225076Y125493D01*
Y126361D01*
X224934Y126703D01*
Y134136D01*
X225350Y134414D01*
X225642Y134293D01*
X225742D01*
X228148Y131887D01*
X228644Y131555D01*
X229229Y131439D01*
X266151D01*
X280749Y116841D01*
Y106557D01*
X280287Y106365D01*
X279779Y106874D01*
Y106874D01*
X275788Y110865D01*
X244370Y110865D01*
X241879Y108374D01*
X241879Y102274D01*
X245229Y98924D01*
X274928D01*
Y85324D01*
X260279Y70674D01*
X232229D01*
X228624Y67069D01*
X228461Y63989D01*
X231502Y60224D01*
X261979D01*
X262318Y60563D01*
X262429D01*
X262429Y60563D01*
X263106Y60698D01*
X263680Y61081D01*
X280249Y77650D01*
X280749Y77443D01*
Y44090D01*
X278567Y41907D01*
X278039Y42087D01*
X277965Y42650D01*
X277626Y43468D01*
X277087Y44170D01*
X276775Y44410D01*
Y45040D01*
X277087Y45280D01*
X277626Y45982D01*
X277965Y46800D01*
X278081Y47678D01*
X277965Y48555D01*
X277626Y49373D01*
X277087Y50076D01*
X276385Y50615D01*
X275567Y50954D01*
X274689Y51069D01*
X273508D01*
X272631Y50954D01*
X271813Y50615D01*
X271110Y50076D01*
X270571Y49373D01*
X270233Y48555D01*
X270117Y47678D01*
X270233Y46800D01*
X270571Y45982D01*
X271110Y45280D01*
X271423Y45040D01*
Y44410D01*
X271110Y44170D01*
X270571Y43468D01*
X270233Y42650D01*
X270183Y42272D01*
X274099D01*
Y41272D01*
X270183D01*
X270233Y40895D01*
X270571Y40077D01*
X271110Y39374D01*
X271423Y39135D01*
Y38504D01*
X271110Y38265D01*
X270571Y37562D01*
X270233Y36744D01*
X270117Y35867D01*
X270233Y34989D01*
X270571Y34171D01*
X271110Y33469D01*
X271423Y33229D01*
Y32599D01*
X271110Y32359D01*
X270571Y31657D01*
X270502Y31491D01*
X265425D01*
X253610Y43306D01*
X253114Y43637D01*
X252529Y43753D01*
X235338D01*
X224457Y54634D01*
Y75470D01*
X224777Y75789D01*
X225109Y76591D01*
Y77459D01*
X224777Y78260D01*
X224164Y78874D01*
X223362Y79206D01*
X222494D01*
X221692Y78874D01*
X221079Y78260D01*
X220747Y77459D01*
Y76591D01*
X221079Y75789D01*
X221399Y75470D01*
Y54000D01*
X221515Y53415D01*
X221847Y52919D01*
X233623Y41143D01*
X234119Y40811D01*
X234704Y40695D01*
X235331D01*
X235538Y40195D01*
X235114Y39770D01*
X234779Y38962D01*
Y38086D01*
X235114Y37278D01*
X235268Y37123D01*
X235061Y36623D01*
X223435D01*
X206178Y53880D01*
X205351Y54432D01*
X204376Y54626D01*
X184862D01*
X184332Y55317D01*
X183383Y56046D01*
X182277Y56503D01*
X181091Y56660D01*
X174005D01*
X172819Y56503D01*
X171713Y56046D01*
X170764Y55317D01*
X170036Y54368D01*
X169578Y53263D01*
X169422Y52077D01*
X169578Y50891D01*
X170036Y49786D01*
X170764Y48837D01*
X171713Y48109D01*
X172819Y47651D01*
X174005Y47495D01*
X181091D01*
X182277Y47651D01*
X183383Y48109D01*
X184332Y48837D01*
X184862Y49528D01*
X203320D01*
X220576Y32272D01*
X221403Y31719D01*
X222379Y31525D01*
X250079D01*
X251054Y31719D01*
X251881Y32272D01*
X252434Y33099D01*
X252628Y34074D01*
X252434Y35050D01*
X251881Y35876D01*
X251054Y36429D01*
X250079Y36623D01*
X238896D01*
X238689Y37123D01*
X238844Y37278D01*
X239179Y38086D01*
Y38962D01*
X238844Y39770D01*
X238419Y40195D01*
X238627Y40695D01*
X251895D01*
X263710Y28880D01*
X264206Y28548D01*
X264791Y28432D01*
X270502D01*
X270571Y28266D01*
X271110Y27563D01*
X271423Y27324D01*
Y26693D01*
X271110Y26454D01*
X270571Y25751D01*
X270233Y24934D01*
X270117Y24056D01*
X270233Y23178D01*
X270571Y22360D01*
X271110Y21658D01*
X271423Y21418D01*
Y20788D01*
X271110Y20548D01*
X270571Y19846D01*
X270233Y19028D01*
X270117Y18150D01*
X270233Y17273D01*
X270571Y16455D01*
X271110Y15752D01*
X271813Y15213D01*
X272631Y14875D01*
X273508Y14759D01*
X274689D01*
X275567Y14875D01*
X276385Y15213D01*
X277087Y15752D01*
X277626Y16455D01*
X277965Y17273D01*
X278081Y18150D01*
X277965Y19028D01*
X277626Y19846D01*
X277087Y20548D01*
X276775Y20788D01*
Y21418D01*
X277087Y21658D01*
X277626Y22360D01*
X277965Y23178D01*
X278081Y24056D01*
X277965Y24934D01*
X277626Y25751D01*
X277087Y26454D01*
X276775Y26693D01*
Y27324D01*
X277087Y27563D01*
X277626Y28266D01*
X277965Y29084D01*
X278081Y29961D01*
X277965Y30839D01*
X277626Y31657D01*
X277087Y32359D01*
X276775Y32599D01*
Y33229D01*
X277087Y33469D01*
X277626Y34171D01*
X277965Y34989D01*
X278081Y35867D01*
X277965Y36744D01*
X277896Y36911D01*
X283122Y42137D01*
X283622Y41930D01*
Y4474D01*
X184142D01*
X184008Y4974D01*
X184970Y5529D01*
X185907Y6467D01*
X186570Y7615D01*
X186913Y8895D01*
Y10220D01*
X186570Y11501D01*
X185907Y12648D01*
X184970Y13586D01*
X183822Y14248D01*
X182542Y14591D01*
X181216D01*
X179936Y14248D01*
X178788Y13586D01*
X177851Y12648D01*
X177188Y11501D01*
X176845Y10220D01*
Y8895D01*
X177188Y7615D01*
X177851Y6467D01*
X178788Y5529D01*
X179750Y4974D01*
X179616Y4474D01*
X146129D01*
X145429Y3774D01*
X142979Y6224D01*
Y21624D01*
X138879Y25724D01*
X133506D01*
X133314Y26186D01*
X165954Y58825D01*
X207266D01*
X207788Y58303D01*
X208276Y57572D01*
X209103Y57019D01*
X210079Y56825D01*
X211054Y57019D01*
X211881Y57572D01*
X212434Y58399D01*
X212628Y59374D01*
Y59617D01*
X212434Y60592D01*
X211881Y61419D01*
X210124Y63176D01*
X209297Y63729D01*
X208321Y63923D01*
X164898D01*
X163922Y63729D01*
X163095Y63176D01*
X125643Y25724D01*
X122187D01*
X121995Y26186D01*
X162535Y66725D01*
X210079D01*
X211054Y66919D01*
X211881Y67472D01*
X212434Y68299D01*
X212628Y69274D01*
X212434Y70249D01*
X211881Y71076D01*
X211054Y71629D01*
X210079Y71823D01*
X161479D01*
X160503Y71629D01*
X159676Y71076D01*
X114324Y25724D01*
X111129D01*
X109029Y27824D01*
Y96524D01*
X102167Y103386D01*
X44328D01*
X44030Y103886D01*
X44070Y103981D01*
X45223Y105135D01*
X164699D01*
X165033Y104635D01*
X164898Y104308D01*
Y103440D01*
X165230Y102638D01*
X165549Y102319D01*
Y98374D01*
X165666Y97789D01*
X165997Y97293D01*
X188997Y74293D01*
X189494Y73961D01*
X190079Y73845D01*
X213524D01*
X213843Y73525D01*
X214645Y73193D01*
X215513D01*
X216314Y73525D01*
X216928Y74138D01*
X217260Y74940D01*
Y75808D01*
X216928Y76609D01*
X216314Y77223D01*
X215513Y77555D01*
X214645D01*
X213843Y77223D01*
X213524Y76903D01*
X190712D01*
X168608Y99007D01*
Y102319D01*
X168928Y102638D01*
X169049Y102931D01*
X169539Y103028D01*
X192586Y79982D01*
X193247Y79540D01*
X194027Y79385D01*
X206002D01*
X206345Y79243D01*
X207213D01*
X208014Y79575D01*
X208628Y80189D01*
X208960Y80990D01*
Y81858D01*
X208628Y82660D01*
X208014Y83273D01*
X207213Y83605D01*
X206345D01*
X206002Y83463D01*
X201147D01*
X200939Y83963D01*
X201861Y84885D01*
X207494D01*
X207837Y84743D01*
X208704D01*
X209506Y85075D01*
X210119Y85689D01*
X210451Y86490D01*
Y87358D01*
X210119Y88160D01*
X209506Y88773D01*
X208704Y89105D01*
X207837D01*
X207494Y88963D01*
X201016D01*
X200236Y88808D01*
X199575Y88366D01*
X198303Y87094D01*
X196742D01*
X193809Y90028D01*
X193947Y90355D01*
X194055Y90488D01*
X194754D01*
X195447Y90775D01*
X195977Y91306D01*
X196265Y91999D01*
Y92749D01*
X195977Y93442D01*
X195447Y93973D01*
X194754Y94260D01*
X194004D01*
X193310Y93973D01*
X192780Y93442D01*
X192493Y92749D01*
Y92051D01*
X192360Y91943D01*
X192032Y91804D01*
X171021Y112816D01*
X170359Y113258D01*
X169579Y113413D01*
X50741D01*
X49961Y113258D01*
X49299Y112816D01*
X48877Y112394D01*
X46336D01*
X45994Y112536D01*
X45126D01*
X44324Y112204D01*
X43711Y111591D01*
X43379Y110789D01*
Y109921D01*
X43531Y109554D01*
X43598Y109058D01*
X42937Y108616D01*
X41186Y106865D01*
X40843Y106723D01*
X40230Y106109D01*
X39898Y105308D01*
Y104440D01*
X40127Y103886D01*
X39829Y103386D01*
X10667D01*
X4229Y109824D01*
Y175721D01*
X4625Y176026D01*
X5318Y175840D01*
X6643D01*
X7923Y176183D01*
X9071Y176846D01*
X10008Y177783D01*
X10671Y178931D01*
X11014Y180211D01*
Y181537D01*
X10671Y182817D01*
X10008Y183965D01*
X9071Y184902D01*
X7923Y185565D01*
X6643Y185908D01*
X5318D01*
X4625Y185722D01*
X4229Y186027D01*
Y295774D01*
X7287Y298833D01*
X18720D01*
X21229Y296324D01*
D02*
G37*
G36*
X389626Y105914D02*
Y58941D01*
X389164Y58750D01*
X383838Y64076D01*
X383259Y64463D01*
X382576Y64599D01*
X367335D01*
X366652Y64463D01*
X366074Y64076D01*
X366074Y64076D01*
X360303Y58305D01*
X359916Y57726D01*
X359780Y57044D01*
Y54119D01*
X357730D01*
X357360Y54433D01*
Y78400D01*
X357224Y79083D01*
X356838Y79662D01*
X356838Y79662D01*
X346940Y89560D01*
Y93583D01*
X347162Y93711D01*
X347714Y94264D01*
X348105Y94941D01*
X348307Y95696D01*
Y96478D01*
X348105Y97233D01*
X347714Y97909D01*
X347162Y98462D01*
X346485Y98853D01*
X345730Y99055D01*
X344948D01*
X344193Y98853D01*
X343516Y98462D01*
X342963Y97909D01*
X342785Y97601D01*
X342169Y97534D01*
X341781Y97922D01*
X341007Y98243D01*
Y96014D01*
Y93786D01*
X341781Y94107D01*
X342222Y94548D01*
X342804Y94513D01*
X342827Y94500D01*
X342963Y94264D01*
X343371Y93856D01*
Y88821D01*
X343507Y88138D01*
X343894Y87559D01*
X346129Y85324D01*
X345870Y84876D01*
X345730Y84913D01*
X344948D01*
X344193Y84711D01*
X343516Y84320D01*
X342963Y83767D01*
X342573Y83091D01*
X342370Y82336D01*
Y81554D01*
X342573Y80799D01*
X342963Y80122D01*
X343516Y79569D01*
X344193Y79179D01*
X344948Y78976D01*
X345491D01*
X346142Y78325D01*
Y51664D01*
X345026D01*
Y46564D01*
X346757D01*
Y45728D01*
X346893Y45046D01*
X347280Y44467D01*
X351072Y40674D01*
Y16434D01*
X351208Y15751D01*
X351595Y15172D01*
X354064Y12703D01*
X354064Y12703D01*
X354643Y12316D01*
X355326Y12180D01*
X355326Y12180D01*
X362359D01*
X362395Y12126D01*
X362825Y11839D01*
X363333Y11738D01*
X369031D01*
X369539Y11839D01*
X369969Y12126D01*
X370256Y12556D01*
X370321Y12880D01*
X370807Y12914D01*
X370884Y12524D01*
X371105Y12193D01*
X371514Y11784D01*
X371680Y11353D01*
D01*
X371750Y10936D01*
X371680Y10853D01*
X371680D01*
Y10214D01*
X380876D01*
X381626Y9464D01*
Y8453D01*
X381898D01*
Y10819D01*
X381901Y10864D01*
X382007Y11308D01*
X389626D01*
Y8814D01*
X384126Y3314D01*
X301326D01*
X297140Y7501D01*
Y32186D01*
X297601Y32377D01*
X299558Y30421D01*
X299457Y29654D01*
X299572Y28776D01*
X299911Y27959D01*
X300450Y27256D01*
X300763Y27016D01*
Y26386D01*
X300450Y26147D01*
X299911Y25444D01*
X299572Y24626D01*
X299457Y23749D01*
X299572Y22871D01*
X299911Y22053D01*
X300450Y21351D01*
X300763Y21111D01*
Y20481D01*
X300450Y20241D01*
X299911Y19539D01*
X299572Y18721D01*
X299457Y17843D01*
X299572Y16965D01*
X299911Y16147D01*
X300450Y15445D01*
X301152Y14906D01*
X301970Y14567D01*
X302848Y14452D01*
X304029D01*
X304907Y14567D01*
X305725Y14906D01*
X306427Y15445D01*
X306966Y16147D01*
X307305Y16965D01*
X307346Y17275D01*
X307819Y17435D01*
X309712Y15542D01*
Y12616D01*
X309848Y11933D01*
X310234Y11354D01*
X316693Y4895D01*
X317272Y4508D01*
X317955Y4372D01*
X338213D01*
X338896Y4508D01*
X339475Y4895D01*
X341452Y6872D01*
X341883Y7126D01*
X342314Y6839D01*
X342821Y6738D01*
X348520D01*
X349027Y6839D01*
X349457Y7126D01*
X349744Y7556D01*
X349845Y8064D01*
Y9865D01*
X349744Y10372D01*
X349457Y10802D01*
X349027Y11090D01*
X348520Y11191D01*
X342821D01*
X342314Y11090D01*
X341883Y10802D01*
X341847Y10749D01*
X341035D01*
X341005Y10781D01*
X340793Y11213D01*
X341452Y11872D01*
X341883Y12126D01*
X342314Y11839D01*
X342821Y11738D01*
X348520D01*
X349027Y11839D01*
X349457Y12126D01*
X349744Y12556D01*
X349845Y13064D01*
Y14865D01*
X349744Y15372D01*
X349457Y15802D01*
X349027Y16090D01*
X348520Y16191D01*
X342821D01*
X342314Y16090D01*
X341883Y15802D01*
X341847Y15749D01*
X341021D01*
X340338Y15613D01*
X339759Y15226D01*
X335499Y10966D01*
X325067D01*
Y11756D01*
X317556D01*
Y9733D01*
X317094Y9542D01*
X313281Y13355D01*
Y16282D01*
X313281Y16282D01*
X313145Y16964D01*
X312758Y17543D01*
X312758Y17543D01*
X307319Y22982D01*
X307420Y23749D01*
X307305Y24626D01*
X306966Y25444D01*
X306427Y26147D01*
X306115Y26386D01*
Y27016D01*
X306427Y27256D01*
X306966Y27959D01*
X307305Y28776D01*
X307420Y29654D01*
X307305Y30532D01*
X306966Y31350D01*
X306427Y32052D01*
X306115Y32292D01*
Y32922D01*
X306427Y33162D01*
X306966Y33864D01*
X307305Y34682D01*
X307420Y35560D01*
X307305Y36437D01*
X306966Y37255D01*
X306427Y37958D01*
X306115Y38197D01*
Y38827D01*
X306351Y39009D01*
X300974D01*
X300276Y39706D01*
Y43364D01*
X300876Y43964D01*
X331176D01*
X332076Y43064D01*
X333726Y41414D01*
X335826D01*
X336326Y40914D01*
Y37214D01*
X336026Y36914D01*
X331873D01*
Y36307D01*
X331873Y36306D01*
X331955Y35908D01*
X331873Y35806D01*
X331873D01*
X331592Y35423D01*
X331405Y35235D01*
X331184Y34905D01*
X331106Y34514D01*
Y31314D01*
X331184Y30924D01*
X331391Y30614D01*
X331374Y30527D01*
X331177Y30114D01*
X330876D01*
X331976Y29014D01*
Y28064D01*
X332576D01*
Y28831D01*
X332998Y29099D01*
X333076Y29062D01*
Y25014D01*
X338876D01*
Y25780D01*
X339621D01*
X340303Y25916D01*
X340882Y26303D01*
X341452Y26872D01*
X341883Y27126D01*
X342314Y26839D01*
X342821Y26738D01*
X348520D01*
X349027Y26839D01*
X349457Y27126D01*
X349744Y27556D01*
X349845Y28064D01*
Y29865D01*
X349744Y30372D01*
X349457Y30802D01*
X349472Y31393D01*
X349547Y31443D01*
X350047Y31943D01*
X350268Y32274D01*
X350346Y32664D01*
Y35014D01*
X350268Y35405D01*
X350047Y35735D01*
X349656Y36126D01*
X349697Y36543D01*
X350197Y37043D01*
X350418Y37374D01*
X350496Y37764D01*
Y39764D01*
X350418Y40154D01*
X350197Y40485D01*
X349447Y41235D01*
X349116Y41456D01*
X348726Y41534D01*
X345198Y41534D01*
X340630Y46102D01*
X340821Y46564D01*
X341126D01*
Y48614D01*
X338617D01*
X338264Y48468D01*
X331397Y55335D01*
X331066Y55556D01*
X330676Y55634D01*
X304972D01*
X304781Y56096D01*
X307635Y58950D01*
X308295Y58903D01*
X309205Y57993D01*
X309536Y57772D01*
X309926Y57695D01*
X314626Y57695D01*
X315016Y57772D01*
X315347Y57993D01*
X316112Y58758D01*
X316609Y58688D01*
X316693Y58363D01*
X316734Y58156D01*
X316955Y57825D01*
X317287Y57493D01*
X317617Y57272D01*
X318008Y57195D01*
X321951D01*
X322341Y57272D01*
X322672Y57493D01*
X323247Y58068D01*
X323468Y58399D01*
X323546Y58789D01*
Y62792D01*
X323848Y63095D01*
X327426D01*
X327816Y63172D01*
X328147Y63393D01*
X329847Y65093D01*
X330068Y65424D01*
X330146Y65814D01*
Y69564D01*
X330068Y69955D01*
X329847Y70285D01*
X329479Y70654D01*
X329280Y70951D01*
X329313Y71409D01*
X329397Y71493D01*
X329618Y71824D01*
X329696Y72214D01*
Y76043D01*
X329618Y76433D01*
X329397Y76764D01*
X328893Y77268D01*
Y82610D01*
X328815Y83000D01*
X328594Y83331D01*
X327794Y84131D01*
X327464Y84352D01*
X327073Y84430D01*
Y87315D01*
X327470D01*
Y93646D01*
X325600D01*
Y99303D01*
X325634Y99475D01*
X325634Y99475D01*
Y102160D01*
X326096Y102351D01*
X326522Y101925D01*
Y99348D01*
X329967D01*
X330051Y98853D01*
X329374Y98462D01*
X328821Y97909D01*
X328616Y97554D01*
X329126Y98064D01*
X332676D01*
X333047Y98435D01*
X333019Y98462D01*
X332343Y98853D01*
X332337Y98854D01*
X332333Y98989D01*
X332682Y99348D01*
X332822Y99348D01*
X333319Y99348D01*
X333476D01*
Y101398D01*
X332822D01*
Y99848D01*
X332822Y99356D01*
X332814Y99356D01*
X332323Y99848D01*
Y104448D01*
X329046D01*
X327468Y106026D01*
X326889Y106413D01*
X326206Y106549D01*
X324729D01*
X324046Y106413D01*
X323467Y106026D01*
X322588Y105147D01*
X322202Y104569D01*
X322066Y103886D01*
Y102308D01*
X319073D01*
Y94742D01*
X318926Y94284D01*
X316348D01*
X315946Y94687D01*
Y100814D01*
X315868Y101205D01*
X315647Y101535D01*
X314047Y103135D01*
X313716Y103356D01*
X313326Y103434D01*
X308776D01*
X308386Y103356D01*
X308055Y103135D01*
X306255Y101335D01*
X306034Y101005D01*
X305957Y100614D01*
Y88014D01*
X306034Y87624D01*
X306255Y87293D01*
X307005Y86543D01*
X307336Y86322D01*
X307726Y86245D01*
X316967D01*
X317158Y85783D01*
X316547Y85172D01*
X316160Y84593D01*
X316024Y83910D01*
Y83410D01*
X315628D01*
Y77217D01*
X315628Y77079D01*
X315295Y76717D01*
X314476D01*
Y76614D01*
X314726Y76364D01*
X319826D01*
Y82214D01*
X320926Y83314D01*
X322476D01*
X323376Y82414D01*
Y72164D01*
X323176Y71964D01*
X321262D01*
Y71961D01*
X323430D01*
X323719Y71545D01*
X323691Y71424D01*
X323507Y71084D01*
X318826D01*
X318436Y71006D01*
X318105Y70785D01*
X316955Y69635D01*
X316941Y69614D01*
X316828Y69472D01*
X316329Y69406D01*
X316258Y69424D01*
X316047Y69635D01*
X315716Y69856D01*
X315326Y69934D01*
X309726D01*
X309336Y69856D01*
X309005Y69635D01*
X308055Y68685D01*
X307834Y68354D01*
X307756Y67964D01*
Y64118D01*
X297601Y53963D01*
X297140Y54154D01*
Y106628D01*
X302026Y111514D01*
X384026D01*
X389626Y105914D01*
D02*
G37*
G36*
X314926Y100814D02*
Y94264D01*
X315926Y93264D01*
X318926D01*
X319776Y92414D01*
X319776Y88464D01*
X318576Y87264D01*
X307726D01*
X306976Y88014D01*
Y100614D01*
X308776Y102414D01*
X313326D01*
X314926Y100814D01*
D02*
G37*
G36*
X327873Y82610D02*
Y76845D01*
X328676Y76043D01*
Y72214D01*
X328423Y71961D01*
X324779D01*
X324476Y72264D01*
Y83214D01*
X324672Y83410D01*
X327073D01*
X327873Y82610D01*
D02*
G37*
G36*
X316076Y68164D02*
Y60164D01*
X314626Y58714D01*
X309926Y58714D01*
X308776Y59864D01*
Y67864D01*
Y67964D01*
X309726Y68914D01*
X315326D01*
X316076Y68164D01*
D02*
G37*
G36*
X329126Y69564D02*
Y65814D01*
X327426Y64114D01*
X323426D01*
X322526Y63214D01*
Y58789D01*
X321951Y58214D01*
X318008D01*
X317676Y58546D01*
Y68914D01*
X318826Y70064D01*
X328626D01*
X329126Y69564D01*
D02*
G37*
G36*
X375476Y52964D02*
Y51814D01*
X375826Y51464D01*
X380826D01*
X381626Y50664D01*
Y46364D01*
X380526Y45264D01*
X369126D01*
X368226Y46164D01*
Y52614D01*
X369176Y53564D01*
X374876D01*
X375476Y52964D01*
D02*
G37*
G36*
X386942Y55925D02*
Y44784D01*
X383426Y44784D01*
X383036Y44706D01*
X382705Y44485D01*
X381681Y43461D01*
X381499Y43413D01*
X381284Y43425D01*
X381023Y43510D01*
X380752Y43780D01*
X380770Y44028D01*
X380879Y44315D01*
X380916Y44322D01*
X381247Y44543D01*
X382347Y45643D01*
X382568Y45974D01*
X382646Y46364D01*
Y50664D01*
X382568Y51055D01*
X382347Y51385D01*
X382127Y51606D01*
X381973Y52042D01*
D01*
Y52542D01*
X381973D01*
Y52964D01*
X377276D01*
X376769Y53471D01*
X376644Y53429D01*
X376373Y53422D01*
X376197Y53685D01*
X375919Y53963D01*
Y54119D01*
X375764D01*
X375597Y54285D01*
X375266Y54506D01*
X374876Y54584D01*
X369176D01*
X368786Y54506D01*
X368455Y54285D01*
X368288Y54119D01*
X368250D01*
Y54080D01*
X367505Y53335D01*
X367284Y53004D01*
X367207Y52614D01*
Y46164D01*
X367284Y45774D01*
X367505Y45443D01*
X368315Y44634D01*
X368224Y44280D01*
X368123Y44134D01*
X363611D01*
X363349Y44453D01*
X363349Y44453D01*
Y44953D01*
X365399D01*
Y54119D01*
X363349D01*
Y56305D01*
X368074Y61030D01*
X381837D01*
X386942Y55925D01*
D02*
G37*
G36*
X380376Y42714D02*
Y38014D01*
X379626Y37264D01*
X362776Y37264D01*
X362026Y38014D01*
Y39764D01*
Y41914D01*
X363226Y43114D01*
X379976D01*
X380376Y42714D01*
D02*
G37*
G36*
X344776Y40514D02*
X348726Y40514D01*
X349476Y39764D01*
Y37764D01*
X348976Y37264D01*
X342526D01*
X342226Y36964D01*
X338176D01*
X337426Y37714D01*
X337426Y40764D01*
Y42564D01*
X335076Y44914D01*
X301367D01*
X300276Y46006D01*
Y51164D01*
X303726Y54614D01*
X330676D01*
X344776Y40514D01*
D02*
G37*
G36*
X390176Y43164D02*
Y37064D01*
X389776Y36664D01*
X381826D01*
X381676Y36814D01*
Y42014D01*
X383426Y43764D01*
X389576Y43764D01*
X390176Y43164D01*
D02*
G37*
G36*
X380326Y35514D02*
Y32014D01*
X380026Y31714D01*
X370876D01*
X370426Y32164D01*
X362326D01*
X361676Y32814D01*
Y34714D01*
X362326Y35364D01*
X370776Y35364D01*
X371426Y36014D01*
X379826D01*
X380326Y35514D01*
D02*
G37*
G36*
X349326Y35014D02*
Y32664D01*
X348826Y32164D01*
X342626D01*
X341026Y30564D01*
X332876D01*
X332126Y31314D01*
Y34314D01*
Y34514D01*
X332826Y35214D01*
X341826D01*
X342326Y35714D01*
X348626D01*
X349326Y35014D01*
D02*
G37*
G36*
X370726Y29514D02*
X374626D01*
X375276Y28864D01*
Y26414D01*
X374276Y25414D01*
X370976D01*
X370376Y26014D01*
Y27114D01*
X369876Y27614D01*
X363226D01*
X362726Y28114D01*
Y30114D01*
X363026Y30414D01*
X369826D01*
X370726Y29514D01*
D02*
G37*
G36*
X390276Y34314D02*
Y22814D01*
X389676Y22214D01*
X382076D01*
X381676Y22614D01*
Y34514D01*
X382176Y35014D01*
X389576D01*
X390276Y34314D01*
D02*
G37*
G36*
X370026Y19814D02*
Y18914D01*
X372426Y16514D01*
X380776D01*
X381326Y15964D01*
Y12414D01*
X380926Y12014D01*
X372726D01*
X371826Y12914D01*
Y14964D01*
X369526Y17264D01*
X363076Y17264D01*
X362476Y17864D01*
Y19664D01*
X363476Y20664D01*
X369176D01*
X370026Y19814D01*
D02*
G37*
%LPC*%
G36*
X13985Y297299D02*
X13965D01*
Y293847D01*
X17417D01*
Y293867D01*
X17148Y294872D01*
X16628Y295774D01*
X15892Y296510D01*
X14990Y297030D01*
X13985Y297299D01*
D02*
G37*
G36*
X12965D02*
X12944D01*
X11939Y297030D01*
X11038Y296510D01*
X10302Y295774D01*
X9781Y294872D01*
X9512Y293867D01*
Y293847D01*
X12965D01*
Y297299D01*
D02*
G37*
G36*
X17417Y292846D02*
X13965D01*
Y289394D01*
X13985D01*
X14990Y289663D01*
X15892Y290183D01*
X16628Y290919D01*
X17148Y291821D01*
X17417Y292826D01*
Y292846D01*
D02*
G37*
G36*
X12965D02*
X9512D01*
Y292826D01*
X9781Y291821D01*
X10302Y290919D01*
X11038Y290183D01*
X11939Y289663D01*
X12944Y289394D01*
X12965D01*
Y292846D01*
D02*
G37*
G36*
X13985Y252811D02*
X13965D01*
Y249358D01*
X17417D01*
Y249379D01*
X17148Y250384D01*
X16628Y251285D01*
X15892Y252021D01*
X14990Y252542D01*
X13985Y252811D01*
D02*
G37*
G36*
X12965D02*
X12944D01*
X11939Y252542D01*
X11038Y252021D01*
X10302Y251285D01*
X9781Y250384D01*
X9512Y249379D01*
Y249358D01*
X12965D01*
Y252811D01*
D02*
G37*
G36*
X17417Y248358D02*
X13965D01*
Y244905D01*
X13985D01*
X14990Y245175D01*
X15892Y245695D01*
X16628Y246431D01*
X17148Y247333D01*
X17417Y248338D01*
Y248358D01*
D02*
G37*
G36*
X12965D02*
X9512D01*
Y248338D01*
X9781Y247333D01*
X10302Y246431D01*
X11038Y245695D01*
X11939Y245175D01*
X12944Y244905D01*
X12965D01*
Y248358D01*
D02*
G37*
G36*
X234282Y231724D02*
X232629D01*
Y230070D01*
X233364Y230375D01*
X233978Y230989D01*
X234282Y231724D01*
D02*
G37*
G36*
X222629D02*
X220975D01*
X221280Y230989D01*
X221893Y230375D01*
X222629Y230070D01*
Y231724D01*
D02*
G37*
G36*
X258329Y219178D02*
Y217524D01*
X259982D01*
X259678Y218260D01*
X259064Y218873D01*
X258329Y219178D01*
D02*
G37*
G36*
X257329D02*
X256593Y218873D01*
X255980Y218260D01*
X255675Y217524D01*
X257329D01*
Y219178D01*
D02*
G37*
G36*
X252829D02*
Y217524D01*
X254482D01*
X254178Y218260D01*
X253564Y218873D01*
X252829Y219178D01*
D02*
G37*
G36*
X251829D02*
X251093Y218873D01*
X250480Y218260D01*
X250175Y217524D01*
X251829D01*
Y219178D01*
D02*
G37*
G36*
X247329D02*
Y217524D01*
X248982D01*
X248678Y218260D01*
X248064Y218873D01*
X247329Y219178D01*
D02*
G37*
G36*
X246329D02*
X245593Y218873D01*
X244980Y218260D01*
X244675Y217524D01*
X246329D01*
Y219178D01*
D02*
G37*
G36*
X259982Y216524D02*
X258329D01*
Y214870D01*
X259064Y215175D01*
X259678Y215789D01*
X259982Y216524D01*
D02*
G37*
G36*
X257329D02*
X255675D01*
X255980Y215789D01*
X256593Y215175D01*
X257329Y214870D01*
Y216524D01*
D02*
G37*
G36*
X254482D02*
X252829D01*
Y214870D01*
X253564Y215175D01*
X254178Y215789D01*
X254482Y216524D01*
D02*
G37*
G36*
X251829D02*
X250175D01*
X250480Y215789D01*
X251093Y215175D01*
X251829Y214870D01*
Y216524D01*
D02*
G37*
G36*
X248982D02*
X247329D01*
Y214870D01*
X248064Y215175D01*
X248678Y215789D01*
X248982Y216524D01*
D02*
G37*
G36*
X246329D02*
X244675D01*
X244980Y215789D01*
X245593Y215175D01*
X246329Y214870D01*
Y216524D01*
D02*
G37*
G36*
X217019Y195246D02*
X215978D01*
X214972Y194977D01*
X214071Y194456D01*
X213335Y193720D01*
X212815Y192819D01*
X212545Y191814D01*
Y190773D01*
X212815Y189768D01*
X213335Y188866D01*
X214071Y188130D01*
X214972Y187610D01*
X215978Y187341D01*
X217019D01*
X218024Y187610D01*
X218925Y188130D01*
X219661Y188866D01*
X220181Y189768D01*
X220451Y190773D01*
Y191814D01*
X220181Y192819D01*
X219661Y193720D01*
X218925Y194456D01*
X218024Y194977D01*
X217019Y195246D01*
D02*
G37*
G36*
X160379Y185728D02*
X159643Y185423D01*
X159199Y184979D01*
X158879Y184864D01*
X158559Y184979D01*
X158114Y185423D01*
X157379Y185728D01*
Y183574D01*
Y181420D01*
X158114Y181725D01*
X158559Y182169D01*
X158879Y182284D01*
X159199Y182169D01*
X159643Y181725D01*
X160379Y181420D01*
Y183574D01*
Y185728D01*
D02*
G37*
G36*
X168379D02*
X167643Y185423D01*
X167199Y184979D01*
X166879Y184864D01*
X166559Y184979D01*
X166114Y185423D01*
X165379Y185728D01*
Y183574D01*
Y181420D01*
X166114Y181725D01*
X166559Y182169D01*
X166879Y182284D01*
X167199Y182169D01*
X167643Y181725D01*
X168379Y181420D01*
Y183574D01*
Y185728D01*
D02*
G37*
G36*
X164379D02*
X163643Y185423D01*
X163199Y184979D01*
X162879Y184864D01*
X162559Y184979D01*
X162114Y185423D01*
X161379Y185728D01*
Y183574D01*
Y181420D01*
X162114Y181725D01*
X162559Y182169D01*
X162879Y182284D01*
X163199Y182169D01*
X163643Y181725D01*
X164379Y181420D01*
Y183574D01*
Y185728D01*
D02*
G37*
G36*
X169379D02*
Y184074D01*
X171032D01*
X170728Y184810D01*
X170114Y185423D01*
X169379Y185728D01*
D02*
G37*
G36*
X156379D02*
X155643Y185423D01*
X155030Y184810D01*
X154725Y184074D01*
X156379D01*
Y185728D01*
D02*
G37*
G36*
X171032Y183074D02*
X169379D01*
Y181420D01*
X170114Y181725D01*
X170728Y182339D01*
X171032Y183074D01*
D02*
G37*
G36*
X156379D02*
X154725D01*
X155030Y182339D01*
X155643Y181725D01*
X156379Y181420D01*
Y183074D01*
D02*
G37*
G36*
X203099Y181327D02*
X202058D01*
X201053Y181057D01*
X200152Y180537D01*
X200137Y180523D01*
X202579Y178081D01*
X205020Y180523D01*
X205006Y180537D01*
X204104Y181057D01*
X203099Y181327D01*
D02*
G37*
G36*
X199430Y179815D02*
X199416Y179801D01*
X198895Y178900D01*
X198661Y178025D01*
X198183Y177948D01*
X198150Y177952D01*
X197878Y178610D01*
X197264Y179223D01*
X196529Y179528D01*
Y177374D01*
Y175220D01*
X197264Y175525D01*
X197878Y176138D01*
X198150Y176796D01*
X198183Y176800D01*
X198661Y176723D01*
X198895Y175848D01*
X199416Y174947D01*
X199430Y174933D01*
X201872Y177374D01*
X199430Y179815D01*
D02*
G37*
G36*
X195529Y179528D02*
X194793Y179223D01*
X194180Y178610D01*
X193875Y177874D01*
X195529D01*
Y179528D01*
D02*
G37*
G36*
Y176874D02*
X193875D01*
X194180Y176138D01*
X194793Y175525D01*
X195529Y175220D01*
Y176874D01*
D02*
G37*
G36*
X205727Y179815D02*
X203286Y177374D01*
X205727Y174933D01*
X205742Y174947D01*
X206262Y175848D01*
X206532Y176854D01*
Y177894D01*
X206262Y178900D01*
X205742Y179801D01*
X205727Y179815D01*
D02*
G37*
G36*
X256063Y178705D02*
X255195D01*
X254393Y178373D01*
X253780Y177760D01*
X253448Y176958D01*
Y176090D01*
X253780Y175288D01*
X254393Y174675D01*
X255195Y174343D01*
X256063D01*
X256864Y174675D01*
X257478Y175288D01*
X257810Y176090D01*
Y176958D01*
X257478Y177760D01*
X256864Y178373D01*
X256063Y178705D01*
D02*
G37*
G36*
X209079Y174528D02*
Y172874D01*
X210732D01*
X210428Y173609D01*
X209814Y174223D01*
X209079Y174528D01*
D02*
G37*
G36*
X208079D02*
X207343Y174223D01*
X206730Y173609D01*
X206425Y172874D01*
X208079D01*
Y174528D01*
D02*
G37*
G36*
X202579Y176667D02*
X200137Y174225D01*
X200152Y174211D01*
X200692Y173899D01*
X200730Y173609D01*
X200425Y172874D01*
X204732D01*
X204428Y173609D01*
X204466Y173899D01*
X205006Y174211D01*
X205020Y174225D01*
X202579Y176667D01*
D02*
G37*
G36*
X196529Y174528D02*
Y172874D01*
X198182D01*
X197878Y173609D01*
X197264Y174223D01*
X196529Y174528D01*
D02*
G37*
G36*
X195529D02*
X194793Y174223D01*
X194180Y173609D01*
X193875Y172874D01*
X195529D01*
Y174528D01*
D02*
G37*
G36*
X198182Y171874D02*
X196529D01*
Y170220D01*
X197264Y170525D01*
X197878Y171139D01*
X198182Y171874D01*
D02*
G37*
G36*
X195529D02*
X193875D01*
X194180Y171139D01*
X194793Y170525D01*
X195529Y170220D01*
Y171874D01*
D02*
G37*
G36*
X210732D02*
X206425D01*
X206730Y171139D01*
X207174Y170694D01*
X207289Y170374D01*
X207174Y170054D01*
X206730Y169609D01*
X206425Y168874D01*
X210732D01*
X210428Y169609D01*
X209983Y170054D01*
X209868Y170374D01*
X209983Y170694D01*
X210428Y171139D01*
X210732Y171874D01*
D02*
G37*
G36*
X204732D02*
X200425D01*
X200730Y171139D01*
X201174Y170694D01*
X201289Y170374D01*
X201174Y170054D01*
X200730Y169609D01*
X200425Y168874D01*
X204732D01*
X204428Y169609D01*
X203983Y170054D01*
X203869Y170374D01*
X203983Y170694D01*
X204428Y171139D01*
X204732Y171874D01*
D02*
G37*
G36*
X210732Y167874D02*
X209079D01*
Y166220D01*
X209814Y166525D01*
X210428Y167139D01*
X210732Y167874D01*
D02*
G37*
G36*
X208079D02*
X206425D01*
X206730Y167139D01*
X207343Y166525D01*
X208079Y166220D01*
Y167874D01*
D02*
G37*
G36*
X204732D02*
X203079D01*
Y166220D01*
X203814Y166525D01*
X204428Y167139D01*
X204732Y167874D01*
D02*
G37*
G36*
X202079D02*
X200425D01*
X200730Y167139D01*
X201343Y166525D01*
X202079Y166220D01*
Y167874D01*
D02*
G37*
G36*
X281329Y160628D02*
Y158974D01*
X282982D01*
X282678Y159710D01*
X282064Y160323D01*
X281329Y160628D01*
D02*
G37*
G36*
X280329D02*
X279593Y160323D01*
X278980Y159710D01*
X278675Y158974D01*
X280329D01*
Y160628D01*
D02*
G37*
G36*
X282982Y157974D02*
X281329D01*
Y156320D01*
X282064Y156625D01*
X282678Y157238D01*
X282982Y157974D01*
D02*
G37*
G36*
X280329D02*
X278675D01*
X278980Y157238D01*
X279593Y156625D01*
X280329Y156320D01*
Y157974D01*
D02*
G37*
G36*
X157013Y158555D02*
X156145D01*
X155343Y158223D01*
X154730Y157609D01*
X154398Y156808D01*
Y155940D01*
X154730Y155139D01*
X155343Y154525D01*
X156145Y154193D01*
X157013D01*
X157814Y154525D01*
X158428Y155139D01*
X158760Y155940D01*
Y156808D01*
X158428Y157609D01*
X157814Y158223D01*
X157013Y158555D01*
D02*
G37*
G36*
Y153555D02*
X156145D01*
X155343Y153223D01*
X154730Y152610D01*
X154398Y151808D01*
Y150940D01*
X154730Y150138D01*
X155343Y149525D01*
X156145Y149193D01*
X157013D01*
X157814Y149525D01*
X158428Y150138D01*
X158760Y150940D01*
Y151808D01*
X158428Y152610D01*
X157814Y153223D01*
X157013Y153555D01*
D02*
G37*
G36*
X145529Y148078D02*
Y146424D01*
X147182D01*
X146878Y147160D01*
X146264Y147773D01*
X145529Y148078D01*
D02*
G37*
G36*
X144529D02*
X143793Y147773D01*
X143180Y147160D01*
X142875Y146424D01*
X144529D01*
Y148078D01*
D02*
G37*
G36*
X157013Y148555D02*
X156145D01*
X155343Y148223D01*
X154730Y147609D01*
X154398Y146808D01*
Y145940D01*
X154730Y145139D01*
X155343Y144525D01*
X156145Y144193D01*
X157013D01*
X157814Y144525D01*
X158428Y145139D01*
X158760Y145940D01*
Y146808D01*
X158428Y147609D01*
X157814Y148223D01*
X157013Y148555D01*
D02*
G37*
G36*
X147182Y145424D02*
X142875D01*
X143180Y144688D01*
X143444Y144424D01*
X143180Y144159D01*
X142875Y143424D01*
X147182D01*
X146878Y144159D01*
X146613Y144424D01*
X146878Y144688D01*
X147182Y145424D01*
D02*
G37*
G36*
Y142424D02*
X142875D01*
X143180Y141689D01*
X143444Y141424D01*
X143180Y141159D01*
X142875Y140424D01*
X147182D01*
X146878Y141159D01*
X146613Y141424D01*
X146878Y141689D01*
X147182Y142424D01*
D02*
G37*
G36*
X126713Y147255D02*
X125845D01*
X125043Y146923D01*
X124430Y146309D01*
X124098Y145508D01*
Y144640D01*
X124430Y143839D01*
X124874Y143394D01*
X124989Y143074D01*
X124874Y142754D01*
X124430Y142309D01*
X124098Y141508D01*
Y140640D01*
X124430Y139839D01*
X125043Y139225D01*
X125845Y138893D01*
X126713D01*
X127514Y139225D01*
X128128Y139839D01*
X128460Y140640D01*
Y141508D01*
X128128Y142309D01*
X127683Y142754D01*
X127568Y143074D01*
X127683Y143394D01*
X128128Y143839D01*
X128460Y144640D01*
Y145508D01*
X128128Y146309D01*
X127514Y146923D01*
X126713Y147255D01*
D02*
G37*
G36*
X147182Y139424D02*
X145529D01*
Y137770D01*
X146264Y138075D01*
X146878Y138689D01*
X147182Y139424D01*
D02*
G37*
G36*
X144529D02*
X142875D01*
X143180Y138689D01*
X143793Y138075D01*
X144529Y137770D01*
Y139424D01*
D02*
G37*
G36*
X192813Y138155D02*
X191945D01*
X191143Y137823D01*
X190530Y137209D01*
X190399Y136895D01*
X189858D01*
X189728Y137209D01*
X189114Y137823D01*
X188313Y138155D01*
X187445D01*
X186643Y137823D01*
X186030Y137209D01*
X185698Y136408D01*
Y135540D01*
X186030Y134739D01*
X186643Y134125D01*
X187445Y133793D01*
X188313D01*
X189114Y134125D01*
X189728Y134739D01*
X189858Y135053D01*
X190399D01*
X190530Y134739D01*
X191143Y134125D01*
X191945Y133793D01*
X192813D01*
X193614Y134125D01*
X194228Y134739D01*
X194560Y135540D01*
Y136408D01*
X194228Y137209D01*
X193614Y137823D01*
X192813Y138155D01*
D02*
G37*
G36*
X191879Y129128D02*
X191143Y128823D01*
X190530Y128209D01*
X190399Y127895D01*
X189858D01*
X189728Y128209D01*
X189114Y128823D01*
X188379Y129128D01*
Y126974D01*
Y124820D01*
X189114Y125125D01*
X189728Y125739D01*
X189858Y126053D01*
X190399D01*
X190530Y125739D01*
X191143Y125125D01*
X191879Y124820D01*
Y126974D01*
Y129128D01*
D02*
G37*
G36*
X192879D02*
Y127474D01*
X194532D01*
X194228Y128209D01*
X193614Y128823D01*
X192879Y129128D01*
D02*
G37*
G36*
X187379D02*
X186643Y128823D01*
X186030Y128209D01*
X185725Y127474D01*
X187379D01*
Y129128D01*
D02*
G37*
G36*
X242079Y129078D02*
Y127424D01*
X243732D01*
X243428Y128159D01*
X242814Y128773D01*
X242079Y129078D01*
D02*
G37*
G36*
X241079D02*
X240343Y128773D01*
X239730Y128159D01*
X239425Y127424D01*
X241079D01*
Y129078D01*
D02*
G37*
G36*
X163879Y128578D02*
Y126924D01*
X165532D01*
X165228Y127659D01*
X164614Y128273D01*
X163879Y128578D01*
D02*
G37*
G36*
X162879D02*
X162143Y128273D01*
X161530Y127659D01*
X161225Y126924D01*
X162879D01*
Y128578D01*
D02*
G37*
G36*
X158379D02*
Y126924D01*
X160032D01*
X159728Y127659D01*
X159114Y128273D01*
X158379Y128578D01*
D02*
G37*
G36*
X157379D02*
X156643Y128273D01*
X156030Y127659D01*
X155725Y126924D01*
X157379D01*
Y128578D01*
D02*
G37*
G36*
X96509Y150903D02*
X86466D01*
X85491Y150709D01*
X84663Y150156D01*
X79830Y145323D01*
X27279D01*
X26303Y145129D01*
X25476Y144576D01*
X20476Y139576D01*
X19924Y138750D01*
X19730Y137774D01*
Y134546D01*
X19247Y134267D01*
X18328Y133348D01*
X17678Y132222D01*
X17342Y130966D01*
Y129667D01*
X17678Y128411D01*
X18328Y127285D01*
X19247Y126366D01*
X20373Y125716D01*
X21629Y125380D01*
X22929D01*
X24184Y125716D01*
X25310Y126366D01*
X26229Y127285D01*
X26879Y128411D01*
X27216Y129667D01*
Y130966D01*
X26879Y132222D01*
X26229Y133348D01*
X25310Y134267D01*
X24828Y134546D01*
Y136718D01*
X28335Y140225D01*
X80886D01*
X81861Y140419D01*
X82688Y140972D01*
X87522Y145805D01*
X96509D01*
X97484Y145999D01*
X98311Y146552D01*
X98864Y147379D01*
X99058Y148354D01*
X98864Y149329D01*
X98311Y150156D01*
X97484Y150709D01*
X96509Y150903D01*
D02*
G37*
G36*
X194532Y126474D02*
X192879D01*
Y124820D01*
X193614Y125125D01*
X194228Y125739D01*
X194532Y126474D01*
D02*
G37*
G36*
X187379D02*
X185725D01*
X186030Y125739D01*
X186643Y125125D01*
X187379Y124820D01*
Y126474D01*
D02*
G37*
G36*
X243732Y126424D02*
X242079D01*
Y124770D01*
X242814Y125075D01*
X243428Y125689D01*
X243732Y126424D01*
D02*
G37*
G36*
X241079D02*
X239425D01*
X239730Y125689D01*
X240343Y125075D01*
X241079Y124770D01*
Y126424D01*
D02*
G37*
G36*
X165532Y125924D02*
X163879D01*
Y124270D01*
X164614Y124575D01*
X165228Y125189D01*
X165532Y125924D01*
D02*
G37*
G36*
X162879D02*
X161225D01*
X161530Y125189D01*
X162143Y124575D01*
X162879Y124270D01*
Y125924D01*
D02*
G37*
G36*
X160032D02*
X158379D01*
Y124270D01*
X159114Y124575D01*
X159728Y125189D01*
X160032Y125924D01*
D02*
G37*
G36*
X157379D02*
X155725D01*
X156030Y125189D01*
X156643Y124575D01*
X157379Y124270D01*
Y125924D01*
D02*
G37*
G36*
X65513Y131655D02*
X64645D01*
X63843Y131323D01*
X63230Y130710D01*
X62898Y129908D01*
Y129040D01*
X63230Y128238D01*
X63674Y127794D01*
X63789Y127474D01*
X63674Y127154D01*
X63230Y126709D01*
X62898Y125908D01*
Y125040D01*
X63230Y124239D01*
X63843Y123625D01*
X64645Y123293D01*
X65513D01*
X66314Y123625D01*
X66928Y124239D01*
X67260Y125040D01*
Y125908D01*
X66928Y126709D01*
X66483Y127154D01*
X66368Y127474D01*
X66483Y127794D01*
X66928Y128238D01*
X67260Y129040D01*
Y129908D01*
X66928Y130710D01*
X66314Y131323D01*
X65513Y131655D01*
D02*
G37*
G36*
X215017Y125575D02*
X214149D01*
X213347Y125243D01*
X212734Y124629D01*
X212402Y123827D01*
Y123391D01*
X211314Y122303D01*
X181681D01*
X181029Y122956D01*
X180533Y123287D01*
X179947Y123403D01*
X150234D01*
X149914Y123723D01*
X149113Y124055D01*
X148245D01*
X147443Y123723D01*
X146830Y123109D01*
X146498Y122308D01*
Y121440D01*
X146830Y120639D01*
X147336Y120132D01*
X147186Y119637D01*
X147183Y119632D01*
X123303D01*
X123020Y119916D01*
X122358Y120358D01*
X121578Y120513D01*
X72655D01*
X72313Y120655D01*
X71445D01*
X70643Y120323D01*
X70030Y119710D01*
X69698Y118908D01*
Y118040D01*
X70030Y117238D01*
X70643Y116625D01*
X71445Y116293D01*
X72313D01*
X72655Y116435D01*
X120733D01*
X121017Y116151D01*
X121678Y115709D01*
X122459Y115554D01*
X203265D01*
X231087Y87732D01*
X231748Y87290D01*
X232529Y87135D01*
X251502D01*
X251845Y86993D01*
X252713D01*
X253514Y87325D01*
X254128Y87938D01*
X254460Y88740D01*
Y89608D01*
X254128Y90409D01*
X253514Y91023D01*
X252713Y91355D01*
X251845D01*
X251502Y91213D01*
X233373D01*
X205842Y118745D01*
X206049Y119245D01*
X211948D01*
X212533Y119361D01*
X213029Y119693D01*
X214549Y121212D01*
X215017D01*
X215818Y121545D01*
X216432Y122158D01*
X216764Y122960D01*
Y123827D01*
X216432Y124629D01*
X215818Y125243D01*
X215017Y125575D01*
D02*
G37*
G36*
X270829Y117478D02*
Y115824D01*
X272482D01*
X272178Y116560D01*
X271564Y117173D01*
X270829Y117478D01*
D02*
G37*
G36*
X269829D02*
X269093Y117173D01*
X268480Y116560D01*
X268175Y115824D01*
X269829D01*
Y117478D01*
D02*
G37*
G36*
X265829D02*
Y115824D01*
X267482D01*
X267178Y116560D01*
X266564Y117173D01*
X265829Y117478D01*
D02*
G37*
G36*
X264829D02*
X264093Y117173D01*
X263480Y116560D01*
X263175Y115824D01*
X264829D01*
Y117478D01*
D02*
G37*
G36*
X260829D02*
Y115824D01*
X262482D01*
X262178Y116560D01*
X261564Y117173D01*
X260829Y117478D01*
D02*
G37*
G36*
X259829D02*
X259093Y117173D01*
X258480Y116560D01*
X258175Y115824D01*
X259829D01*
Y117478D01*
D02*
G37*
G36*
X272482Y114824D02*
X270829D01*
Y113170D01*
X271564Y113475D01*
X272178Y114088D01*
X272482Y114824D01*
D02*
G37*
G36*
X269829D02*
X268175D01*
X268480Y114088D01*
X269093Y113475D01*
X269829Y113170D01*
Y114824D01*
D02*
G37*
G36*
X267482D02*
X265829D01*
Y113170D01*
X266564Y113475D01*
X267178Y114088D01*
X267482Y114824D01*
D02*
G37*
G36*
X264829D02*
X263175D01*
X263480Y114088D01*
X264093Y113475D01*
X264829Y113170D01*
Y114824D01*
D02*
G37*
G36*
X262482D02*
X260829D01*
Y113170D01*
X261564Y113475D01*
X262178Y114088D01*
X262482Y114824D01*
D02*
G37*
G36*
X259829D02*
X258175D01*
X258480Y114088D01*
X259093Y113475D01*
X259829Y113170D01*
Y114824D01*
D02*
G37*
G36*
X248963Y116005D02*
X248095D01*
X247293Y115673D01*
X246680Y115059D01*
X246348Y114258D01*
Y113390D01*
X246680Y112589D01*
X247293Y111975D01*
X248095Y111643D01*
X248963D01*
X249764Y111975D01*
X250378Y112589D01*
X250710Y113390D01*
Y114258D01*
X250378Y115059D01*
X249764Y115673D01*
X248963Y116005D01*
D02*
G37*
G36*
X22929Y115568D02*
X21629D01*
X20373Y115232D01*
X19247Y114582D01*
X18328Y113663D01*
X17678Y112537D01*
X17342Y111282D01*
Y109982D01*
X17678Y108726D01*
X18328Y107600D01*
X19247Y106681D01*
X20373Y106031D01*
X21629Y105694D01*
X22929D01*
X24184Y106031D01*
X25310Y106681D01*
X26229Y107600D01*
X26879Y108726D01*
X27216Y109982D01*
Y111282D01*
X26879Y112537D01*
X26229Y113663D01*
X25310Y114582D01*
X24184Y115232D01*
X22929Y115568D01*
D02*
G37*
G36*
X139929Y102028D02*
Y100374D01*
X141582D01*
X141278Y101110D01*
X140664Y101723D01*
X139929Y102028D01*
D02*
G37*
G36*
X138929D02*
X138193Y101723D01*
X137580Y101110D01*
X137275Y100374D01*
X138929D01*
Y102028D01*
D02*
G37*
G36*
X141582Y99374D02*
X139929D01*
Y97720D01*
X140664Y98025D01*
X141278Y98638D01*
X141582Y99374D01*
D02*
G37*
G36*
X138929D02*
X137275D01*
X137580Y98638D01*
X138193Y98025D01*
X138929Y97720D01*
Y99374D01*
D02*
G37*
G36*
X139929Y96528D02*
Y94874D01*
X141582D01*
X141278Y95609D01*
X140664Y96223D01*
X139929Y96528D01*
D02*
G37*
G36*
X138929D02*
X138193Y96223D01*
X137580Y95609D01*
X137275Y94874D01*
X138929D01*
Y96528D01*
D02*
G37*
G36*
X141582Y93874D02*
X139929D01*
Y92220D01*
X140664Y92525D01*
X141278Y93138D01*
X141582Y93874D01*
D02*
G37*
G36*
X138929D02*
X137275D01*
X137580Y93138D01*
X138193Y92525D01*
X138929Y92220D01*
Y93874D01*
D02*
G37*
G36*
X139929Y91528D02*
Y89874D01*
X141582D01*
X141278Y90610D01*
X140664Y91223D01*
X139929Y91528D01*
D02*
G37*
G36*
X138929D02*
X138193Y91223D01*
X137580Y90610D01*
X137275Y89874D01*
X138929D01*
Y91528D01*
D02*
G37*
G36*
X141582Y88874D02*
X139929D01*
Y87220D01*
X140664Y87525D01*
X141278Y88139D01*
X141582Y88874D01*
D02*
G37*
G36*
X138929D02*
X137275D01*
X137580Y88139D01*
X138193Y87525D01*
X138929Y87220D01*
Y88874D01*
D02*
G37*
G36*
X116163Y95405D02*
X115295D01*
X114493Y95073D01*
X113880Y94459D01*
X113548Y93658D01*
Y92790D01*
X113880Y91988D01*
X114144Y91724D01*
X113880Y91460D01*
X113548Y90658D01*
Y89790D01*
X113880Y88989D01*
X114144Y88724D01*
X113880Y88459D01*
X113548Y87658D01*
Y86790D01*
X113880Y85988D01*
X114493Y85375D01*
X115295Y85043D01*
X116163D01*
X116964Y85375D01*
X117578Y85988D01*
X117910Y86790D01*
Y87658D01*
X117578Y88459D01*
X117313Y88724D01*
X117578Y88989D01*
X117910Y89790D01*
Y90658D01*
X117578Y91460D01*
X117313Y91724D01*
X117578Y91988D01*
X117910Y92790D01*
Y93658D01*
X117578Y94459D01*
X116964Y95073D01*
X116163Y95405D01*
D02*
G37*
G36*
X233054Y76710D02*
X232304D01*
X231610Y76423D01*
X231080Y75892D01*
X230793Y75199D01*
Y74449D01*
X231080Y73756D01*
X231610Y73225D01*
X232304Y72938D01*
X233054D01*
X233747Y73225D01*
X234278Y73756D01*
X234565Y74449D01*
Y75199D01*
X234278Y75892D01*
X233747Y76423D01*
X233054Y76710D01*
D02*
G37*
G36*
X263563Y55755D02*
X262695D01*
X261893Y55423D01*
X261449Y54979D01*
X261129Y54864D01*
X260809Y54979D01*
X260364Y55423D01*
X259563Y55755D01*
X258695D01*
X257893Y55423D01*
X257280Y54809D01*
X256948Y54008D01*
Y53140D01*
X257280Y52338D01*
X257893Y51725D01*
X258695Y51393D01*
X259563D01*
X260364Y51725D01*
X260809Y52169D01*
X261129Y52284D01*
X261449Y52169D01*
X261893Y51725D01*
X262695Y51393D01*
X263563D01*
X264364Y51725D01*
X264978Y52338D01*
X265310Y53140D01*
Y54008D01*
X264978Y54809D01*
X264364Y55423D01*
X263563Y55755D01*
D02*
G37*
G36*
X254563D02*
X253695D01*
X252893Y55423D01*
X252449Y54979D01*
X252129Y54864D01*
X251809Y54979D01*
X251364Y55423D01*
X250563Y55755D01*
X249695D01*
X248893Y55423D01*
X248280Y54809D01*
X247948Y54008D01*
Y53140D01*
X248280Y52338D01*
X248893Y51725D01*
X249695Y51393D01*
X250563D01*
X251364Y51725D01*
X251809Y52169D01*
X252129Y52284D01*
X252449Y52169D01*
X252893Y51725D01*
X253695Y51393D01*
X254563D01*
X255364Y51725D01*
X255978Y52338D01*
X256310Y53140D01*
Y54008D01*
X255978Y54809D01*
X255364Y55423D01*
X254563Y55755D01*
D02*
G37*
G36*
X237260Y50902D02*
Y49674D01*
X238487D01*
X238275Y50187D01*
X237772Y50689D01*
X237260Y50902D01*
D02*
G37*
G36*
X236260D02*
X235747Y50689D01*
X235244Y50187D01*
X235032Y49674D01*
X236260D01*
Y50902D01*
D02*
G37*
G36*
X238487Y48674D02*
X237260D01*
Y47447D01*
X237772Y47659D01*
X238275Y48162D01*
X238487Y48674D01*
D02*
G37*
G36*
X236260D02*
X235032D01*
X235244Y48162D01*
X235747Y47659D01*
X236260Y47447D01*
Y48674D01*
D02*
G37*
G36*
X201276Y48723D02*
Y40372D01*
X205756D01*
Y43809D01*
X205586Y45098D01*
X205089Y46299D01*
X204297Y47331D01*
X203266Y48122D01*
X202065Y48619D01*
X201276Y48723D01*
D02*
G37*
G36*
X200276D02*
X199488Y48619D01*
X198287Y48122D01*
X197255Y47331D01*
X196464Y46299D01*
X195966Y45098D01*
X195797Y43809D01*
Y40372D01*
X200276D01*
Y48723D01*
D02*
G37*
G36*
X205756Y39372D02*
X201276D01*
Y31022D01*
X202065Y31126D01*
X203266Y31623D01*
X204297Y32414D01*
X205089Y33446D01*
X205586Y34647D01*
X205756Y35935D01*
Y39372D01*
D02*
G37*
G36*
X200276D02*
X195797D01*
Y35935D01*
X195966Y34647D01*
X196464Y33446D01*
X197255Y32414D01*
X198287Y31623D01*
X199488Y31126D01*
X200276Y31022D01*
Y39372D01*
D02*
G37*
G36*
X185816Y32254D02*
X182379D01*
Y27774D01*
X190729D01*
X190626Y28563D01*
X190128Y29764D01*
X189337Y30795D01*
X188305Y31587D01*
X187105Y32084D01*
X185816Y32254D01*
D02*
G37*
G36*
X181379D02*
X177942D01*
X176653Y32084D01*
X175452Y31587D01*
X174421Y30795D01*
X173629Y29764D01*
X173132Y28563D01*
X173028Y27774D01*
X181379D01*
Y32254D01*
D02*
G37*
G36*
X229334Y25758D02*
Y24424D01*
X230668D01*
X230433Y24992D01*
X229902Y25523D01*
X229334Y25758D01*
D02*
G37*
G36*
X228334D02*
X227766Y25523D01*
X227235Y24992D01*
X227000Y24424D01*
X228334D01*
Y25758D01*
D02*
G37*
G36*
X190729Y26774D02*
X182379D01*
Y22294D01*
X185816D01*
X187105Y22464D01*
X188305Y22962D01*
X189337Y23753D01*
X190128Y24784D01*
X190626Y25985D01*
X190729Y26774D01*
D02*
G37*
G36*
X181379D02*
X173028D01*
X173132Y25985D01*
X173629Y24784D01*
X174421Y23753D01*
X175452Y22962D01*
X176653Y22464D01*
X177942Y22294D01*
X181379D01*
Y26774D01*
D02*
G37*
G36*
X230668Y23424D02*
X229334D01*
Y22090D01*
X229902Y22325D01*
X230433Y22856D01*
X230668Y23424D01*
D02*
G37*
G36*
X228334D02*
X227000D01*
X227235Y22856D01*
X227766Y22325D01*
X228334Y22090D01*
Y23424D01*
D02*
G37*
G36*
X267729Y20228D02*
Y18574D01*
X269382D01*
X269078Y19309D01*
X268464Y19923D01*
X267729Y20228D01*
D02*
G37*
G36*
X266729D02*
X265993Y19923D01*
X265380Y19309D01*
X265075Y18574D01*
X266729D01*
Y20228D01*
D02*
G37*
G36*
X261479Y19978D02*
Y18324D01*
X263132D01*
X262828Y19060D01*
X262214Y19673D01*
X261479Y19978D01*
D02*
G37*
G36*
X260479D02*
X259743Y19673D01*
X259130Y19060D01*
X258825Y18324D01*
X260479D01*
Y19978D01*
D02*
G37*
G36*
X256479D02*
Y18324D01*
X258132D01*
X257828Y19060D01*
X257214Y19673D01*
X256479Y19978D01*
D02*
G37*
G36*
X255479D02*
X254743Y19673D01*
X254130Y19060D01*
X253825Y18324D01*
X255479D01*
Y19978D01*
D02*
G37*
G36*
X269382Y17574D02*
X267729D01*
Y15920D01*
X268464Y16225D01*
X269078Y16838D01*
X269382Y17574D01*
D02*
G37*
G36*
X266729D02*
X265075D01*
X265380Y16838D01*
X265993Y16225D01*
X266729Y15920D01*
Y17574D01*
D02*
G37*
G36*
X263132Y17324D02*
X261479D01*
Y15670D01*
X262214Y15975D01*
X262828Y16589D01*
X263132Y17324D01*
D02*
G37*
G36*
X260479D02*
X258825D01*
X259130Y16589D01*
X259743Y15975D01*
X260479Y15670D01*
Y17324D01*
D02*
G37*
G36*
X258132D02*
X256479D01*
Y15670D01*
X257214Y15975D01*
X257828Y16589D01*
X258132Y17324D01*
D02*
G37*
G36*
X255479D02*
X253825D01*
X254130Y16589D01*
X254743Y15975D01*
X255479Y15670D01*
Y17324D01*
D02*
G37*
G36*
X267729Y12178D02*
Y10524D01*
X269382D01*
X269078Y11259D01*
X268464Y11873D01*
X267729Y12178D01*
D02*
G37*
G36*
X266729D02*
X265993Y11873D01*
X265380Y11259D01*
X265075Y10524D01*
X266729D01*
Y12178D01*
D02*
G37*
G36*
X261229D02*
Y10524D01*
X262882D01*
X262578Y11259D01*
X261964Y11873D01*
X261229Y12178D01*
D02*
G37*
G36*
X260229D02*
X259493Y11873D01*
X258880Y11259D01*
X258575Y10524D01*
X260229D01*
Y12178D01*
D02*
G37*
G36*
X256229D02*
Y10524D01*
X257882D01*
X257578Y11259D01*
X256964Y11873D01*
X256229Y12178D01*
D02*
G37*
G36*
X255229D02*
X254493Y11873D01*
X253880Y11259D01*
X253575Y10524D01*
X255229D01*
Y12178D01*
D02*
G37*
G36*
X269382Y9524D02*
X267729D01*
Y7870D01*
X268464Y8175D01*
X269078Y8788D01*
X269382Y9524D01*
D02*
G37*
G36*
X266729D02*
X265075D01*
X265380Y8788D01*
X265993Y8175D01*
X266729Y7870D01*
Y9524D01*
D02*
G37*
G36*
X262882D02*
X261229D01*
Y7870D01*
X261964Y8175D01*
X262578Y8788D01*
X262882Y9524D01*
D02*
G37*
G36*
X260229D02*
X258575D01*
X258880Y8788D01*
X259493Y8175D01*
X260229Y7870D01*
Y9524D01*
D02*
G37*
G36*
X257882D02*
X256229D01*
Y7870D01*
X256964Y8175D01*
X257578Y8788D01*
X257882Y9524D01*
D02*
G37*
G36*
X255229D02*
X253575D01*
X253880Y8788D01*
X254493Y8175D01*
X255229Y7870D01*
Y9524D01*
D02*
G37*
G36*
X338622Y104448D02*
X336223D01*
Y104264D01*
X338226D01*
X338622Y103868D01*
Y104448D01*
D02*
G37*
G36*
X335223D02*
X332822D01*
Y102398D01*
X333476D01*
Y103814D01*
X333926Y104264D01*
X335223D01*
Y104448D01*
D02*
G37*
G36*
X340007Y98243D02*
X339232Y97922D01*
X338626Y97316D01*
Y96514D01*
X340007D01*
Y98243D01*
D02*
G37*
G36*
Y95514D02*
X338626D01*
Y94713D01*
X339232Y94107D01*
X340007Y93786D01*
Y95514D01*
D02*
G37*
G36*
X332132Y93264D02*
X331697D01*
Y93148D01*
X332132Y93264D01*
D02*
G37*
G36*
X330697D02*
X330261D01*
X330697Y93148D01*
Y93264D01*
D02*
G37*
G36*
X310419Y84591D02*
X307163D01*
Y84414D01*
X310419D01*
Y84591D01*
D02*
G37*
G36*
X314675D02*
X311419D01*
Y84414D01*
X313326D01*
X314476Y83264D01*
Y82516D01*
X314675D01*
Y84591D01*
D02*
G37*
G36*
Y81516D02*
X314476D01*
Y79441D01*
X314675D01*
Y81516D01*
D02*
G37*
G36*
X320262Y71964D02*
X313387D01*
Y71567D01*
X316643D01*
Y71628D01*
X317006Y71961D01*
X317143Y71961D01*
X320262D01*
Y71964D01*
D02*
G37*
G36*
X312387D02*
X309132D01*
Y71567D01*
X312387D01*
Y71964D01*
D02*
G37*
G36*
X344526Y51664D02*
X342126D01*
Y49614D01*
X344526D01*
Y51664D01*
D02*
G37*
G36*
X341126D02*
X338726D01*
Y49614D01*
X341126D01*
Y51664D01*
D02*
G37*
G36*
X344526Y48614D02*
X342126D01*
Y46564D01*
X344526D01*
Y48614D01*
D02*
G37*
G36*
X319732Y39009D02*
X313874D01*
Y38958D01*
X319782D01*
X319732Y39009D01*
D02*
G37*
G36*
X312874D02*
X309618D01*
Y38958D01*
X312874D01*
Y39009D01*
D02*
G37*
G36*
X326976Y30114D02*
X326776D01*
Y28064D01*
X326976D01*
Y30114D01*
D02*
G37*
G36*
X332576Y27064D02*
X331976D01*
Y25014D01*
X332576D01*
Y27064D01*
D02*
G37*
G36*
X326976D02*
X326776D01*
Y25014D01*
X326976D01*
Y27064D01*
D02*
G37*
G36*
X348520Y26191D02*
X342821D01*
X342314Y26090D01*
X341883Y25802D01*
X341596Y25372D01*
X341495Y24865D01*
Y23064D01*
X341596Y22556D01*
X341883Y22126D01*
X342314Y21839D01*
X342821Y21738D01*
X348520D01*
X349027Y21839D01*
X349457Y22126D01*
X349744Y22556D01*
X349845Y23064D01*
Y24865D01*
X349744Y25372D01*
X349457Y25802D01*
X349027Y26090D01*
X348520Y26191D01*
D02*
G37*
G36*
X331976Y21564D02*
Y19514D01*
X332376D01*
Y21564D01*
X331976D01*
D02*
G37*
G36*
X338676D02*
X332876D01*
Y16464D01*
X338676D01*
Y16874D01*
X339176Y17190D01*
X339226Y17180D01*
X341847D01*
X341883Y17126D01*
X342314Y16839D01*
X342821Y16738D01*
X348520D01*
X349027Y16839D01*
X349457Y17126D01*
X349744Y17556D01*
X349845Y18064D01*
Y19865D01*
X349744Y20372D01*
X349457Y20802D01*
X349027Y21090D01*
X348520Y21191D01*
X342821D01*
X342314Y21090D01*
X341883Y20802D01*
X341847Y20749D01*
X339427D01*
X339176Y20799D01*
X338676D01*
Y21564D01*
D02*
G37*
G36*
X332376Y18514D02*
X331976D01*
Y17364D01*
X331076Y16464D01*
X332376D01*
Y18514D01*
D02*
G37*
G36*
X324226Y31634D02*
X316226Y31634D01*
X315836Y31556D01*
X315505Y31335D01*
X314230Y30060D01*
X314009Y29730D01*
X313931Y29339D01*
Y26489D01*
X314009Y26099D01*
X314230Y25768D01*
X315555Y24443D01*
X315886Y24222D01*
X316177Y24164D01*
X316423Y23703D01*
X316155Y23435D01*
X316086Y23331D01*
X316002Y23239D01*
X315976Y23167D01*
X315934Y23104D01*
X315910Y22982D01*
X315868Y22864D01*
X315871Y22789D01*
X315857Y22714D01*
X315881Y22592D01*
X315887Y22467D01*
X315907Y22389D01*
Y14764D01*
X315984Y14374D01*
X316205Y14043D01*
X317205Y13043D01*
X317536Y12822D01*
X317926Y12745D01*
X324426D01*
X324816Y12822D01*
X325147Y13043D01*
X326047Y13943D01*
X326268Y14274D01*
X326346Y14664D01*
Y16060D01*
X326576Y16464D01*
X326846Y16464D01*
X327676D01*
X326976Y17164D01*
Y21564D01*
X326846D01*
X326576Y21564D01*
X326346Y21969D01*
Y22714D01*
X326268Y23104D01*
X326047Y23435D01*
X324993Y24489D01*
X325547Y25043D01*
X325768Y25374D01*
X325846Y25764D01*
Y30014D01*
X325768Y30404D01*
X325547Y30735D01*
X324947Y31335D01*
X324616Y31556D01*
X324226Y31634D01*
D02*
G37*
G36*
X369031Y11191D02*
X366682D01*
Y10764D01*
X369994D01*
X369969Y10802D01*
X369539Y11090D01*
X369031Y11191D01*
D02*
G37*
G36*
X365682D02*
X363333D01*
X362825Y11090D01*
X362395Y10802D01*
X362156Y10444D01*
X362476Y10764D01*
X365682D01*
Y11191D01*
D02*
G37*
G36*
X381898Y7453D02*
X381626D01*
Y5764D01*
X380915Y5053D01*
X381898D01*
Y7453D01*
D02*
G37*
%LPD*%
G36*
X324826Y30014D02*
Y25764D01*
X324226Y25164D01*
X316276Y25164D01*
X314951Y26489D01*
Y29339D01*
X316226Y30614D01*
X324226Y30614D01*
X324826Y30014D01*
D02*
G37*
G36*
X325326Y22714D02*
Y14664D01*
X324426Y13764D01*
X317926D01*
X316926Y14764D01*
Y22514D01*
X316876Y22714D01*
X318026Y23864D01*
X324176D01*
X325326Y22714D01*
D02*
G37*
%LPC*%
G36*
X382676Y57980D02*
Y57214D01*
X383011D01*
X382706Y57950D01*
X382676Y57980D01*
D02*
G37*
G36*
X383011Y56214D02*
X382676D01*
Y55449D01*
X382706Y55479D01*
X383011Y56214D01*
D02*
G37*
%LPD*%
D20*
X229229Y132968D02*
X266785D01*
X226076Y136121D02*
X229229Y132968D01*
X266785D02*
X282279Y117474D01*
X214567Y123394D02*
X214583D01*
X211948Y120774D02*
X214567Y123394D01*
X167079Y98374D02*
X190079Y75374D01*
X167079Y98374D02*
Y103874D01*
X190079Y75374D02*
X215079D01*
X222928Y54000D02*
Y77025D01*
X181047Y120774D02*
X211948D01*
X179947Y121874D02*
X181047Y120774D01*
X148679Y121874D02*
X179947D01*
X282279Y43456D02*
Y117474D01*
X222928Y54000D02*
X234704Y42224D01*
X252529D01*
X264791Y29961D01*
X251390Y139685D02*
Y184383D01*
X247579Y135874D02*
X251390Y139685D01*
X248883Y186890D02*
X251390Y184383D01*
X274689Y35867D02*
X282279Y43456D01*
X233379Y137774D02*
X241131Y145526D01*
Y189138D01*
X248883Y196890D01*
X229979Y144982D02*
X237260Y152263D01*
Y173149D01*
X231589Y178819D02*
X237260Y173149D01*
X229979Y136274D02*
Y144982D01*
X231589Y178819D02*
Y206890D01*
X264791Y29961D02*
X274099D01*
X226076Y136121D02*
Y136474D01*
X274099Y35867D02*
X274689D01*
D26*
X341626Y49114D02*
D03*
X347926D02*
D03*
X329676Y27564D02*
D03*
X335976D02*
D03*
X329476Y19014D02*
D03*
X335776D02*
D03*
X319976Y61364D02*
D03*
X313676D02*
D03*
X335722Y101898D02*
D03*
X329422D02*
D03*
X379026Y27564D02*
D03*
X372726D02*
D03*
D30*
X310919Y89497D02*
D03*
Y82016D02*
D03*
X320761Y67056D02*
D03*
Y74536D02*
D03*
X312888Y66662D02*
D03*
Y74142D02*
D03*
X321311Y16662D02*
D03*
Y9182D02*
D03*
X320854Y49014D02*
D03*
Y41533D02*
D03*
X328335Y49014D02*
D03*
Y41533D02*
D03*
X313374Y49014D02*
D03*
Y41533D02*
D03*
D40*
X383360Y32606D02*
D03*
Y38906D02*
D03*
X388478D02*
D03*
Y32606D02*
D03*
X378242Y34106D02*
D03*
Y40406D02*
D03*
X373124Y34106D02*
D03*
Y40406D02*
D03*
X379348Y7953D02*
D03*
Y14253D02*
D03*
X339541Y32906D02*
D03*
Y39206D02*
D03*
X334422D02*
D03*
Y32906D02*
D03*
X321705Y21583D02*
D03*
Y27883D02*
D03*
X379423Y55442D02*
D03*
Y49142D02*
D03*
X374230Y14253D02*
D03*
Y7953D02*
D03*
X326667Y73945D02*
D03*
Y67645D02*
D03*
D110*
X181879Y9557D02*
D03*
X5980Y180874D02*
D03*
D139*
X297638Y51476D02*
X311898Y65736D01*
X297638Y34864D02*
X302848Y29654D01*
X297638Y34864D02*
Y51476D01*
X345155Y88821D02*
Y95977D01*
X355576Y27621D02*
Y78400D01*
X345155Y88821D02*
X355576Y78400D01*
X325289Y80245D02*
Y90481D01*
X336176Y57614D02*
X341626Y52164D01*
X336176Y57614D02*
Y96014D01*
X341626Y49114D02*
Y52164D01*
X347926Y49114D02*
Y79064D01*
X345155Y81835D02*
X347926Y79064D01*
X348542Y45728D02*
Y47524D01*
Y45728D02*
X352856Y41414D01*
X361565Y57044D02*
X367335Y62814D01*
X382576D02*
X388726Y56664D01*
X367335Y62814D02*
X382576D01*
X388726Y42555D02*
Y56664D01*
X378242Y28349D02*
X379026Y27564D01*
X378242Y28349D02*
Y34106D01*
X339226Y18964D02*
X345670D01*
X339176Y19014D02*
X339226Y18964D01*
X335776Y19014D02*
X339176D01*
X383414Y17227D02*
X384425D01*
X373076Y27564D02*
X383414Y17227D01*
X372726Y27564D02*
X373076D01*
X384425Y17227D02*
X386509Y15142D01*
X355576Y27621D02*
X364233Y18964D01*
X352856Y16434D02*
Y41414D01*
Y16434D02*
X355326Y13964D01*
X364233Y18964D02*
X366182D01*
X358976Y29221D02*
Y41865D01*
X361565Y44453D01*
X358976Y29221D02*
X364233Y23964D01*
X355326Y13964D02*
X366182D01*
X335976Y27564D02*
X339621D01*
X341021Y28964D01*
X345670D01*
X302848Y29654D02*
X303439D01*
X364233Y23964D02*
X366182D01*
X361565Y44453D02*
Y49536D01*
Y57044D01*
X388478Y42306D02*
X388726Y42555D01*
X388478Y38906D02*
Y42306D01*
X311496Y12616D02*
X317955Y6157D01*
X311496Y12616D02*
Y16282D01*
X317955Y6157D02*
X338213D01*
X304029Y23749D02*
X311496Y16282D01*
X303439Y23749D02*
X304029D01*
X338213Y6157D02*
X341021Y8964D01*
X345670D01*
X336238Y9182D02*
X341021Y13964D01*
X321311Y9182D02*
X336238D01*
X341021Y13964D02*
X345670D01*
X326206Y104764D02*
X328273Y102698D01*
X323850Y99475D02*
Y103886D01*
X329072Y101898D02*
X329422D01*
X324729Y104764D02*
X326206D01*
X328273Y102698D02*
X329072Y101898D01*
X323850Y103886D02*
X324729Y104764D01*
X322336Y97961D02*
X323850Y99475D01*
X322336Y88437D02*
Y97961D01*
X317809Y83910D02*
X322336Y88437D01*
X317809Y80245D02*
Y83910D01*
D140*
X230779Y65578D02*
X232121D01*
X233888Y67304D02*
Y67344D01*
X232121Y65578D02*
X235367Y62332D01*
X262429D01*
X233868Y67324D02*
X233888Y67344D01*
Y67304D02*
X236390Y64802D01*
X261406D01*
X264954Y68349D01*
X262429Y62332D02*
X279167Y79070D01*
X272834Y76229D02*
X276697Y80093D01*
X271398Y77665D02*
X272834Y76229D01*
X268945Y75211D02*
X271398Y77665D01*
X268945Y75211D02*
X270380Y73776D01*
X267927Y71322D02*
X270380Y73776D01*
X266491Y72758D02*
X267927Y71322D01*
X264038Y70304D02*
X266491Y72758D01*
X264038Y70304D02*
X265473Y68869D01*
X264954Y68349D02*
X265473Y68869D01*
X276697Y80093D02*
Y101295D01*
X279167Y79070D02*
Y102318D01*
X275671Y102322D02*
X276697Y101295D01*
X275634Y102322D02*
X275671D01*
X277417Y104068D02*
Y104105D01*
Y104068D02*
X279167Y102318D01*
X276679Y104844D02*
X277417Y104105D01*
X274895Y103060D02*
X275634Y102322D01*
D144*
X194027Y81424D02*
X206779D01*
X169579Y111374D02*
X195898Y85055D01*
X50741Y111374D02*
X169579D01*
X44379Y107174D02*
X168278D01*
X195898Y85055D02*
X199148D01*
X168278Y107174D02*
X194027Y81424D01*
X199148Y85055D02*
X201016Y86924D01*
X232529Y89174D02*
X252279D01*
X201016Y86924D02*
X208270D01*
X204110Y117593D02*
X232529Y89174D01*
X122459Y117593D02*
X204110D01*
X219579Y125374D02*
Y150374D01*
X121578Y118474D02*
X122459Y117593D01*
X71879Y118474D02*
X121578D01*
X42079Y104874D02*
X44379Y107174D01*
X49722Y110355D02*
X50741Y111374D01*
X45560Y110355D02*
X49722D01*
X228842Y153374D02*
X234579D01*
X222895Y147427D02*
X228842Y153374D01*
X222895Y125927D02*
Y147427D01*
X219579Y150374D02*
X225579Y156374D01*
D147*
X222379Y34074D02*
X250079D01*
X204376Y52077D02*
X222379Y34074D01*
X164898Y61374D02*
X208321D01*
X210079Y59374D02*
Y59617D01*
X208321Y61374D02*
X210079Y59617D01*
X127079Y23555D02*
X164898Y61374D01*
X177548Y52077D02*
X204376D01*
X112079Y19874D02*
X161479Y69274D01*
X210079D01*
X78579Y19874D02*
X112079D01*
X86466Y148354D02*
X96509D01*
X80886Y142774D02*
X86466Y148354D01*
X27279Y142774D02*
X80886D01*
X22279Y137774D02*
X27279Y142774D01*
X22279Y130316D02*
Y137774D01*
D148*
X243740Y323228D02*
Y340709D01*
X248740Y345709D01*
X193347Y340709D02*
X198346Y345709D01*
X193347Y323228D02*
Y340709D01*
D150*
X345339Y81945D02*
D03*
Y96087D02*
D03*
X331197D02*
D03*
D151*
X303439Y47371D02*
D03*
Y41465D02*
D03*
Y35560D02*
D03*
Y29654D02*
D03*
Y23749D02*
D03*
Y17843D02*
D03*
X274099Y18150D02*
D03*
Y24056D02*
D03*
Y29961D02*
D03*
Y35867D02*
D03*
Y41772D02*
D03*
Y47678D02*
D03*
D152*
X202579Y177374D02*
D03*
X216498Y191293D02*
D03*
X13465Y293347D02*
D03*
X33150D02*
D03*
X13465Y248858D02*
D03*
X33150D02*
D03*
D153*
X193347Y323228D02*
D03*
X223346Y253228D02*
D03*
Y313228D02*
D03*
X193347Y293228D02*
D03*
Y253228D02*
D03*
X243740Y323228D02*
D03*
X273740Y253228D02*
D03*
Y313228D02*
D03*
X243740Y293228D02*
D03*
Y253228D02*
D03*
D154*
X55379Y55374D02*
D03*
Y62598D02*
D03*
X58991Y51762D02*
D03*
Y58986D02*
D03*
Y66211D02*
D03*
X62603Y55374D02*
D03*
Y62598D02*
D03*
X66215Y51762D02*
D03*
Y58986D02*
D03*
Y66211D02*
D03*
X69828Y55374D02*
D03*
Y62598D02*
D03*
D155*
X177548Y52077D02*
D03*
D156*
X200776Y39872D02*
D03*
X23697Y180874D02*
D03*
D157*
X181879Y27274D02*
D03*
X36295Y161976D02*
D03*
D158*
X118193Y9224D02*
D03*
X130004D02*
D03*
D159*
X76850Y227992D02*
D03*
X22279Y110632D02*
D03*
Y130316D02*
D03*
X159134Y345315D02*
D03*
X41024D02*
D03*
X96535Y306732D02*
D03*
X135906D02*
D03*
X155591Y227992D02*
D03*
D160*
X22520Y328780D02*
D03*
Y348780D02*
D03*
X268740Y345709D02*
D03*
X248740D02*
D03*
X218347D02*
D03*
X198346D02*
D03*
D161*
X48500Y185205D02*
D03*
D162*
X380857Y56714D02*
D03*
X374007Y5264D02*
D03*
X333907Y23114D02*
D03*
X321707Y27814D02*
D03*
X369007Y5264D02*
D03*
X311607Y79664D02*
D03*
X313357Y93864D02*
D03*
X214583Y123394D02*
D03*
X156879Y183574D02*
D03*
X160879D02*
D03*
X164879D02*
D03*
X168879D02*
D03*
X187879Y135974D02*
D03*
X192379D02*
D03*
X157879Y126424D02*
D03*
X260979Y17824D02*
D03*
X260729Y10024D02*
D03*
X270329Y115324D02*
D03*
X265329D02*
D03*
X260329D02*
D03*
X267229Y10024D02*
D03*
X255729D02*
D03*
X267229Y18074D02*
D03*
X255979Y17824D02*
D03*
X232129Y232224D02*
D03*
X227629D02*
D03*
X208579Y168374D02*
D03*
X202579D02*
D03*
X208579Y172374D02*
D03*
X196029D02*
D03*
X202579D02*
D03*
X196029Y177374D02*
D03*
X139429Y89374D02*
D03*
Y94374D02*
D03*
Y99874D02*
D03*
X192379Y126974D02*
D03*
X187879D02*
D03*
X163379Y126424D02*
D03*
X145029Y139924D02*
D03*
Y142924D02*
D03*
Y145924D02*
D03*
X248529Y113824D02*
D03*
X239079Y73974D02*
D03*
X252279Y89174D02*
D03*
X241579Y126924D02*
D03*
X280829Y158474D02*
D03*
X223129Y232224D02*
D03*
X252329Y217024D02*
D03*
X257829D02*
D03*
X246829D02*
D03*
X26779Y6174D02*
D03*
X27079Y12824D02*
D03*
Y19824D02*
D03*
X115729Y90224D02*
D03*
Y93224D02*
D03*
X54729Y21174D02*
D03*
X254129Y53574D02*
D03*
X263129D02*
D03*
X259129D02*
D03*
X250129D02*
D03*
X208270Y86924D02*
D03*
X222928Y77025D02*
D03*
X219579Y125374D02*
D03*
X206779Y81424D02*
D03*
X148679Y121874D02*
D03*
X167079Y103874D02*
D03*
X255629Y176524D02*
D03*
X115729Y87224D02*
D03*
X126279Y145074D02*
D03*
X281929Y142374D02*
D03*
X282029Y145474D02*
D03*
X247579Y135874D02*
D03*
X210079Y59374D02*
D03*
X233379Y137774D02*
D03*
X234579Y153374D02*
D03*
X231589Y206890D02*
D03*
X248883Y186890D02*
D03*
Y196890D02*
D03*
X226076Y136474D02*
D03*
X229979Y136274D02*
D03*
X210079Y69274D02*
D03*
X71879Y118474D02*
D03*
X45560Y110355D02*
D03*
X42079Y104874D02*
D03*
X215079Y75374D02*
D03*
X127079Y23555D02*
D03*
X78579Y19874D02*
D03*
X222895Y125927D02*
D03*
X225579Y156374D02*
D03*
X156579Y146374D02*
D03*
Y151374D02*
D03*
Y156374D02*
D03*
X250079Y34074D02*
D03*
X126279Y141074D02*
D03*
X96509Y148354D02*
D03*
X44899Y6934D02*
D03*
X47949D02*
D03*
X41849D02*
D03*
X42669Y188014D02*
D03*
X42569Y181614D02*
D03*
X65079Y125474D02*
D03*
Y129474D02*
D03*
X42569Y175544D02*
D03*
X57649Y187324D02*
D03*
Y192744D02*
D03*
D163*
X340507Y96014D02*
D03*
D164*
X230779Y65578D02*
D03*
X233979Y68556D02*
D03*
X236760Y49174D02*
D03*
X276679Y104844D02*
D03*
X274895Y103060D02*
D03*
D165*
X194379Y92374D02*
D03*
X232679Y74824D02*
D03*
X228834Y23924D02*
D03*
D166*
X236979Y38524D02*
D03*
D213*
X325289Y80245D02*
D03*
X321549D02*
D03*
X317809D02*
D03*
X325289Y90481D02*
D03*
X317809D02*
D03*
D214*
X311313Y97961D02*
D03*
X322336D02*
D03*
D215*
X361565Y49536D02*
D03*
X372084D02*
D03*
D216*
X345670Y38964D02*
D03*
Y33964D02*
D03*
Y28964D02*
D03*
Y23964D02*
D03*
Y18964D02*
D03*
Y13964D02*
D03*
Y8964D02*
D03*
X366182D02*
D03*
Y13964D02*
D03*
Y18964D02*
D03*
Y23964D02*
D03*
Y28964D02*
D03*
Y33964D02*
D03*
Y38964D02*
D03*
D217*
X386509Y15142D02*
D03*
Y25662D02*
D03*
M02*
