G04*
G04 #@! TF.GenerationSoftware,Altium Limited,Altium Designer,24.2.2 (26)*
G04*
G04 Layer_Physical_Order=1*
G04 Layer_Color=255*
%FSLAX25Y25*%
%MOIN*%
G70*
G04*
G04 #@! TF.SameCoordinates,0C852235-8BC0-4ED4-A074-6CA5B6053031*
G04*
G04*
G04 #@! TF.FilePolarity,Positive*
G04*
G01*
G75*
%ADD10C,0.00984*%
%ADD11C,0.01000*%
%ADD14C,0.00787*%
%ADD15C,0.01181*%
%ADD17R,0.03800X0.03100*%
%ADD18R,0.02362X0.01181*%
%ADD19R,0.01181X0.02362*%
%ADD20R,0.03100X0.03800*%
%ADD21R,0.02756X0.05118*%
%ADD22R,0.01181X0.02953*%
%ADD23R,0.02953X0.01181*%
G04:AMPARAMS|DCode=24|XSize=31.5mil|YSize=39.37mil|CornerRadius=3.94mil|HoleSize=0mil|Usage=FLASHONLY|Rotation=0.000|XOffset=0mil|YOffset=0mil|HoleType=Round|Shape=RoundedRectangle|*
%AMROUNDEDRECTD24*
21,1,0.03150,0.03150,0,0,0.0*
21,1,0.02362,0.03937,0,0,0.0*
1,1,0.00787,0.01181,-0.01575*
1,1,0.00787,-0.01181,-0.01575*
1,1,0.00787,-0.01181,0.01575*
1,1,0.00787,0.01181,0.01575*
%
%ADD24ROUNDEDRECTD24*%
G04:AMPARAMS|DCode=25|XSize=51.18mil|YSize=43.31mil|CornerRadius=2.17mil|HoleSize=0mil|Usage=FLASHONLY|Rotation=90.000|XOffset=0mil|YOffset=0mil|HoleType=Round|Shape=RoundedRectangle|*
%AMROUNDEDRECTD25*
21,1,0.05118,0.03898,0,0,90.0*
21,1,0.04685,0.04331,0,0,90.0*
1,1,0.00433,0.01949,0.02343*
1,1,0.00433,0.01949,-0.02343*
1,1,0.00433,-0.01949,-0.02343*
1,1,0.00433,-0.01949,0.02343*
%
%ADD25ROUNDEDRECTD25*%
G04:AMPARAMS|DCode=26|XSize=11.81mil|YSize=45.28mil|CornerRadius=1.48mil|HoleSize=0mil|Usage=FLASHONLY|Rotation=0.000|XOffset=0mil|YOffset=0mil|HoleType=Round|Shape=RoundedRectangle|*
%AMROUNDEDRECTD26*
21,1,0.01181,0.04232,0,0,0.0*
21,1,0.00886,0.04528,0,0,0.0*
1,1,0.00295,0.00443,-0.02116*
1,1,0.00295,-0.00443,-0.02116*
1,1,0.00295,-0.00443,0.02116*
1,1,0.00295,0.00443,0.02116*
%
%ADD26ROUNDEDRECTD26*%
G04:AMPARAMS|DCode=27|XSize=23.62mil|YSize=45.28mil|CornerRadius=2.95mil|HoleSize=0mil|Usage=FLASHONLY|Rotation=0.000|XOffset=0mil|YOffset=0mil|HoleType=Round|Shape=RoundedRectangle|*
%AMROUNDEDRECTD27*
21,1,0.02362,0.03937,0,0,0.0*
21,1,0.01772,0.04528,0,0,0.0*
1,1,0.00591,0.00886,-0.01968*
1,1,0.00591,-0.00886,-0.01968*
1,1,0.00591,-0.00886,0.01968*
1,1,0.00591,0.00886,0.01968*
%
%ADD27ROUNDEDRECTD27*%
G04:AMPARAMS|DCode=28|XSize=31.5mil|YSize=39.37mil|CornerRadius=3.94mil|HoleSize=0mil|Usage=FLASHONLY|Rotation=90.000|XOffset=0mil|YOffset=0mil|HoleType=Round|Shape=RoundedRectangle|*
%AMROUNDEDRECTD28*
21,1,0.03150,0.03150,0,0,90.0*
21,1,0.02362,0.03937,0,0,90.0*
1,1,0.00787,0.01575,0.01181*
1,1,0.00787,0.01575,-0.01181*
1,1,0.00787,-0.01575,-0.01181*
1,1,0.00787,-0.01575,0.01181*
%
%ADD28ROUNDEDRECTD28*%
%ADD29R,0.05118X0.02756*%
G04:AMPARAMS|DCode=30|XSize=23.62mil|YSize=47.24mil|CornerRadius=2.95mil|HoleSize=0mil|Usage=FLASHONLY|Rotation=90.000|XOffset=0mil|YOffset=0mil|HoleType=Round|Shape=RoundedRectangle|*
%AMROUNDEDRECTD30*
21,1,0.02362,0.04134,0,0,90.0*
21,1,0.01772,0.04724,0,0,90.0*
1,1,0.00591,0.02067,0.00886*
1,1,0.00591,0.02067,-0.00886*
1,1,0.00591,-0.02067,-0.00886*
1,1,0.00591,-0.02067,0.00886*
%
%ADD30ROUNDEDRECTD30*%
%ADD53C,0.03398*%
%ADD54C,0.00800*%
%ADD55C,0.00600*%
%ADD56C,0.01968*%
%ADD57C,0.01575*%
%ADD58R,0.15630X0.04252*%
%ADD59R,0.12362X0.03740*%
%ADD60R,0.04095X0.10669*%
%ADD61R,0.12676X0.03780*%
%ADD62C,0.09449*%
%ADD63C,0.04201*%
%ADD64O,0.06693X0.04724*%
%ADD65O,0.03937X0.08268*%
%ADD66C,0.02559*%
%ADD67O,0.03937X0.07087*%
%ADD68C,0.05906*%
%ADD69C,0.01181*%
%ADD70C,0.01772*%
%ADD71C,0.02362*%
G36*
X109055Y90945D02*
X109055Y3543D01*
X107087Y1575D01*
X3150Y1575D01*
X1181Y3543D01*
Y89764D01*
X3937Y92520D01*
X107480D01*
X109055Y90945D01*
D02*
G37*
%LPC*%
G36*
X38846Y88291D02*
Y86957D01*
X40181D01*
X39945Y87525D01*
X39415Y88055D01*
X38846Y88291D01*
D02*
G37*
G36*
X37846D02*
X37278Y88055D01*
X36748Y87525D01*
X36512Y86957D01*
X37846D01*
Y88291D01*
D02*
G37*
G36*
X32941D02*
Y86957D01*
X34275D01*
X34040Y87525D01*
X33509Y88055D01*
X32941Y88291D01*
D02*
G37*
G36*
X31941D02*
X31373Y88055D01*
X30842Y87525D01*
X30607Y86957D01*
X31941D01*
Y88291D01*
D02*
G37*
G36*
X48967Y88176D02*
X46917D01*
Y85776D01*
X48967D01*
Y88176D01*
D02*
G37*
G36*
X45917D02*
X43867D01*
Y85776D01*
X45917D01*
Y88176D01*
D02*
G37*
G36*
X65098Y88268D02*
X63650D01*
Y85185D01*
X66339D01*
Y87028D01*
X66244Y87502D01*
X65975Y87905D01*
X65573Y88174D01*
X65098Y88268D01*
D02*
G37*
G36*
X62650D02*
X61201D01*
X60726Y88174D01*
X60324Y87905D01*
X60055Y87502D01*
X59960Y87028D01*
Y85185D01*
X62650D01*
Y88268D01*
D02*
G37*
G36*
X40181Y85957D02*
X38846D01*
Y84623D01*
X39415Y84858D01*
X39945Y85388D01*
X40181Y85957D01*
D02*
G37*
G36*
X37846D02*
X36512D01*
X36748Y85388D01*
X37278Y84858D01*
X37846Y84623D01*
Y85957D01*
D02*
G37*
G36*
X34275D02*
X32941D01*
Y84623D01*
X33509Y84858D01*
X34040Y85388D01*
X34275Y85957D01*
D02*
G37*
G36*
X31941D02*
X30607D01*
X30842Y85388D01*
X31373Y84858D01*
X31941Y84623D01*
Y85957D01*
D02*
G37*
G36*
X48967Y84776D02*
X46917D01*
Y82376D01*
X48967D01*
Y84776D01*
D02*
G37*
G36*
X45917D02*
X43867D01*
Y82376D01*
X45917D01*
Y84776D01*
D02*
G37*
G36*
X72075Y83684D02*
Y82350D01*
X73409D01*
X73173Y82919D01*
X72643Y83449D01*
X72075Y83684D01*
D02*
G37*
G36*
X71075D02*
X70507Y83449D01*
X69976Y82919D01*
X69741Y82350D01*
X71075D01*
Y83684D01*
D02*
G37*
G36*
X40862Y83755D02*
X38812D01*
Y81356D01*
X40862D01*
Y83755D01*
D02*
G37*
G36*
X37812D02*
X35762D01*
Y81356D01*
X37812D01*
Y83755D01*
D02*
G37*
G36*
X66339Y84185D02*
X63650D01*
Y81102D01*
X65098D01*
X65573Y81197D01*
X65975Y81465D01*
X66244Y81868D01*
X66339Y82342D01*
Y84185D01*
D02*
G37*
G36*
X62650D02*
X59960D01*
Y82342D01*
X60055Y81868D01*
X60324Y81465D01*
X60726Y81197D01*
X61201Y81102D01*
X62650D01*
Y84185D01*
D02*
G37*
G36*
X57618Y88051D02*
X53720D01*
X53329Y87973D01*
X52997Y87751D01*
X52775Y87419D01*
X52697Y87028D01*
Y83175D01*
X49810Y80289D01*
X48755D01*
Y81663D01*
X44080D01*
Y76289D01*
X45129D01*
Y75528D01*
X44258Y74658D01*
X43768Y74755D01*
X43750Y74799D01*
X43303Y75246D01*
X42718Y75488D01*
X42085D01*
X41716Y75336D01*
X41216Y75615D01*
Y76063D01*
X41139Y76453D01*
X40918Y76784D01*
X40868Y76834D01*
X40649Y77243D01*
X40649D01*
X40507Y77456D01*
X40774Y77956D01*
X40862D01*
Y80356D01*
X35762D01*
X35762Y77956D01*
X35265Y77949D01*
X29921D01*
X29531Y77871D01*
X29200Y77650D01*
X29200Y77650D01*
X28694Y77143D01*
X28694Y77143D01*
X28528Y76895D01*
X28155Y76930D01*
X28027Y76978D01*
Y79016D01*
X27950Y79406D01*
X27729Y79737D01*
X26823Y80642D01*
X26493Y80863D01*
X26102Y80941D01*
X17126D01*
X16736Y80863D01*
X16405Y80642D01*
X15814Y80052D01*
X15594Y79721D01*
X15516Y79331D01*
Y77196D01*
X13728D01*
Y74646D01*
Y72096D01*
X15679D01*
X15814Y71892D01*
X16120Y71587D01*
X16450Y71366D01*
X16840Y71289D01*
X26722D01*
X27112Y71366D01*
X27443Y71587D01*
X27729Y71873D01*
X27950Y72204D01*
X28027Y72594D01*
Y72707D01*
X28155Y72755D01*
X28528Y72790D01*
X28694Y72542D01*
X29401Y71835D01*
X29732Y71614D01*
X30122Y71536D01*
X33867D01*
X34328Y71442D01*
Y68489D01*
X31376D01*
Y67123D01*
X30914Y66931D01*
X27585Y70260D01*
X27194Y70521D01*
X26733Y70613D01*
X26733Y70613D01*
X11220D01*
X11220Y70613D01*
X10759Y70521D01*
X10368Y70260D01*
X6230Y66122D01*
X5969Y65731D01*
X5877Y65271D01*
X5877Y65270D01*
Y60230D01*
X5877Y60230D01*
X5969Y59769D01*
X6230Y59379D01*
X6618Y58991D01*
X6618Y58991D01*
X7008Y58730D01*
X7469Y58638D01*
X7830Y58324D01*
Y55128D01*
X7437Y55050D01*
X7046Y54789D01*
X7046Y54789D01*
X6585Y54327D01*
X6324Y53937D01*
X6232Y53476D01*
X6232Y53476D01*
Y48920D01*
X6232Y48920D01*
X6324Y48459D01*
X6585Y48069D01*
X7568Y47085D01*
X7470Y46595D01*
X7446Y46585D01*
X7003Y46142D01*
X10118Y46142D01*
X10669Y45591D01*
Y39449D01*
X10787Y39331D01*
X15354D01*
X15551Y39134D01*
Y35394D01*
X15118Y34961D01*
X6772D01*
X6417Y35315D01*
Y36856D01*
X6162D01*
Y34455D01*
X6402D01*
X6451Y33955D01*
X6145Y33895D01*
X5815Y33674D01*
X5593Y33343D01*
X5516Y32953D01*
Y29173D01*
X5593Y28783D01*
X5815Y28452D01*
X6038Y28303D01*
X6156Y27884D01*
X6161Y27718D01*
X5798Y27355D01*
X5535Y26963D01*
X5443Y26499D01*
X5443Y26499D01*
Y22177D01*
X5443Y22177D01*
X5535Y21714D01*
X5798Y21321D01*
X7569Y19549D01*
X7569Y19549D01*
X7962Y19287D01*
X8275Y19225D01*
X8301Y19097D01*
X8332Y19050D01*
X8387Y18485D01*
X8100Y18057D01*
X8000Y17551D01*
Y17165D01*
X11387D01*
X14775D01*
Y17551D01*
X14674Y18057D01*
X15108Y18245D01*
X15189Y18123D01*
X16106Y17206D01*
Y8268D01*
X16184Y7878D01*
X16405Y7547D01*
X17665Y6287D01*
X17996Y6066D01*
X18386Y5988D01*
X22165Y5988D01*
X22556Y6066D01*
X22886Y6287D01*
X23398Y6799D01*
X23619Y7130D01*
X23697Y7520D01*
Y10365D01*
X25300Y11968D01*
X25762Y11777D01*
Y10255D01*
X30862D01*
Y12655D01*
X30862Y12655D01*
X30862D01*
X30862Y12655D01*
X30942Y13122D01*
X31193Y13374D01*
X31414Y13704D01*
X31492Y14095D01*
X31525Y14559D01*
X31591Y14572D01*
X32112Y14920D01*
X32811Y15619D01*
X33311Y15412D01*
Y13858D01*
X33389Y13468D01*
X33610Y13137D01*
X33559Y12655D01*
X33559Y12570D01*
Y10255D01*
X38659D01*
Y12465D01*
X38769Y12784D01*
X38976Y13024D01*
X39146Y13137D01*
X39367Y13468D01*
X39445Y13858D01*
Y21246D01*
X64549D01*
X65240Y21384D01*
X65826Y21776D01*
X71159Y27108D01*
X71551Y27695D01*
X71610Y27990D01*
X72028Y28214D01*
X72935D01*
X73773Y28561D01*
X74414Y29202D01*
X74675Y29831D01*
X75188Y29763D01*
X75220Y29522D01*
X75519Y28800D01*
X75995Y28180D01*
X76615Y27704D01*
X77337Y27405D01*
X78112Y27303D01*
X78887Y27405D01*
X79609Y27704D01*
X80229Y28180D01*
X80705Y28800D01*
X81004Y29522D01*
X81106Y30297D01*
Y34628D01*
X81004Y35403D01*
X80705Y36125D01*
X80229Y36745D01*
X79609Y37220D01*
X79229Y37378D01*
X79328Y37878D01*
X85433D01*
X85823Y37956D01*
X86154Y38177D01*
X86375Y38508D01*
X86453Y38898D01*
Y40957D01*
X86915Y41148D01*
X87642Y40420D01*
Y31398D01*
X87642Y31398D01*
X87734Y30937D01*
X87995Y30546D01*
X89955Y28586D01*
X89752Y28094D01*
X89636Y27217D01*
X89752Y26339D01*
X90091Y25521D01*
X90630Y24819D01*
X90942Y24579D01*
Y23949D01*
X90630Y23709D01*
X90091Y23007D01*
X89752Y22189D01*
X89702Y21811D01*
X94012D01*
X98321D01*
X98272Y22189D01*
X97933Y23007D01*
X97394Y23709D01*
X97082Y23949D01*
Y24579D01*
X97394Y24819D01*
X97933Y25521D01*
X98272Y26339D01*
X98387Y27217D01*
X98272Y28094D01*
X97933Y28912D01*
X97394Y29614D01*
X97082Y29854D01*
Y30484D01*
X97394Y30724D01*
X97933Y31426D01*
X98272Y32244D01*
X98321Y32622D01*
X94012D01*
Y33622D01*
X98321D01*
X98272Y34000D01*
X97933Y34818D01*
X97394Y35520D01*
X97082Y35760D01*
Y36390D01*
X97394Y36630D01*
X97933Y37332D01*
X98272Y38150D01*
X98387Y39028D01*
X98272Y39905D01*
X97933Y40723D01*
X97394Y41425D01*
X97082Y41665D01*
Y42295D01*
X97394Y42535D01*
X97933Y43238D01*
X98272Y44055D01*
X98387Y44933D01*
X98272Y45811D01*
X97933Y46629D01*
X97394Y47331D01*
X96692Y47870D01*
X95874Y48209D01*
X95613Y48243D01*
X95433Y48771D01*
X104877Y58214D01*
X104877Y58214D01*
X105138Y58605D01*
X105229Y59066D01*
X105229Y59066D01*
Y69434D01*
X105229Y69434D01*
X105138Y69895D01*
X104877Y70286D01*
X99609Y75554D01*
X99609Y75554D01*
X98943Y76220D01*
X98927Y76231D01*
X98936Y76558D01*
X98998Y76784D01*
X100247Y77506D01*
X101313Y78572D01*
X102067Y79877D01*
X102457Y81333D01*
Y82840D01*
X102067Y84296D01*
X101313Y85602D01*
X100247Y86667D01*
X98942Y87421D01*
X97486Y87811D01*
X95979D01*
X94523Y87421D01*
X93217Y86667D01*
X92800Y86250D01*
X92293Y86450D01*
X92096Y86925D01*
X91649Y87372D01*
X91064Y87614D01*
X90432D01*
X89847Y87372D01*
X89400Y86925D01*
X89157Y86340D01*
Y85964D01*
X88657Y85757D01*
X87747Y86667D01*
X86442Y87421D01*
X84986Y87811D01*
X83479D01*
X82023Y87421D01*
X80717Y86667D01*
X79652Y85602D01*
X78898Y84296D01*
X78508Y82840D01*
Y81333D01*
X78898Y79877D01*
X79652Y78572D01*
X80623Y77601D01*
X80646Y77430D01*
X80624Y77231D01*
X80554Y77023D01*
X80255Y76850D01*
X79695Y77009D01*
X79621Y77283D01*
X79213Y77990D01*
X78636Y78567D01*
X77929Y78976D01*
X77140Y79187D01*
X76324D01*
X75536Y78976D01*
X74829Y78567D01*
X74251Y77990D01*
X73843Y77283D01*
X73632Y76495D01*
Y75678D01*
X73773Y75153D01*
X73787Y75100D01*
X73312Y74938D01*
X73252Y75084D01*
X72722Y75615D01*
X72154Y75850D01*
Y74516D01*
X73574D01*
X73952Y74702D01*
X73979Y74654D01*
X74251Y74183D01*
X74829Y73606D01*
X75536Y73198D01*
X76324Y72986D01*
X77140D01*
X77929Y73198D01*
X78636Y73606D01*
X78728Y73698D01*
X79119Y73593D01*
X79241Y73504D01*
X79573Y72930D01*
X80075Y72427D01*
X80372Y72255D01*
X80336Y71699D01*
X80324Y71694D01*
X79625Y70995D01*
X79417Y70494D01*
X78827Y70376D01*
X78636Y70568D01*
X77929Y70976D01*
X77140Y71187D01*
X76324D01*
X75536Y70976D01*
X74829Y70568D01*
X74251Y69990D01*
X73843Y69283D01*
X73632Y68495D01*
Y67678D01*
X73843Y66890D01*
X74251Y66183D01*
X74829Y65606D01*
X75536Y65197D01*
X76324Y64986D01*
X77140D01*
X77929Y65197D01*
X78636Y65606D01*
X79213Y66183D01*
X79621Y66890D01*
X79745Y67351D01*
X80303Y67500D01*
X80324Y67479D01*
X80789Y67286D01*
X80826Y66730D01*
X80717Y66667D01*
X79652Y65601D01*
X78898Y64296D01*
X78508Y62840D01*
Y61333D01*
X78898Y59877D01*
X79652Y58572D01*
X80717Y57506D01*
X81586Y57004D01*
X81452Y56504D01*
X74313D01*
X74289Y56542D01*
X74159Y57004D01*
X74591Y57436D01*
X74826Y58004D01*
X71158D01*
X71393Y57436D01*
X71825Y57004D01*
X71696Y56542D01*
X71672Y56504D01*
X67956D01*
X67856Y57004D01*
X67997Y57063D01*
X68528Y57593D01*
X68763Y58161D01*
X65095D01*
X65330Y57593D01*
X65861Y57063D01*
X66002Y57004D01*
X65903Y56504D01*
X51848D01*
Y62088D01*
X52207Y62217D01*
X52348Y62229D01*
X52767Y61810D01*
X53351Y61568D01*
X53984D01*
X54568Y61810D01*
X54837Y62078D01*
X55226Y62348D01*
X60600D01*
Y66644D01*
X60679Y67111D01*
X60679D01*
X60679Y67111D01*
Y69846D01*
X60892Y70006D01*
X61006Y69949D01*
X64292D01*
X67192D01*
Y71999D01*
X65877D01*
X65725Y72499D01*
X65822Y72564D01*
X66044Y72896D01*
X66122Y73287D01*
Y77972D01*
X66044Y78364D01*
X65822Y78696D01*
X65490Y78918D01*
X65098Y78996D01*
X61201D01*
X60809Y78918D01*
X60477Y78696D01*
X60255Y78364D01*
X60177Y77972D01*
Y73976D01*
X59460Y73259D01*
X59321Y73051D01*
X58850Y73246D01*
X58859Y73287D01*
Y75130D01*
X55669D01*
X52480D01*
Y73287D01*
X52287Y73052D01*
X47019D01*
X46827Y73514D01*
X47370Y74057D01*
X47654Y74482D01*
X47754Y74985D01*
Y76289D01*
X48755D01*
Y77663D01*
X50354D01*
X50856Y77763D01*
X51282Y78048D01*
X54553Y81319D01*
X57618D01*
X58010Y81397D01*
X58342Y81619D01*
X58564Y81951D01*
X58642Y82343D01*
Y87028D01*
X58564Y87419D01*
X58342Y87751D01*
X58010Y87973D01*
X57618Y88051D01*
D02*
G37*
G36*
X73409Y81350D02*
X72075D01*
Y80016D01*
X72643Y80252D01*
X73173Y80782D01*
X73409Y81350D01*
D02*
G37*
G36*
X71075D02*
X69741D01*
X69976Y80782D01*
X70507Y80252D01*
X71075Y80016D01*
Y81350D01*
D02*
G37*
G36*
X12728Y77196D02*
X10328D01*
Y76511D01*
X9828Y76304D01*
X9690Y76441D01*
X9122Y76677D01*
Y74843D01*
Y73008D01*
X9690Y73244D01*
X9828Y73382D01*
X10328Y73174D01*
Y72096D01*
X12728D01*
Y74646D01*
Y77196D01*
D02*
G37*
G36*
X57618Y79213D02*
X56169D01*
Y76130D01*
X58859D01*
Y77973D01*
X58764Y78447D01*
X58495Y78850D01*
X58093Y79118D01*
X57618Y79213D01*
D02*
G37*
G36*
X55169D02*
X53720D01*
X53246Y79118D01*
X52843Y78850D01*
X52574Y78447D01*
X52480Y77973D01*
Y76130D01*
X55169D01*
Y79213D01*
D02*
G37*
G36*
X8122Y76677D02*
X7554Y76441D01*
X7023Y75911D01*
X6788Y75343D01*
X8122D01*
Y76677D01*
D02*
G37*
G36*
X71153Y75850D02*
X70585Y75615D01*
X70055Y75084D01*
X69819Y74516D01*
X71153D01*
Y75850D01*
D02*
G37*
G36*
X8122Y74343D02*
X6788D01*
X7023Y73774D01*
X7554Y73244D01*
X8122Y73008D01*
Y74343D01*
D02*
G37*
G36*
X73488Y73516D02*
X72154D01*
Y72182D01*
X72722Y72417D01*
X73252Y72948D01*
X73488Y73516D01*
D02*
G37*
G36*
X71153D02*
X69819D01*
X70055Y72948D01*
X70585Y72417D01*
X71153Y72182D01*
Y73516D01*
D02*
G37*
G36*
X67192Y68949D02*
X64292D01*
X61392D01*
Y67235D01*
X61313D01*
Y65185D01*
X64213D01*
X67113D01*
Y66899D01*
X67192D01*
Y68949D01*
D02*
G37*
G36*
X67113Y64185D02*
X64713D01*
Y62135D01*
X67113D01*
Y64185D01*
D02*
G37*
G36*
X63713D02*
X61313D01*
Y62135D01*
X63713D01*
Y64185D01*
D02*
G37*
G36*
X67429Y60496D02*
Y59161D01*
X68763D01*
X68528Y59730D01*
X67997Y60260D01*
X67429Y60496D01*
D02*
G37*
G36*
X66429D02*
X65861Y60260D01*
X65330Y59730D01*
X65095Y59161D01*
X66429D01*
Y60496D01*
D02*
G37*
G36*
X73492Y60338D02*
Y59004D01*
X74826D01*
X74591Y59572D01*
X74060Y60103D01*
X73492Y60338D01*
D02*
G37*
G36*
X72492D02*
X71924Y60103D01*
X71393Y59572D01*
X71158Y59004D01*
X72492D01*
Y60338D01*
D02*
G37*
G36*
X6417Y44873D02*
X5643D01*
Y42823D01*
X6417D01*
Y44873D01*
D02*
G37*
G36*
Y41823D02*
X5643D01*
Y39773D01*
X6162D01*
Y37855D01*
X6417D01*
Y41823D01*
D02*
G37*
G36*
X98321Y20811D02*
X94012D01*
X89702D01*
X89752Y20433D01*
X90091Y19615D01*
X90630Y18913D01*
X90942Y18673D01*
Y18043D01*
X90630Y17804D01*
X90091Y17101D01*
X89752Y16283D01*
X89702Y15905D01*
X94012D01*
X98321D01*
X98272Y16283D01*
X97933Y17101D01*
X97394Y17804D01*
X97082Y18043D01*
Y18673D01*
X97394Y18913D01*
X97933Y19615D01*
X98272Y20433D01*
X98321Y20811D01*
D02*
G37*
G36*
X14775Y16165D02*
X11887D01*
Y14459D01*
X13454D01*
X13960Y14559D01*
X14388Y14846D01*
X14674Y15274D01*
X14775Y15779D01*
Y16165D01*
D02*
G37*
G36*
X10887D02*
X8000D01*
Y15779D01*
X8100Y15274D01*
X8387Y14846D01*
X8815Y14559D01*
X9320Y14459D01*
X10887D01*
Y16165D01*
D02*
G37*
G36*
X98321Y14906D02*
X94512D01*
Y12014D01*
X94996D01*
X95874Y12130D01*
X96692Y12469D01*
X97394Y13008D01*
X97933Y13710D01*
X98272Y14528D01*
X98321Y14906D01*
D02*
G37*
G36*
X93512D02*
X89702D01*
X89752Y14528D01*
X90091Y13710D01*
X90630Y13008D01*
X91332Y12469D01*
X92150Y12130D01*
X93028Y12014D01*
X93512D01*
Y14906D01*
D02*
G37*
G36*
X12072Y13165D02*
X10194D01*
Y11674D01*
X9694Y11575D01*
X9512Y12013D01*
X8982Y12544D01*
X8413Y12779D01*
Y10945D01*
Y9111D01*
X8982Y9346D01*
X9512Y9877D01*
X9694Y10315D01*
X10194Y10216D01*
Y10106D01*
X12072D01*
Y13165D01*
D02*
G37*
G36*
X7413Y12779D02*
X6845Y12544D01*
X6315Y12013D01*
X6079Y11445D01*
X7413D01*
Y12779D01*
D02*
G37*
G36*
X78112Y20574D02*
X77337Y20472D01*
X76615Y20173D01*
X75995Y19697D01*
X75519Y19077D01*
X75220Y18355D01*
X75118Y17580D01*
Y14431D01*
X75220Y13656D01*
X75519Y12934D01*
X75995Y12314D01*
X76615Y11838D01*
X77337Y11539D01*
X78112Y11437D01*
X78887Y11539D01*
X79609Y11838D01*
X80229Y12314D01*
X80705Y12934D01*
X81004Y13656D01*
X81106Y14431D01*
Y17580D01*
X81004Y18355D01*
X80705Y19077D01*
X80229Y19697D01*
X79609Y20173D01*
X78887Y20472D01*
X78112Y20574D01*
D02*
G37*
G36*
X44096D02*
X43321Y20472D01*
X42599Y20173D01*
X41979Y19697D01*
X41503Y19077D01*
X41204Y18355D01*
X41102Y17580D01*
Y14431D01*
X41204Y13656D01*
X41503Y12934D01*
X41979Y12314D01*
X42599Y11838D01*
X43321Y11539D01*
X44096Y11437D01*
X44871Y11539D01*
X45593Y11838D01*
X46213Y12314D01*
X46689Y12934D01*
X46988Y13656D01*
X47090Y14431D01*
Y17580D01*
X46988Y18355D01*
X46689Y19077D01*
X46213Y19697D01*
X45593Y20173D01*
X44871Y20472D01*
X44096Y20574D01*
D02*
G37*
G36*
X14950Y13165D02*
X13072D01*
Y10106D01*
X14950D01*
Y13165D01*
D02*
G37*
G36*
X7413Y10445D02*
X6079D01*
X6315Y9877D01*
X6845Y9346D01*
X7413Y9111D01*
Y10445D01*
D02*
G37*
G36*
X38659Y9256D02*
X36609D01*
Y6855D01*
X38659D01*
Y9256D01*
D02*
G37*
G36*
X35609D02*
X33559D01*
Y6855D01*
X35609D01*
Y9256D01*
D02*
G37*
G36*
X30862D02*
X28812D01*
Y6855D01*
X30862D01*
Y9256D01*
D02*
G37*
G36*
X27812D02*
X25762D01*
Y6855D01*
X27812D01*
Y9256D01*
D02*
G37*
G36*
X14950Y9105D02*
X13072D01*
Y6047D01*
X14950D01*
Y9105D01*
D02*
G37*
G36*
X12072D02*
X10194D01*
Y6047D01*
X12072D01*
Y9105D01*
D02*
G37*
%LPD*%
G36*
X27008Y79016D02*
Y72594D01*
X26722Y72308D01*
X16840D01*
X16535Y72613D01*
Y79331D01*
X17126Y79921D01*
X26102D01*
X27008Y79016D01*
D02*
G37*
G36*
X40197Y76063D02*
Y68189D01*
X40039Y68032D01*
X39252D01*
X39055Y68228D01*
Y71260D01*
X37759Y72556D01*
X30122Y72556D01*
X29415Y73263D01*
Y76422D01*
X29921Y76929D01*
X39331D01*
X40197Y76063D01*
D02*
G37*
G36*
X47911Y63765D02*
Y59828D01*
Y54906D01*
X42826D01*
X42808Y54934D01*
X42477Y55155D01*
X42087Y55232D01*
X39134D01*
X38744Y55155D01*
X38690Y55119D01*
X38175D01*
Y54617D01*
X38113Y54524D01*
X38035Y54134D01*
Y52938D01*
X37175D01*
Y55119D01*
X36084D01*
Y54906D01*
X35313D01*
Y58069D01*
X35813Y58277D01*
X35824Y58265D01*
X36409Y58023D01*
X37042D01*
X37626Y58265D01*
X38074Y58712D01*
X38316Y59297D01*
Y59930D01*
X38074Y60514D01*
X37626Y60962D01*
X37042Y61204D01*
X36843D01*
X36502Y61565D01*
X36518Y61744D01*
X36632Y62117D01*
X36798Y62228D01*
X37049D01*
X37633Y62471D01*
X38081Y62918D01*
X38323Y63503D01*
Y64135D01*
X38081Y64720D01*
X37633Y65167D01*
X37049Y65409D01*
X36416D01*
X35831Y65167D01*
X35813Y65149D01*
X35313Y65356D01*
Y67505D01*
X38337D01*
X38531Y67311D01*
X38862Y67089D01*
X39252Y67012D01*
X40039D01*
X40430Y67089D01*
X40760Y67311D01*
X40918Y67468D01*
X40942Y67505D01*
X47911D01*
Y63765D01*
D02*
G37*
G36*
X42087Y42283D02*
X40512Y40709D01*
X37008D01*
X35984Y41732D01*
Y49252D01*
X36732Y50000D01*
X38150D01*
X39055Y50906D01*
Y54134D01*
X39134Y54213D01*
X42087D01*
Y42283D01*
D02*
G37*
G36*
X71458Y51318D02*
X71402Y51183D01*
Y50550D01*
X71644Y49965D01*
X71946Y49663D01*
X71955Y49617D01*
X72216Y49227D01*
X72978Y48465D01*
Y44793D01*
X75949D01*
X76413Y44330D01*
X76221Y43868D01*
X72978D01*
Y43639D01*
X72681Y43580D01*
X72350Y43359D01*
X72129Y43028D01*
X72051Y42638D01*
Y38898D01*
X72129Y38508D01*
X72129Y38507D01*
X72010Y37971D01*
X71661Y37754D01*
X71439Y37798D01*
X69897D01*
X69543Y38247D01*
X69636Y38493D01*
X70329D01*
Y43868D01*
X65655D01*
Y38578D01*
X65175Y38464D01*
X64913Y38857D01*
X64913Y38857D01*
X64444Y39325D01*
X64051Y39588D01*
X63588Y39680D01*
X63588Y39680D01*
X61447D01*
X61246Y40111D01*
X61154Y40574D01*
X60891Y40967D01*
X60891Y40967D01*
X55032Y46826D01*
X54640Y47089D01*
X54176Y47181D01*
X54176Y47181D01*
X50552D01*
X47226Y50507D01*
X47417Y50969D01*
X48895D01*
Y51734D01*
X71180D01*
X71458Y51318D01*
D02*
G37*
G36*
X29447Y52086D02*
X29838Y51825D01*
X30299Y51733D01*
X30299Y51734D01*
X34328D01*
Y50969D01*
X33917Y50756D01*
X32812D01*
Y48206D01*
X32312D01*
Y47706D01*
X29412D01*
Y45693D01*
X29412Y45656D01*
X29412D01*
X29562Y45256D01*
X29562Y45256D01*
Y43205D01*
X32462D01*
Y42706D01*
X32962D01*
Y40156D01*
X33222D01*
X33413Y39694D01*
X27889Y34169D01*
X24596Y34169D01*
X23359Y35406D01*
X23550Y35868D01*
X24312D01*
Y38246D01*
X24812D01*
Y38746D01*
X28371D01*
Y40624D01*
X26662D01*
X26328Y41124D01*
X26357Y41193D01*
X24843D01*
Y42193D01*
X26445D01*
X26725Y42611D01*
X28534D01*
Y45011D01*
X25984D01*
Y45511D01*
X25484D01*
Y48612D01*
X25337Y48911D01*
X25502Y49124D01*
X28322D01*
Y52559D01*
X28784Y52750D01*
X29447Y52086D01*
D02*
G37*
G36*
X21339Y44016D02*
Y35984D01*
X24173Y33150D01*
X28740Y33150D01*
X30315Y31575D01*
Y23819D01*
X29016Y22520D01*
X18504D01*
X17284Y23740D01*
Y25197D01*
X18464Y26378D01*
X21457D01*
X22244Y27165D01*
Y32835D01*
X20512Y34567D01*
X17795D01*
X16693Y35669D01*
Y39685D01*
X15748Y40631D01*
X13028Y40633D01*
X12362Y41300D01*
X12362Y44882D01*
X20472D01*
X21339Y44016D01*
D02*
G37*
G36*
X30472Y17441D02*
Y14095D01*
X29921Y13543D01*
X25433Y13543D01*
X22677Y10787D01*
Y7520D01*
X22165Y7008D01*
X18386Y7008D01*
X17126Y8268D01*
Y18032D01*
X29882D01*
X30472Y17441D01*
D02*
G37*
%LPC*%
G36*
X41366Y59669D02*
Y58335D01*
X42700D01*
X42465Y58903D01*
X41934Y59433D01*
X41366Y59669D01*
D02*
G37*
G36*
X40366D02*
X39798Y59433D01*
X39267Y58903D01*
X39032Y58335D01*
X40366D01*
Y59669D01*
D02*
G37*
G36*
X42700Y57335D02*
X41366D01*
Y56001D01*
X41934Y56236D01*
X42465Y56766D01*
X42700Y57335D01*
D02*
G37*
G36*
X40366D02*
X39032D01*
X39267Y56766D01*
X39798Y56236D01*
X40366Y56001D01*
Y57335D01*
D02*
G37*
G36*
X63492Y51047D02*
Y49713D01*
X64826D01*
X64591Y50281D01*
X64060Y50811D01*
X63492Y51047D01*
D02*
G37*
G36*
X62492D02*
X61924Y50811D01*
X61393Y50281D01*
X61158Y49713D01*
X62492D01*
Y51047D01*
D02*
G37*
G36*
X70542Y50381D02*
X68492D01*
Y47981D01*
X70542D01*
Y50381D01*
D02*
G37*
G36*
X67492D02*
X65442D01*
Y47981D01*
X67492D01*
Y50381D01*
D02*
G37*
G36*
X64826Y48713D02*
X63492D01*
Y47379D01*
X64060Y47614D01*
X64591Y48144D01*
X64826Y48713D01*
D02*
G37*
G36*
X62492D02*
X61158D01*
X61393Y48144D01*
X61924Y47614D01*
X62492Y47379D01*
Y48713D01*
D02*
G37*
G36*
X70542Y46981D02*
X68492D01*
Y44581D01*
X70542D01*
Y46981D01*
D02*
G37*
G36*
X67492D02*
X65442D01*
Y44581D01*
X67492D01*
Y46981D01*
D02*
G37*
G36*
X63295Y45850D02*
Y44516D01*
X64629D01*
X64394Y45084D01*
X63863Y45614D01*
X63295Y45850D01*
D02*
G37*
G36*
X62295D02*
X61727Y45614D01*
X61197Y45084D01*
X60961Y44516D01*
X62295D01*
Y45850D01*
D02*
G37*
G36*
X64629Y43516D02*
X63295D01*
Y42182D01*
X63863Y42417D01*
X64394Y42948D01*
X64629Y43516D01*
D02*
G37*
G36*
X62295D02*
X60961D01*
X61197Y42948D01*
X61727Y42417D01*
X62295Y42182D01*
Y43516D01*
D02*
G37*
G36*
X31812Y50756D02*
X29412D01*
Y48706D01*
X31812D01*
Y50756D01*
D02*
G37*
G36*
X28534Y48411D02*
X26484D01*
Y46011D01*
X28534D01*
Y48411D01*
D02*
G37*
G36*
X31962Y42206D02*
X29562D01*
Y40156D01*
X31962D01*
Y42206D01*
D02*
G37*
G36*
X28371Y37746D02*
X25312D01*
Y35868D01*
X28371D01*
Y37746D01*
D02*
G37*
%LPD*%
D10*
X45354Y40521D02*
Y44409D01*
X69882Y28386D02*
Y34055D01*
X70553Y34726D01*
X51655Y27167D02*
Y27571D01*
X52285Y28201D01*
Y34096D01*
X51655Y34726D02*
X52285Y34096D01*
X19032Y16665D02*
X20836D01*
X18460Y17238D02*
X19032Y16665D01*
X16112Y19046D02*
X17919Y17238D01*
X18460D01*
X16112Y19046D02*
Y22384D01*
X14350Y24146D02*
X16112Y22384D01*
X11387Y24146D02*
X14350D01*
D11*
X43580Y72124D02*
X46441Y74985D01*
Y78602D01*
X50354Y78976D02*
X55669Y84291D01*
X46417Y78976D02*
X50354D01*
X55669Y84291D02*
Y84685D01*
D14*
X87977Y55300D02*
X90138Y57461D01*
X49880Y55300D02*
X87977D01*
X90138Y57461D02*
Y66181D01*
X94586Y53750D02*
X95399Y52938D01*
X93437Y53750D02*
X94586D01*
X80472Y50866D02*
X82579D01*
X73067Y50078D02*
Y50791D01*
X92624Y52938D02*
X93437Y53750D01*
X95399Y52938D02*
X95935D01*
X47517D02*
X92624D01*
X72992Y50866D02*
X73067Y50791D01*
X95935Y52938D02*
X102638Y59641D01*
X31314Y59237D02*
X33344D01*
X13557Y68021D02*
X22530D01*
X31314Y59237D01*
X17445Y63583D02*
X24613D01*
X30527Y55300D02*
X33344D01*
X30979Y57269D02*
X33344D01*
X29176Y56651D02*
X30527Y55300D01*
X24613Y63583D02*
X29773Y58422D01*
X29092Y56651D02*
X29176D01*
X29773Y58422D02*
X29825D01*
X30299Y52938D02*
X35706D01*
X24989Y58248D02*
X30299Y52938D01*
X29825Y58422D02*
X30979Y57269D01*
X24989Y58248D02*
Y59069D01*
X22247Y61811D02*
X24989Y59069D01*
X14567Y51885D02*
Y59594D01*
X12682Y50000D02*
X14567Y51885D01*
Y59594D02*
X16984Y62011D01*
X12170Y51968D02*
X12786Y52584D01*
X16984Y63121D02*
X17445Y63583D01*
X12786Y52584D02*
Y61195D01*
X16984Y62011D02*
Y63121D01*
X10094Y51968D02*
X12170D01*
Y61811D02*
X12786Y61195D01*
X10094Y50000D02*
X12682D01*
X49880Y67111D02*
X52574D01*
X53543Y66142D01*
X53651Y63158D02*
X53668D01*
X51667Y65143D02*
X53651Y63158D01*
X55224Y40405D02*
X56183Y39447D01*
Y34726D02*
Y39447D01*
X52062Y40405D02*
X55224D01*
X36087Y63174D02*
X36732Y63819D01*
X35133Y61206D02*
X36725Y59613D01*
X33344Y61206D02*
X35133D01*
X94813Y75368D02*
X98092D01*
X98757Y74702D01*
X94031Y74587D02*
X94813Y75368D01*
X91732Y74587D02*
X94031D01*
X98757Y74702D02*
X98757D01*
X104025Y59066D02*
Y69434D01*
X94012Y49052D02*
X104025Y59066D01*
X98757Y74702D02*
X104025Y69434D01*
X94012Y44933D02*
Y49052D01*
X91732Y69587D02*
X94193D01*
X99178Y67992D02*
X102638Y64533D01*
Y59641D02*
Y64533D01*
X94193Y69587D02*
X95787Y67992D01*
X99178D01*
X86732Y69587D02*
X90138Y66181D01*
X16760Y53347D02*
X17351Y53937D01*
X20330D01*
X16654Y53347D02*
X16760D01*
X19370Y42323D02*
X20906Y43858D01*
Y46383D02*
X25984Y51461D01*
X20906Y43858D02*
Y46383D01*
X14843Y42323D02*
X19370D01*
X25984Y51461D02*
Y51811D01*
Y54787D01*
X78184Y44262D02*
X85504D01*
X88846Y40919D01*
Y31398D02*
Y40919D01*
Y31398D02*
X93028Y27217D01*
X94012D01*
X75315Y47131D02*
X78184Y44262D01*
X75315Y47131D02*
Y47481D01*
X73067Y50078D02*
X75315Y47831D01*
Y47481D02*
Y47831D01*
X86079Y45649D02*
X86899Y45156D01*
X84621Y45974D02*
X86079Y45649D01*
X87129Y44926D02*
X93028Y39028D01*
X86899Y45156D02*
X87129Y44926D01*
X83465Y47131D02*
X84621Y45974D01*
X7897Y53937D02*
X10094D01*
X7436Y53476D02*
X7897Y53937D01*
X7436Y48920D02*
Y53476D01*
X13440Y45869D02*
Y47137D01*
X12979Y47598D02*
X13440Y47137D01*
X8758Y47598D02*
X12979D01*
X7436Y48920D02*
X8758Y47598D01*
X13440Y45869D02*
X14138Y45171D01*
X14145D02*
X14843Y44473D01*
X14138Y45171D02*
X14145D01*
X14843Y42323D02*
Y44473D01*
X67992Y34728D02*
Y41181D01*
X33344Y63174D02*
X36087D01*
X20330Y61811D02*
X22247D01*
X7081Y65271D02*
X11220Y69409D01*
X26733D01*
X30999Y65143D01*
X17924Y65877D02*
X17992Y65945D01*
X16227Y65877D02*
X17924D01*
X15212Y64862D02*
X16227Y65877D01*
X15212Y63976D02*
Y64862D01*
X16402Y47835D02*
X17190Y47047D01*
X18937D01*
X15212Y47835D02*
X16402D01*
X83465Y47131D02*
Y49981D01*
X82579Y50866D02*
X83465Y49981D01*
X49880Y65143D02*
X51667D01*
X93028Y39028D02*
X94012D01*
X10094Y61811D02*
X12170D01*
X12053Y66383D02*
Y66517D01*
X13557Y68021D01*
X10094Y64424D02*
X12053Y66383D01*
X22898Y57874D02*
X25984Y54787D01*
X10094Y61811D02*
Y64424D01*
X30999Y65143D02*
X33344D01*
X7081Y60230D02*
Y65271D01*
Y60230D02*
X7469Y59842D01*
X10094D01*
X90748Y78602D02*
Y86024D01*
X86732Y74587D02*
X90748Y78602D01*
X41612Y73004D02*
X42402Y73794D01*
X41612Y69473D02*
Y73004D01*
X42402Y73794D02*
Y73898D01*
X43580Y69473D02*
Y72124D01*
X20330Y57874D02*
X22898D01*
D15*
X27795Y32568D02*
X28274D01*
X38412Y42706D02*
X38762D01*
X28274Y32568D02*
X38412Y42706D01*
X25993Y30765D02*
X27795Y32568D01*
X24812Y30765D02*
X25993D01*
D17*
X32462Y42706D02*
D03*
X38762D02*
D03*
X57913Y64685D02*
D03*
X64213D02*
D03*
X32312Y48206D02*
D03*
X38612D02*
D03*
X14843Y42323D02*
D03*
X8543D02*
D03*
X19528Y74646D02*
D03*
X13228D02*
D03*
X64292Y69449D02*
D03*
X57992D02*
D03*
X45312Y40405D02*
D03*
X52062D02*
D03*
D18*
X49880Y67111D02*
D03*
Y65143D02*
D03*
Y63174D02*
D03*
Y61206D02*
D03*
Y59237D02*
D03*
Y57269D02*
D03*
Y55300D02*
D03*
X33344D02*
D03*
Y57269D02*
D03*
Y59237D02*
D03*
Y61206D02*
D03*
Y63174D02*
D03*
Y65143D02*
D03*
Y67111D02*
D03*
D19*
X47517Y52938D02*
D03*
X45549D02*
D03*
X43580D02*
D03*
X35706D02*
D03*
Y69473D02*
D03*
X37675D02*
D03*
X39643D02*
D03*
X41612D02*
D03*
X43580D02*
D03*
X45549D02*
D03*
X47517D02*
D03*
X41612Y52938D02*
D03*
X39643D02*
D03*
X37675D02*
D03*
D20*
X83465Y47481D02*
D03*
Y41181D02*
D03*
X75315D02*
D03*
Y47481D02*
D03*
X67992Y41181D02*
D03*
Y47481D02*
D03*
X25984Y51811D02*
D03*
Y45511D02*
D03*
X19212Y37356D02*
D03*
Y31056D02*
D03*
X38312Y80856D02*
D03*
Y74555D02*
D03*
X46417Y85276D02*
D03*
X46417Y78976D02*
D03*
X13912Y37356D02*
D03*
Y31056D02*
D03*
X8712Y37356D02*
D03*
Y31056D02*
D03*
X36109Y9755D02*
D03*
X28312D02*
D03*
Y16056D02*
D03*
X36109D02*
D03*
D21*
X20052Y9606D02*
D03*
X12572D02*
D03*
D22*
X15212Y63976D02*
D03*
Y47835D02*
D03*
D23*
X10094Y61811D02*
D03*
Y59842D02*
D03*
Y57874D02*
D03*
Y55905D02*
D03*
Y51968D02*
D03*
Y50000D02*
D03*
X20330D02*
D03*
Y53937D02*
D03*
Y59842D02*
D03*
Y61811D02*
D03*
X10094Y53937D02*
D03*
X20330Y57874D02*
D03*
Y51968D02*
D03*
Y55905D02*
D03*
D24*
X25359Y74906D02*
D03*
X31265D02*
D03*
D25*
X63150Y75630D02*
D03*
X55669Y84685D02*
D03*
X55669Y75630D02*
D03*
X63150Y84685D02*
D03*
D26*
X60120Y34726D02*
D03*
X62088D02*
D03*
X64057D02*
D03*
X58151D02*
D03*
X56183D02*
D03*
X54214D02*
D03*
X66025D02*
D03*
X67994D02*
D03*
D27*
X51655D02*
D03*
X48505D02*
D03*
X70553D02*
D03*
X73702D02*
D03*
D28*
X36312Y28958D02*
D03*
Y23053D02*
D03*
D29*
X24812Y38246D02*
D03*
Y30765D02*
D03*
D30*
X11387Y16665D02*
D03*
Y20405D02*
D03*
Y24146D02*
D03*
X20836D02*
D03*
Y20405D02*
D03*
Y16665D02*
D03*
D53*
X86732Y74587D02*
D03*
X91732Y69587D02*
D03*
X86732D02*
D03*
X81732D02*
D03*
X91732Y74587D02*
D03*
X81732D02*
D03*
D54*
X62088Y31451D02*
Y34726D01*
X58151Y31451D02*
Y34726D01*
X61620Y30983D02*
X62088Y31451D01*
X58620Y30983D02*
X61620D01*
X43665Y49811D02*
Y52854D01*
X45465Y50557D02*
Y52854D01*
X50051Y45970D02*
X54176D01*
X60035Y34810D02*
Y40111D01*
X58151Y31451D02*
X58620Y30983D01*
X43665Y49811D02*
X49305Y44170D01*
X53431D01*
X45465Y50557D02*
X50051Y45970D01*
X54176D02*
X60035Y40111D01*
X53431Y44170D02*
X58235Y39366D01*
Y34810D02*
Y39366D01*
X60120Y34726D02*
Y38001D01*
X43580Y52938D02*
X43665Y52854D01*
X45465Y52854D02*
X45549Y52938D01*
X60035Y34810D02*
X60120Y34726D01*
X63588Y38469D02*
X64057Y38001D01*
Y34726D02*
Y38001D01*
X60588Y38469D02*
X63588D01*
X52775Y69473D02*
X57563Y64685D01*
X47517Y69473D02*
X52775D01*
X57563Y64685D02*
X57913D01*
X45549Y71254D02*
X46136Y71842D01*
X45549Y69473D02*
Y71254D01*
X46136Y71842D02*
X53099D01*
X55492Y69449D02*
X57992D01*
X53099Y71842D02*
X55492Y69449D01*
X60316Y71423D02*
Y72403D01*
X57992Y69449D02*
X58342D01*
X60316Y71423D01*
Y72403D02*
X63150Y75236D01*
Y75630D01*
X8712Y28558D02*
Y31056D01*
X6654Y26499D02*
X8712Y28558D01*
X6654Y22177D02*
Y26499D01*
Y22177D02*
X8425Y20405D01*
X11387D01*
D55*
X45276Y40442D02*
X45354Y40521D01*
X45276Y40442D02*
X46007Y39710D01*
X23031Y51968D02*
Y55280D01*
X22406Y55905D02*
X23031Y55280D01*
X20330Y55905D02*
X22406D01*
X46007Y38307D02*
X48505Y35809D01*
X46007Y38307D02*
Y39710D01*
X23865Y20472D02*
X27087D01*
X23798Y20405D02*
X23865Y20472D01*
X20836Y20405D02*
X23798D01*
X38880Y9134D02*
X45984D01*
X38259Y9755D02*
X38880Y9134D01*
X36109Y9755D02*
X38259D01*
X70713Y72288D02*
X79434D01*
X68740Y70315D02*
X70713Y72288D01*
X79434D02*
X81732Y74587D01*
X28312Y9755D02*
X36109D01*
X48505Y34726D02*
Y35809D01*
X71293Y39137D02*
Y43829D01*
Y39137D02*
X72620Y37810D01*
X73482D01*
X73702Y37590D01*
X67992Y47131D02*
Y47481D01*
Y47131D02*
X71293Y43829D01*
X73702Y34726D02*
Y37590D01*
X20330Y51968D02*
X23031D01*
X23031Y51968D01*
D56*
X47541Y23053D02*
X51655Y27167D01*
X47541Y23053D02*
X64549D01*
X69882Y28386D01*
X36312Y23053D02*
X47541D01*
D57*
X28312Y16056D02*
X30977D01*
X32087Y17165D02*
Y25127D01*
X30977Y16056D02*
X32087Y17165D01*
Y25127D02*
X35918Y28958D01*
X36312D01*
D58*
X34350Y9685D02*
D03*
D59*
X79252Y40768D02*
D03*
D60*
X36378Y19193D02*
D03*
D61*
X12874Y31063D02*
D03*
D62*
X84232Y82087D02*
D03*
X96732D02*
D03*
Y62087D02*
D03*
X84232D02*
D03*
D63*
X96732Y72087D02*
D03*
X76732Y68087D02*
D03*
Y76087D02*
D03*
D64*
X94012Y21311D02*
D03*
Y27217D02*
D03*
Y33122D02*
D03*
Y39028D02*
D03*
Y44933D02*
D03*
Y15405D02*
D03*
D65*
X78112Y32462D02*
D03*
X44096D02*
D03*
D66*
X49726Y30494D02*
D03*
X72482D02*
D03*
D67*
X44096Y16005D02*
D03*
X78112D02*
D03*
D68*
X5906Y5118D02*
D03*
X104331D02*
D03*
Y87795D02*
D03*
X5906D02*
D03*
D69*
X72992Y50866D02*
D03*
X80472D02*
D03*
X29092Y56651D02*
D03*
X53543Y66142D02*
D03*
X53668Y63158D02*
D03*
X24843Y41693D02*
D03*
X36725Y59613D02*
D03*
X36732Y63819D02*
D03*
X16654Y53347D02*
D03*
X23031Y51968D02*
D03*
X8347Y45236D02*
D03*
X17924Y65877D02*
D03*
X18937Y47047D02*
D03*
X90748Y86024D02*
D03*
X42402Y73898D02*
D03*
D70*
X45354Y44409D02*
D03*
X8622Y74843D02*
D03*
X32441Y86457D02*
D03*
X38346D02*
D03*
X71653Y74016D02*
D03*
X71575Y81850D02*
D03*
X19606Y78465D02*
D03*
X40866Y57835D02*
D03*
X72992Y58504D02*
D03*
X66929Y58661D02*
D03*
X62992Y49213D02*
D03*
X62795Y44016D02*
D03*
X7913Y10945D02*
D03*
X27087Y20472D02*
D03*
X79291Y41181D02*
D03*
D71*
X28780Y29882D02*
D03*
M02*
