G04*
G04 #@! TF.GenerationSoftware,Altium Limited,Altium Designer,24.2.2 (26)*
G04*
G04 Layer_Color=16711935*
%FSLAX25Y25*%
%MOIN*%
G70*
G04*
G04 #@! TF.SameCoordinates,0C852235-8BC0-4ED4-A074-6CA5B6053031*
G04*
G04*
G04 #@! TF.FilePolarity,Positive*
G04*
G01*
G75*
%ADD11C,0.01000*%
%ADD13C,0.00689*%
%ADD14C,0.00787*%
%ADD15C,0.01181*%
%ADD16C,0.00591*%
D11*
X63590Y75630D02*
G03*
X63590Y75630I-440J0D01*
G01*
X87732Y69088D02*
X89731D01*
X88732D01*
Y74086D01*
X89731Y75086D01*
X90731D01*
X91731Y74086D01*
X81734Y75086D02*
X85733D01*
X81734Y71087D01*
Y70087D01*
X82734Y69088D01*
X84733D01*
X85733Y70087D01*
D13*
X72953Y64606D02*
X100512D01*
X72953D02*
Y79567D01*
X100512D01*
Y64606D02*
Y79567D01*
X22406Y71658D02*
Y78154D01*
X34217D01*
Y71658D02*
Y78154D01*
X22406Y71658D02*
X34217D01*
X51919Y88809D02*
X51919Y78277D01*
X51919Y71398D02*
Y82017D01*
X51919Y88809D02*
X66890Y88809D01*
X66890Y72776D02*
X66890Y88809D01*
X65512Y71398D02*
X66890Y72776D01*
X51919Y71398D02*
X65512Y71398D01*
X33064Y20100D02*
X39560D01*
X33064D02*
Y31911D01*
X39560D01*
Y20100D02*
Y31911D01*
X24868Y30867D02*
Y34147D01*
X24212Y34802D01*
X22900D01*
X22244Y34147D01*
Y30867D01*
X20932Y34802D02*
X19620D01*
X20276D01*
Y30867D01*
X20932Y31523D01*
X61104Y27334D02*
X59792D01*
X60448D01*
Y24054D01*
X59792Y23398D01*
X59136D01*
X58480Y24054D01*
X62416Y23398D02*
X63728D01*
X63072D01*
Y27334D01*
X62416Y26678D01*
D14*
X8125Y46063D02*
Y65748D01*
Y46063D02*
X22298D01*
X8125Y65748D02*
X19936D01*
X22298Y63386D01*
Y46063D02*
Y63386D01*
X40435Y13555D02*
Y38161D01*
X81773D01*
Y4696D02*
Y38161D01*
X40435Y4696D02*
X81773D01*
X40435D02*
Y13555D01*
X17180Y59185D02*
X13900D01*
X13244Y58529D01*
Y57217D01*
X13900Y56561D01*
X17180D01*
X13244Y52626D02*
Y55250D01*
X15868Y52626D01*
X16524D01*
X17180Y53282D01*
Y54594D01*
X16524Y55250D01*
D15*
X24970Y15484D02*
Y27295D01*
X23002Y13516D02*
X24970Y15484D01*
X16112Y13516D02*
X23002D01*
X7254Y27295D02*
X24970D01*
X7254Y13516D02*
Y27295D01*
Y13516D02*
X16112D01*
D16*
X25688Y76873D02*
X23064D01*
Y74906D01*
X24376D01*
X23064D01*
Y72938D01*
X27000Y76873D02*
Y72938D01*
X28968D01*
X29624Y73594D01*
Y74250D01*
X28968Y74906D01*
X27000D01*
X28968D01*
X29624Y75561D01*
Y76217D01*
X28968Y76873D01*
X27000D01*
X33560Y72938D02*
X30936D01*
X33560Y75561D01*
Y76217D01*
X32904Y76873D01*
X31592D01*
X30936Y76217D01*
X57442Y77534D02*
X61377Y80158D01*
X57442D02*
X61377Y77534D01*
Y81469D02*
Y82781D01*
Y82125D01*
X57442D01*
X58097Y81469D01*
X34344Y24038D02*
Y21414D01*
X36312D01*
Y22726D01*
Y21414D01*
X38280D01*
X34344Y25350D02*
X38280D01*
Y27317D01*
X37624Y27973D01*
X36968D01*
X36312Y27317D01*
Y25350D01*
Y27317D01*
X35656Y27973D01*
X35000D01*
X34344Y27317D01*
Y25350D01*
X38280Y29285D02*
Y30597D01*
Y29941D01*
X34344D01*
X35000Y29285D01*
M02*
