G04*
G04 #@! TF.GenerationSoftware,Altium Limited,Altium Designer,24.2.2 (26)*
G04*
G04 Layer_Color=8388736*
%FSLAX25Y25*%
%MOIN*%
G70*
G04*
G04 #@! TF.SameCoordinates,0C852235-8BC0-4ED4-A074-6CA5B6053031*
G04*
G04*
G04 #@! TF.FilePolarity,Positive*
G04*
G01*
G75*
%ADD69C,0.01181*%
%ADD70C,0.01772*%
%ADD71C,0.02362*%
D69*
X42402Y73898D02*
D03*
X90748Y86024D02*
D03*
X18937Y47047D02*
D03*
X17924Y65877D02*
D03*
X8347Y45236D02*
D03*
X23031Y51968D02*
D03*
X16654Y53347D02*
D03*
X36732Y63819D02*
D03*
X36725Y59613D02*
D03*
X24843Y41693D02*
D03*
X53668Y63158D02*
D03*
X53543Y66142D02*
D03*
X29092Y56651D02*
D03*
X80472Y50866D02*
D03*
X72992D02*
D03*
D70*
X79291Y41181D02*
D03*
X27087Y20472D02*
D03*
X7913Y10945D02*
D03*
X62795Y44016D02*
D03*
X62992Y49213D02*
D03*
X66929Y58661D02*
D03*
X72992Y58504D02*
D03*
X40866Y57835D02*
D03*
X19606Y78465D02*
D03*
X71575Y81850D02*
D03*
X71653Y74016D02*
D03*
X38346Y86457D02*
D03*
X32441D02*
D03*
X8622Y74843D02*
D03*
X45354Y44409D02*
D03*
D71*
X28780Y29882D02*
D03*
M02*
