G04*
G04 #@! TF.GenerationSoftware,Altium Limited,Altium Designer,24.2.2 (26)*
G04*
G04 Layer_Color=8388736*
%FSLAX25Y25*%
%MOIN*%
G70*
G04*
G04 #@! TF.SameCoordinates,0C852235-8BC0-4ED4-A074-6CA5B6053031*
G04*
G04*
G04 #@! TF.FilePolarity,Negative*
G04*
G01*
G75*
%ADD31R,0.04194X0.03494*%
%ADD32R,0.02835X0.01654*%
%ADD33R,0.01654X0.02835*%
%ADD34C,0.03870*%
%ADD35R,0.03494X0.04194*%
%ADD36R,0.03150X0.05512*%
%ADD37R,0.01654X0.03425*%
%ADD38R,0.03425X0.01654*%
G04:AMPARAMS|DCode=39|XSize=36.22mil|YSize=44.09mil|CornerRadius=6.3mil|HoleSize=0mil|Usage=FLASHONLY|Rotation=0.000|XOffset=0mil|YOffset=0mil|HoleType=Round|Shape=RoundedRectangle|*
%AMROUNDEDRECTD39*
21,1,0.03622,0.03150,0,0,0.0*
21,1,0.02362,0.04409,0,0,0.0*
1,1,0.01260,0.01181,-0.01575*
1,1,0.01260,-0.01181,-0.01575*
1,1,0.01260,-0.01181,0.01575*
1,1,0.01260,0.01181,0.01575*
%
%ADD39ROUNDEDRECTD39*%
G04:AMPARAMS|DCode=40|XSize=55.91mil|YSize=48.03mil|CornerRadius=4.53mil|HoleSize=0mil|Usage=FLASHONLY|Rotation=90.000|XOffset=0mil|YOffset=0mil|HoleType=Round|Shape=RoundedRectangle|*
%AMROUNDEDRECTD40*
21,1,0.05591,0.03898,0,0,90.0*
21,1,0.04685,0.04803,0,0,90.0*
1,1,0.00906,0.01949,0.02343*
1,1,0.00906,0.01949,-0.02343*
1,1,0.00906,-0.01949,-0.02343*
1,1,0.00906,-0.01949,0.02343*
%
%ADD40ROUNDEDRECTD40*%
G04:AMPARAMS|DCode=41|XSize=15.75mil|YSize=49.21mil|CornerRadius=3.45mil|HoleSize=0mil|Usage=FLASHONLY|Rotation=0.000|XOffset=0mil|YOffset=0mil|HoleType=Round|Shape=RoundedRectangle|*
%AMROUNDEDRECTD41*
21,1,0.01575,0.04232,0,0,0.0*
21,1,0.00886,0.04921,0,0,0.0*
1,1,0.00689,0.00443,-0.02116*
1,1,0.00689,-0.00443,-0.02116*
1,1,0.00689,-0.00443,0.02116*
1,1,0.00689,0.00443,0.02116*
%
%ADD41ROUNDEDRECTD41*%
G04:AMPARAMS|DCode=42|XSize=27.56mil|YSize=49.21mil|CornerRadius=4.92mil|HoleSize=0mil|Usage=FLASHONLY|Rotation=0.000|XOffset=0mil|YOffset=0mil|HoleType=Round|Shape=RoundedRectangle|*
%AMROUNDEDRECTD42*
21,1,0.02756,0.03937,0,0,0.0*
21,1,0.01772,0.04921,0,0,0.0*
1,1,0.00984,0.00886,-0.01968*
1,1,0.00984,-0.00886,-0.01968*
1,1,0.00984,-0.00886,0.01968*
1,1,0.00984,0.00886,0.01968*
%
%ADD42ROUNDEDRECTD42*%
G04:AMPARAMS|DCode=43|XSize=36.22mil|YSize=44.09mil|CornerRadius=6.3mil|HoleSize=0mil|Usage=FLASHONLY|Rotation=90.000|XOffset=0mil|YOffset=0mil|HoleType=Round|Shape=RoundedRectangle|*
%AMROUNDEDRECTD43*
21,1,0.03622,0.03150,0,0,90.0*
21,1,0.02362,0.04409,0,0,90.0*
1,1,0.01260,0.01575,0.01181*
1,1,0.01260,0.01575,-0.01181*
1,1,0.01260,-0.01575,-0.01181*
1,1,0.01260,-0.01575,0.01181*
%
%ADD43ROUNDEDRECTD43*%
%ADD44R,0.05512X0.03150*%
G04:AMPARAMS|DCode=45|XSize=28.35mil|YSize=51.97mil|CornerRadius=5.32mil|HoleSize=0mil|Usage=FLASHONLY|Rotation=90.000|XOffset=0mil|YOffset=0mil|HoleType=Round|Shape=RoundedRectangle|*
%AMROUNDEDRECTD45*
21,1,0.02835,0.04134,0,0,90.0*
21,1,0.01772,0.05197,0,0,90.0*
1,1,0.01063,0.02067,0.00886*
1,1,0.01063,0.02067,-0.00886*
1,1,0.01063,-0.02067,-0.00886*
1,1,0.01063,-0.02067,0.00886*
%
%ADD45ROUNDEDRECTD45*%
%ADD46C,0.09921*%
%ADD47C,0.04673*%
%ADD48O,0.07087X0.05118*%
%ADD49O,0.04409X0.08740*%
%ADD50C,0.02953*%
%ADD51O,0.04409X0.07559*%
%ADD52C,0.06378*%
D31*
X32462Y42706D02*
D03*
X38762D02*
D03*
X57913Y64685D02*
D03*
X64213D02*
D03*
X32312Y48206D02*
D03*
X38612D02*
D03*
X14843Y42323D02*
D03*
X8543D02*
D03*
X19528Y74646D02*
D03*
X13228D02*
D03*
X64292Y69449D02*
D03*
X57992D02*
D03*
X45312Y40405D02*
D03*
X52062D02*
D03*
D32*
X49880Y67111D02*
D03*
Y65143D02*
D03*
Y63174D02*
D03*
Y61206D02*
D03*
Y59237D02*
D03*
Y57269D02*
D03*
Y55300D02*
D03*
X33344D02*
D03*
Y57269D02*
D03*
Y59237D02*
D03*
Y61206D02*
D03*
Y63174D02*
D03*
Y65143D02*
D03*
Y67111D02*
D03*
D33*
X47517Y52938D02*
D03*
X45549D02*
D03*
X43580D02*
D03*
X35706D02*
D03*
Y69473D02*
D03*
X37675D02*
D03*
X39643D02*
D03*
X41612D02*
D03*
X43580D02*
D03*
X45549D02*
D03*
X47517D02*
D03*
X41612Y52938D02*
D03*
X39643D02*
D03*
X37675D02*
D03*
D34*
X86732Y74587D02*
D03*
X91732Y69587D02*
D03*
X86732D02*
D03*
X81732D02*
D03*
X91732Y74587D02*
D03*
X81732D02*
D03*
D35*
X83465Y47481D02*
D03*
Y41181D02*
D03*
X75315D02*
D03*
Y47481D02*
D03*
X67992Y41181D02*
D03*
Y47481D02*
D03*
X25984Y51811D02*
D03*
Y45511D02*
D03*
X19212Y37356D02*
D03*
Y31056D02*
D03*
X38312Y80856D02*
D03*
Y74555D02*
D03*
X46417Y85276D02*
D03*
X46417Y78976D02*
D03*
X13912Y37356D02*
D03*
Y31056D02*
D03*
X8712Y37356D02*
D03*
Y31056D02*
D03*
X36109Y9755D02*
D03*
X28312D02*
D03*
Y16056D02*
D03*
X36109D02*
D03*
D36*
X20052Y9606D02*
D03*
X12572D02*
D03*
D37*
X15212Y63976D02*
D03*
Y47835D02*
D03*
D38*
X10094Y61811D02*
D03*
Y59842D02*
D03*
Y57874D02*
D03*
Y55905D02*
D03*
Y51968D02*
D03*
Y50000D02*
D03*
X20330D02*
D03*
Y53937D02*
D03*
Y59842D02*
D03*
Y61811D02*
D03*
X10094Y53937D02*
D03*
X20330Y57874D02*
D03*
Y51968D02*
D03*
Y55905D02*
D03*
D39*
X25359Y74906D02*
D03*
X31265D02*
D03*
D40*
X63150Y75630D02*
D03*
X55669Y84685D02*
D03*
X55669Y75630D02*
D03*
X63150Y84685D02*
D03*
D41*
X60120Y34726D02*
D03*
X62088D02*
D03*
X64057D02*
D03*
X58151D02*
D03*
X56183D02*
D03*
X54214D02*
D03*
X66025D02*
D03*
X67994D02*
D03*
D42*
X51655D02*
D03*
X48505D02*
D03*
X70553D02*
D03*
X73702D02*
D03*
D43*
X36312Y28958D02*
D03*
Y23053D02*
D03*
D44*
X24812Y38246D02*
D03*
Y30765D02*
D03*
D45*
X11387Y16665D02*
D03*
Y20405D02*
D03*
Y24146D02*
D03*
X20836D02*
D03*
Y20405D02*
D03*
Y16665D02*
D03*
D46*
X84232Y82087D02*
D03*
X96732D02*
D03*
Y62087D02*
D03*
X84232D02*
D03*
D47*
X96732Y72087D02*
D03*
X76732Y68087D02*
D03*
Y76087D02*
D03*
D48*
X94012Y21311D02*
D03*
Y27217D02*
D03*
Y33122D02*
D03*
Y39028D02*
D03*
Y44933D02*
D03*
Y15405D02*
D03*
D49*
X78112Y32462D02*
D03*
X44096D02*
D03*
D50*
X49726Y30494D02*
D03*
X72482D02*
D03*
D51*
X44096Y16005D02*
D03*
X78112D02*
D03*
D52*
X5906Y5118D02*
D03*
X104331D02*
D03*
Y87795D02*
D03*
X5906D02*
D03*
M02*
