G04*
G04 #@! TF.GenerationSoftware,Altium Limited,Altium Designer,24.2.2 (26)*
G04*
G04 Layer_Color=65535*
%FSLAX25Y25*%
%MOIN*%
G70*
G04*
G04 #@! TF.SameCoordinates,0C852235-8BC0-4ED4-A074-6CA5B6053031*
G04*
G04*
G04 #@! TF.FilePolarity,Positive*
G04*
G01*
G75*
%ADD10C,0.00984*%
%ADD11C,0.01000*%
%ADD12C,0.00394*%
%ADD13C,0.00689*%
%ADD14C,0.00787*%
%ADD15C,0.01181*%
%ADD16C,0.00591*%
D10*
X50962Y70654D02*
G03*
X50962Y70654I-492J0D01*
G01*
X102673Y8909D02*
Y51429D01*
X88106Y8909D02*
X102673D01*
X88106D02*
Y51429D01*
X102673D01*
D11*
X25110Y64961D02*
G03*
X25110Y64961I-449J0D01*
G01*
X102067Y53610D02*
Y55610D01*
Y54610D01*
X96069D01*
X97069Y53610D01*
D12*
X30100Y44674D02*
X41124D01*
Y40737D02*
Y44674D01*
X30100Y40737D02*
X41124D01*
X30100D02*
Y44674D01*
X66575Y62717D02*
Y66654D01*
X55551D02*
X66575D01*
X55551Y62717D02*
Y66654D01*
Y62717D02*
X66575D01*
X81496Y49843D02*
X85433D01*
X81496Y38819D02*
Y49843D01*
Y38819D02*
X85433D01*
Y49843D01*
X77284Y38819D02*
Y49843D01*
X73347Y38819D02*
X77284D01*
X73347D02*
Y49843D01*
X77284D01*
X66024D02*
X69961D01*
X66024Y38819D02*
Y49843D01*
Y38819D02*
X69961D01*
Y49843D01*
X29950Y50174D02*
X40974D01*
Y46237D02*
Y50174D01*
X29950Y46237D02*
X40974D01*
X29950D02*
Y50174D01*
X24016Y54173D02*
X27953D01*
X24016Y43150D02*
Y54173D01*
Y43150D02*
X27953D01*
Y54173D01*
X17296Y7243D02*
Y11968D01*
X15328Y7243D02*
Y11968D01*
X17243Y28694D02*
X21180D01*
Y39717D01*
X17243D02*
X21180D01*
X17243Y28694D02*
Y39717D01*
X6181Y40354D02*
Y44291D01*
Y40354D02*
X17205D01*
Y44291D01*
X6181D02*
X17205D01*
X10866Y72677D02*
Y76614D01*
Y72677D02*
X21890D01*
Y76614D01*
X10866D02*
X21890D01*
X36343Y72194D02*
Y83217D01*
X40280D01*
Y72194D02*
Y83217D01*
X36343Y72194D02*
X40280D01*
X44449Y87638D02*
X48386D01*
X44449Y76614D02*
X44449Y87638D01*
X44449Y76614D02*
X48386D01*
X48386Y87638D01*
X55630Y67480D02*
X66654Y67480D01*
X55630Y67480D02*
X55630Y71417D01*
X66654Y71417D01*
X66654Y67480D02*
X66654Y71417D01*
X22450Y35490D02*
X27174D01*
X22450Y33521D02*
X27174D01*
X15880Y28694D02*
Y39717D01*
X11943Y28694D02*
X15880D01*
X11943D02*
Y39717D01*
X15880D01*
X10680Y28694D02*
Y39717D01*
X6743Y28694D02*
X10680D01*
X6743D02*
Y39717D01*
X10680D01*
X34140Y7394D02*
Y18417D01*
X38077D01*
Y7394D02*
Y18417D01*
X34140Y7394D02*
X38077D01*
X26343D02*
Y18417D01*
X30280D01*
Y7394D02*
Y18417D01*
X26343Y7394D02*
X30280D01*
X43400Y42374D02*
X54424D01*
Y38437D02*
Y42374D01*
X43400Y38437D02*
X54424D01*
X43400D02*
Y42374D01*
X18504Y26181D02*
Y27362D01*
X19095D01*
X19291Y27165D01*
Y26772D01*
X19095Y26575D01*
X18504D01*
X18898D02*
X19291Y26181D01*
X19685D02*
X20078D01*
X19882D01*
Y27362D01*
X19685Y27165D01*
X13976D02*
X13780Y27362D01*
X13386D01*
X13189Y27165D01*
Y26378D01*
X13386Y26181D01*
X13780D01*
X13976Y26378D01*
X15157Y27362D02*
X14370D01*
Y26772D01*
X14764Y26968D01*
X14960D01*
X15157Y26772D01*
Y26378D01*
X14960Y26181D01*
X14567D01*
X14370Y26378D01*
D13*
X72953Y81929D02*
X77874D01*
X72953Y62244D02*
X77874D01*
X72953D02*
Y81929D01*
X102480Y80945D02*
X104449Y78976D01*
Y65197D02*
Y78976D01*
X102480Y63228D02*
X104449Y65197D01*
D14*
X8125Y65748D02*
X13243D01*
X8125Y63779D02*
Y65748D01*
Y46063D02*
X13243D01*
X8125D02*
Y48031D01*
X17180Y46063D02*
X22298D01*
Y48031D01*
X17180Y65748D02*
X22298D01*
Y63779D02*
Y65748D01*
X66862Y71375D02*
Y76221D01*
X63346Y71375D02*
X66862D01*
X44372Y21429D02*
Y26350D01*
X77836Y21429D02*
Y26350D01*
X44372Y7649D02*
Y10602D01*
Y7649D02*
X77836D01*
Y10602D01*
X32481Y53543D02*
X32087Y53937D01*
X31300D01*
X30906Y53543D01*
Y51969D01*
X31300Y51575D01*
X32087D01*
X32481Y51969D01*
X33268Y51575D02*
X34055D01*
X33661D01*
Y53937D01*
X33268Y53543D01*
X35236Y51575D02*
X36023D01*
X35629D01*
Y53937D01*
X35236Y53543D01*
X52756Y55906D02*
X54724D01*
X55118Y56300D01*
Y57087D01*
X54724Y57480D01*
X52756D01*
X53150Y58268D02*
X52756Y58661D01*
Y59448D01*
X53150Y59842D01*
X53543D01*
X53937Y59448D01*
Y59055D01*
Y59448D01*
X54331Y59842D01*
X54724D01*
X55118Y59448D01*
Y58661D01*
X54724Y58268D01*
X70078Y62599D02*
X67717D01*
Y63780D01*
X68111Y64173D01*
X68898D01*
X69291Y63780D01*
Y62599D01*
Y63386D02*
X70078Y64173D01*
X67717Y64960D02*
Y66535D01*
X68111D01*
X69685Y64960D01*
X70078D01*
X100211Y71675D02*
Y70888D01*
Y71281D01*
X102178D01*
X102572Y70888D01*
Y70494D01*
X102178Y70100D01*
X102572Y74036D02*
Y72462D01*
X100998Y74036D01*
X100604D01*
X100211Y73643D01*
Y72856D01*
X100604Y72462D01*
X104725Y17717D02*
Y16929D01*
Y17323D01*
X106693D01*
X107086Y16929D01*
Y16536D01*
X106693Y16142D01*
X105118Y18504D02*
X104725Y18897D01*
Y19684D01*
X105118Y20078D01*
X105512D01*
X105905Y19684D01*
Y19291D01*
Y19684D01*
X106299Y20078D01*
X106693D01*
X107086Y19684D01*
Y18897D01*
X106693Y18504D01*
X84645Y51182D02*
X82284D01*
Y52363D01*
X82677Y52756D01*
X83465D01*
X83858Y52363D01*
Y51182D01*
Y51969D02*
X84645Y52756D01*
X82284Y55117D02*
Y53543D01*
X83465D01*
X83071Y54330D01*
Y54724D01*
X83465Y55117D01*
X84252D01*
X84645Y54724D01*
Y53937D01*
X84252Y53543D01*
X76378Y51182D02*
X74016D01*
Y52363D01*
X74410Y52756D01*
X75197D01*
X75590Y52363D01*
Y51182D01*
Y51969D02*
X76378Y52756D01*
X74016Y55117D02*
X74410Y54330D01*
X75197Y53543D01*
X75984D01*
X76378Y53937D01*
Y54724D01*
X75984Y55117D01*
X75590D01*
X75197Y54724D01*
Y53543D01*
X69291Y50788D02*
X66930D01*
Y51969D01*
X67323Y52362D01*
X68110D01*
X68504Y51969D01*
Y50788D01*
Y51575D02*
X69291Y52362D01*
X67323Y53149D02*
X66930Y53543D01*
Y54330D01*
X67323Y54724D01*
X67717D01*
X68110Y54330D01*
Y53937D01*
Y54330D01*
X68504Y54724D01*
X68897D01*
X69291Y54330D01*
Y53543D01*
X68897Y53149D01*
X43307Y46260D02*
X42914Y45867D01*
Y45080D01*
X43307Y44686D01*
X44882D01*
X45275Y45080D01*
Y45867D01*
X44882Y46260D01*
X45275Y47047D02*
Y47835D01*
Y47441D01*
X42914D01*
X43307Y47047D01*
Y49015D02*
X42914Y49409D01*
Y50196D01*
X43307Y50590D01*
X44882D01*
X45275Y50196D01*
Y49409D01*
X44882Y49015D01*
X43307D01*
X25197Y57087D02*
X24803Y56693D01*
Y55906D01*
X25197Y55512D01*
X26771D01*
X27165Y55906D01*
Y56693D01*
X26771Y57087D01*
X24803Y59448D02*
X25197Y58661D01*
X25984Y57874D01*
X26771D01*
X27165Y58267D01*
Y59055D01*
X26771Y59448D01*
X26378D01*
X25984Y59055D01*
Y57874D01*
X13478Y69252D02*
Y67612D01*
X13806Y67284D01*
X14462D01*
X14790Y67612D01*
Y69252D01*
X16758Y67284D02*
X15446D01*
X16758Y68596D01*
Y68924D01*
X16430Y69252D01*
X15774D01*
X15446Y68924D01*
X26376Y80587D02*
X24801D01*
Y79406D01*
X25588D01*
X24801D01*
Y78225D01*
X27163Y80587D02*
Y78225D01*
X28343D01*
X28737Y78619D01*
Y79012D01*
X28343Y79406D01*
X27163D01*
X28343D01*
X28737Y79799D01*
Y80193D01*
X28343Y80587D01*
X27163D01*
X31098Y78225D02*
X29524D01*
X31098Y79799D01*
Y80193D01*
X30705Y80587D01*
X29918D01*
X29524Y80193D01*
X6169Y72558D02*
X5776Y72164D01*
Y71377D01*
X6169Y70983D01*
X7744D01*
X8137Y71377D01*
Y72164D01*
X7744Y72558D01*
X8137Y73345D02*
Y74132D01*
Y73738D01*
X5776D01*
X6169Y73345D01*
X8137Y76887D02*
Y75313D01*
X6563Y76887D01*
X6169D01*
X5776Y76493D01*
Y75706D01*
X6169Y75313D01*
X37402Y86418D02*
X37008Y86024D01*
Y85237D01*
X37402Y84843D01*
X38976D01*
X39370Y85237D01*
Y86024D01*
X38976Y86418D01*
X39370Y87205D02*
Y87992D01*
Y87599D01*
X37008D01*
X37402Y87205D01*
Y89173D02*
X37008Y89566D01*
Y90354D01*
X37402Y90747D01*
X37795D01*
X38189Y90354D01*
Y89960D01*
Y90354D01*
X38583Y90747D01*
X38976D01*
X39370Y90354D01*
Y89566D01*
X38976Y89173D01*
X49606Y80709D02*
X49213Y80315D01*
Y79528D01*
X49606Y79135D01*
X51181D01*
X51574Y79528D01*
Y80315D01*
X51181Y80709D01*
Y81496D02*
X51574Y81889D01*
Y82677D01*
X51181Y83070D01*
X49606D01*
X49213Y82677D01*
Y81889D01*
X49606Y81496D01*
X50000D01*
X50394Y81889D01*
Y83070D01*
X66536Y79528D02*
X68897Y81102D01*
X66536D02*
X68897Y79528D01*
Y81889D02*
Y82677D01*
Y82283D01*
X66536D01*
X66929Y81889D01*
X57874Y38583D02*
X55512D01*
Y39764D01*
X55906Y40158D01*
X56693D01*
X57086Y39764D01*
Y38583D01*
Y39371D02*
X57874Y40158D01*
Y42125D02*
X55512D01*
X56693Y40945D01*
Y42519D01*
X79922Y9449D02*
Y8662D01*
Y9055D01*
X81889D01*
X82283Y8662D01*
Y8268D01*
X81889Y7875D01*
X82283Y10236D02*
Y11023D01*
Y10629D01*
X79922D01*
X80315Y10236D01*
X35040Y33859D02*
Y32284D01*
X36220D01*
Y33072D01*
Y32284D01*
X37401D01*
X35040Y34646D02*
X37401D01*
Y35827D01*
X37008Y36220D01*
X36614D01*
X36220Y35827D01*
Y34646D01*
Y35827D01*
X35827Y36220D01*
X35433D01*
X35040Y35827D01*
Y34646D01*
X37401Y37007D02*
Y37794D01*
Y37401D01*
X35040D01*
X35433Y37007D01*
X57786Y76473D02*
X57393Y76867D01*
X56605D01*
X56212Y76473D01*
Y74899D01*
X56605Y74506D01*
X57393D01*
X57786Y74899D01*
X58573Y76473D02*
X58967Y76867D01*
X59754D01*
X60148Y76473D01*
Y76080D01*
X59754Y75686D01*
X60148Y75293D01*
Y74899D01*
X59754Y74506D01*
X58967D01*
X58573Y74899D01*
Y75293D01*
X58967Y75686D01*
X58573Y76080D01*
Y76473D01*
X58967Y75686D02*
X59754D01*
D15*
X19109Y13516D02*
X22520D01*
D16*
X22910Y9972D02*
X22516Y9578D01*
Y8791D01*
X22910Y8397D01*
X24484D01*
X24878Y8791D01*
Y9578D01*
X24484Y9972D01*
X24878Y11939D02*
X22516D01*
X23697Y10759D01*
Y12333D01*
X19351Y42697D02*
X18957Y42303D01*
Y41516D01*
X19351Y41123D01*
X20925D01*
X21318Y41516D01*
Y42303D01*
X20925Y42697D01*
X18957Y43484D02*
Y45058D01*
X19351D01*
X20925Y43484D01*
X21318D01*
X4331Y16142D02*
X6299D01*
X6692Y16536D01*
Y17323D01*
X6299Y17717D01*
X4331D01*
X6692Y18504D02*
Y19291D01*
Y18897D01*
X4331D01*
X4725Y18504D01*
X5905Y31497D02*
X3544D01*
Y32677D01*
X3937Y33071D01*
X4724D01*
X5118Y32677D01*
Y31497D01*
Y32284D02*
X5905Y33071D01*
Y35432D02*
Y33858D01*
X4331Y35432D01*
X3937D01*
X3544Y35039D01*
Y34252D01*
X3937Y33858D01*
X24410Y28149D02*
X24016Y28543D01*
X23229D01*
X22835Y28149D01*
Y26575D01*
X23229Y26182D01*
X24016D01*
X24410Y26575D01*
X25197Y28149D02*
X25590Y28543D01*
X26377D01*
X26771Y28149D01*
Y27756D01*
X26377Y27362D01*
X25984D01*
X26377D01*
X26771Y26969D01*
Y26575D01*
X26377Y26182D01*
X25590D01*
X25197Y26575D01*
X27874Y22008D02*
X27481Y22401D01*
X26693D01*
X26300Y22008D01*
Y20433D01*
X26693Y20040D01*
X27481D01*
X27874Y20433D01*
X30236Y20040D02*
X28661D01*
X30236Y21614D01*
Y22008D01*
X29842Y22401D01*
X29055D01*
X28661Y22008D01*
X35433Y4331D02*
X35040Y3937D01*
Y3150D01*
X35433Y2756D01*
X37008D01*
X37401Y3150D01*
Y3937D01*
X37008Y4331D01*
X37401Y5118D02*
Y5905D01*
Y5511D01*
X35040D01*
X35433Y5118D01*
M02*
