G04*
G04 #@! TF.GenerationSoftware,Altium Limited,Altium Designer,24.2.2 (26)*
G04*
G04 Layer_Color=152*
%FSLAX25Y25*%
%MOIN*%
G70*
G04*
G04 #@! TF.SameCoordinates,0C852235-8BC0-4ED4-A074-6CA5B6053031*
G04*
G04*
G04 #@! TF.FilePolarity,Positive*
G04*
G01*
G75*
%ADD12C,0.00394*%
%ADD75C,0.00197*%
D12*
X30100Y44674D02*
X41124D01*
Y40737D02*
Y44674D01*
X30100Y40737D02*
X41124D01*
X30100D02*
Y44674D01*
X35612Y41524D02*
Y43887D01*
X34431Y42706D02*
X36793D01*
X31769Y71048D02*
X51454D01*
X31769Y51363D02*
Y71048D01*
Y51363D02*
X51454D01*
Y71048D01*
X59882Y64685D02*
X62244D01*
X61063Y63504D02*
Y65866D01*
X66575Y62717D02*
Y66654D01*
X55551D02*
X66575D01*
X55551Y62717D02*
Y66654D01*
Y62717D02*
X66575D01*
X88106Y51429D02*
X102673D01*
X88106Y8909D02*
Y51429D01*
Y8909D02*
X102673D01*
Y51429D01*
X94012Y28201D02*
Y32138D01*
X92043Y30169D02*
X95980D01*
X83465Y43150D02*
Y45512D01*
X82284Y44331D02*
X84646D01*
X81496Y49843D02*
X85433D01*
X81496Y38819D02*
Y49843D01*
Y38819D02*
X85433D01*
Y49843D01*
X77284Y38819D02*
Y49843D01*
X73347Y38819D02*
X77284D01*
X73347D02*
Y49843D01*
X77284D01*
X74134Y44331D02*
X76496D01*
X75315Y43150D02*
Y45512D01*
X67992Y43150D02*
Y45512D01*
X66811Y44331D02*
X69173D01*
X66024Y49843D02*
X69961D01*
X66024Y38819D02*
Y49843D01*
Y38819D02*
X69961D01*
Y49843D01*
X29950Y50174D02*
X40974D01*
Y46237D02*
Y50174D01*
X29950Y46237D02*
X40974D01*
X29950D02*
Y50174D01*
X35462Y47024D02*
Y49387D01*
X34281Y48206D02*
X36643D01*
X25984Y47480D02*
Y49843D01*
X24803Y48661D02*
X27165D01*
X24016Y54173D02*
X27953D01*
X24016Y43150D02*
Y54173D01*
Y43150D02*
X27953D01*
Y54173D01*
X10800Y6850D02*
Y12361D01*
Y6850D02*
X21824D01*
Y12361D01*
X10800D02*
X21824D01*
X15131Y9606D02*
X17493D01*
X16312Y8424D02*
Y10787D01*
X19212Y33024D02*
Y35387D01*
X18031Y34205D02*
X20393D01*
X17243Y28694D02*
X21180D01*
Y39717D01*
X17243D02*
X21180D01*
X17243Y28694D02*
Y39717D01*
X10512Y42323D02*
X12874D01*
X11693Y41142D02*
Y43504D01*
X6181Y40354D02*
Y44291D01*
Y40354D02*
X17205D01*
Y44291D01*
X6181D02*
X17205D01*
X15197Y74646D02*
X17559D01*
X16378Y73465D02*
Y75827D01*
X10866Y72677D02*
Y76614D01*
Y72677D02*
X21890D01*
Y76614D01*
X10866D02*
X21890D01*
X36343Y72194D02*
Y83217D01*
X40280D01*
Y72194D02*
Y83217D01*
X36343Y72194D02*
X40280D01*
X37131Y77706D02*
X39493D01*
X38312Y76524D02*
Y78887D01*
X46417Y83307D02*
X46417Y80945D01*
X45236Y82126D02*
X47598Y82126D01*
X44449Y87638D02*
X48386D01*
X44449Y76614D02*
X44449Y87638D01*
X44449Y76614D02*
X48386D01*
X48386Y87638D01*
X55630Y67480D02*
X66654Y67480D01*
X55630Y67480D02*
X55630Y71417D01*
X66654Y71417D01*
X66654Y67480D02*
X66654Y71417D01*
X61142Y70630D02*
X61142Y68268D01*
X59961Y69449D02*
X62323Y69449D01*
X23631Y34506D02*
X25993D01*
X24812Y33324D02*
Y35687D01*
X27568Y28994D02*
Y40017D01*
X22056Y28994D02*
X27568D01*
X22056D02*
Y40017D01*
X27568D01*
X15880Y28694D02*
Y39717D01*
X11943Y28694D02*
X15880D01*
X11943D02*
Y39717D01*
X15880D01*
X12731Y34205D02*
X15093D01*
X13912Y33024D02*
Y35387D01*
X10680Y28694D02*
Y39717D01*
X6743Y28694D02*
X10680D01*
X6743D02*
Y39717D01*
X10680D01*
X7531Y34205D02*
X9893D01*
X8712Y33024D02*
Y35387D01*
X34140Y7394D02*
Y18417D01*
X38077D01*
Y7394D02*
Y18417D01*
X34140Y7394D02*
X38077D01*
X34928Y12905D02*
X37290D01*
X36109Y11724D02*
Y14087D01*
X26343Y7394D02*
Y18417D01*
X30280D01*
Y7394D02*
Y18417D01*
X26343Y7394D02*
X30280D01*
X27131Y12905D02*
X29493D01*
X28312Y11724D02*
Y14087D01*
X43400Y42374D02*
X54424D01*
Y38437D02*
Y42374D01*
X43400Y38437D02*
X54424D01*
X43400D02*
Y42374D01*
X48912Y39224D02*
Y41587D01*
X47731Y40405D02*
X50093D01*
D75*
X39643Y61206D02*
X43580D01*
X41612Y59237D02*
Y63174D01*
M02*
