G04*
G04 #@! TF.GenerationSoftware,Altium Limited,Altium Designer,24.2.2 (26)*
G04*
G04 Layer_Color=128*
%FSLAX25Y25*%
%MOIN*%
G70*
G04*
G04 #@! TF.SameCoordinates,0C852235-8BC0-4ED4-A074-6CA5B6053031*
G04*
G04*
G04 #@! TF.FilePolarity,Positive*
G04*
G01*
G75*
%ADD76C,0.00500*%
D76*
X79508Y82087D02*
X88957D01*
X84232Y77362D02*
Y86811D01*
X92008Y82087D02*
X101457D01*
X96732Y77362D02*
Y86811D01*
X92008Y62087D02*
X101457D01*
X96732Y57362D02*
Y66811D01*
X79508Y62087D02*
X88957D01*
X84232Y57362D02*
Y66811D01*
X94632Y72087D02*
X98833D01*
X96732Y69986D02*
Y74187D01*
X74632Y68087D02*
X78833D01*
X76732Y65986D02*
Y70187D01*
X74632Y76087D02*
X78833D01*
X76732Y73986D02*
Y78187D01*
X92299Y21311D02*
X95724D01*
X94012Y19598D02*
Y23024D01*
X92299Y27217D02*
X95724D01*
X94012Y25504D02*
Y28929D01*
X92299Y33122D02*
X95724D01*
X94012Y31409D02*
Y34835D01*
X92299Y39028D02*
X95724D01*
X94012Y37315D02*
Y40740D01*
X92299Y44933D02*
X95724D01*
X94012Y43220D02*
Y46646D01*
X92299Y15405D02*
X95724D01*
X94012Y13693D02*
Y17118D01*
X76931Y32462D02*
X79293D01*
X78112Y31281D02*
Y33643D01*
X42915Y32462D02*
X45277D01*
X44096Y31281D02*
Y33643D01*
X48447Y30494D02*
X51006D01*
X49726Y29214D02*
Y31773D01*
X71202Y30494D02*
X73761D01*
X72482Y29214D02*
Y31773D01*
X42915Y16005D02*
X45277D01*
X44096Y14824D02*
Y17187D01*
X76931Y16005D02*
X79293D01*
X78112Y14824D02*
Y17187D01*
X4724Y5118D02*
X7087D01*
X5906Y3937D02*
Y6299D01*
X103150Y5118D02*
X105512D01*
X104331Y3937D02*
Y6299D01*
X103150Y87795D02*
X105512D01*
X104331Y86614D02*
Y88976D01*
X4724Y87795D02*
X7087D01*
X5906Y86614D02*
Y88976D01*
X72697Y50866D02*
X73287D01*
X72992Y50571D02*
Y51161D01*
X80177Y50866D02*
X80768D01*
X80472Y50571D02*
Y51161D01*
X28796Y56651D02*
X29387D01*
X29092Y56355D02*
Y56946D01*
X53248Y66142D02*
X53839D01*
X53543Y65847D02*
Y66437D01*
X53372Y63158D02*
X53963D01*
X53668Y62863D02*
Y63454D01*
X44764Y44409D02*
X45945D01*
X45354Y43819D02*
Y45000D01*
X8032Y74843D02*
X9213D01*
X8622Y74252D02*
Y75433D01*
X31850Y86457D02*
X33031D01*
X32441Y85866D02*
Y87047D01*
X37756Y86457D02*
X38937D01*
X38346Y85866D02*
Y87047D01*
X71063Y74016D02*
X72244D01*
X71653Y73425D02*
Y74606D01*
X70984Y81850D02*
X72165D01*
X71575Y81260D02*
Y82441D01*
X19016Y78465D02*
X20197D01*
X19606Y77874D02*
Y79055D01*
X40276Y57835D02*
X41457D01*
X40866Y57244D02*
Y58425D01*
X24547Y41693D02*
X25138D01*
X24843Y41398D02*
Y41988D01*
X72402Y58504D02*
X73583D01*
X72992Y57913D02*
Y59095D01*
X66339Y58661D02*
X67520D01*
X66929Y58071D02*
Y59252D01*
X62402Y49213D02*
X63583D01*
X62992Y48622D02*
Y49803D01*
X62205Y44016D02*
X63386D01*
X62795Y43425D02*
Y44606D01*
X7323Y10945D02*
X8504D01*
X7913Y10354D02*
Y11535D01*
X26496Y20472D02*
X27677D01*
X27087Y19882D02*
Y21063D01*
X36430Y59613D02*
X37020D01*
X36725Y59318D02*
Y59909D01*
X36437Y63819D02*
X37028D01*
X36732Y63524D02*
Y64114D01*
X78701Y41181D02*
X79882D01*
X79291Y40591D02*
Y41772D01*
X28189Y29882D02*
X29370D01*
X28780Y29291D02*
Y30472D01*
X16358Y53347D02*
X16949D01*
X16654Y53051D02*
Y53642D01*
X22638Y51968D02*
X23425D01*
X23031Y51575D02*
Y52362D01*
X7953Y45236D02*
X8740D01*
X8347Y44842D02*
Y45630D01*
X17629Y65877D02*
X18219D01*
X17924Y65582D02*
Y66172D01*
X18642Y47047D02*
X19232D01*
X18937Y46752D02*
Y47343D01*
X90453Y86024D02*
X91043D01*
X90748Y85728D02*
Y86319D01*
X42106Y73898D02*
X42697D01*
X42402Y73602D02*
Y74193D01*
M02*
