G04*
G04 #@! TF.GenerationSoftware,Altium Limited,Altium Designer,24.2.2 (26)*
G04*
G04 Layer_Color=65280*
%FSLAX25Y25*%
%MOIN*%
G70*
G04*
G04 #@! TF.SameCoordinates,0C852235-8BC0-4ED4-A074-6CA5B6053031*
G04*
G04*
G04 #@! TF.FilePolarity,Positive*
G04*
G01*
G75*
%ADD11C,0.01000*%
%ADD12C,0.00394*%
%ADD14C,0.00787*%
%ADD16C,0.00591*%
D11*
X97073Y42100D02*
Y44099D01*
Y43099D01*
X92075D01*
X91075Y44099D01*
Y45099D01*
X92075Y46098D01*
X96073Y40100D02*
X97073Y39101D01*
Y37101D01*
X96073Y36102D01*
X95073D01*
X94074Y37101D01*
Y38101D01*
Y37101D01*
X93074Y36102D01*
X92075D01*
X91075Y37101D01*
Y39101D01*
X92075Y40100D01*
D12*
X30100Y44674D02*
X41124D01*
Y40737D02*
Y44674D01*
X30100Y40737D02*
X41124D01*
X30100D02*
Y44674D01*
X51454Y51363D02*
Y71048D01*
X31769D02*
X51454D01*
X31769Y51363D02*
Y71048D01*
Y51363D02*
X51454D01*
X66575Y62717D02*
Y66654D01*
X55551D02*
X66575D01*
X55551Y62717D02*
Y66654D01*
Y62717D02*
X66575D01*
X88106Y8909D02*
Y51429D01*
X102673Y8909D02*
Y51429D01*
X88106Y8909D02*
X102673D01*
X88106Y51429D02*
X102673D01*
X81496Y49843D02*
X85433D01*
X81496Y38819D02*
Y49843D01*
Y38819D02*
X85433D01*
Y49843D01*
X77284Y38819D02*
Y49843D01*
X73347Y38819D02*
X77284D01*
X73347D02*
Y49843D01*
X77284D01*
X66024D02*
X69961D01*
X66024Y38819D02*
Y49843D01*
Y38819D02*
X69961D01*
Y49843D01*
X29950Y50174D02*
X40974D01*
Y46237D02*
Y50174D01*
X29950Y46237D02*
X40974D01*
X29950D02*
Y50174D01*
X24016Y54173D02*
X27953D01*
X24016Y43150D02*
Y54173D01*
Y43150D02*
X27953D01*
Y54173D01*
X10800Y6850D02*
Y12361D01*
X21824D01*
Y6850D02*
Y12361D01*
X10800Y6850D02*
X21824D01*
X17243Y28694D02*
X21180D01*
Y39717D01*
X17243D02*
X21180D01*
X17243Y28694D02*
Y39717D01*
X6181Y40354D02*
Y44291D01*
Y40354D02*
X17205D01*
Y44291D01*
X6181D02*
X17205D01*
X10866Y72677D02*
Y76614D01*
Y72677D02*
X21890D01*
Y76614D01*
X10866D02*
X21890D01*
X36343Y72194D02*
Y83217D01*
X40280D01*
Y72194D02*
Y83217D01*
X36343Y72194D02*
X40280D01*
X44449Y87638D02*
X48386D01*
X44449Y76614D02*
X44449Y87638D01*
X44449Y76614D02*
X48386D01*
X48386Y87638D01*
X55630Y67480D02*
X66654Y67480D01*
X55630Y67480D02*
X55630Y71417D01*
X66654Y71417D01*
X66654Y67480D02*
X66654Y71417D01*
X22056Y28994D02*
Y40017D01*
Y28994D02*
X27568D01*
Y40017D01*
X22056D02*
X27568D01*
X15880Y28694D02*
Y39717D01*
X11943Y28694D02*
X15880D01*
X11943D02*
Y39717D01*
X15880D01*
X10680Y28694D02*
Y39717D01*
X6743Y28694D02*
X10680D01*
X6743D02*
Y39717D01*
X10680D01*
X34140Y7394D02*
Y18417D01*
X38077D01*
Y7394D02*
Y18417D01*
X34140Y7394D02*
X38077D01*
X26343D02*
Y18417D01*
X30280D01*
Y7394D02*
Y18417D01*
X26343Y7394D02*
X30280D01*
X43400Y42374D02*
X54424D01*
Y38437D02*
Y42374D01*
X43400Y38437D02*
X54424D01*
X43400D02*
Y42374D01*
X32987Y42771D02*
X32659Y43099D01*
X32003D01*
X31675Y42771D01*
Y41459D01*
X32003Y41131D01*
X32659D01*
X32987Y41459D01*
X33643Y41131D02*
X34299D01*
X33971D01*
Y43099D01*
X33643Y42771D01*
X35282Y41131D02*
X35939D01*
X35610D01*
Y43099D01*
X35282Y42771D01*
X65000Y66260D02*
Y64292D01*
X64016D01*
X63688Y64620D01*
Y65276D01*
X64016Y65604D01*
X65000D01*
X64344D02*
X63688Y66260D01*
X63032Y64292D02*
X61720D01*
Y64620D01*
X63032Y65932D01*
Y66260D01*
X81890Y48268D02*
X83858D01*
Y47284D01*
X83530Y46956D01*
X82874D01*
X82546Y47284D01*
Y48268D01*
Y47612D02*
X81890Y46956D01*
X83858Y44988D02*
Y46300D01*
X82874D01*
X83202Y45644D01*
Y45316D01*
X82874Y44988D01*
X82218D01*
X81890Y45316D01*
Y45972D01*
X82218Y46300D01*
X73740Y48268D02*
X75708D01*
Y47284D01*
X75380Y46956D01*
X74724D01*
X74396Y47284D01*
Y48268D01*
Y47612D02*
X73740Y46956D01*
X75708Y44988D02*
X75380Y45644D01*
X74724Y46300D01*
X74068D01*
X73740Y45972D01*
Y45316D01*
X74068Y44988D01*
X74396D01*
X74724Y45316D01*
Y46300D01*
X66417Y48268D02*
X68385D01*
Y47284D01*
X68057Y46956D01*
X67401D01*
X67073Y47284D01*
Y48268D01*
Y47612D02*
X66417Y46956D01*
X68057Y46300D02*
X68385Y45972D01*
Y45316D01*
X68057Y44988D01*
X67729D01*
X67401Y45316D01*
Y45644D01*
Y45316D01*
X67073Y44988D01*
X66745D01*
X66417Y45316D01*
Y45972D01*
X66745Y46300D01*
X32837Y48271D02*
X32509Y48599D01*
X31853D01*
X31525Y48271D01*
Y46959D01*
X31853Y46631D01*
X32509D01*
X32837Y46959D01*
X33493Y46631D02*
X34149D01*
X33821D01*
Y48599D01*
X33493Y48271D01*
X35133D02*
X35460Y48599D01*
X36116D01*
X36445Y48271D01*
Y46959D01*
X36116Y46631D01*
X35460D01*
X35133Y46959D01*
Y48271D01*
X26049Y51287D02*
X26377Y51614D01*
Y52271D01*
X26049Y52598D01*
X24737D01*
X24409Y52271D01*
Y51614D01*
X24737Y51287D01*
X26377Y49319D02*
X26049Y49975D01*
X25393Y50631D01*
X24737D01*
X24409Y50303D01*
Y49647D01*
X24737Y49319D01*
X25065D01*
X25393Y49647D01*
Y50631D01*
X20787Y30268D02*
X18819D01*
Y31252D01*
X19147Y31580D01*
X19803D01*
X20131Y31252D01*
Y30268D01*
Y30924D02*
X20787Y31580D01*
Y32236D02*
Y32892D01*
Y32564D01*
X18819D01*
X19147Y32236D01*
X9068Y42388D02*
X8740Y42716D01*
X8084D01*
X7756Y42388D01*
Y41076D01*
X8084Y40748D01*
X8740D01*
X9068Y41076D01*
X9724Y42716D02*
X11036D01*
Y42388D01*
X9724Y41076D01*
Y40748D01*
X13753Y74711D02*
X13425Y75039D01*
X12769D01*
X12441Y74711D01*
Y73399D01*
X12769Y73071D01*
X13425D01*
X13753Y73399D01*
X14409Y73071D02*
X15065D01*
X14737D01*
Y75039D01*
X14409Y74711D01*
X17361Y73071D02*
X16049D01*
X17361Y74383D01*
Y74711D01*
X17033Y75039D01*
X16377D01*
X16049Y74711D01*
X38247Y75080D02*
X37919Y74752D01*
Y74097D01*
X38247Y73769D01*
X39559D01*
X39887Y74097D01*
Y74752D01*
X39559Y75080D01*
X39887Y75736D02*
Y76392D01*
Y76064D01*
X37919D01*
X38247Y75736D01*
Y77376D02*
X37919Y77704D01*
Y78360D01*
X38247Y78688D01*
X38575D01*
X38903Y78360D01*
Y78032D01*
Y78360D01*
X39231Y78688D01*
X39559D01*
X39887Y78360D01*
Y77704D01*
X39559Y77376D01*
X46482Y84751D02*
X46810Y85079D01*
Y85735D01*
X46482Y86063D01*
X45171D01*
X44842Y85735D01*
Y85079D01*
X45171Y84751D01*
Y84095D02*
X44842Y83767D01*
Y83111D01*
X45171Y82783D01*
X46482D01*
X46810Y83111D01*
Y83767D01*
X46482Y84095D01*
X46154D01*
X45827Y83767D01*
Y82783D01*
X63767Y69384D02*
X64095Y69056D01*
X64751D01*
X65079Y69384D01*
Y70696D01*
X64751Y71024D01*
X64095D01*
X63767Y70696D01*
X63111Y69384D02*
X62783Y69056D01*
X62127D01*
X61799Y69384D01*
Y69712D01*
X62127Y70040D01*
X61799Y70368D01*
Y70696D01*
X62127Y71024D01*
X62783D01*
X63111Y70696D01*
Y70368D01*
X62783Y70040D01*
X63111Y69712D01*
Y69384D01*
X62783Y70040D02*
X62127D01*
X13977Y36831D02*
X14305Y37159D01*
Y37815D01*
X13977Y38142D01*
X12665D01*
X12337Y37815D01*
Y37159D01*
X12665Y36831D01*
X14305Y34863D02*
Y36175D01*
X13321D01*
X13649Y35519D01*
Y35191D01*
X13321Y34863D01*
X12665D01*
X12337Y35191D01*
Y35847D01*
X12665Y36175D01*
X7137Y38142D02*
X9105D01*
Y37159D01*
X8777Y36831D01*
X8121D01*
X7793Y37159D01*
Y38142D01*
Y37487D02*
X7137Y36831D01*
Y34863D02*
Y36175D01*
X8449Y34863D01*
X8777D01*
X9105Y35191D01*
Y35847D01*
X8777Y36175D01*
X36044Y10280D02*
X35716Y9952D01*
Y9296D01*
X36044Y8969D01*
X37356D01*
X37683Y9296D01*
Y9952D01*
X37356Y10280D01*
X37683Y10936D02*
Y11592D01*
Y11264D01*
X35716D01*
X36044Y10936D01*
X28247Y10280D02*
X27919Y9952D01*
Y9296D01*
X28247Y8969D01*
X29559D01*
X29887Y9296D01*
Y9952D01*
X29559Y10280D01*
X29887Y12248D02*
Y10936D01*
X28575Y12248D01*
X28247D01*
X27919Y11920D01*
Y11264D01*
X28247Y10936D01*
X44975Y38831D02*
Y40799D01*
X45959D01*
X46287Y40471D01*
Y39815D01*
X45959Y39487D01*
X44975D01*
X45631D02*
X46287Y38831D01*
X47927D02*
Y40799D01*
X46943Y39815D01*
X48255D01*
D14*
X42398Y64355D02*
X39118D01*
X38462Y63699D01*
Y62387D01*
X39118Y61731D01*
X42398D01*
X41742Y60419D02*
X42398Y59763D01*
Y58451D01*
X41742Y57796D01*
X41086D01*
X40430Y58451D01*
Y59107D01*
Y58451D01*
X39774Y57796D01*
X39118D01*
X38462Y58451D01*
Y59763D01*
X39118Y60419D01*
D16*
X13227Y9736D02*
X12768Y10195D01*
X11850D01*
X11390Y9736D01*
Y7899D01*
X11850Y7440D01*
X12768D01*
X13227Y7899D01*
X15523Y7440D02*
Y10195D01*
X14146Y8818D01*
X15982D01*
X24942Y37590D02*
X25401Y38049D01*
Y38968D01*
X24942Y39427D01*
X23106D01*
X22646Y38968D01*
Y38049D01*
X23106Y37590D01*
X24942Y36672D02*
X25401Y36213D01*
Y35294D01*
X24942Y34835D01*
X24483D01*
X24024Y35294D01*
Y35753D01*
Y35294D01*
X23565Y34835D01*
X23106D01*
X22646Y35294D01*
Y36213D01*
X23106Y36672D01*
M02*
