G04*
G04 #@! TF.GenerationSoftware,Altium Limited,Altium Designer,24.2.2 (26)*
G04*
G04 Layer_Color=16711935*
%FSLAX25Y25*%
%MOIN*%
G70*
G04*
G04 #@! TF.SameCoordinates,F296BD43-7A1A-4B5F-AFD2-8FBC70BB071E*
G04*
G04*
G04 #@! TF.FilePolarity,Positive*
G04*
G01*
G75*
%ADD162C,0.02362*%
%ADD163C,0.02500*%
%ADD164C,0.01575*%
%ADD165C,0.01772*%
%ADD166C,0.02400*%
D162*
X57649Y192744D02*
D03*
Y187324D02*
D03*
X42569Y175544D02*
D03*
X65079Y129474D02*
D03*
Y125474D02*
D03*
X42569Y181614D02*
D03*
X42669Y188014D02*
D03*
X41849Y6934D02*
D03*
X47949D02*
D03*
X44899D02*
D03*
X96509Y148354D02*
D03*
X126279Y141074D02*
D03*
X250079Y34074D02*
D03*
X156579Y156374D02*
D03*
Y151374D02*
D03*
Y146374D02*
D03*
X225579Y156374D02*
D03*
X222895Y125927D02*
D03*
X78579Y19874D02*
D03*
X127079Y23555D02*
D03*
X215079Y75374D02*
D03*
X42079Y104874D02*
D03*
X45560Y110355D02*
D03*
X71879Y118474D02*
D03*
X210079Y69274D02*
D03*
X229979Y136274D02*
D03*
X226076Y136474D02*
D03*
X248883Y196890D02*
D03*
Y186890D02*
D03*
X231589Y206890D02*
D03*
X234579Y153374D02*
D03*
X233379Y137774D02*
D03*
X210079Y59374D02*
D03*
X247579Y135874D02*
D03*
X282029Y145474D02*
D03*
X281929Y142374D02*
D03*
X126279Y145074D02*
D03*
X115729Y87224D02*
D03*
X255629Y176524D02*
D03*
X167079Y103874D02*
D03*
X148679Y121874D02*
D03*
X206779Y81424D02*
D03*
X219579Y125374D02*
D03*
X222928Y77025D02*
D03*
X208270Y86924D02*
D03*
X250129Y53574D02*
D03*
X259129D02*
D03*
X263129D02*
D03*
X254129D02*
D03*
X54729Y21174D02*
D03*
X115729Y93224D02*
D03*
Y90224D02*
D03*
X27079Y19824D02*
D03*
Y12824D02*
D03*
X26779Y6174D02*
D03*
X246829Y217024D02*
D03*
X257829D02*
D03*
X252329D02*
D03*
X223129Y232224D02*
D03*
X280829Y158474D02*
D03*
X241579Y126924D02*
D03*
X252279Y89174D02*
D03*
X239079Y73974D02*
D03*
X248529Y113824D02*
D03*
X145029Y145924D02*
D03*
Y142924D02*
D03*
Y139924D02*
D03*
X163379Y126424D02*
D03*
X187879Y126974D02*
D03*
X192379D02*
D03*
X139429Y99874D02*
D03*
Y94374D02*
D03*
Y89374D02*
D03*
X196029Y177374D02*
D03*
X202579Y172374D02*
D03*
X196029D02*
D03*
X208579D02*
D03*
X202579Y168374D02*
D03*
X208579D02*
D03*
X227629Y232224D02*
D03*
X232129D02*
D03*
X255979Y17824D02*
D03*
X267229Y18074D02*
D03*
X255729Y10024D02*
D03*
X267229D02*
D03*
X260329Y115324D02*
D03*
X265329D02*
D03*
X270329D02*
D03*
X260729Y10024D02*
D03*
X260979Y17824D02*
D03*
X157879Y126424D02*
D03*
X192379Y135974D02*
D03*
X187879D02*
D03*
X168879Y183574D02*
D03*
X164879D02*
D03*
X160879D02*
D03*
X156879D02*
D03*
X214583Y123394D02*
D03*
X313357Y93864D02*
D03*
X311607Y79664D02*
D03*
X369007Y5264D02*
D03*
X321707Y27814D02*
D03*
X333907Y23114D02*
D03*
X374007Y5264D02*
D03*
X380857Y56714D02*
D03*
D163*
X340507Y96014D02*
D03*
D164*
X274895Y103060D02*
D03*
X276679Y104844D02*
D03*
X236760Y49174D02*
D03*
X233979Y68556D02*
D03*
X230779Y65578D02*
D03*
D165*
X228834Y23924D02*
D03*
X232679Y74824D02*
D03*
X194379Y92374D02*
D03*
D166*
X236979Y38524D02*
D03*
M02*
