G04*
G04 #@! TF.GenerationSoftware,Altium Limited,Altium Designer,24.2.2 (26)*
G04*
G04 Layer_Physical_Order=1*
G04 Layer_Color=255*
%FSLAX25Y25*%
%MOIN*%
G70*
G04*
G04 #@! TF.SameCoordinates,F296BD43-7A1A-4B5F-AFD2-8FBC70BB071E*
G04*
G04*
G04 #@! TF.FilePolarity,Positive*
G04*
G01*
G75*
%ADD10C,0.00787*%
%ADD15C,0.00394*%
%ADD19C,0.01968*%
%ADD20C,0.01000*%
%ADD24R,0.03150X0.05512*%
%ADD26R,0.03800X0.03100*%
%ADD30R,0.05512X0.03150*%
%ADD35R,0.01181X0.04724*%
%ADD36R,0.04724X0.01181*%
%ADD40R,0.03100X0.03800*%
%ADD52R,0.04724X0.06299*%
%ADD53R,0.12992X0.06299*%
%ADD57R,0.06102X0.04724*%
%ADD58R,0.05906X0.01968*%
%ADD110C,0.08268*%
%ADD113R,0.03543X0.03150*%
%ADD114R,0.11811X0.05906*%
%ADD115R,0.05118X0.02559*%
G04:AMPARAMS|DCode=116|XSize=62.99mil|YSize=49.21mil|CornerRadius=0mil|HoleSize=0mil|Usage=FLASHONLY|Rotation=237.000|XOffset=0mil|YOffset=0mil|HoleType=Round|Shape=Rectangle|*
%AMROTATEDRECTD116*
4,1,4,-0.00348,0.03982,0.03779,0.01301,0.00348,-0.03982,-0.03779,-0.01301,-0.00348,0.03982,0.0*
%
%ADD116ROTATEDRECTD116*%

%ADD117R,0.01968X0.01575*%
%ADD118R,0.03150X0.03543*%
%ADD119R,0.05236X0.05236*%
%ADD120R,0.03543X0.07874*%
%ADD121R,0.07874X0.03543*%
G04:AMPARAMS|DCode=122|XSize=47.64mil|YSize=23.23mil|CornerRadius=2.9mil|HoleSize=0mil|Usage=FLASHONLY|Rotation=270.000|XOffset=0mil|YOffset=0mil|HoleType=Round|Shape=RoundedRectangle|*
%AMROUNDEDRECTD122*
21,1,0.04764,0.01742,0,0,270.0*
21,1,0.04183,0.02323,0,0,270.0*
1,1,0.00581,-0.00871,-0.02092*
1,1,0.00581,-0.00871,0.02092*
1,1,0.00581,0.00871,0.02092*
1,1,0.00581,0.00871,-0.02092*
%
%ADD122ROUNDEDRECTD122*%
%ADD123R,0.03937X0.01968*%
%ADD124R,0.02087X0.01142*%
%ADD125R,0.07480X0.07480*%
%ADD126R,0.06299X0.05512*%
%ADD127R,0.05709X0.05118*%
%ADD128R,0.01575X0.05315*%
%ADD129R,0.15354X0.24410*%
%ADD130R,0.12992X0.17323*%
%ADD131R,0.02756X0.05906*%
%ADD132R,0.03937X0.03150*%
%ADD133R,0.04724X0.02559*%
%ADD134R,0.13386X0.05118*%
%ADD135R,0.08465X0.08858*%
%ADD136R,0.07874X0.04331*%
%ADD137R,0.24410X0.15354*%
%ADD138R,0.17323X0.12992*%
%ADD139C,0.01500*%
%ADD140C,0.01470*%
%ADD141C,0.01100*%
%ADD142C,0.00800*%
%ADD143C,0.01200*%
%ADD144C,0.02000*%
%ADD145C,0.00900*%
%ADD146C,0.01181*%
%ADD147C,0.03000*%
%ADD148C,0.06000*%
%ADD149R,0.06400X0.03550*%
%ADD150C,0.03937*%
%ADD151O,0.05906X0.04724*%
%ADD152C,0.05906*%
%ADD153C,0.09843*%
%ADD154C,0.01181*%
%ADD155O,0.14173X0.07087*%
%ADD156O,0.07874X0.15748*%
%ADD157O,0.15748X0.07874*%
%ADD158C,0.03543*%
%ADD159C,0.07874*%
%ADD160C,0.10039*%
%ADD161O,0.07087X0.14173*%
%ADD162C,0.02362*%
%ADD163C,0.02500*%
%ADD164C,0.01575*%
%ADD165C,0.01772*%
%ADD166C,0.02400*%
G36*
X266079Y242774D02*
Y236874D01*
X248579D01*
X235779Y249674D01*
Y256174D01*
X238979Y259374D01*
X249479D01*
X266079Y242774D01*
D02*
G37*
G36*
X229779Y257703D02*
X229779Y250574D01*
X215579Y236374D01*
X200979D01*
X198879Y238474D01*
Y240645D01*
X217608Y259374D01*
X228108D01*
X229779Y257703D01*
D02*
G37*
G36*
X282269Y254443D02*
X282303Y237091D01*
X281188Y235974D01*
X273798Y235974D01*
X272358Y237414D01*
Y242447D01*
X263188Y251617D01*
Y257294D01*
X266298Y260404D01*
X276308D01*
X282269Y254443D01*
D02*
G37*
G36*
X203899Y257294D02*
X203899Y254194D01*
X192109Y242404D01*
X192109Y236604D01*
X190829Y235324D01*
X186547Y235324D01*
X184783Y237091D01*
X184818Y254443D01*
X190779Y260404D01*
X200789D01*
X203899Y257294D01*
D02*
G37*
G36*
X253679Y233474D02*
Y226174D01*
X252679Y225174D01*
X241379D01*
X240779Y225774D01*
Y229174D01*
X241479Y229874D01*
X248530D01*
X248979Y230174D01*
Y233574D01*
X249879Y234474D01*
X252679D01*
X253679Y233474D01*
D02*
G37*
G36*
X262479Y234524D02*
X283622D01*
Y154426D01*
X283160Y154235D01*
X282800Y154595D01*
X282469Y154816D01*
X282079Y154894D01*
X273320D01*
X272861Y154994D01*
Y155074D01*
X266379D01*
X265743Y155709D01*
Y155322D01*
X265743Y154994D01*
X265459Y154612D01*
X265433Y154595D01*
X265320Y154426D01*
X264789Y154391D01*
X251764Y167416D01*
X251102Y167858D01*
X250322Y168013D01*
X235823D01*
X225118Y178719D01*
Y184296D01*
X225118Y184296D01*
X224963Y185077D01*
X224521Y185738D01*
X224521Y185738D01*
X220246Y190013D01*
X220349Y190262D01*
X220485Y191293D01*
X220349Y192325D01*
X219951Y193287D01*
X219317Y194113D01*
X218492Y194746D01*
X217530Y195144D01*
X216498Y195280D01*
X215466Y195144D01*
X214505Y194746D01*
X213679Y194113D01*
X213045Y193287D01*
X212647Y192325D01*
X212511Y191293D01*
X212647Y190262D01*
X213045Y189300D01*
X213679Y188474D01*
X214505Y187841D01*
X215466Y187442D01*
X216498Y187307D01*
X217105Y187386D01*
X221040Y183452D01*
Y177874D01*
X221195Y177094D01*
X221637Y176432D01*
X233537Y164532D01*
X233537Y164532D01*
X234198Y164090D01*
X234979Y163935D01*
X234979Y163935D01*
X249477D01*
X262580Y150832D01*
X263242Y150390D01*
X264022Y150235D01*
X264022Y150235D01*
X265075D01*
X265437Y149815D01*
X265422Y149359D01*
X264958Y148895D01*
X264737Y148564D01*
X264659Y148174D01*
Y146174D01*
X264737Y145784D01*
X264958Y145453D01*
X265470Y144940D01*
X265642Y144698D01*
X265512Y144249D01*
X265358Y144095D01*
X265137Y143764D01*
X265059Y143374D01*
Y141474D01*
X265137Y141084D01*
X265358Y140753D01*
X265667Y140444D01*
X265567Y139976D01*
X265264Y139944D01*
X255451D01*
X250875Y144520D01*
X250814Y144994D01*
X250814Y144994D01*
X250814Y144994D01*
Y149554D01*
X250814D01*
Y149995D01*
X250814D01*
Y154553D01*
X250814D01*
Y154994D01*
X250814D01*
Y159554D01*
X243696D01*
Y159313D01*
X233629D01*
X232848Y159158D01*
X232187Y158716D01*
X228487Y155016D01*
X228118Y154464D01*
X227618Y154576D01*
Y155500D01*
X227633Y155523D01*
X227803Y156374D01*
X227633Y157225D01*
X227151Y157947D01*
X226430Y158429D01*
X225579Y158598D01*
X224728Y158429D01*
X224549Y158309D01*
X224108Y158545D01*
Y171874D01*
X223992Y172459D01*
X223660Y172956D01*
X205608Y191007D01*
Y213761D01*
X228996D01*
X229581Y213877D01*
X230077Y214209D01*
X234837Y218969D01*
X234879Y218952D01*
Y219374D01*
X236729Y221224D01*
X237093D01*
X238231Y222362D01*
X238236Y222363D01*
X238247Y222353D01*
X238795Y223173D01*
X238989Y224149D01*
X238970D01*
Y224754D01*
X240340D01*
X240531Y224580D01*
X240658Y224453D01*
X240989Y224232D01*
X241379Y224154D01*
X252679D01*
X253069Y224232D01*
X253400Y224453D01*
X253429Y224482D01*
X253829Y224724D01*
X254324Y224729D01*
X254329Y224724D01*
Y224724D01*
X255229D01*
Y233874D01*
X256379Y235024D01*
X261979D01*
X262479Y234524D01*
D02*
G37*
G36*
X208179Y229674D02*
X209779Y228074D01*
X220479D01*
X221279Y227274D01*
Y223474D01*
X220679Y222874D01*
X205279D01*
X204079Y224074D01*
Y227574D01*
X201479Y230174D01*
Y233374D01*
X202779Y234674D01*
X208179D01*
Y229674D01*
D02*
G37*
G36*
X202329Y224024D02*
X200879Y222574D01*
X199979D01*
X198529Y224024D01*
Y226424D01*
X198679Y226574D01*
X202329D01*
Y224024D01*
D02*
G37*
G36*
X225329Y234124D02*
Y231281D01*
X225538D01*
X225657Y231250D01*
X226056Y230651D01*
X226778Y230170D01*
X227129Y230100D01*
Y232224D01*
X228129D01*
Y230100D01*
X228480Y230170D01*
X229201Y230651D01*
X229601Y231250D01*
X229719Y231281D01*
X230038D01*
X230156Y231250D01*
X230556Y230651D01*
X231278Y230170D01*
X231629Y230100D01*
Y232224D01*
X232129D01*
Y232724D01*
X234253D01*
X234183Y233075D01*
X233701Y233797D01*
X233361Y234024D01*
X233512Y234524D01*
X247810D01*
X248077Y234024D01*
X248037Y233964D01*
X247959Y233574D01*
Y230894D01*
X241479D01*
X241089Y230816D01*
X240758Y230595D01*
X240058Y229895D01*
X240030Y229854D01*
X234540D01*
Y224754D01*
X235636D01*
X235797Y224254D01*
X228362Y216819D01*
X204664D01*
X204079Y216703D01*
X203583Y216371D01*
X202997Y215786D01*
X202666Y215289D01*
X202549Y214704D01*
Y190374D01*
X202666Y189789D01*
X202997Y189293D01*
X221008Y171282D01*
X220969Y170915D01*
X220488Y170728D01*
X201958Y189258D01*
Y222212D01*
X202771Y223024D01*
X203329D01*
X203329Y223024D01*
Y223024D01*
X203329Y223024D01*
X203787Y222924D01*
X204558Y222153D01*
X204889Y221932D01*
X205279Y221854D01*
X220679D01*
X221069Y221932D01*
X221400Y222153D01*
X222000Y222753D01*
X222221Y223084D01*
X222298Y223474D01*
Y227274D01*
X222221Y227664D01*
X222000Y227995D01*
X221200Y228795D01*
X220869Y229016D01*
X220659Y229064D01*
X220659Y229064D01*
Y229374D01*
X210679D01*
X209829Y230224D01*
Y233574D01*
X211179Y234924D01*
X224529D01*
X225329Y234124D01*
D02*
G37*
G36*
X79079Y196274D02*
X63679D01*
Y204574D01*
X79079D01*
Y196274D01*
D02*
G37*
G36*
X106579Y206374D02*
X115079D01*
Y195874D01*
X105579D01*
X80945Y221474D01*
X71579D01*
X69879Y223174D01*
X69879Y232824D01*
X71879Y234824D01*
X80813D01*
X106579Y206374D01*
D02*
G37*
G36*
X21229Y296324D02*
Y226274D01*
X33379Y214124D01*
Y182567D01*
X33047Y182295D01*
X32500D01*
Y182843D01*
X32392Y183386D01*
X32083Y183847D01*
X31622Y184155D01*
X31079Y184264D01*
X30535Y184155D01*
X30074Y183847D01*
X29766Y183386D01*
X29658Y182843D01*
Y182295D01*
X29110D01*
X28566Y182187D01*
X28105Y181879D01*
X27797Y181418D01*
X27689Y180874D01*
X27797Y180330D01*
X28105Y179869D01*
X28566Y179561D01*
X29110Y179453D01*
X29658D01*
Y178905D01*
X29766Y178362D01*
X30074Y177901D01*
X30535Y177593D01*
X31079Y177485D01*
X31622Y177593D01*
X32083Y177901D01*
X32392Y178362D01*
X32500Y178905D01*
Y179453D01*
X33047D01*
X33379Y179181D01*
Y168274D01*
X68579D01*
X69329Y169024D01*
Y182424D01*
X72079Y185174D01*
X79779D01*
X82529Y182424D01*
Y168274D01*
X94363D01*
X94555Y167812D01*
X93358Y166615D01*
X93137Y166284D01*
X93059Y165894D01*
Y163198D01*
X93037Y163164D01*
X92959Y162774D01*
Y146834D01*
X93037Y146444D01*
X93258Y146113D01*
X95118Y144253D01*
X95449Y144032D01*
X95839Y143954D01*
X100729Y143954D01*
X101959Y142724D01*
Y137574D01*
X102037Y137184D01*
X102258Y136853D01*
X104758Y134353D01*
X105089Y134132D01*
X105479Y134054D01*
X107037D01*
Y131090D01*
X114921D01*
X115346Y130665D01*
X115344Y130613D01*
X115188Y130165D01*
X114886D01*
Y130058D01*
X107037D01*
Y126090D01*
X114659D01*
Y125058D01*
X107037D01*
Y121090D01*
X108441D01*
Y119723D01*
X105629D01*
Y119724D01*
X99829D01*
Y119724D01*
X99329D01*
D01*
X99067Y119817D01*
X98929Y119866D01*
X98891Y119874D01*
X98539Y119944D01*
X91398D01*
Y123974D01*
X91321Y124364D01*
X91321Y124365D01*
Y125058D01*
X91309D01*
X91158Y125558D01*
X91300Y125653D01*
X91521Y125984D01*
X91598Y126374D01*
Y129874D01*
X91521Y130264D01*
X91300Y130595D01*
X91321Y131090D01*
X91321Y131182D01*
Y131766D01*
X90729Y131174D01*
X83415D01*
Y131090D01*
X82996Y130894D01*
X71035D01*
X71021Y130964D01*
X70800Y131295D01*
X69615Y132480D01*
X69822Y132980D01*
X70123D01*
X69330Y133773D01*
Y133409D01*
X68889Y133129D01*
X68830Y133124D01*
X68479Y133194D01*
X64730Y133194D01*
X64583Y133164D01*
X64574Y133163D01*
X64570Y133164D01*
X64568Y133163D01*
X64434Y133150D01*
X64389Y133126D01*
X64340Y133116D01*
X64227Y133041D01*
X64195Y133030D01*
X64176Y133012D01*
X64083Y132962D01*
X64051Y132923D01*
X64009Y132895D01*
X63950Y132807D01*
X63901Y132763D01*
X63876Y132710D01*
X63831Y132655D01*
X63820Y132636D01*
X63808Y132594D01*
X63788Y132564D01*
X63774Y132494D01*
X63731Y132403D01*
X63727Y132327D01*
X63705Y132255D01*
X63712Y132183D01*
X63710Y132174D01*
X63716Y132146D01*
X63717Y132131D01*
X63711Y132006D01*
X63736Y131934D01*
X63744Y131859D01*
X63803Y131749D01*
X63845Y131631D01*
X63998Y131375D01*
X63506Y131046D01*
X63024Y130325D01*
X62855Y129474D01*
X63024Y128623D01*
X63506Y127901D01*
X63772Y127724D01*
Y127224D01*
X63506Y127047D01*
X63024Y126325D01*
X62855Y125474D01*
X63024Y124623D01*
X63506Y123901D01*
X64228Y123419D01*
X65079Y123250D01*
X65800Y123394D01*
X65928Y123084D01*
X66149Y122753D01*
X66480Y122532D01*
X66870Y122454D01*
X68979D01*
X69369Y122532D01*
X69700Y122753D01*
X69700Y122753D01*
X70800Y123853D01*
X71021Y124184D01*
X71098Y124574D01*
Y125354D01*
X83038D01*
X83415Y125058D01*
Y124531D01*
X83237Y124264D01*
X83159Y123874D01*
Y112674D01*
X83237Y112284D01*
X83458Y111953D01*
X83458Y111953D01*
X85388Y110023D01*
X85719Y109802D01*
X86109Y109724D01*
X116249D01*
X116639Y109802D01*
X116970Y110023D01*
X121000Y114053D01*
X121059Y114142D01*
X121559Y113990D01*
Y108974D01*
X121637Y108584D01*
X121858Y108253D01*
X122908Y107203D01*
X122977Y107157D01*
Y102754D01*
X122977D01*
Y102313D01*
X122977D01*
Y97794D01*
X113929Y97794D01*
X113539Y97716D01*
X113208Y97495D01*
X111658Y95945D01*
X111437Y95614D01*
X111359Y95224D01*
X111359Y85224D01*
X111437Y84834D01*
X111658Y84503D01*
X113008Y83153D01*
X113339Y82932D01*
X113729Y82854D01*
X127479D01*
X127869Y82932D01*
X128200Y83153D01*
X130000Y84953D01*
X130221Y85284D01*
X130298Y85674D01*
Y93011D01*
X131389D01*
X132163Y93165D01*
X132819Y93603D01*
X135059Y95843D01*
X135498Y96500D01*
X135652Y97274D01*
Y113124D01*
X136529D01*
Y118224D01*
X136971Y118364D01*
X146698D01*
X147284Y118481D01*
X147780Y118812D01*
X148628Y119660D01*
X148679Y119650D01*
X149530Y119819D01*
X150251Y120301D01*
X150733Y121023D01*
X150903Y121874D01*
X150733Y122725D01*
X150251Y123447D01*
X149530Y123929D01*
X148679Y124098D01*
X147828Y123929D01*
X147106Y123447D01*
X146624Y122725D01*
X146455Y121874D01*
X146465Y121823D01*
X146065Y121423D01*
X144457D01*
X144250Y121923D01*
X145216Y122889D01*
X145437Y123220D01*
X145514Y123610D01*
Y129878D01*
X145437Y130268D01*
X145216Y130599D01*
X145216Y130599D01*
X144071Y131744D01*
Y132032D01*
X143783D01*
X143590Y132225D01*
X143259Y132446D01*
X142869Y132524D01*
X135049D01*
X134659Y132446D01*
X134328Y132225D01*
X134134Y132032D01*
X133607D01*
Y131453D01*
X133487Y131274D01*
X133409Y130884D01*
X133296Y130734D01*
X133056Y130494D01*
X130247D01*
X130040Y130994D01*
X131400Y132353D01*
X131621Y132684D01*
X131698Y133074D01*
Y148899D01*
X131621Y149289D01*
X131400Y149620D01*
X131069Y149841D01*
X130679Y149919D01*
X112676D01*
X108898Y153696D01*
X108898Y159652D01*
X112701Y163454D01*
X152179Y163454D01*
X152569Y163532D01*
X152900Y163753D01*
X154877Y165730D01*
X155120D01*
Y165973D01*
X156000Y166853D01*
X156221Y167184D01*
X156298Y167574D01*
Y171174D01*
Y173374D01*
X156221Y173764D01*
X156000Y174095D01*
X156000Y174095D01*
X155130Y174965D01*
X155130Y174965D01*
X154799Y175186D01*
X154409Y175264D01*
X150189D01*
X149799Y175186D01*
X149468Y174965D01*
X148532Y174029D01*
X148395D01*
Y173861D01*
X148237Y173624D01*
X148159Y173234D01*
Y171226D01*
X147668Y171204D01*
X147591Y171594D01*
X147370Y171925D01*
X146870Y172425D01*
X146539Y172646D01*
X146149Y172724D01*
X133019D01*
X132629Y172646D01*
X132298Y172425D01*
X132081Y172209D01*
X131923D01*
Y172050D01*
X131698Y171825D01*
X131477Y171494D01*
X131457Y171394D01*
X119952D01*
X119760Y171855D01*
X182429Y234524D01*
X185944D01*
X185990Y234494D01*
X186156Y234382D01*
X186156Y234382D01*
X186157Y234382D01*
X186349Y234344D01*
X186546Y234304D01*
X186546Y234304D01*
X186547Y234304D01*
X190829Y234304D01*
X191219Y234382D01*
X191431Y234524D01*
X200568D01*
X200710Y234024D01*
X200537Y233764D01*
X200459Y233374D01*
Y230174D01*
X200537Y229784D01*
X200758Y229453D01*
X201625Y228586D01*
X201433Y228124D01*
X197529D01*
Y226522D01*
X197509Y226424D01*
Y224024D01*
X197529Y223925D01*
Y223024D01*
X198087D01*
X198899Y222212D01*
Y188624D01*
X199016Y188039D01*
X199347Y187543D01*
X218549Y168341D01*
Y167303D01*
X218629Y167224D01*
Y133724D01*
X218129Y133224D01*
X217079D01*
Y132624D01*
X219129D01*
X219129Y132624D01*
Y132624D01*
X219593Y132497D01*
X223562Y128528D01*
X223316Y128067D01*
X222895Y128151D01*
X222044Y127981D01*
X221323Y127499D01*
X221014Y127038D01*
X220430Y127429D01*
X219579Y127598D01*
X219515Y127585D01*
X219129Y127902D01*
Y132124D01*
X214029D01*
Y131033D01*
X213529Y130826D01*
X205531Y138824D01*
X205447Y138880D01*
X205376Y138951D01*
X205298Y139003D01*
X205297Y139003D01*
X205205Y139042D01*
X205200Y139045D01*
X205194Y139046D01*
X205033Y139113D01*
X205029Y139116D01*
X205023Y139117D01*
X204930Y139156D01*
X204837Y139174D01*
X204737D01*
X204638Y139194D01*
X194395Y139194D01*
X194380Y139191D01*
X194366Y139193D01*
X194186Y139152D01*
X194005Y139116D01*
X193992Y139108D01*
X193978Y139104D01*
X193827Y138998D01*
X193674Y138895D01*
X193666Y138883D01*
X193654Y138874D01*
X193197Y138391D01*
X193181Y138365D01*
X193158Y138347D01*
X193076Y138198D01*
X192999Y138075D01*
X192379Y138198D01*
X191528Y138029D01*
X190806Y137547D01*
X190407Y136948D01*
X190288Y136917D01*
X189970D01*
X189851Y136948D01*
X189451Y137547D01*
X188730Y138029D01*
X187879Y138198D01*
X187259Y138075D01*
X187181Y138198D01*
X187100Y138347D01*
X187076Y138365D01*
X187060Y138391D01*
X186604Y138874D01*
X186592Y138883D01*
X186584Y138895D01*
X186430Y138997D01*
X186280Y139104D01*
X186265Y139108D01*
X186253Y139116D01*
X186072Y139152D01*
X185892Y139193D01*
X185877Y139191D01*
X185863Y139194D01*
X174691Y139194D01*
X171171D01*
X165738Y144626D01*
Y173634D01*
X165719Y173732D01*
X165719Y173832D01*
X165700Y173925D01*
X165662Y174018D01*
X165661Y174024D01*
X165657Y174029D01*
X165591Y174189D01*
X165590Y174195D01*
X165586Y174200D01*
X165548Y174293D01*
X165548Y174293D01*
X165496Y174372D01*
X165425Y174443D01*
X165369Y174526D01*
X164731Y175164D01*
X164647Y175220D01*
X164576Y175291D01*
X164498Y175343D01*
X164497Y175343D01*
X164405Y175382D01*
X164400Y175385D01*
X164394Y175386D01*
X164233Y175453D01*
X164228Y175456D01*
X164223Y175457D01*
X164130Y175496D01*
X164037Y175514D01*
X163937D01*
X163838Y175534D01*
X159009Y175534D01*
X158911Y175514D01*
X158810Y175514D01*
X158717Y175496D01*
X158625Y175457D01*
X158619Y175456D01*
X158614Y175453D01*
X158453Y175386D01*
X158448Y175385D01*
X158443Y175382D01*
X158350Y175343D01*
X158350Y175343D01*
X158271Y175291D01*
X158200Y175220D01*
X158117Y175164D01*
X157469Y174516D01*
X157413Y174432D01*
X157342Y174361D01*
X157290Y174283D01*
X157289Y174283D01*
X157251Y174190D01*
X157248Y174185D01*
X157247Y174179D01*
X157180Y174019D01*
X157177Y174014D01*
X157176Y174008D01*
X157137Y173915D01*
X157119Y173822D01*
Y173722D01*
X157099Y173624D01*
Y166336D01*
X152789Y162026D01*
X152733Y161943D01*
X152662Y161872D01*
X152610Y161793D01*
X152609Y161793D01*
X152571Y161700D01*
X152568Y161695D01*
X152567Y161689D01*
X152500Y161529D01*
X152497Y161524D01*
X152496Y161518D01*
X152457Y161425D01*
X152439Y161332D01*
Y161232D01*
X152419Y161134D01*
Y136384D01*
X152439Y136286D01*
X152439Y136186D01*
X152457Y136093D01*
X152496Y136000D01*
X152497Y135994D01*
X152500Y135989D01*
X152567Y135829D01*
X152568Y135823D01*
X152571Y135818D01*
X152609Y135725D01*
X152662Y135647D01*
X152733Y135576D01*
X152789Y135492D01*
X155857Y132424D01*
X155940Y132368D01*
X156011Y132297D01*
X156090Y132245D01*
X156090Y132245D01*
X156183Y132206D01*
X156188Y132203D01*
X156193Y132202D01*
X156354Y132135D01*
X156359Y132132D01*
X156365Y132131D01*
X156457Y132092D01*
X156550Y132074D01*
X156651D01*
X156749Y132054D01*
X203256D01*
X205825Y129486D01*
X205716Y129224D01*
X205779D01*
X207329Y127674D01*
Y125074D01*
X206179Y123924D01*
X207729D01*
Y123924D01*
X208159Y123756D01*
Y116844D01*
X208179Y116746D01*
X208179Y116646D01*
X208197Y116553D01*
X208197Y116553D01*
Y116553D01*
X208236Y116460D01*
X208237Y116454D01*
X208240Y116449D01*
X208307Y116289D01*
X208308Y116283D01*
X208311Y116278D01*
X208349Y116185D01*
X208349Y116185D01*
X208402Y116107D01*
X208473Y116036D01*
X208529Y115952D01*
X208857Y115624D01*
X208940Y115568D01*
X209011Y115497D01*
X209090Y115445D01*
X209090Y115445D01*
X209183Y115406D01*
X209188Y115403D01*
X209193Y115402D01*
X209354Y115335D01*
X209359Y115332D01*
X209365Y115331D01*
X209457Y115293D01*
X209457D01*
X209550Y115274D01*
X209651Y115274D01*
X209749Y115254D01*
X211319D01*
X211418Y115274D01*
X211518Y115274D01*
X211619Y115294D01*
X211712Y115332D01*
X211810Y115352D01*
X211858Y115384D01*
X212633D01*
Y118746D01*
X213388D01*
Y115384D01*
X234286D01*
Y121747D01*
X236160Y123621D01*
X236492Y124117D01*
X236608Y124702D01*
Y131959D01*
X239379D01*
Y134534D01*
Y137109D01*
X236191D01*
X236160Y137155D01*
X235593Y137723D01*
X235603Y137774D01*
X235437Y138609D01*
X235424Y138698D01*
X235698Y139109D01*
X249511Y139109D01*
X252966Y135653D01*
X253297Y135432D01*
X253687Y135354D01*
X282479D01*
X282869Y135432D01*
X283122Y135601D01*
X283622Y135454D01*
Y64897D01*
X283160Y64705D01*
X274810Y73055D01*
X281238Y79483D01*
Y105415D01*
X279779Y106874D01*
Y106874D01*
X275788Y110865D01*
X256501D01*
X256184Y111251D01*
X256208Y111374D01*
Y128707D01*
X256092Y129292D01*
X255760Y129789D01*
X249781Y135767D01*
X249803Y135874D01*
X249633Y136725D01*
X249151Y137446D01*
X248430Y137929D01*
X247579Y138098D01*
X246728Y137929D01*
X246006Y137446D01*
X245524Y136725D01*
X245355Y135874D01*
X245524Y135023D01*
X246006Y134301D01*
X246728Y133819D01*
X247571Y133652D01*
X253149Y128074D01*
Y112007D01*
X252007Y110865D01*
X250419D01*
X250212Y111365D01*
X250650Y111803D01*
X250871Y112134D01*
X250948Y112524D01*
Y115074D01*
X250871Y115464D01*
X250650Y115795D01*
X249700Y116745D01*
X249369Y116966D01*
X248979Y117044D01*
X247533D01*
X247129Y117274D01*
X247129Y117544D01*
Y119674D01*
X244579D01*
X242029D01*
Y117544D01*
X242029Y117274D01*
X241624Y117044D01*
X236879D01*
X236489Y116966D01*
X236158Y116745D01*
X235108Y115695D01*
X234887Y115364D01*
X234809Y114974D01*
Y112224D01*
X234887Y111834D01*
X235108Y111503D01*
X235239Y111416D01*
Y111250D01*
X235598D01*
X235829Y111204D01*
X238601D01*
Y110494D01*
X235239D01*
Y107313D01*
Y103376D01*
Y99439D01*
Y95502D01*
Y91713D01*
X234935Y91492D01*
X234739Y91445D01*
X234638Y91513D01*
X234053Y91629D01*
X229344D01*
X228759Y91513D01*
X228263Y91181D01*
X227677Y90595D01*
X227345Y90099D01*
X227229Y89514D01*
Y88644D01*
X209622D01*
X209121Y88979D01*
X208508Y89101D01*
X208499Y89597D01*
X208499D01*
Y91565D01*
Y95502D01*
Y98684D01*
X205136D01*
Y99439D01*
X208499D01*
Y99439D01*
Y103376D01*
Y107313D01*
Y111250D01*
Y114431D01*
X201918D01*
Y118130D01*
X201798Y118734D01*
X201455Y119247D01*
X200811Y119892D01*
X200298Y120234D01*
X199694Y120354D01*
X192129D01*
X191524Y120234D01*
X191011Y119892D01*
X189850Y118730D01*
X186929Y120627D01*
X185667Y118684D01*
X185170Y118632D01*
X184610Y119192D01*
X184098Y119534D01*
X183493Y119654D01*
X180879D01*
X180274Y119534D01*
X179761Y119192D01*
X179094Y118524D01*
X175879D01*
Y113424D01*
X181679D01*
Y116494D01*
X182838D01*
X183691Y115641D01*
X182409Y113666D01*
X188214Y109897D01*
X192734Y116857D01*
D01*
X193063Y117194D01*
X198758D01*
Y113469D01*
X198318Y113231D01*
X197515Y113752D01*
X195527Y110691D01*
X198010Y109079D01*
X198278Y109492D01*
X198758Y109350D01*
Y105903D01*
X198878Y105298D01*
X199025Y105079D01*
X198757Y104579D01*
X190076D01*
X189472Y104458D01*
X188959Y104116D01*
X188555Y103712D01*
X188463Y103574D01*
X188347Y103455D01*
X187836Y102668D01*
X186259Y103693D01*
X181739Y96732D01*
X183010Y95907D01*
X183062Y95410D01*
X182629Y94976D01*
X182129Y95183D01*
Y95624D01*
X176479D01*
X176329Y95474D01*
Y90943D01*
X176131Y90798D01*
X175829Y91005D01*
Y92574D01*
X175679D01*
X175679Y90974D01*
X176679Y89974D01*
X179279D01*
X180629Y88624D01*
Y80174D01*
X180279Y79824D01*
X181229D01*
X181229Y79824D01*
X181229Y79824D01*
X181729D01*
X181836Y79743D01*
X181915Y79683D01*
X182246Y79462D01*
X182636Y79384D01*
X186019D01*
X186409Y79462D01*
X186740Y79683D01*
X186881Y79824D01*
X187529D01*
Y80472D01*
X187600Y80543D01*
X187821Y80874D01*
X187898Y81264D01*
Y86862D01*
X189188Y88152D01*
X189409Y88482D01*
X189487Y88872D01*
Y89869D01*
X191272Y91655D01*
X191293Y91646D01*
X191724Y91399D01*
X191787Y91084D01*
X192008Y90753D01*
X193158Y89603D01*
X193489Y89382D01*
X193879Y89304D01*
X201629D01*
X202019Y89382D01*
X202340Y89597D01*
X203607D01*
Y87961D01*
X203724Y87375D01*
X204055Y86879D01*
X204831Y86103D01*
X205327Y85772D01*
X205913Y85655D01*
X206495D01*
X206698Y85352D01*
X207419Y84869D01*
X208270Y84700D01*
X208951Y84836D01*
X209404Y84563D01*
X209438Y84069D01*
X208583Y83214D01*
X208026D01*
X207630Y83479D01*
X206779Y83648D01*
X205928Y83479D01*
X205206Y82996D01*
X204724Y82275D01*
X204555Y81424D01*
X204724Y80573D01*
X205206Y79852D01*
X205928Y79369D01*
X206779Y79200D01*
X207630Y79369D01*
X208351Y79852D01*
X208554Y80155D01*
X209217D01*
X209802Y80272D01*
X210298Y80603D01*
X210670Y80975D01*
X211212Y80810D01*
X211235Y80694D01*
X207145Y76603D01*
X173162D01*
X169158Y80607D01*
Y98824D01*
X169042Y99409D01*
X168710Y99906D01*
X167410Y101206D01*
X167409Y101253D01*
X167519Y101738D01*
X167930Y101820D01*
X168651Y102302D01*
X169133Y103023D01*
X169303Y103874D01*
X169133Y104725D01*
X168651Y105447D01*
X167930Y105929D01*
X167095Y106095D01*
X166905Y106297D01*
X166884Y106312D01*
X166870Y106334D01*
X166643Y106485D01*
X166420Y106645D01*
X166395Y106651D01*
X166374Y106665D01*
X166105Y106719D01*
X165839Y106781D01*
X165814Y106776D01*
X165789Y106781D01*
X165289D01*
Y107802D01*
X159489D01*
X159489Y107802D01*
X159117Y107703D01*
X158989Y107802D01*
Y107802D01*
X158515Y107866D01*
X158379Y107894D01*
X152536D01*
Y108274D01*
X145811D01*
Y107755D01*
X145811Y107755D01*
X145811D01*
X145745Y107282D01*
X145258Y106795D01*
X145037Y106464D01*
X144959Y106074D01*
Y104074D01*
X145037Y103684D01*
X145258Y103353D01*
X145490Y103121D01*
X145811Y102754D01*
X145745Y102282D01*
X145258Y101795D01*
X145037Y101464D01*
X144959Y101074D01*
Y99074D01*
X145037Y98684D01*
X145258Y98353D01*
X145490Y98121D01*
X145811Y97755D01*
X145745Y97282D01*
X145258Y96795D01*
X145037Y96464D01*
X144959Y96074D01*
Y94074D01*
X145037Y93684D01*
X145258Y93353D01*
X145811Y92800D01*
Y92755D01*
X145856D01*
X146058Y92553D01*
X146389Y92332D01*
X146779Y92254D01*
X158279D01*
X158554Y92309D01*
X158669Y92332D01*
X158796Y92385D01*
X158989Y92466D01*
D01*
X159489D01*
X159489Y92466D01*
X160859D01*
Y81664D01*
X160976Y81079D01*
X161307Y80583D01*
X169597Y72293D01*
X170094Y71961D01*
X170679Y71845D01*
X208526D01*
X208678Y71345D01*
X208276Y71076D01*
X207724Y70249D01*
X207530Y69274D01*
X207724Y68299D01*
X208276Y67472D01*
X212326Y63422D01*
X213153Y62869D01*
X214129Y62675D01*
X215529D01*
Y62324D01*
X220629D01*
Y68124D01*
X215529D01*
Y68124D01*
X215029Y67929D01*
X211881Y71076D01*
X211054Y71629D01*
X210079Y71823D01*
X210069Y71821D01*
X209874Y72292D01*
X209874Y72293D01*
X212497Y74915D01*
X212975Y74770D01*
X213024Y74523D01*
X213506Y73801D01*
X214228Y73320D01*
X215079Y73150D01*
X215142Y73163D01*
X215529Y72846D01*
Y68624D01*
X220629D01*
Y74424D01*
X219608D01*
Y75336D01*
X220410Y76138D01*
X220985Y76006D01*
X221356Y75452D01*
X222077Y74970D01*
X222529Y74880D01*
Y69124D01*
X227629D01*
Y74924D01*
X227138D01*
Y78293D01*
X227022Y78878D01*
X226691Y79375D01*
X226351Y79714D01*
Y81919D01*
X231200D01*
Y81329D01*
X231036Y81165D01*
X230789Y81116D01*
X230458Y80895D01*
X230387Y80824D01*
X229829D01*
Y80266D01*
X229608Y80045D01*
X229387Y79714D01*
X229309Y79324D01*
Y73474D01*
X229387Y73084D01*
X229608Y72753D01*
X229939Y72532D01*
X230329Y72454D01*
X235129D01*
X235519Y72532D01*
X235850Y72753D01*
X236071Y73084D01*
X236148Y73474D01*
Y75724D01*
X236179D01*
Y79774D01*
X236879Y80474D01*
X238529D01*
Y80824D01*
X236129D01*
Y80824D01*
X235629Y80816D01*
Y80824D01*
X235171D01*
X235150Y80845D01*
X234819Y81066D01*
X234429Y81144D01*
X234343D01*
X234157Y81329D01*
Y81919D01*
X234286D01*
Y87050D01*
X234748Y87242D01*
X236647Y85343D01*
X237143Y85011D01*
X237729Y84895D01*
X258645D01*
X266572Y76968D01*
X260279Y70674D01*
X232229D01*
X228624Y67069D01*
X228461Y63989D01*
X231502Y60224D01*
X233756D01*
Y52262D01*
X231769Y50275D01*
X231385Y49701D01*
X231251Y49024D01*
X231251Y49024D01*
Y47508D01*
X231218Y47487D01*
X230933Y47060D01*
X230833Y46556D01*
Y42373D01*
X230933Y41870D01*
X231218Y41443D01*
X231251Y41421D01*
Y37627D01*
X231218Y37605D01*
X230933Y37178D01*
X230833Y36675D01*
Y32491D01*
X230933Y31988D01*
X231218Y31561D01*
X231251Y31539D01*
Y29324D01*
X231385Y28647D01*
X231769Y28073D01*
X231904Y27983D01*
X233799Y26088D01*
Y21897D01*
X230095D01*
X229943Y22397D01*
X230193Y22564D01*
X230610Y23188D01*
X230657Y23424D01*
X227011D01*
X227058Y23188D01*
X227474Y22564D01*
X228098Y22148D01*
X228171Y22133D01*
X228573Y21897D01*
X228573Y21543D01*
Y18740D01*
X230361D01*
Y18240D01*
X230861D01*
Y14582D01*
X242384D01*
Y21897D01*
X242384Y21897D01*
X242384D01*
X242705Y22243D01*
X243055Y22593D01*
X247629D01*
X248253Y22717D01*
X248782Y23070D01*
X250732Y25021D01*
X251086Y25550D01*
X251210Y26174D01*
Y26724D01*
X251622D01*
Y29254D01*
X258979D01*
X259369Y29332D01*
X259679Y29539D01*
X259935D01*
Y29788D01*
X260400Y30253D01*
X260400Y30253D01*
X260621Y30584D01*
X260698Y30974D01*
X260698Y34774D01*
X260621Y35164D01*
X260400Y35495D01*
X260400Y35495D01*
X259700Y36195D01*
X259700Y36195D01*
X259369Y36416D01*
X258979Y36494D01*
X248579Y36494D01*
X248189Y36416D01*
X247858Y36195D01*
X246858Y35195D01*
X246637Y34864D01*
X246559Y34474D01*
Y30774D01*
X246637Y30384D01*
X246858Y30053D01*
X247358Y29553D01*
X247535Y29434D01*
Y26724D01*
X247535Y26724D01*
X247535D01*
X247377Y26279D01*
X246953Y25855D01*
X242379D01*
X241754Y25731D01*
X241225Y25378D01*
X240269Y24421D01*
X239807Y24612D01*
Y26638D01*
X241751Y28582D01*
X241751Y28582D01*
X242134Y29156D01*
X242269Y29833D01*
Y31539D01*
X242301Y31561D01*
X242586Y31988D01*
X242687Y32491D01*
Y36675D01*
X242586Y37178D01*
X242301Y37605D01*
X242269Y37627D01*
Y41421D01*
X242301Y41443D01*
X242586Y41870D01*
X242687Y42373D01*
Y46556D01*
X242586Y47060D01*
X242301Y47487D01*
X242269Y47508D01*
Y49024D01*
X242269Y49024D01*
X242134Y49701D01*
X241751Y50275D01*
X239763Y52262D01*
Y60224D01*
X261979D01*
X272647Y70893D01*
X282549Y60991D01*
Y34079D01*
X278567Y30096D01*
X278039Y30276D01*
X277965Y30839D01*
X277626Y31657D01*
X277087Y32359D01*
X276775Y32599D01*
Y33229D01*
X277087Y33469D01*
X277626Y34171D01*
X277965Y34989D01*
X278081Y35867D01*
X277965Y36744D01*
X277626Y37562D01*
X277087Y38265D01*
X276775Y38504D01*
Y39024D01*
X271423D01*
Y38504D01*
X271110Y38265D01*
X270571Y37562D01*
X270233Y36744D01*
X270117Y35867D01*
X270233Y34989D01*
X270571Y34171D01*
X271110Y33469D01*
X271423Y33229D01*
Y32599D01*
X271110Y32359D01*
X270571Y31657D01*
X270233Y30839D01*
X270117Y29961D01*
X270233Y29084D01*
X270571Y28266D01*
X271110Y27563D01*
X271423Y27324D01*
Y26693D01*
X271110Y26454D01*
X270571Y25751D01*
X270233Y24934D01*
X270117Y24056D01*
X270233Y23178D01*
X270571Y22360D01*
X271110Y21658D01*
X271423Y21418D01*
Y20788D01*
X271110Y20548D01*
X270571Y19846D01*
X270233Y19028D01*
X270117Y18150D01*
X270233Y17273D01*
X270571Y16455D01*
X271110Y15752D01*
X271813Y15213D01*
X272631Y14875D01*
X273508Y14759D01*
X274689D01*
X275567Y14875D01*
X276385Y15213D01*
X277087Y15752D01*
X277626Y16455D01*
X277965Y17273D01*
X278081Y18150D01*
X277965Y19028D01*
X277626Y19846D01*
X277087Y20548D01*
X276775Y20788D01*
Y21418D01*
X277087Y21658D01*
X277626Y22360D01*
X277965Y23178D01*
X278081Y24056D01*
X277965Y24934D01*
X277896Y25100D01*
X283160Y30364D01*
X283622Y30172D01*
Y4474D01*
X252817D01*
Y11267D01*
X245109D01*
X244943Y11699D01*
Y12448D01*
X226014D01*
Y11699D01*
X225849Y11267D01*
X218140D01*
Y4474D01*
X184067D01*
X183967Y4974D01*
X184417Y5160D01*
X185469Y5967D01*
X186276Y7019D01*
X186783Y8243D01*
X186956Y9557D01*
X186783Y10872D01*
X186276Y12096D01*
X185469Y13148D01*
X184417Y13955D01*
X183193Y14462D01*
X181879Y14635D01*
X180565Y14462D01*
X179340Y13955D01*
X178289Y13148D01*
X177482Y12096D01*
X176974Y10872D01*
X176801Y9557D01*
X176974Y8243D01*
X177482Y7019D01*
X178289Y5967D01*
X179340Y5160D01*
X179790Y4974D01*
X179691Y4474D01*
X146129D01*
X145029Y3374D01*
X141437D01*
Y7665D01*
X135500D01*
Y3374D01*
X112697D01*
Y7665D01*
X106760D01*
Y3374D01*
X51274D01*
X51083Y3836D01*
X53802Y6555D01*
X98519D01*
X99299Y6710D01*
X99961Y7152D01*
X100153Y7345D01*
X100829D01*
Y6824D01*
X105929D01*
Y12624D01*
X105929Y12624D01*
X105929D01*
X105900Y13092D01*
X105929Y13124D01*
X105929D01*
X106095Y13326D01*
X106200Y13453D01*
X106260Y13544D01*
X106760Y13392D01*
Y10783D01*
X112697D01*
Y11707D01*
X113041Y11891D01*
X113197Y11927D01*
X113489Y11732D01*
X113879Y11654D01*
X116151D01*
X116320Y11154D01*
X116288Y11129D01*
X115859Y10571D01*
X115590Y9922D01*
X115498Y9224D01*
X115590Y8527D01*
X115859Y7877D01*
X116288Y7319D01*
X116846Y6890D01*
X117496Y6621D01*
X118193Y6529D01*
X118891Y6621D01*
X119541Y6890D01*
X120099Y7319D01*
X120527Y7877D01*
X120796Y8527D01*
X120888Y9224D01*
X120796Y9922D01*
X120527Y10571D01*
X120099Y11129D01*
X119541Y11558D01*
X118891Y11827D01*
X118193Y11919D01*
X118169Y11916D01*
X117957Y12260D01*
X117923Y12387D01*
X118121Y12684D01*
X118198Y13074D01*
Y19174D01*
X118121Y19564D01*
X117900Y19895D01*
X117400Y20395D01*
X117069Y20616D01*
X116679Y20694D01*
X113679D01*
X113289Y20616D01*
X112958Y20395D01*
X111856Y19294D01*
X101779Y19294D01*
X101389Y19216D01*
X101058Y18995D01*
X100987Y18924D01*
X100829D01*
Y18766D01*
X100258Y18195D01*
X100037Y17864D01*
X99959Y17474D01*
Y14174D01*
X100037Y13784D01*
X100258Y13453D01*
X100658Y13053D01*
X100829Y12624D01*
X100829Y12624D01*
X100829D01*
X100829Y12624D01*
Y11423D01*
X99309D01*
X98528Y11268D01*
X97867Y10826D01*
X97674Y10633D01*
X65867D01*
X65715Y11133D01*
X65850Y11223D01*
X68660Y14033D01*
X68881Y14364D01*
X68958Y14754D01*
X68958Y16933D01*
X69458Y17404D01*
X71832D01*
X72229Y17325D01*
X78579D01*
X79554Y17519D01*
X80381Y18072D01*
X80934Y18899D01*
X81128Y19874D01*
X80934Y20850D01*
X80381Y21676D01*
X79554Y22229D01*
X78579Y22423D01*
X74829D01*
Y22504D01*
X69296Y22504D01*
X68886Y22712D01*
X68761Y22893D01*
X68660Y23045D01*
X68080Y23625D01*
X67749Y23846D01*
X67359Y23924D01*
X63479D01*
X63089Y23846D01*
X62758Y23625D01*
X62108Y22975D01*
X62108Y22975D01*
X61887Y22644D01*
X61809Y22254D01*
X61809Y17224D01*
X55659Y17224D01*
X55269Y17146D01*
X54938Y16925D01*
X54388Y16375D01*
X54167Y16044D01*
X54089Y15654D01*
Y12474D01*
X54167Y12084D01*
X54388Y11753D01*
X54918Y11223D01*
X55052Y11133D01*
X54901Y10633D01*
X53762D01*
X50810Y13584D01*
X50995Y14084D01*
X51569D01*
X51959Y14162D01*
X52290Y14383D01*
X53260Y15353D01*
X53481Y15684D01*
X53558Y16074D01*
Y18732D01*
X53672Y18870D01*
X54009Y19093D01*
X54229Y19050D01*
Y20674D01*
X52113D01*
X52096Y20668D01*
X51829Y20846D01*
X51439Y20924D01*
X46408D01*
Y22184D01*
X46253Y22964D01*
X45811Y23626D01*
X45415Y24022D01*
X45622Y24522D01*
X100847D01*
Y34396D01*
X40529D01*
X40080Y34845D01*
X39749Y35066D01*
X39359Y35144D01*
X36809D01*
X36419Y35066D01*
X36088Y34845D01*
X35638Y34396D01*
X33576D01*
Y29459D01*
Y24522D01*
X35099D01*
Y8946D01*
X35030Y8877D01*
X34569Y8784D01*
Y8784D01*
X34069D01*
Y8784D01*
X33647D01*
X33173Y8848D01*
X33173Y9284D01*
Y12104D01*
X28024D01*
Y9183D01*
X28024Y8848D01*
X28269Y8450D01*
Y6734D01*
X31169D01*
Y5734D01*
X28269D01*
Y3874D01*
X28269Y3684D01*
X27897Y3374D01*
X24679D01*
X23929Y4124D01*
X23929Y103819D01*
X10234D01*
X4229Y109824D01*
Y175701D01*
X4535Y175906D01*
X4729Y175961D01*
X5980Y175797D01*
X7294Y175970D01*
X8519Y176477D01*
X9571Y177284D01*
X10377Y178335D01*
X10885Y179560D01*
X11058Y180874D01*
X10885Y182188D01*
X10377Y183413D01*
X9571Y184464D01*
X8519Y185271D01*
X7294Y185778D01*
X5980Y185951D01*
X4729Y185787D01*
X4535Y185842D01*
X4229Y186047D01*
Y295774D01*
X7287Y298833D01*
X18720D01*
X21229Y296324D01*
D02*
G37*
G36*
X163079Y232524D02*
Y218874D01*
X118729Y174524D01*
X105679D01*
X104029Y176174D01*
Y184974D01*
X105579Y186524D01*
X118729Y186524D01*
X148729Y216524D01*
Y232574D01*
X151129Y234974D01*
X160629D01*
X163079Y232524D01*
D02*
G37*
G36*
X39759Y296594D02*
Y238818D01*
X49569Y215134D01*
X61409Y203294D01*
Y185874D01*
X64839D01*
Y171374D01*
X38289D01*
Y218275D01*
X27149Y245042D01*
X27149Y296394D01*
X29629Y298874D01*
X37479D01*
X39759Y296594D01*
D02*
G37*
G36*
X155279Y173374D02*
Y171174D01*
Y167574D01*
X152179Y164474D01*
X112279Y164474D01*
X107879Y160074D01*
X107879Y153274D01*
X112254Y148899D01*
X130679D01*
Y133074D01*
X128979Y131374D01*
X116079D01*
X114979Y132474D01*
Y135074D01*
X105479Y135074D01*
X102979Y137574D01*
Y143147D01*
X101151Y144974D01*
X95839Y144974D01*
X93979Y146834D01*
Y162774D01*
X94079D01*
Y165894D01*
X98559Y170374D01*
X132419D01*
Y171104D01*
X133019Y171704D01*
X146149D01*
X146649Y171204D01*
Y169074D01*
X149179D01*
Y173234D01*
X150189Y174244D01*
X154409D01*
X155279Y173374D01*
D02*
G37*
G36*
X283079Y152874D02*
Y150674D01*
X266154D01*
Y153874D01*
X282079D01*
X283079Y152874D01*
D02*
G37*
G36*
X273214Y148139D02*
X278657D01*
X278879Y147916D01*
Y145674D01*
X278679Y145474D01*
X266379D01*
X265679Y146174D01*
Y148174D01*
X266279Y148774D01*
X272579D01*
X273214Y148139D01*
D02*
G37*
G36*
X273579Y143774D02*
X278579D01*
X278979Y143374D01*
Y141174D01*
X278379Y140574D01*
X266979D01*
X266079Y141474D01*
Y143374D01*
X266679Y143974D01*
X273379D01*
X273579Y143774D01*
D02*
G37*
G36*
X283479Y137374D02*
X282479Y136374D01*
X253687D01*
X249933Y140128D01*
X226324Y140128D01*
X225779Y140674D01*
Y143474D01*
X226379Y144074D01*
X249879D01*
X250405Y143548D01*
X255029Y138924D01*
X280379D01*
Y149574D01*
X283479D01*
Y137374D01*
D02*
G37*
G36*
X68479Y132174D02*
X70079Y130574D01*
Y129874D01*
X90579D01*
Y126374D01*
X70079D01*
X70079Y124574D01*
X68979Y123474D01*
X66870D01*
X66663Y123974D01*
X66928Y124239D01*
X67232Y124974D01*
X65079D01*
Y125974D01*
X67232D01*
X66928Y126709D01*
X66483Y127154D01*
X66368Y127474D01*
X66483Y127794D01*
X66928Y128238D01*
X67232Y128974D01*
X65079D01*
Y129974D01*
X67232D01*
X66928Y130710D01*
X66314Y131323D01*
X65513Y131655D01*
X65019D01*
X64720Y132155D01*
X64730Y132174D01*
X68479Y132174D01*
D02*
G37*
G36*
X163931Y174496D02*
X164010Y174443D01*
X164648Y173805D01*
X164700Y173726D01*
X164719Y173634D01*
Y144626D01*
Y144204D01*
X170749Y138174D01*
X174691D01*
X185863Y138174D01*
X186319Y137691D01*
X186306Y137547D01*
X185824Y136825D01*
X185754Y136474D01*
X187879D01*
Y135974D01*
X188379D01*
Y133850D01*
X188730Y133920D01*
X189451Y134402D01*
X189851Y135000D01*
X189970Y135031D01*
X190288D01*
X190407Y135000D01*
X190806Y134402D01*
X191528Y133920D01*
X191879Y133850D01*
Y135974D01*
X192379D01*
Y136474D01*
X194503D01*
X194433Y136825D01*
X193951Y137547D01*
X193939Y137691D01*
X194395Y138174D01*
X204638Y138174D01*
X204731Y138156D01*
X204810Y138103D01*
X212989Y129924D01*
X212989Y125234D01*
X211679Y123924D01*
X211679Y122367D01*
X211420Y122108D01*
X211420D01*
Y116294D01*
X211319Y116274D01*
X209749D01*
X209656Y116293D01*
X209578Y116345D01*
X209250Y116673D01*
X209197Y116752D01*
X209179Y116844D01*
Y123756D01*
Y127574D01*
X207729Y129024D01*
Y129024D01*
X207729D01*
X203679Y133074D01*
X156749D01*
X156656Y133092D01*
X156578Y133145D01*
X153510Y136213D01*
X153457Y136292D01*
X153439Y136384D01*
Y161134D01*
X153457Y161226D01*
X153510Y161305D01*
X158119Y165914D01*
Y173624D01*
X158137Y173716D01*
X158190Y173795D01*
X158838Y174443D01*
X158916Y174496D01*
X159009Y174514D01*
X163838Y174514D01*
X163931Y174496D01*
D02*
G37*
G36*
X144495Y129878D02*
Y123610D01*
X143029Y122144D01*
X134679D01*
X134169Y122654D01*
Y124054D01*
X122259D01*
X120279Y122074D01*
Y114774D01*
X116249Y110744D01*
X86109D01*
X84179Y112674D01*
Y123874D01*
X84979Y124674D01*
X89679Y124674D01*
X90379Y123974D01*
Y118924D01*
X98539D01*
Y114914D01*
X99379Y114074D01*
X113721D01*
X115679Y116032D01*
X115679Y128874D01*
X116279Y129474D01*
X134429D01*
X134429Y130884D01*
X135049Y131504D01*
X142869D01*
X144495Y129878D01*
D02*
G37*
G36*
X249929Y115074D02*
Y112524D01*
X249279Y111874D01*
X241579Y111874D01*
X241229Y112224D01*
X235829D01*
Y114974D01*
X236879Y116024D01*
X248979D01*
X249929Y115074D01*
D02*
G37*
G36*
X129798Y117774D02*
X129879Y117694D01*
Y108874D01*
X128929Y107924D01*
X123629D01*
X122579Y108974D01*
Y116224D01*
X124129Y117774D01*
X129798Y117774D01*
D02*
G37*
G36*
X158679Y106574D02*
Y103674D01*
X158279Y103274D01*
X146779D01*
X145979Y104074D01*
Y106074D01*
X146779Y106874D01*
X158379D01*
X158679Y106574D01*
D02*
G37*
G36*
Y101574D02*
Y98674D01*
X158279Y98274D01*
X146779D01*
X145979Y99074D01*
Y101074D01*
X146779Y101874D01*
X158379D01*
X158679Y101574D01*
D02*
G37*
G36*
Y96574D02*
Y93674D01*
X158279Y93274D01*
X146779D01*
X145979Y94074D01*
Y96074D01*
X146779Y96874D01*
X158379D01*
X158679Y96574D01*
D02*
G37*
G36*
X201829Y93674D02*
Y90524D01*
X201629Y90324D01*
X193879D01*
X192729Y91474D01*
X192729Y92924D01*
X193929Y94124D01*
X201379D01*
X201829Y93674D01*
D02*
G37*
G36*
X129279Y95974D02*
Y85674D01*
X127479Y83874D01*
X113729D01*
X112379Y85224D01*
X112379Y95224D01*
X113929Y96774D01*
X128479Y96774D01*
X129279Y95974D01*
D02*
G37*
G36*
X188467Y90672D02*
Y88872D01*
X186879Y87284D01*
Y81264D01*
X186019Y80404D01*
X182636D01*
X181667Y81372D01*
X181667Y88673D01*
X182536Y89541D01*
X184636D01*
X186467Y91373D01*
X187767D01*
X188467Y90672D01*
D02*
G37*
G36*
X233920Y80124D02*
X234429D01*
X235129Y79424D01*
Y73474D01*
X230329D01*
Y79324D01*
X231179Y80174D01*
X231487D01*
X232679Y81366D01*
X233920Y80124D01*
D02*
G37*
G36*
X238229Y40124D02*
Y32174D01*
X238029Y31974D01*
X235929Y31974D01*
X235629Y32274D01*
Y40024D01*
X236079Y40474D01*
X237879D01*
X238229Y40124D01*
D02*
G37*
G36*
X259679Y34774D02*
X259679Y30974D01*
X258979Y30274D01*
X248079D01*
X247579Y30774D01*
Y34474D01*
X248579Y35474D01*
X258979Y35474D01*
X259679Y34774D01*
D02*
G37*
G36*
X117179Y19174D02*
Y13074D01*
X116779Y12674D01*
X113879D01*
X112879Y13674D01*
Y15974D01*
X105479D01*
Y14174D01*
X104679Y13374D01*
X101779D01*
X100979Y14174D01*
Y17474D01*
X101779Y18274D01*
X112279Y18274D01*
X113679Y19674D01*
X116679D01*
X117179Y19174D01*
D02*
G37*
G36*
X51439Y19894D02*
X52539Y18794D01*
Y16074D01*
X51569Y15104D01*
X42659D01*
Y15134D01*
X42109Y15684D01*
X42089Y18904D01*
X43089Y19904D01*
X51439D01*
Y19894D01*
D02*
G37*
G36*
X67939Y22324D02*
X67939Y14754D01*
X65129Y11944D01*
X55639D01*
X55109Y12474D01*
Y15654D01*
X55659Y16204D01*
X62829Y16204D01*
X62829Y22254D01*
X63479Y22904D01*
X67359D01*
X67939Y22324D01*
D02*
G37*
G36*
X40049Y33434D02*
Y12994D01*
X49959D01*
X53479Y9474D01*
Y7674D01*
X49479Y3674D01*
X36079D01*
X35379Y4374D01*
Y7784D01*
X36119Y8524D01*
Y33434D01*
X36809Y34124D01*
X39359D01*
X40049Y33434D01*
D02*
G37*
G36*
X389809Y106024D02*
Y8924D01*
X384310Y3424D01*
X301509D01*
X297716Y7217D01*
Y107131D01*
X302209Y111624D01*
X384209D01*
X389809Y106024D01*
D02*
G37*
%LPC*%
G36*
X235299Y214154D02*
Y213724D01*
X235728D01*
X235299Y214154D01*
D02*
G37*
G36*
X245173Y210055D02*
X235299D01*
Y209439D01*
X231589D01*
X230614Y209245D01*
X229787Y208692D01*
X229235Y207865D01*
X229041Y206890D01*
X229235Y205914D01*
X229787Y205087D01*
X230614Y204535D01*
X231589Y204341D01*
X235299D01*
Y203724D01*
X245173D01*
Y210055D01*
D02*
G37*
G36*
Y200055D02*
X235299D01*
Y193724D01*
X245173D01*
Y194341D01*
X248883D01*
X249858Y194535D01*
X250685Y195087D01*
X251238Y195914D01*
X251432Y196890D01*
X251238Y197865D01*
X250685Y198692D01*
X249858Y199245D01*
X248883Y199439D01*
X245173D01*
Y200055D01*
D02*
G37*
G36*
Y190055D02*
X235299D01*
Y183724D01*
X245173D01*
Y184341D01*
X248883D01*
X249858Y184535D01*
X250685Y185087D01*
X251238Y185914D01*
X251432Y186890D01*
X251238Y187865D01*
X250685Y188692D01*
X249858Y189245D01*
X248883Y189439D01*
X245173D01*
Y190055D01*
D02*
G37*
G36*
X257579Y181244D02*
X235429D01*
X235039Y181166D01*
X234708Y180945D01*
X232958Y179195D01*
X232849Y179033D01*
X232740Y178871D01*
X232739Y178867D01*
X232737Y178864D01*
X232699Y178673D01*
X232659Y178481D01*
X232632Y174615D01*
X232632Y174613D01*
X232631Y174612D01*
X232669Y174417D01*
X232706Y174224D01*
X232707Y174223D01*
X232708Y174221D01*
X232818Y174056D01*
X232925Y173892D01*
X232927Y173891D01*
X232928Y173890D01*
X234610Y172195D01*
X234611Y172194D01*
X234612Y172193D01*
X234776Y172083D01*
X234940Y171973D01*
X234942Y171973D01*
X234943Y171972D01*
X235137Y171933D01*
X235330Y171894D01*
X235331Y171895D01*
X235333Y171894D01*
X258068Y171894D01*
X258459Y171972D01*
X258789Y172193D01*
X259550Y172953D01*
X259771Y173284D01*
X259848Y173674D01*
Y178974D01*
X259771Y179364D01*
X259550Y179695D01*
X258300Y180945D01*
X257969Y181166D01*
X257579Y181244D01*
D02*
G37*
G36*
X280135Y162329D02*
X276879D01*
Y161974D01*
X280135D01*
Y162329D01*
D02*
G37*
G36*
X275879D02*
X272623D01*
Y161974D01*
X275879D01*
Y162329D01*
D02*
G37*
G36*
X282479Y159931D02*
Y158974D01*
X282953D01*
X282883Y159325D01*
X282479Y159931D01*
D02*
G37*
G36*
X282953Y157974D02*
X282479D01*
Y157018D01*
X282883Y157623D01*
X282953Y157974D01*
D02*
G37*
%LPD*%
G36*
X258829Y178974D02*
Y173674D01*
X258068Y172914D01*
X235333Y172914D01*
X233651Y174608D01*
X233679Y178474D01*
X235429Y180224D01*
X257579D01*
X258829Y178974D01*
D02*
G37*
%LPC*%
G36*
X234253Y231724D02*
X232629D01*
Y230100D01*
X232980Y230170D01*
X233701Y230651D01*
X234183Y231373D01*
X234253Y231724D01*
D02*
G37*
G36*
X77500Y232929D02*
X77350D01*
Y228492D01*
X81787D01*
Y228642D01*
X81451Y229898D01*
X80801Y231024D01*
X79882Y231943D01*
X78756Y232593D01*
X77500Y232929D01*
D02*
G37*
G36*
X76350D02*
X76200D01*
X74945Y232593D01*
X73819Y231943D01*
X72900Y231024D01*
X72250Y229898D01*
X71913Y228642D01*
Y228492D01*
X76350D01*
Y232929D01*
D02*
G37*
G36*
X81787Y227492D02*
X77350D01*
Y223055D01*
X77500D01*
X78756Y223392D01*
X79882Y224042D01*
X80801Y224961D01*
X81451Y226086D01*
X81787Y227342D01*
Y227492D01*
D02*
G37*
G36*
X76350D02*
X71913D01*
Y227342D01*
X72250Y226086D01*
X72900Y224961D01*
X73819Y224042D01*
X74945Y223392D01*
X76200Y223055D01*
X76350D01*
Y227492D01*
D02*
G37*
G36*
X114248Y204002D02*
X110697D01*
Y201140D01*
X114248D01*
Y204002D01*
D02*
G37*
G36*
X109697D02*
X106146D01*
Y201140D01*
X109697D01*
Y204002D01*
D02*
G37*
G36*
X114248Y200140D02*
X110697D01*
Y197278D01*
X114248D01*
Y200140D01*
D02*
G37*
G36*
X109697D02*
X106146D01*
Y197278D01*
X109697D01*
Y200140D01*
D02*
G37*
G36*
X13965Y297268D02*
Y293847D01*
X17386D01*
X17316Y294378D01*
X16917Y295340D01*
X16284Y296166D01*
X15458Y296799D01*
X14496Y297198D01*
X13965Y297268D01*
D02*
G37*
G36*
X12965D02*
X12433Y297198D01*
X11471Y296799D01*
X10645Y296166D01*
X10012Y295340D01*
X9614Y294378D01*
X9544Y293847D01*
X12965D01*
Y297268D01*
D02*
G37*
G36*
X17386Y292846D02*
X13965D01*
Y289425D01*
X14496Y289495D01*
X15458Y289894D01*
X16284Y290527D01*
X16917Y291353D01*
X17316Y292315D01*
X17386Y292846D01*
D02*
G37*
G36*
X12965D02*
X9544D01*
X9614Y292315D01*
X10012Y291353D01*
X10645Y290527D01*
X11471Y289894D01*
X12433Y289495D01*
X12965Y289425D01*
Y292846D01*
D02*
G37*
G36*
X13965Y252779D02*
Y249358D01*
X17386D01*
X17316Y249890D01*
X16917Y250852D01*
X16284Y251677D01*
X15458Y252311D01*
X14496Y252709D01*
X13965Y252779D01*
D02*
G37*
G36*
X12965D02*
X12433Y252709D01*
X11471Y252311D01*
X10645Y251677D01*
X10012Y250852D01*
X9614Y249890D01*
X9544Y249358D01*
X12965D01*
Y252779D01*
D02*
G37*
G36*
X17386Y248358D02*
X13965D01*
Y244937D01*
X14496Y245007D01*
X15458Y245406D01*
X16284Y246039D01*
X16917Y246865D01*
X17316Y247826D01*
X17386Y248358D01*
D02*
G37*
G36*
X12965D02*
X9544D01*
X9614Y247826D01*
X10012Y246865D01*
X10645Y246039D01*
X11471Y245406D01*
X12433Y245007D01*
X12965Y244937D01*
Y248358D01*
D02*
G37*
G36*
X146852Y175547D02*
X145844Y174539D01*
X146852D01*
Y175547D01*
D02*
G37*
G36*
X166979Y174029D02*
X166506D01*
Y170379D01*
X166979D01*
Y174029D01*
D02*
G37*
G36*
Y169379D02*
X166506D01*
Y165730D01*
X166979D01*
Y169379D01*
D02*
G37*
G36*
X83573Y161127D02*
X82529D01*
Y157674D01*
X83573D01*
Y161127D01*
D02*
G37*
G36*
X167984Y158119D02*
Y157378D01*
X168725D01*
X167984Y158119D01*
D02*
G37*
G36*
X83573Y156674D02*
X82529D01*
Y153221D01*
X83573D01*
Y156674D01*
D02*
G37*
G36*
X134659Y149355D02*
X133607D01*
Y148302D01*
X134659Y149355D01*
D02*
G37*
G36*
X133607Y139396D02*
Y138496D01*
X134506D01*
X133607Y139396D01*
D02*
G37*
G36*
X91321Y140058D02*
X83415D01*
Y138129D01*
X82529D01*
Y136974D01*
X83535Y135968D01*
Y136090D01*
X91321D01*
Y140058D01*
D02*
G37*
G36*
X243635Y137109D02*
X240379D01*
Y135034D01*
X243635D01*
Y137109D01*
D02*
G37*
G36*
X86868Y135058D02*
X84444D01*
X84779Y134724D01*
X86868D01*
Y135058D01*
D02*
G37*
G36*
X91321D02*
X87868D01*
Y134724D01*
X90579D01*
X91321Y133982D01*
Y135058D01*
D02*
G37*
G36*
X216079Y133224D02*
X214029D01*
Y132624D01*
X216079D01*
Y133224D01*
D02*
G37*
G36*
X49813Y139830D02*
X44664D01*
Y138623D01*
X22279D01*
X21303Y138429D01*
X20476Y137876D01*
X19924Y137049D01*
X19730Y136074D01*
Y134584D01*
X18758Y133838D01*
X17966Y132806D01*
X17469Y131605D01*
X17299Y130316D01*
X17469Y129028D01*
X17966Y127827D01*
X18758Y126795D01*
X19789Y126004D01*
X20990Y125507D01*
X22279Y125337D01*
X23568Y125507D01*
X24769Y126004D01*
X25800Y126795D01*
X26591Y127827D01*
X27089Y129028D01*
X27258Y130316D01*
X27089Y131605D01*
X26591Y132806D01*
X26384Y133077D01*
X26605Y133525D01*
X44664D01*
Y132318D01*
X49813D01*
Y139830D01*
D02*
G37*
G36*
X243635Y134034D02*
X240379D01*
Y131959D01*
X243635D01*
Y134034D01*
D02*
G37*
G36*
X182865Y130009D02*
X179610D01*
Y129224D01*
X182865D01*
Y130009D01*
D02*
G37*
G36*
X178610D02*
X175354D01*
Y129224D01*
X178610D01*
Y130009D01*
D02*
G37*
G36*
X174035D02*
X170779D01*
Y129224D01*
X174035D01*
Y130009D01*
D02*
G37*
G36*
X169779D02*
X166523D01*
Y129224D01*
X169779D01*
Y130009D01*
D02*
G37*
G36*
X57187Y130889D02*
X57044D01*
X56279Y130124D01*
Y128814D01*
X57187D01*
Y130889D01*
D02*
G37*
G36*
X52129D02*
X51644D01*
Y128814D01*
X52129D01*
Y130889D01*
D02*
G37*
G36*
X242079Y129048D02*
Y127424D01*
X243703D01*
X243633Y127775D01*
X243151Y128497D01*
X242430Y128979D01*
X242079Y129048D01*
D02*
G37*
G36*
X241079D02*
X240728Y128979D01*
X240006Y128497D01*
X239524Y127775D01*
X239454Y127424D01*
X241079D01*
Y129048D01*
D02*
G37*
G36*
X57187Y127814D02*
X56279D01*
Y126424D01*
X55594Y125739D01*
X57187D01*
Y127814D01*
D02*
G37*
G36*
X52129D02*
X51644D01*
Y125739D01*
X52663D01*
X52129Y126274D01*
Y127814D01*
D02*
G37*
G36*
X243703Y126424D02*
X242079D01*
Y124800D01*
X242430Y124870D01*
X243151Y125352D01*
X243633Y126073D01*
X243703Y126424D01*
D02*
G37*
G36*
X241079D02*
X239454D01*
X239524Y126073D01*
X240006Y125352D01*
X240728Y124870D01*
X241079Y124800D01*
Y126424D01*
D02*
G37*
G36*
X247129Y123074D02*
X245079D01*
Y120674D01*
X247129D01*
Y123074D01*
D02*
G37*
G36*
X244079D02*
X242029D01*
Y120674D01*
X244079D01*
Y123074D01*
D02*
G37*
G36*
X175379Y118524D02*
X174479D01*
Y116474D01*
X175379D01*
Y118524D01*
D02*
G37*
G36*
X270829Y117448D02*
Y115824D01*
X272453D01*
X272383Y116175D01*
X271901Y116896D01*
X271180Y117379D01*
X270829Y117448D01*
D02*
G37*
G36*
X269829D02*
X269478Y117379D01*
X268756Y116896D01*
X268274Y116175D01*
X268204Y115824D01*
X269829D01*
Y117448D01*
D02*
G37*
G36*
X265829D02*
Y115824D01*
X267453D01*
X267383Y116175D01*
X266901Y116896D01*
X266180Y117379D01*
X265829Y117448D01*
D02*
G37*
G36*
X264829D02*
X264478Y117379D01*
X263756Y116896D01*
X263274Y116175D01*
X263204Y115824D01*
X264829D01*
Y117448D01*
D02*
G37*
G36*
X260829D02*
Y115824D01*
X262453D01*
X262383Y116175D01*
X261901Y116896D01*
X261180Y117379D01*
X260829Y117448D01*
D02*
G37*
G36*
X259829D02*
X259478Y117379D01*
X258756Y116896D01*
X258274Y116175D01*
X258204Y115824D01*
X259829D01*
Y117448D01*
D02*
G37*
G36*
X49313Y127149D02*
X43770D01*
Y127123D01*
X43270D01*
X42295Y126929D01*
X41468Y126376D01*
X28672Y113581D01*
X26239D01*
X25800Y114153D01*
X24769Y114944D01*
X23568Y115441D01*
X22279Y115611D01*
X20990Y115441D01*
X19789Y114944D01*
X18758Y114153D01*
X17966Y113121D01*
X17469Y111920D01*
X17299Y110632D01*
X17469Y109343D01*
X17966Y108142D01*
X18758Y107110D01*
X19789Y106319D01*
X20990Y105822D01*
X22279Y105652D01*
X23568Y105822D01*
X24769Y106319D01*
X25800Y107110D01*
X26591Y108142D01*
X26732Y108483D01*
X29728D01*
X30703Y108677D01*
X31530Y109229D01*
X44300Y121999D01*
X49313D01*
Y127149D01*
D02*
G37*
G36*
X175379Y115474D02*
X174479D01*
Y113424D01*
X175379D01*
Y115474D01*
D02*
G37*
G36*
X272453Y114824D02*
X270829D01*
Y113200D01*
X271180Y113269D01*
X271901Y113751D01*
X272383Y114473D01*
X272453Y114824D01*
D02*
G37*
G36*
X269829D02*
X268204D01*
X268274Y114473D01*
X268756Y113751D01*
X269478Y113269D01*
X269829Y113200D01*
Y114824D01*
D02*
G37*
G36*
X267453D02*
X265829D01*
Y113200D01*
X266180Y113269D01*
X266901Y113751D01*
X267383Y114473D01*
X267453Y114824D01*
D02*
G37*
G36*
X264829D02*
X263204D01*
X263274Y114473D01*
X263756Y113751D01*
X264478Y113269D01*
X264829Y113200D01*
Y114824D01*
D02*
G37*
G36*
X262453D02*
X260829D01*
Y113200D01*
X261180Y113269D01*
X261901Y113751D01*
X262383Y114473D01*
X262453Y114824D01*
D02*
G37*
G36*
X259829D02*
X258204D01*
X258274Y114473D01*
X258756Y113751D01*
X259478Y113269D01*
X259829Y113200D01*
Y114824D01*
D02*
G37*
G36*
X56039Y124314D02*
X52329D01*
X51939Y124236D01*
X51608Y124015D01*
X51018Y123425D01*
X50797Y123094D01*
X50719Y122704D01*
X50719Y118714D01*
X50797Y118324D01*
X51018Y117993D01*
X56358Y112653D01*
X56689Y112432D01*
X57079Y112354D01*
X60679D01*
X61069Y112432D01*
X61400Y112653D01*
X61900Y113153D01*
X62329Y113324D01*
X62329Y113324D01*
X68129D01*
Y113835D01*
X69279D01*
X70059Y113990D01*
X70721Y114432D01*
X72703Y116414D01*
X72730Y116419D01*
X73451Y116902D01*
X73933Y117623D01*
X74103Y118474D01*
X73933Y119325D01*
X73451Y120046D01*
X72730Y120529D01*
X71879Y120698D01*
X71028Y120529D01*
X70306Y120046D01*
X69824Y119325D01*
X69819Y119298D01*
X68629Y118108D01*
X68129Y118315D01*
Y118424D01*
X62329D01*
X62329Y118424D01*
Y118424D01*
X62291Y118476D01*
X62268Y118507D01*
X62001Y118773D01*
X56760Y124015D01*
X56429Y124236D01*
X56039Y124314D01*
D02*
G37*
G36*
X194193Y115909D02*
X192205Y112849D01*
X194688Y111236D01*
X196676Y114297D01*
X194193Y115909D01*
D02*
G37*
G36*
X191661Y112010D02*
X189673Y108949D01*
X192156Y107337D01*
X194144Y110398D01*
X191661Y112010D01*
D02*
G37*
G36*
X194982Y109853D02*
X192995Y106792D01*
X195478Y105180D01*
X197465Y108240D01*
X194982Y109853D01*
D02*
G37*
G36*
X184079Y105109D02*
X184079Y103530D01*
X184800Y104640D01*
X184079Y105109D01*
D02*
G37*
G36*
X183512Y102657D02*
X182583Y101728D01*
X182812Y101579D01*
X183512Y102657D01*
D02*
G37*
G36*
X45560Y112579D02*
X44709Y112410D01*
X43987Y111928D01*
X43505Y111206D01*
X43336Y110355D01*
X43505Y109504D01*
X43987Y108783D01*
X44709Y108301D01*
X45560Y108131D01*
X46411Y108301D01*
X46434Y108316D01*
X48253D01*
X51036Y105533D01*
Y101325D01*
X50115D01*
Y101825D01*
X49960Y102605D01*
X49518Y103267D01*
X46468Y106316D01*
X45807Y106758D01*
X45026Y106913D01*
X42953D01*
X42930Y106929D01*
X42079Y107098D01*
X41228Y106929D01*
X40506Y106447D01*
X40024Y105725D01*
X39855Y104874D01*
X40024Y104023D01*
X40506Y103302D01*
X41228Y102820D01*
X42079Y102650D01*
X42930Y102820D01*
X42953Y102835D01*
X44182D01*
X45230Y101787D01*
X45039Y101325D01*
X33576D01*
Y96388D01*
Y91451D01*
X100847D01*
Y101325D01*
X55115D01*
Y106377D01*
X54960Y107158D01*
X54518Y107819D01*
X50540Y111797D01*
X49878Y112239D01*
X49098Y112394D01*
X46434D01*
X46411Y112410D01*
X45560Y112579D01*
D02*
G37*
G36*
X221869Y105203D02*
X221402Y105110D01*
X221006Y104845D01*
X220741Y104449D01*
X220648Y103982D01*
Y103234D01*
X219900D01*
X219433Y103141D01*
X219037Y102877D01*
X218773Y102481D01*
X218680Y102014D01*
X218773Y101547D01*
X219037Y101151D01*
X219433Y100887D01*
X219900Y100794D01*
X220648D01*
Y100046D01*
X220741Y99578D01*
X221006Y99183D01*
X221402Y98918D01*
X221869Y98825D01*
X222336Y98918D01*
X222732Y99183D01*
X222996Y99578D01*
X223089Y100046D01*
Y100794D01*
X223837D01*
X224304Y100887D01*
X224700Y101151D01*
X224965Y101547D01*
X225058Y102014D01*
X224965Y102481D01*
X224700Y102877D01*
X224304Y103141D01*
X223837Y103234D01*
X223089D01*
Y103982D01*
X222996Y104449D01*
X222732Y104845D01*
X222336Y105110D01*
X221869Y105203D01*
D02*
G37*
G36*
X181860Y101005D02*
X179222Y98367D01*
X180280Y97680D01*
X182267Y100741D01*
X181860Y101005D01*
D02*
G37*
G36*
X32576Y101325D02*
X30304D01*
Y96888D01*
X32576D01*
Y101325D01*
D02*
G37*
G36*
X175829Y94974D02*
X175679Y94824D01*
X175679Y93574D01*
X175829D01*
Y94974D01*
D02*
G37*
G36*
X32576Y95888D02*
X30304D01*
Y91451D01*
X32576D01*
Y95888D01*
D02*
G37*
G36*
X170029Y90824D02*
Y90524D01*
X170329D01*
X170029Y90824D01*
D02*
G37*
G36*
X133185Y91830D02*
X131284D01*
Y88574D01*
X131329D01*
Y89974D01*
X133185Y91830D01*
D02*
G37*
G36*
X202585Y87309D02*
X199329D01*
Y85234D01*
X202585D01*
Y87309D01*
D02*
G37*
G36*
X198329D02*
X195073D01*
Y85234D01*
X198329D01*
Y87309D01*
D02*
G37*
G36*
X131329Y87574D02*
X131284D01*
Y84318D01*
X132435D01*
X131329Y85424D01*
Y87574D01*
D02*
G37*
G36*
X202585Y84234D02*
X199329D01*
Y82159D01*
X202585D01*
Y84234D01*
D02*
G37*
G36*
X198329D02*
X195073D01*
Y82159D01*
X198329D01*
Y84234D01*
D02*
G37*
G36*
X241929Y80824D02*
X239529D01*
Y80474D01*
X241929D01*
Y80824D01*
D02*
G37*
G36*
X175429Y80074D02*
Y79824D01*
X175679D01*
X175429Y80074D01*
D02*
G37*
G36*
X73446Y69829D02*
X70328D01*
Y66711D01*
X73446D01*
Y69829D01*
D02*
G37*
G36*
X54879D02*
X51761D01*
Y66711D01*
X54879D01*
Y69829D01*
D02*
G37*
G36*
X69327D02*
X63103D01*
Y66211D01*
X62103D01*
Y69829D01*
X55879D01*
Y66211D01*
X55379D01*
Y65711D01*
X51761D01*
Y62593D01*
Y59486D01*
X55379D01*
Y58486D01*
X51761D01*
Y55368D01*
Y52262D01*
X55379D01*
Y51762D01*
X55879D01*
Y48144D01*
X62103D01*
Y51762D01*
X63103D01*
Y48144D01*
X69328D01*
Y51762D01*
X69828D01*
Y52262D01*
X73446D01*
Y55368D01*
Y58486D01*
X69828D01*
Y59486D01*
X73446D01*
Y62593D01*
Y65711D01*
X69828D01*
Y66211D01*
X69327D01*
Y69829D01*
D02*
G37*
G36*
X227629Y68624D02*
X222529D01*
Y62824D01*
X222530D01*
Y61100D01*
X222263Y60833D01*
X212225D01*
X211881Y61176D01*
X211054Y61729D01*
X210079Y61923D01*
X209103Y61729D01*
X208276Y61176D01*
X207724Y60350D01*
X207530Y59374D01*
X207724Y58399D01*
X208276Y57572D01*
X209366Y56482D01*
X210193Y55929D01*
X211169Y55735D01*
X223319D01*
X224294Y55929D01*
X225121Y56482D01*
X226881Y58242D01*
X227434Y59069D01*
X227628Y60044D01*
Y62824D01*
X227629D01*
Y68624D01*
D02*
G37*
G36*
X73446Y51262D02*
X70328D01*
Y48144D01*
X73446D01*
Y51262D01*
D02*
G37*
G36*
X54879D02*
X51761D01*
Y48144D01*
X54879D01*
Y51262D01*
D02*
G37*
G36*
X191934Y69416D02*
X176942D01*
Y56660D01*
X174005D01*
X172819Y56503D01*
X171713Y56046D01*
X170764Y55317D01*
X170036Y54368D01*
X169578Y53263D01*
X169422Y52077D01*
X169578Y50891D01*
X170036Y49786D01*
X170764Y48837D01*
X171713Y48109D01*
X172819Y47651D01*
X174005Y47495D01*
X181091D01*
X182277Y47651D01*
X183383Y48109D01*
X184332Y48837D01*
X185060Y49786D01*
X185187Y50093D01*
X191934D01*
Y69416D01*
D02*
G37*
G36*
X276179Y59044D02*
X248079D01*
X247689Y58966D01*
X247358Y58745D01*
X244958Y56345D01*
X244737Y56014D01*
X244659Y55624D01*
Y46274D01*
X244737Y45884D01*
X244958Y45553D01*
X245908Y44603D01*
X246238Y44382D01*
X246629Y44304D01*
X270583Y44304D01*
X270830Y43804D01*
X270571Y43468D01*
X270323Y42868D01*
X271729Y44274D01*
X276829D01*
X277597Y43505D01*
X277343Y43837D01*
X277516Y44373D01*
X277543Y44398D01*
X277850Y44603D01*
X278650Y45403D01*
X278871Y45734D01*
X278948Y46124D01*
Y56274D01*
X278871Y56664D01*
X278650Y56995D01*
X276900Y58745D01*
X276569Y58966D01*
X276179Y59044D01*
D02*
G37*
G36*
X267612Y43151D02*
X264356D01*
Y42574D01*
X267612D01*
Y43151D01*
D02*
G37*
G36*
X263356D02*
X257663D01*
Y42574D01*
X263356D01*
Y43151D01*
D02*
G37*
G36*
X256663D02*
X250577D01*
Y42574D01*
X256663D01*
Y43151D01*
D02*
G37*
G36*
X277679Y43341D02*
Y42272D01*
X278015D01*
X277965Y42650D01*
X277679Y43341D01*
D02*
G37*
G36*
X249577Y43151D02*
X246321D01*
Y41076D01*
X246379D01*
Y41774D01*
X247179Y42574D01*
X249577D01*
Y43151D01*
D02*
G37*
G36*
X106950Y88195D02*
X97076D01*
Y82652D01*
Y77652D01*
Y72652D01*
Y67652D01*
Y62652D01*
Y57652D01*
Y52652D01*
Y47652D01*
Y42652D01*
Y40923D01*
X102013D01*
X106950D01*
Y42652D01*
Y47652D01*
Y52652D01*
Y57652D01*
Y62652D01*
Y67652D01*
Y72652D01*
Y77652D01*
Y82652D01*
Y88195D01*
D02*
G37*
G36*
X201276Y48723D02*
Y40372D01*
X205756D01*
Y43809D01*
X205586Y45098D01*
X205089Y46299D01*
X204297Y47331D01*
X203266Y48122D01*
X202065Y48619D01*
X201276Y48723D01*
D02*
G37*
G36*
X200276D02*
X199488Y48619D01*
X198287Y48122D01*
X197255Y47331D01*
X196464Y46299D01*
X195966Y45098D01*
X195797Y43809D01*
Y40372D01*
X200276D01*
Y48723D01*
D02*
G37*
G36*
X278015Y41272D02*
X277679D01*
Y40204D01*
X277965Y40895D01*
X278015Y41272D01*
D02*
G37*
G36*
X267612Y39024D02*
X264356D01*
Y38001D01*
X267612D01*
Y39024D01*
D02*
G37*
G36*
X263356D02*
X257663D01*
Y38001D01*
X263356D01*
Y39024D01*
D02*
G37*
G36*
X256663D02*
X250577D01*
Y38001D01*
X256663D01*
Y39024D01*
D02*
G37*
G36*
X246379Y40076D02*
X246321D01*
Y38001D01*
X249577D01*
Y39024D01*
X247179D01*
X246379Y39824D01*
Y40076D01*
D02*
G37*
G36*
X106950Y39923D02*
X102513D01*
Y37652D01*
X106950D01*
Y39923D01*
D02*
G37*
G36*
X101513D02*
X97076D01*
Y37652D01*
X101513D01*
Y39923D01*
D02*
G37*
G36*
X165162Y37723D02*
X156985D01*
Y37156D01*
X165162D01*
Y37723D01*
D02*
G37*
G36*
X155985D02*
X147808D01*
Y36785D01*
X148179Y37156D01*
X155985D01*
Y37723D01*
D02*
G37*
G36*
X181879Y38045D02*
X181335Y37937D01*
X180874Y37629D01*
X180566Y37168D01*
X180458Y36624D01*
Y36077D01*
X179910D01*
X179367Y35969D01*
X178905Y35661D01*
X178597Y35200D01*
X178489Y34656D01*
X178597Y34112D01*
X178905Y33651D01*
X179367Y33343D01*
X179910Y33235D01*
X180458D01*
Y32687D01*
X180467Y32640D01*
X180150Y32254D01*
X177942D01*
X176653Y32084D01*
X175452Y31587D01*
X175412Y31556D01*
X188345D01*
X188305Y31587D01*
X187105Y32084D01*
X185816Y32254D01*
X183607D01*
X183290Y32640D01*
X183300Y32687D01*
Y33235D01*
X183847D01*
X184391Y33343D01*
X184852Y33651D01*
X185160Y34112D01*
X185268Y34656D01*
X185160Y35200D01*
X184852Y35661D01*
X184391Y35969D01*
X183847Y36077D01*
X183300D01*
Y36624D01*
X183192Y37168D01*
X182884Y37629D01*
X182422Y37937D01*
X181879Y38045D01*
D02*
G37*
G36*
X32576Y34396D02*
X30304D01*
Y29959D01*
X32576D01*
Y34396D01*
D02*
G37*
G36*
X190129Y29763D02*
Y27774D01*
X190729D01*
X190626Y28563D01*
X190129Y29763D01*
D02*
G37*
G36*
X259935Y27209D02*
X256679D01*
Y25134D01*
X259935D01*
Y27209D01*
D02*
G37*
G36*
X255679D02*
X252423D01*
Y25134D01*
X255679D01*
Y27209D01*
D02*
G37*
G36*
X215950Y37723D02*
X207772D01*
Y25018D01*
X215950D01*
Y37723D01*
D02*
G37*
G36*
X205756Y39372D02*
X200776D01*
X195797D01*
Y35935D01*
X195966Y34647D01*
X196464Y33446D01*
X197255Y32414D01*
X198287Y31623D01*
X198595Y31495D01*
Y25018D01*
X206772D01*
Y37723D01*
X205756D01*
Y39372D01*
D02*
G37*
G36*
X190729Y26774D02*
X190129D01*
Y24785D01*
X190626Y25985D01*
X190729Y26774D01*
D02*
G37*
G36*
X32576Y28959D02*
X30304D01*
Y24522D01*
X32576D01*
Y28959D01*
D02*
G37*
G36*
X229334Y25747D02*
Y24424D01*
X230657D01*
X230610Y24660D01*
X230193Y25284D01*
X229570Y25700D01*
X229334Y25747D01*
D02*
G37*
G36*
X228334D02*
X228098Y25700D01*
X227474Y25284D01*
X227058Y24660D01*
X227011Y24424D01*
X228334D01*
Y25747D01*
D02*
G37*
G36*
X259935Y24134D02*
X256679D01*
Y22059D01*
X259935D01*
Y24134D01*
D02*
G37*
G36*
X255679D02*
X252423D01*
Y22059D01*
X255679D01*
Y24134D01*
D02*
G37*
G36*
X60477Y23899D02*
X58206D01*
Y21824D01*
X60477D01*
Y23899D01*
D02*
G37*
G36*
X33173Y23660D02*
X31098D01*
Y20404D01*
X33173D01*
Y23660D01*
D02*
G37*
G36*
X30098D02*
X28024D01*
Y20404D01*
X30098D01*
Y23660D01*
D02*
G37*
G36*
X60477Y20824D02*
X58206D01*
Y18749D01*
X60477D01*
Y20824D01*
D02*
G37*
G36*
X57206Y23899D02*
X54934D01*
Y23566D01*
X54729Y23398D01*
X53878Y23229D01*
X53156Y22747D01*
X52674Y22025D01*
X52604Y21674D01*
X54729D01*
Y21174D01*
X55229D01*
Y18749D01*
X57206D01*
Y21324D01*
Y23899D01*
D02*
G37*
G36*
X267729Y20198D02*
Y18574D01*
X269353D01*
X269283Y18925D01*
X268801Y19647D01*
X268080Y20129D01*
X267729Y20198D01*
D02*
G37*
G36*
X266729D02*
X266378Y20129D01*
X265656Y19647D01*
X265174Y18925D01*
X265104Y18574D01*
X266729D01*
Y20198D01*
D02*
G37*
G36*
X261479Y19948D02*
Y18324D01*
X263103D01*
X263033Y18675D01*
X262551Y19397D01*
X261830Y19879D01*
X261479Y19948D01*
D02*
G37*
G36*
X260479D02*
X260128Y19879D01*
X259406Y19397D01*
X258924Y18675D01*
X258854Y18324D01*
X260479D01*
Y19948D01*
D02*
G37*
G36*
X256479D02*
Y18324D01*
X258103D01*
X258033Y18675D01*
X257551Y19397D01*
X256830Y19879D01*
X256479Y19948D01*
D02*
G37*
G36*
X255479D02*
X255128Y19879D01*
X254406Y19397D01*
X253924Y18675D01*
X253854Y18324D01*
X255479D01*
Y19948D01*
D02*
G37*
G36*
X269353Y17574D02*
X267729D01*
Y15950D01*
X268080Y16019D01*
X268801Y16501D01*
X269283Y17223D01*
X269353Y17574D01*
D02*
G37*
G36*
X266729D02*
X265104D01*
X265174Y17223D01*
X265656Y16501D01*
X266378Y16019D01*
X266729Y15950D01*
Y17574D01*
D02*
G37*
G36*
X263103Y17324D02*
X261479D01*
Y15700D01*
X261830Y15769D01*
X262551Y16251D01*
X263033Y16973D01*
X263103Y17324D01*
D02*
G37*
G36*
X260479D02*
X258854D01*
X258924Y16973D01*
X259406Y16251D01*
X260128Y15769D01*
X260479Y15700D01*
Y17324D01*
D02*
G37*
G36*
X258103D02*
X256479D01*
Y15700D01*
X256830Y15769D01*
X257551Y16251D01*
X258033Y16973D01*
X258103Y17324D01*
D02*
G37*
G36*
X255479D02*
X253854D01*
X253924Y16973D01*
X254406Y16251D01*
X255128Y15769D01*
X255479Y15700D01*
Y17324D01*
D02*
G37*
G36*
X229861Y17740D02*
X228573D01*
Y14582D01*
X229861D01*
Y17740D01*
D02*
G37*
G36*
X252227Y21110D02*
X243928D01*
Y13598D01*
X252227D01*
Y21110D01*
D02*
G37*
G36*
X227030D02*
X218731D01*
Y13598D01*
X227030D01*
Y21110D01*
D02*
G37*
G36*
X33173Y19404D02*
X28024D01*
Y16148D01*
Y13104D01*
X33173D01*
Y16148D01*
Y19404D01*
D02*
G37*
G36*
X215950Y24018D02*
X207772D01*
Y11313D01*
X215950D01*
Y24018D01*
D02*
G37*
G36*
X206772D02*
X198595D01*
Y11313D01*
X206772D01*
Y24018D01*
D02*
G37*
G36*
X147808Y11477D02*
Y11313D01*
X147971D01*
X147808Y11477D01*
D02*
G37*
G36*
X128579Y27094D02*
X125479D01*
X125089Y27016D01*
X124758Y26795D01*
X124058Y26095D01*
X123837Y25764D01*
X123759Y25374D01*
Y13474D01*
X123837Y13084D01*
X124058Y12753D01*
X124758Y12053D01*
X125089Y11832D01*
X125479Y11754D01*
X128092D01*
X128262Y11254D01*
X128099Y11129D01*
X127671Y10571D01*
X127401Y9922D01*
X127310Y9224D01*
X127401Y8527D01*
X127671Y7877D01*
X128099Y7319D01*
X128657Y6890D01*
X129307Y6621D01*
X130004Y6529D01*
X130702Y6621D01*
X131352Y6890D01*
X131910Y7319D01*
X132338Y7877D01*
X132607Y8527D01*
X132699Y9224D01*
X132607Y9922D01*
X132338Y10571D01*
X131910Y11129D01*
X131352Y11558D01*
X131102Y11661D01*
X131202Y12161D01*
X135335Y12161D01*
X135500Y11729D01*
Y10783D01*
X141437D01*
Y15933D01*
X135835D01*
X135500Y15933D01*
X135335Y16364D01*
Y20066D01*
X130579Y20066D01*
X130498Y20533D01*
X130498Y25174D01*
X130421Y25564D01*
X130200Y25895D01*
X129300Y26795D01*
X128969Y27016D01*
X128579Y27094D01*
D02*
G37*
G36*
X267729Y12148D02*
Y10524D01*
X269353D01*
X269283Y10875D01*
X268801Y11597D01*
X268080Y12079D01*
X267729Y12148D01*
D02*
G37*
G36*
X266729D02*
X266378Y12079D01*
X265656Y11597D01*
X265174Y10875D01*
X265104Y10524D01*
X266729D01*
Y12148D01*
D02*
G37*
G36*
X261229D02*
Y10524D01*
X262853D01*
X262783Y10875D01*
X262301Y11597D01*
X261580Y12079D01*
X261229Y12148D01*
D02*
G37*
G36*
X260229D02*
X259878Y12079D01*
X259156Y11597D01*
X258674Y10875D01*
X258604Y10524D01*
X260229D01*
Y12148D01*
D02*
G37*
G36*
X256229D02*
Y10524D01*
X257853D01*
X257783Y10875D01*
X257301Y11597D01*
X256580Y12079D01*
X256229Y12148D01*
D02*
G37*
G36*
X255229D02*
X254878Y12079D01*
X254156Y11597D01*
X253674Y10875D01*
X253604Y10524D01*
X255229D01*
Y12148D01*
D02*
G37*
G36*
X269353Y9524D02*
X267729D01*
Y7900D01*
X268080Y7970D01*
X268801Y8451D01*
X269283Y9173D01*
X269353Y9524D01*
D02*
G37*
G36*
X266729D02*
X265104D01*
X265174Y9173D01*
X265656Y8451D01*
X266378Y7970D01*
X266729Y7900D01*
Y9524D01*
D02*
G37*
G36*
X262853D02*
X261229D01*
Y7900D01*
X261580Y7970D01*
X262301Y8451D01*
X262783Y9173D01*
X262853Y9524D01*
D02*
G37*
G36*
X260229D02*
X258604D01*
X258674Y9173D01*
X259156Y8451D01*
X259878Y7970D01*
X260229Y7900D01*
Y9524D01*
D02*
G37*
G36*
X257853D02*
X256229D01*
Y7900D01*
X256580Y7970D01*
X257301Y8451D01*
X257783Y9173D01*
X257853Y9524D01*
D02*
G37*
G36*
X255229D02*
X253604D01*
X253674Y9173D01*
X254156Y8451D01*
X254878Y7970D01*
X255229Y7900D01*
Y9524D01*
D02*
G37*
%LPD*%
G36*
X61547Y117786D02*
X61547Y114242D01*
X60679Y113374D01*
X57079D01*
X51739Y118714D01*
X51739Y122704D01*
X52329Y123294D01*
X56039D01*
X61547Y117786D01*
D02*
G37*
G36*
X277929Y56274D02*
Y46124D01*
X277129Y45324D01*
X246629Y45324D01*
X245679Y46274D01*
Y55624D01*
X248079Y58024D01*
X276179D01*
X277929Y56274D01*
D02*
G37*
G36*
X129479Y25174D02*
X129479Y13274D01*
X128979Y12774D01*
X125479D01*
X124779Y13474D01*
Y25374D01*
X125479Y26074D01*
X128579D01*
X129479Y25174D01*
D02*
G37*
%LPC*%
G36*
X156240Y232929D02*
X156090D01*
Y228492D01*
X160528D01*
Y228642D01*
X160191Y229898D01*
X159541Y231024D01*
X158622Y231943D01*
X157496Y232593D01*
X156240Y232929D01*
D02*
G37*
G36*
X155090D02*
X154941D01*
X153685Y232593D01*
X152559Y231943D01*
X151640Y231024D01*
X150990Y229898D01*
X150654Y228642D01*
Y228492D01*
X155090D01*
Y232929D01*
D02*
G37*
G36*
X160528Y227492D02*
X156090D01*
Y223055D01*
X156240D01*
X157496Y223392D01*
X158622Y224042D01*
X159541Y224961D01*
X160191Y226086D01*
X160528Y227342D01*
Y227492D01*
D02*
G37*
G36*
X155090D02*
X150654D01*
Y227342D01*
X150990Y226086D01*
X151640Y224961D01*
X152559Y224042D01*
X153685Y223392D01*
X154941Y223055D01*
X155090D01*
Y227492D01*
D02*
G37*
G36*
X114248Y183904D02*
X110697D01*
Y181041D01*
X114248D01*
Y183904D01*
D02*
G37*
G36*
X109697D02*
X106146D01*
Y181041D01*
X109697D01*
Y183904D01*
D02*
G37*
G36*
X114248Y180041D02*
X110697D01*
Y177179D01*
X114248D01*
Y180041D01*
D02*
G37*
G36*
X109697D02*
X106146D01*
Y177179D01*
X109697D01*
Y180041D01*
D02*
G37*
G36*
X33650Y297268D02*
Y293847D01*
X37071D01*
X37001Y294378D01*
X36602Y295340D01*
X35969Y296166D01*
X35143Y296799D01*
X34181Y297198D01*
X33650Y297268D01*
D02*
G37*
G36*
X32650D02*
X32118Y297198D01*
X31156Y296799D01*
X30331Y296166D01*
X29697Y295340D01*
X29299Y294378D01*
X29229Y293847D01*
X32650D01*
Y297268D01*
D02*
G37*
G36*
X37071Y292846D02*
X33650D01*
Y289425D01*
X34181Y289495D01*
X35143Y289894D01*
X35969Y290527D01*
X36602Y291353D01*
X37001Y292315D01*
X37071Y292846D01*
D02*
G37*
G36*
X32650D02*
X29229D01*
X29299Y292315D01*
X29697Y291353D01*
X30331Y290527D01*
X31156Y289894D01*
X32118Y289495D01*
X32650Y289425D01*
Y292846D01*
D02*
G37*
G36*
X33650Y252779D02*
Y249358D01*
X37071D01*
X37001Y249890D01*
X36602Y250852D01*
X35969Y251677D01*
X35143Y252311D01*
X34181Y252709D01*
X33650Y252779D01*
D02*
G37*
G36*
X32650D02*
X32118Y252709D01*
X31156Y252311D01*
X30331Y251677D01*
X29697Y250852D01*
X29299Y249890D01*
X29229Y249358D01*
X32650D01*
Y252779D01*
D02*
G37*
G36*
X37071Y248358D02*
X33650D01*
Y244937D01*
X34181Y245007D01*
X35143Y245406D01*
X35969Y246039D01*
X36602Y246865D01*
X37001Y247826D01*
X37071Y248358D01*
D02*
G37*
G36*
X32650D02*
X29229D01*
X29299Y247826D01*
X29697Y246865D01*
X30331Y246039D01*
X31156Y245406D01*
X32118Y245007D01*
X32650Y244937D01*
Y248358D01*
D02*
G37*
G36*
X58149Y194868D02*
Y193244D01*
X59773D01*
X59703Y193595D01*
X59221Y194316D01*
X58500Y194799D01*
X58149Y194868D01*
D02*
G37*
G36*
X57149D02*
X56798Y194799D01*
X56076Y194316D01*
X55594Y193595D01*
X55524Y193244D01*
X57149D01*
Y194868D01*
D02*
G37*
G36*
X59773Y192244D02*
X58149D01*
Y190620D01*
X58500Y190690D01*
X59221Y191172D01*
X59703Y191893D01*
X59773Y192244D01*
D02*
G37*
G36*
X57149D02*
X55524D01*
X55594Y191893D01*
X56076Y191172D01*
X56798Y190690D01*
X57149Y190620D01*
Y192244D01*
D02*
G37*
G36*
X43169Y190138D02*
Y188514D01*
X44793D01*
X44723Y188865D01*
X44241Y189586D01*
X43520Y190069D01*
X43169Y190138D01*
D02*
G37*
G36*
X42169D02*
X41818Y190069D01*
X41096Y189586D01*
X40614Y188865D01*
X40544Y188514D01*
X42169D01*
Y190138D01*
D02*
G37*
G36*
X58149Y189448D02*
Y187824D01*
X59773D01*
X59703Y188175D01*
X59221Y188897D01*
X58500Y189379D01*
X58149Y189448D01*
D02*
G37*
G36*
X57149D02*
X56798Y189379D01*
X56076Y188897D01*
X55594Y188175D01*
X55524Y187824D01*
X57149D01*
Y189448D01*
D02*
G37*
G36*
X44793Y187514D02*
X43169D01*
Y185890D01*
X43520Y185959D01*
X44241Y186442D01*
X44723Y187163D01*
X44793Y187514D01*
D02*
G37*
G36*
X42169D02*
X40544D01*
X40614Y187163D01*
X41096Y186442D01*
X41818Y185959D01*
X42169Y185890D01*
Y187514D01*
D02*
G37*
G36*
X59773Y186824D02*
X58149D01*
Y185200D01*
X58500Y185269D01*
X59221Y185751D01*
X59703Y186473D01*
X59773Y186824D01*
D02*
G37*
G36*
X57149D02*
X55524D01*
X55594Y186473D01*
X56076Y185751D01*
X56798Y185269D01*
X57149Y185200D01*
Y186824D01*
D02*
G37*
G36*
X43069Y183738D02*
Y182114D01*
X44693D01*
X44623Y182465D01*
X44141Y183186D01*
X43420Y183669D01*
X43069Y183738D01*
D02*
G37*
G36*
X42069D02*
X41718Y183669D01*
X40996Y183186D01*
X40514Y182465D01*
X40444Y182114D01*
X42069D01*
Y183738D01*
D02*
G37*
G36*
X44693Y181114D02*
X43069D01*
Y179490D01*
X43420Y179560D01*
X44141Y180042D01*
X44623Y180763D01*
X44693Y181114D01*
D02*
G37*
G36*
X42069D02*
X40444D01*
X40514Y180763D01*
X40996Y180042D01*
X41718Y179560D01*
X42069Y179490D01*
Y181114D01*
D02*
G37*
G36*
X43069Y177668D02*
Y176044D01*
X44693D01*
X44623Y176395D01*
X44141Y177117D01*
X43420Y177599D01*
X43069Y177668D01*
D02*
G37*
G36*
X42069D02*
X41718Y177599D01*
X40996Y177117D01*
X40514Y176395D01*
X40444Y176044D01*
X42069D01*
Y177668D01*
D02*
G37*
G36*
X44693Y175044D02*
X43069D01*
Y173420D01*
X43420Y173489D01*
X44141Y173971D01*
X44623Y174693D01*
X44693Y175044D01*
D02*
G37*
G36*
X42069D02*
X40444D01*
X40514Y174693D01*
X40996Y173971D01*
X41718Y173489D01*
X42069Y173420D01*
Y175044D01*
D02*
G37*
G36*
X157079Y158498D02*
Y156874D01*
X158703D01*
X158633Y157225D01*
X158151Y157947D01*
X157430Y158429D01*
X157079Y158498D01*
D02*
G37*
G36*
X156079D02*
X155728Y158429D01*
X155006Y157947D01*
X154524Y157225D01*
X154454Y156874D01*
X156079D01*
Y158498D01*
D02*
G37*
G36*
X158703Y155874D02*
X157079D01*
Y154250D01*
X157430Y154320D01*
X158151Y154801D01*
X158633Y155523D01*
X158703Y155874D01*
D02*
G37*
G36*
X156079D02*
X154454D01*
X154524Y155523D01*
X155006Y154801D01*
X155728Y154320D01*
X156079Y154250D01*
Y155874D01*
D02*
G37*
G36*
X157079Y153498D02*
Y151874D01*
X158703D01*
X158633Y152225D01*
X158151Y152946D01*
X157430Y153429D01*
X157079Y153498D01*
D02*
G37*
G36*
X156079D02*
X155728Y153429D01*
X155006Y152946D01*
X154524Y152225D01*
X154454Y151874D01*
X156079D01*
Y153498D01*
D02*
G37*
G36*
X158703Y150874D02*
X157079D01*
Y149250D01*
X157430Y149320D01*
X158151Y149802D01*
X158633Y150523D01*
X158703Y150874D01*
D02*
G37*
G36*
X156079D02*
X154454D01*
X154524Y150523D01*
X155006Y149802D01*
X155728Y149320D01*
X156079Y149250D01*
Y150874D01*
D02*
G37*
G36*
X157079Y148498D02*
Y146874D01*
X158703D01*
X158633Y147225D01*
X158151Y147947D01*
X157430Y148429D01*
X157079Y148498D01*
D02*
G37*
G36*
X156079D02*
X155728Y148429D01*
X155006Y147947D01*
X154524Y147225D01*
X154454Y146874D01*
X156079D01*
Y148498D01*
D02*
G37*
G36*
X158703Y145874D02*
X157079D01*
Y144250D01*
X157430Y144319D01*
X158151Y144801D01*
X158633Y145523D01*
X158703Y145874D01*
D02*
G37*
G36*
X156079D02*
X154454D01*
X154524Y145523D01*
X155006Y144801D01*
X155728Y144319D01*
X156079Y144250D01*
Y145874D01*
D02*
G37*
G36*
X194503Y135474D02*
X192879D01*
Y133850D01*
X193230Y133920D01*
X193951Y134402D01*
X194433Y135123D01*
X194503Y135474D01*
D02*
G37*
G36*
X187379D02*
X185754D01*
X185824Y135123D01*
X186306Y134402D01*
X187028Y133920D01*
X187379Y133850D01*
Y135474D01*
D02*
G37*
G36*
X345730Y99055D02*
X344948D01*
X344193Y98853D01*
X343516Y98462D01*
X342963Y97909D01*
X342785Y97601D01*
X342169Y97534D01*
X341781Y97922D01*
X341007Y98243D01*
Y96014D01*
Y93786D01*
X341781Y94107D01*
X342222Y94548D01*
X342804Y94513D01*
X342827Y94500D01*
X342963Y94264D01*
X343516Y93711D01*
X344193Y93321D01*
X344948Y93118D01*
X345730D01*
X346485Y93321D01*
X347162Y93711D01*
X347714Y94264D01*
X348105Y94941D01*
X348307Y95696D01*
Y96478D01*
X348105Y97233D01*
X347714Y97909D01*
X347162Y98462D01*
X346485Y98853D01*
X345730Y99055D01*
D02*
G37*
G36*
X331697Y99026D02*
Y96587D01*
X334136D01*
X333963Y97233D01*
X333572Y97909D01*
X333019Y98462D01*
X332343Y98853D01*
X331697Y99026D01*
D02*
G37*
G36*
X330697D02*
X330051Y98853D01*
X329374Y98462D01*
X328821Y97909D01*
X328431Y97233D01*
X328257Y96587D01*
X330697D01*
Y99026D01*
D02*
G37*
G36*
X340007Y98243D02*
X339232Y97922D01*
X338599Y97289D01*
X338279Y96514D01*
X340007D01*
Y98243D01*
D02*
G37*
G36*
Y95514D02*
X338279D01*
X338599Y94740D01*
X339232Y94107D01*
X340007Y93786D01*
Y95514D01*
D02*
G37*
G36*
X334136Y95587D02*
X331697D01*
Y93148D01*
X332343Y93321D01*
X333019Y93711D01*
X333572Y94264D01*
X333963Y94941D01*
X334136Y95587D01*
D02*
G37*
G36*
X330697D02*
X328257D01*
X328431Y94941D01*
X328821Y94264D01*
X329374Y93711D01*
X330051Y93321D01*
X330697Y93148D01*
Y95587D01*
D02*
G37*
G36*
X313791Y96045D02*
X312923D01*
X312121Y95713D01*
X311508Y95100D01*
X311176Y94298D01*
Y93431D01*
X311508Y92629D01*
X312121Y92015D01*
X312923Y91683D01*
X313791D01*
X314592Y92015D01*
X315206Y92629D01*
X315538Y93431D01*
Y94298D01*
X315206Y95100D01*
X314592Y95713D01*
X313791Y96045D01*
D02*
G37*
G36*
X312107Y81818D02*
Y80164D01*
X313760D01*
X313456Y80900D01*
X312842Y81513D01*
X312107Y81818D01*
D02*
G37*
G36*
X311107D02*
X310371Y81513D01*
X309758Y80900D01*
X309453Y80164D01*
X311107D01*
Y81818D01*
D02*
G37*
G36*
X345730Y84913D02*
X344948D01*
X344193Y84711D01*
X343516Y84320D01*
X342963Y83767D01*
X342573Y83091D01*
X342370Y82336D01*
Y81554D01*
X342573Y80799D01*
X342963Y80122D01*
X343516Y79569D01*
X344193Y79179D01*
X344948Y78976D01*
X345730D01*
X346485Y79179D01*
X347162Y79569D01*
X347714Y80122D01*
X348105Y80799D01*
X348307Y81554D01*
Y82336D01*
X348105Y83091D01*
X347714Y83767D01*
X347162Y84320D01*
X346485Y84711D01*
X345730Y84913D01*
D02*
G37*
G36*
X313760Y79164D02*
X312107D01*
Y77511D01*
X312842Y77815D01*
X313456Y78429D01*
X313760Y79164D01*
D02*
G37*
G36*
X311107D02*
X309453D01*
X309758Y78429D01*
X310371Y77815D01*
X311107Y77511D01*
Y79164D01*
D02*
G37*
G36*
X344924Y69430D02*
X339775D01*
Y62855D01*
X339503Y62656D01*
X339275Y62611D01*
X337444Y64442D01*
Y69430D01*
X332295D01*
Y61918D01*
X334921D01*
X335403Y61436D01*
X335211Y60974D01*
X332209D01*
Y60208D01*
X309360D01*
X309360Y60208D01*
X308677Y60072D01*
X308098Y59686D01*
X302360Y53948D01*
X301974Y53369D01*
X301838Y52687D01*
Y51930D01*
X299739Y49831D01*
X299517Y49500D01*
X299440Y49110D01*
X299440Y46074D01*
X299517Y45684D01*
X299739Y45353D01*
X299739Y45353D01*
X300534Y44558D01*
X300518Y43915D01*
X300450Y43863D01*
X299911Y43161D01*
X299572Y42343D01*
X299523Y41965D01*
X300309D01*
Y42680D01*
X301559Y43929D01*
X306060D01*
X307064Y42925D01*
X306966Y43161D01*
X306447Y43837D01*
X306415Y43900D01*
X306432Y44490D01*
X307380Y45439D01*
X307601Y45770D01*
X307679Y46160D01*
Y49226D01*
X307601Y49616D01*
X307380Y49947D01*
X305406Y51921D01*
Y51947D01*
X310099Y56640D01*
X332209D01*
Y55874D01*
X338010D01*
Y57767D01*
X338450Y58003D01*
X338509Y57963D01*
Y55874D01*
X343201D01*
Y54726D01*
X341485Y53010D01*
X341098Y52432D01*
X340962Y51749D01*
Y51249D01*
X339975D01*
Y50739D01*
X339475Y50532D01*
X337644Y52363D01*
Y54989D01*
X332101D01*
Y49839D01*
X335121D01*
X336673Y48287D01*
Y47509D01*
X335372D01*
Y44934D01*
X334872D01*
Y44434D01*
X332101D01*
Y42426D01*
X332101Y42359D01*
X332101D01*
X332218Y41974D01*
X332218Y41974D01*
Y41208D01*
X329310D01*
X329310Y41208D01*
X328627Y41072D01*
X328048Y40686D01*
X328048Y40686D01*
X324816Y37454D01*
X308072D01*
X306780Y38745D01*
X306676Y39392D01*
X306966Y39770D01*
X307225Y40396D01*
X305870Y39040D01*
X301799D01*
X300309Y40530D01*
Y40965D01*
X299523D01*
X299572Y40587D01*
X299911Y39770D01*
X300450Y39067D01*
X300452Y39066D01*
X300496Y38402D01*
X299588Y37495D01*
X299367Y37164D01*
X299290Y36774D01*
Y34624D01*
X299367Y34234D01*
X299588Y33903D01*
X300742Y32750D01*
X300709Y32251D01*
X300450Y32052D01*
X299911Y31350D01*
X299572Y30532D01*
X299457Y29654D01*
X299572Y28776D01*
X299911Y27959D01*
X300450Y27256D01*
X300763Y27016D01*
Y26386D01*
X300450Y26147D01*
X299911Y25444D01*
X299572Y24626D01*
X299457Y23749D01*
X299572Y22871D01*
X299911Y22053D01*
X300450Y21351D01*
X300585Y21247D01*
X300618Y20748D01*
X299864Y19994D01*
X299643Y19663D01*
X299565Y19273D01*
Y18665D01*
X299457Y17843D01*
X299565Y17021D01*
Y16207D01*
X299643Y15817D01*
X299864Y15486D01*
X302156Y13194D01*
X302487Y12973D01*
X302877Y12896D01*
X304377D01*
X304767Y12973D01*
X305098Y13194D01*
X307506Y15602D01*
X307727Y15933D01*
X307804Y16323D01*
Y19359D01*
X307727Y19749D01*
X307506Y20080D01*
X307506Y20080D01*
X306675Y20911D01*
X306493Y21234D01*
X306630Y21615D01*
X306966Y22053D01*
X307305Y22871D01*
X307420Y23749D01*
X307305Y24626D01*
X306966Y25444D01*
X306427Y26147D01*
X306115Y26386D01*
Y27016D01*
X306427Y27256D01*
X306966Y27959D01*
X307305Y28776D01*
X307420Y29654D01*
X307305Y30532D01*
X306966Y31350D01*
X306604Y31821D01*
X306592Y32351D01*
X306672Y32495D01*
X308062Y33885D01*
X325555D01*
X326238Y34021D01*
X326816Y34408D01*
X330048Y37640D01*
X332218D01*
Y36874D01*
X338018D01*
Y38767D01*
X338459Y39003D01*
X338518Y38963D01*
Y36874D01*
X344318D01*
Y41974D01*
X341041D01*
X340242Y42774D01*
Y46099D01*
X345518D01*
Y51249D01*
X345423D01*
X345232Y51711D01*
X346247Y52726D01*
X346247Y52726D01*
X346634Y53305D01*
X346769Y53987D01*
Y61857D01*
X346634Y62540D01*
X346247Y63119D01*
X346247Y63119D01*
X344924Y64442D01*
Y69430D01*
D02*
G37*
G36*
X381357Y58868D02*
Y57214D01*
X383011D01*
X382706Y57950D01*
X382092Y58563D01*
X381357Y58868D01*
D02*
G37*
G36*
X380357D02*
X379621Y58563D01*
X379008Y57950D01*
X378703Y57214D01*
X380357D01*
Y58868D01*
D02*
G37*
G36*
X383011Y56214D02*
X381357D01*
Y54561D01*
X382092Y54865D01*
X382706Y55479D01*
X383011Y56214D01*
D02*
G37*
G36*
X380357D02*
X378703D01*
X379008Y55479D01*
X379621Y54865D01*
X380357Y54561D01*
Y56214D01*
D02*
G37*
G36*
X334372Y47509D02*
X332101D01*
Y45434D01*
X334372D01*
Y47509D01*
D02*
G37*
G36*
X322141Y29995D02*
X321273D01*
X320471Y29663D01*
X319858Y29050D01*
X319526Y28248D01*
Y27380D01*
X319858Y26579D01*
X320471Y25965D01*
X321273Y25633D01*
X322141D01*
X322942Y25965D01*
X323556Y26579D01*
X323888Y27380D01*
Y28248D01*
X323556Y29050D01*
X322942Y29663D01*
X322141Y29995D01*
D02*
G37*
%LPD*%
G36*
X306660Y49226D02*
Y46160D01*
X305524Y45024D01*
X301509D01*
X300459Y46074D01*
X300460Y49110D01*
X302867Y51518D01*
X304367D01*
X306660Y49226D01*
D02*
G37*
G36*
X307660Y36424D02*
Y34924D01*
X305870Y33135D01*
X301799D01*
X300309Y34624D01*
Y36774D01*
X301559Y38024D01*
X306060D01*
X307660Y36424D01*
D02*
G37*
G36*
X306785Y19359D02*
X306785Y16323D01*
X304377Y13915D01*
X302877D01*
X300585Y16207D01*
Y19273D01*
X301720Y20409D01*
X305735D01*
X306785Y19359D01*
D02*
G37*
D10*
X181879Y32687D02*
Y36624D01*
X179910Y34656D02*
X183847D01*
X29110Y180874D02*
X33047D01*
X31079Y178905D02*
Y182843D01*
D15*
X219900Y102014D02*
X223837D01*
X221869Y100046D02*
Y103982D01*
D19*
X244579Y120174D02*
Y123924D01*
X241579Y126924D02*
Y127031D01*
Y126924D02*
X244579Y123924D01*
X239879Y128731D02*
Y134534D01*
Y128731D02*
X241579Y127031D01*
X131389Y95034D02*
X133629Y97274D01*
X126339Y95034D02*
X131389D01*
X133629Y97274D02*
Y115674D01*
D20*
X237149Y223444D02*
G03*
X237440Y224149I-709J705D01*
G01*
X214979Y118746D02*
Y122629D01*
X214583Y123025D02*
Y123394D01*
Y123025D02*
X214979Y122629D01*
X222853Y77100D02*
X222928Y77025D01*
X222853Y77100D02*
Y85282D01*
X167629Y79974D02*
X172529Y75074D01*
X170679Y73374D02*
X208793D01*
X214979Y79560D01*
X207779Y75074D02*
X213011Y80306D01*
X162389Y81664D02*
X170679Y73374D01*
X172529Y75074D02*
X207779D01*
X198485Y101030D02*
X205136D01*
X185029Y87574D02*
X198485Y101030D01*
X167629Y79974D02*
Y98824D01*
X166319Y100134D02*
X167629Y98824D01*
X162389Y100134D02*
X166319D01*
X162389Y81664D02*
Y95016D01*
X254679Y111374D02*
Y128707D01*
X238601Y108904D02*
X252208D01*
X254679Y111374D01*
X259279Y86424D02*
X284079Y61624D01*
X234053Y90100D02*
X237729Y86424D01*
X259279D01*
X229344Y90100D02*
X234053D01*
X228759Y89514D02*
X229344Y90100D01*
X228759Y85282D02*
Y89514D01*
X284079Y33445D02*
Y61624D01*
X62603Y55374D02*
Y58986D01*
Y51762D02*
Y55374D01*
X69828Y62598D02*
Y66211D01*
Y58986D02*
Y62598D01*
Y51262D02*
Y51762D01*
X58991Y66211D02*
X62103D01*
X55379D02*
X58991D01*
X62603Y51762D02*
X66215D01*
X62603Y62598D02*
Y66211D01*
Y58986D02*
Y62598D01*
X66215Y58986D02*
X69828D01*
X62603D02*
X66215D01*
X58991D02*
X62603D01*
X55379D02*
X58991D01*
X55379Y51762D02*
X58991D01*
X62603D01*
X66215D02*
X69828D01*
Y55374D01*
Y58986D01*
X66215Y66211D02*
X69828D01*
X62603D02*
X66215D01*
X55379Y62598D02*
Y66211D01*
Y58986D02*
Y62598D01*
Y55374D02*
Y58986D01*
X55379Y66211D02*
X55379Y66211D01*
X55379Y66211D02*
X55379Y66211D01*
X247579Y135807D02*
X254679Y128707D01*
X274689Y24056D02*
X284079Y33445D01*
X205913Y87185D02*
X208010D01*
X205136Y87961D02*
X205913Y87185D01*
X208010D02*
X208270Y86924D01*
X184679Y87574D02*
X185029D01*
X219579Y125005D02*
X220884Y123700D01*
X219579Y125005D02*
Y125374D01*
X220884Y118746D02*
Y123700D01*
X198829Y95674D02*
X200248Y97093D01*
X198829Y92214D02*
Y95674D01*
X200248Y97093D02*
X205136D01*
Y87961D02*
Y91187D01*
X207039Y81685D02*
X209217D01*
X206779Y81424D02*
X207039Y81685D01*
X209217D02*
X211042Y83510D01*
Y85282D01*
X224821Y124061D02*
X225779Y125019D01*
X224821Y118746D02*
Y124061D01*
X127679Y115674D02*
X131898Y119894D01*
X146698D01*
X148679Y121874D01*
X165789Y105252D02*
X167079Y103874D01*
X247579Y135807D02*
Y135874D01*
X243546Y112841D02*
X244196Y113491D01*
X238601Y112841D02*
X243546D01*
X235079Y124702D02*
Y136074D01*
X233379Y137774D02*
X235079Y136074D01*
X232696Y122319D02*
X235079Y124702D01*
X126339Y110034D02*
X126549D01*
X127329Y110814D01*
Y115674D01*
X225779Y125019D02*
Y128474D01*
X220079Y134174D02*
Y168974D01*
Y134174D02*
X225779Y128474D01*
X232696Y118746D02*
Y122319D01*
X229079Y125915D02*
Y128958D01*
X232879Y124906D02*
Y133374D01*
X230727Y122755D02*
X232879Y124906D01*
X226790Y123626D02*
X229079Y125915D01*
X230879Y125310D02*
Y131582D01*
X228759Y123190D02*
X230879Y125310D01*
X200429Y188624D02*
X220079Y168974D01*
X200429Y188624D02*
Y225574D01*
X228759Y118746D02*
Y123190D01*
X226790Y118746D02*
Y123626D01*
X230727Y118746D02*
Y122755D01*
X229979Y136274D02*
X232879Y133374D01*
X226076Y136385D02*
Y136474D01*
Y136385D02*
X230879Y131582D01*
X222579Y135458D02*
X229079Y128958D01*
X222579Y135458D02*
Y171874D01*
X218079Y75970D02*
X220884Y78776D01*
Y85282D01*
X274099Y24056D02*
X274689D01*
X225609Y72554D02*
Y78293D01*
X225079Y72024D02*
X225609Y72554D01*
X218079Y71524D02*
Y75970D01*
X224821Y79081D02*
X225609Y78293D01*
X224821Y79081D02*
Y85282D01*
X238651Y95174D02*
X247579D01*
X162389Y105252D02*
X165789D01*
X215079Y75374D02*
X218916Y81419D01*
X218079Y71524D02*
X218079Y71524D01*
X218916Y81419D02*
Y85282D01*
X214979Y79560D02*
Y85282D01*
X213011Y80306D02*
Y85282D01*
X204079Y190374D02*
X222579Y171874D01*
X204079Y190374D02*
Y214704D01*
X204664Y215290D02*
X228996D01*
X204079Y214704D02*
X204664Y215290D01*
X228996D02*
X237149Y223444D01*
X237440Y224149D02*
Y227304D01*
D24*
X334869Y65674D02*
D03*
X342350D02*
D03*
X133859Y88074D02*
D03*
X126379D02*
D03*
X38079Y12604D02*
D03*
X30598D02*
D03*
X38079Y19904D02*
D03*
X30598D02*
D03*
X170559Y161134D02*
D03*
X163079D02*
D03*
X47239Y136074D02*
D03*
X54719D02*
D03*
D26*
X335109Y58424D02*
D03*
X341409D02*
D03*
X341418Y39424D02*
D03*
X335118D02*
D03*
X127329Y115674D02*
D03*
X133629D02*
D03*
X156089Y105252D02*
D03*
X162389D02*
D03*
X178329Y82374D02*
D03*
X184629D02*
D03*
X178379Y87574D02*
D03*
X184679D02*
D03*
X156089Y100134D02*
D03*
X162389D02*
D03*
X156089Y95016D02*
D03*
X162389D02*
D03*
X172929Y93074D02*
D03*
X179229D02*
D03*
X172479Y115974D02*
D03*
X178779D02*
D03*
X211129Y126474D02*
D03*
X204829D02*
D03*
X257629Y103591D02*
D03*
X263929D02*
D03*
X257629Y108315D02*
D03*
X263929D02*
D03*
X247579Y95174D02*
D03*
X253879D02*
D03*
X239029Y78274D02*
D03*
X232729D02*
D03*
X237440Y227304D02*
D03*
X243740D02*
D03*
X250929Y227274D02*
D03*
X257229D02*
D03*
X37469Y6234D02*
D03*
X31169D02*
D03*
X96429Y117174D02*
D03*
X102729D02*
D03*
X65229Y115874D02*
D03*
X58929D02*
D03*
X71929Y19954D02*
D03*
X65629D02*
D03*
X200429Y225574D02*
D03*
X206729D02*
D03*
D30*
X256179Y32114D02*
D03*
Y24634D02*
D03*
X198829Y84734D02*
D03*
Y92214D02*
D03*
X170279Y127434D02*
D03*
Y134914D02*
D03*
X239879Y142014D02*
D03*
Y134534D02*
D03*
X276379Y152274D02*
D03*
Y159754D02*
D03*
X263856Y48057D02*
D03*
Y40576D02*
D03*
X257164Y48057D02*
D03*
Y40576D02*
D03*
X250077Y48057D02*
D03*
Y40576D02*
D03*
X73086Y135554D02*
D03*
Y128074D02*
D03*
X79779Y135554D02*
D03*
Y128074D02*
D03*
X143096Y177114D02*
D03*
Y169634D02*
D03*
X135679Y177114D02*
D03*
Y169634D02*
D03*
X179110Y127434D02*
D03*
Y134914D02*
D03*
D35*
X211042Y118746D02*
D03*
X213011D02*
D03*
X214979D02*
D03*
X216948D02*
D03*
X218916D02*
D03*
X220884D02*
D03*
X222853D02*
D03*
X224821D02*
D03*
X226790D02*
D03*
X228759D02*
D03*
X230727D02*
D03*
X232696D02*
D03*
Y85282D02*
D03*
X230727D02*
D03*
X228759D02*
D03*
X226790D02*
D03*
X224821D02*
D03*
X222853D02*
D03*
X220884D02*
D03*
X218916D02*
D03*
X216948D02*
D03*
X214979D02*
D03*
X213011D02*
D03*
X211042D02*
D03*
D36*
X238601Y112841D02*
D03*
Y110872D02*
D03*
Y108904D02*
D03*
Y106935D02*
D03*
Y104967D02*
D03*
Y102998D02*
D03*
Y101030D02*
D03*
Y99061D02*
D03*
Y97093D02*
D03*
Y95124D02*
D03*
Y93156D02*
D03*
Y91187D02*
D03*
X205136D02*
D03*
Y93156D02*
D03*
Y95124D02*
D03*
Y97093D02*
D03*
Y99061D02*
D03*
Y101030D02*
D03*
Y102998D02*
D03*
Y104967D02*
D03*
Y106935D02*
D03*
Y108904D02*
D03*
Y110872D02*
D03*
Y112841D02*
D03*
D40*
X216579Y135524D02*
D03*
Y129224D02*
D03*
X228179Y142124D02*
D03*
Y148424D02*
D03*
X233179D02*
D03*
Y142124D02*
D03*
X244579Y113874D02*
D03*
Y120174D02*
D03*
X225079Y72024D02*
D03*
Y65724D02*
D03*
X218079Y71524D02*
D03*
Y65224D02*
D03*
X103379Y9724D02*
D03*
Y16024D02*
D03*
X218109Y231964D02*
D03*
Y225664D02*
D03*
X44369Y17384D02*
D03*
Y11084D02*
D03*
D52*
X151758Y169879D02*
D03*
X169868D02*
D03*
X160813D02*
D03*
X55067Y200374D02*
D03*
X66091D02*
D03*
D53*
X160813Y195076D02*
D03*
D57*
X110197Y200640D02*
D03*
X75787D02*
D03*
X110197Y180541D02*
D03*
X75787D02*
D03*
D58*
X87368Y123074D02*
D03*
Y128074D02*
D03*
Y133074D02*
D03*
Y138074D02*
D03*
X110990D02*
D03*
Y133074D02*
D03*
Y128074D02*
D03*
Y123074D02*
D03*
D110*
X181879Y9557D02*
D03*
X5980Y180874D02*
D03*
D113*
X334872Y52414D02*
D03*
Y44934D02*
D03*
X342746Y48674D02*
D03*
X57706Y13844D02*
D03*
Y21324D02*
D03*
X49832Y17584D02*
D03*
X54416Y120834D02*
D03*
Y128314D02*
D03*
X46542Y124574D02*
D03*
D114*
X76668Y157174D02*
D03*
X100290D02*
D03*
D115*
X269302Y142274D02*
D03*
Y147274D02*
D03*
Y152274D02*
D03*
Y157274D02*
D03*
X247255D02*
D03*
Y152274D02*
D03*
Y147274D02*
D03*
Y142274D02*
D03*
D116*
X186902Y98328D02*
D03*
X194835Y110545D02*
D03*
X187571Y115262D02*
D03*
X179638Y103045D02*
D03*
D117*
X274167Y239803D02*
D03*
X263931D02*
D03*
X190236Y239803D02*
D03*
X200472D02*
D03*
D118*
X255019Y240091D02*
D03*
X258759Y232217D02*
D03*
X251279D02*
D03*
X205369D02*
D03*
X212849D02*
D03*
X209109Y240091D02*
D03*
D119*
X69828Y66211D02*
D03*
X55379D02*
D03*
X62603D02*
D03*
X55379Y51762D02*
D03*
Y58986D02*
D03*
X62603Y51762D02*
D03*
Y58986D02*
D03*
X69828D02*
D03*
Y51762D02*
D03*
D120*
X33076Y96388D02*
D03*
X38076D02*
D03*
X43076D02*
D03*
X48076D02*
D03*
X53076D02*
D03*
X58076D02*
D03*
X63076D02*
D03*
X68076D02*
D03*
X73076D02*
D03*
X78076D02*
D03*
X83076D02*
D03*
X88076D02*
D03*
X93076D02*
D03*
X98076D02*
D03*
Y29459D02*
D03*
X93076D02*
D03*
X88076D02*
D03*
X83076D02*
D03*
X78076D02*
D03*
X73076D02*
D03*
X68076D02*
D03*
X63076D02*
D03*
X58076D02*
D03*
X53076D02*
D03*
X48076D02*
D03*
X43076D02*
D03*
X38076D02*
D03*
X33076D02*
D03*
D121*
X102013Y85423D02*
D03*
Y80423D02*
D03*
Y75423D02*
D03*
Y70423D02*
D03*
Y65423D02*
D03*
Y60423D02*
D03*
Y55423D02*
D03*
Y50423D02*
D03*
Y45423D02*
D03*
Y40423D02*
D03*
D122*
X233020Y44465D02*
D03*
X240500D02*
D03*
X236760D02*
D03*
X233020Y34583D02*
D03*
X236760D02*
D03*
X240500D02*
D03*
D123*
X276379Y142509D02*
D03*
Y146839D02*
D03*
D124*
X281579Y149094D02*
D03*
Y151654D02*
D03*
X249579Y28295D02*
D03*
Y30854D02*
D03*
D125*
X240203Y7708D02*
D03*
X230754D02*
D03*
D126*
X248077Y17354D02*
D03*
X222880D02*
D03*
D127*
X248963Y7708D02*
D03*
X221994D02*
D03*
D128*
X240597Y18240D02*
D03*
X238038D02*
D03*
X235479D02*
D03*
X232920D02*
D03*
X230361D02*
D03*
D129*
X156485Y24518D02*
D03*
X207272D02*
D03*
D130*
X184438Y59754D02*
D03*
D131*
X115241Y16114D02*
D03*
X127051D02*
D03*
X132957D02*
D03*
D132*
X109729Y13358D02*
D03*
Y5090D02*
D03*
X138469Y13358D02*
D03*
Y5090D02*
D03*
D133*
X126339Y95034D02*
D03*
Y100034D02*
D03*
Y105034D02*
D03*
Y110034D02*
D03*
X149173D02*
D03*
Y105034D02*
D03*
Y100034D02*
D03*
Y95034D02*
D03*
D134*
X122579Y126606D02*
D03*
Y134874D02*
D03*
D135*
X138839Y126603D02*
D03*
Y143925D02*
D03*
D136*
X240236Y216890D02*
D03*
Y206890D02*
D03*
Y196890D02*
D03*
Y186890D02*
D03*
Y176890D02*
D03*
D137*
X20941Y206268D02*
D03*
Y155480D02*
D03*
D138*
X56177Y178315D02*
D03*
D139*
X303622Y47480D02*
Y52687D01*
Y41575D02*
X323760D01*
X303622Y52687D02*
X309360Y58424D01*
X325555Y35669D02*
X329310Y39424D01*
X303622Y35669D02*
X325555D01*
X338449Y61035D02*
X341059Y58424D01*
X338328Y61035D02*
X338449D01*
X341059Y58424D02*
X341409D01*
X342350Y64493D02*
X344985Y61857D01*
X342350Y64493D02*
Y65674D01*
X344985Y53987D02*
Y61857D01*
X334869Y64493D02*
X338328Y61035D01*
X334869Y64493D02*
Y65674D01*
X338457Y42035D02*
X341068Y39424D01*
X334872Y52414D02*
X335069D01*
X341068Y39424D02*
X341418D01*
X338457Y42035D02*
Y49026D01*
X335069Y52414D02*
X338457Y49026D01*
X342746Y48674D02*
Y51749D01*
X344985Y53987D01*
X327119Y44934D02*
X334872D01*
X329310Y39424D02*
X335118D01*
X323760Y41575D02*
X327119Y44934D01*
X309360Y58424D02*
X335109D01*
X257360Y24634D02*
X263856Y31130D01*
Y40576D01*
X256179Y24634D02*
X257360D01*
D140*
X233979Y67213D02*
Y68556D01*
Y67213D02*
X237995Y63197D01*
X232121Y65578D02*
X235525Y62174D01*
X230779Y65578D02*
X232121D01*
X237995Y51529D02*
Y63197D01*
X235525Y51529D02*
Y62174D01*
X233020Y44465D02*
Y49024D01*
Y34583D02*
Y44465D01*
X240500Y34583D02*
Y44465D01*
Y49024D01*
X265955Y107188D02*
X274335D01*
X265643Y107500D02*
X265955Y107188D01*
X274335D02*
X276679Y104844D01*
X263929Y108315D02*
X264744Y107500D01*
X265643D01*
X235568Y18329D02*
Y26820D01*
X233064Y29324D02*
X235568Y26820D01*
X233020Y49024D02*
X235525Y51529D01*
X233020Y29324D02*
X233064D01*
X233020D02*
Y34583D01*
X265955Y104718D02*
X273238D01*
X265643Y104406D02*
X265955Y104718D01*
X273238D02*
X274895Y103060D01*
X263929Y103591D02*
X264744Y104406D01*
X265643D01*
X240500Y29833D02*
Y34583D01*
X237995Y51529D02*
X240500Y49024D01*
X238038Y27371D02*
X240500Y29833D01*
X238038Y18240D02*
Y27371D01*
D141*
X180129Y117324D02*
X180879Y118074D01*
X183493D01*
X186305Y115262D01*
X178779Y115974D02*
X179129D01*
X180129Y116974D02*
Y117324D01*
X179129Y115974D02*
X180129Y116974D01*
X186305Y115262D02*
X187571D01*
X188617D02*
X192129Y118774D01*
X200338Y105903D02*
Y118130D01*
X199694Y118774D02*
X200338Y118130D01*
X192129Y118774D02*
X199694D01*
X200338Y105903D02*
X201274Y104967D01*
X205136D01*
X186902Y98328D02*
X188317Y100508D01*
X189672Y102594D02*
X190076Y102998D01*
X205136D01*
X188317Y100508D02*
X189672Y102594D01*
X179229Y93074D02*
X180579Y92873D01*
X183331Y93443D02*
X185819Y95931D01*
X182761Y92873D02*
X183331Y93443D01*
X180579Y92873D02*
X182761D01*
X185819Y95931D02*
X186902Y98328D01*
X236760Y44465D02*
Y49174D01*
D142*
X216998Y124305D02*
Y125405D01*
X216579Y125824D02*
X216998Y125405D01*
Y124305D02*
X217494Y123809D01*
X218916Y122387D01*
X216579Y125824D02*
Y129224D01*
X239392Y120093D02*
X244497D01*
X234729Y115430D02*
X239392Y120093D01*
X244497D02*
X244579Y120174D01*
X234729Y110882D02*
X234739Y110872D01*
X234729Y110882D02*
Y115430D01*
X234739Y110872D02*
X238601D01*
X230129Y71224D02*
X236329D01*
X228529Y72824D02*
Y79221D01*
Y72824D02*
X230129Y71224D01*
X236329D02*
X239079Y73974D01*
X228529Y79221D02*
X230727Y81419D01*
Y85282D01*
X222874Y118767D02*
Y125906D01*
X222853Y118746D02*
X222874Y118767D01*
Y125906D02*
X222895Y125927D01*
X218916Y118746D02*
Y122387D01*
X244196Y113491D02*
X244579Y113874D01*
D143*
X178329Y78511D02*
Y82374D01*
Y78511D02*
X178666Y78174D01*
X196460D01*
X198829Y80543D01*
X172929Y93074D02*
X173279D01*
X198829Y80543D02*
Y84734D01*
X240388Y105001D02*
X251128D01*
X240388Y106901D02*
X250341D01*
X240354Y106935D02*
X240388Y106901D01*
X238601Y106935D02*
X240354D01*
Y104967D02*
X240388Y105001D01*
X238601Y104967D02*
X240354D01*
X257279Y103591D02*
X257629D01*
X250341Y106901D02*
X250343Y106903D01*
X257279Y108315D02*
X257629D01*
X251128Y105001D02*
X251130Y105003D01*
X255867D02*
X257279Y103591D01*
X255867Y106903D02*
X257279Y108315D01*
X250343Y106903D02*
X255867D01*
X251130Y105003D02*
X255867D01*
X240597Y18240D02*
Y22442D01*
X242379Y24224D02*
X247629D01*
X240597Y22442D02*
X242379Y24224D01*
X247629D02*
X249579Y26174D01*
Y28295D01*
D144*
X252279Y89174D02*
X253879Y90774D01*
Y95174D01*
X233179Y151974D02*
X234579Y153374D01*
X233179Y148424D02*
Y151974D01*
X69279Y115874D02*
X71879Y118474D01*
X65229Y115874D02*
X69279D01*
X49098Y110355D02*
X53076Y106377D01*
X45560Y110355D02*
X49098D01*
X45026Y104874D02*
X48076Y101825D01*
Y96388D02*
Y101825D01*
X42079Y104874D02*
X45026D01*
X53076Y96388D02*
Y106377D01*
X49609Y8594D02*
X98519D01*
X103039Y9384D02*
X103379Y9724D01*
X98519Y8594D02*
X99309Y9384D01*
X103039D01*
X47949Y6934D02*
X49609Y8594D01*
X223079Y177874D02*
X234979Y165974D01*
X223079Y177874D02*
Y184296D01*
X216498Y190877D02*
X223079Y184296D01*
X234979Y165974D02*
X250322D01*
X216498Y190877D02*
Y191293D01*
X250322Y165974D02*
X264022Y152274D01*
X269302D01*
X225579Y151374D02*
X228179Y148774D01*
Y148424D02*
Y148774D01*
X225579Y151374D02*
Y156374D01*
X229929Y153574D02*
X233629Y157274D01*
X228729Y149324D02*
X229929Y150524D01*
Y153574D01*
X233629Y157274D02*
X247255D01*
X269302Y152274D02*
X276379D01*
X236229Y148424D02*
X240079Y152274D01*
X247255D01*
X233179Y148424D02*
X236229D01*
X43076Y23477D02*
X44369Y22184D01*
Y17384D02*
Y22184D01*
X43076Y23477D02*
Y29459D01*
D145*
X232696Y84424D02*
Y85282D01*
X232679Y84407D02*
X232696Y84424D01*
X232679Y78324D02*
Y84407D01*
D146*
X228834Y23924D02*
X230361Y22397D01*
Y18240D02*
Y22397D01*
D147*
X74600Y47053D02*
X81230Y40423D01*
X102013D01*
X33076Y78227D02*
X41079Y70224D01*
X33076Y78227D02*
Y96388D01*
X223319Y58284D02*
X225079Y60044D01*
X211169Y58284D02*
X223319D01*
X225079Y60044D02*
Y65724D01*
X210079Y59374D02*
X211169Y58284D01*
X210079Y69274D02*
X214129Y65224D01*
X218079D01*
X231589Y206890D02*
X240236D01*
Y186890D02*
X248883D01*
X240236Y196890D02*
X248883D01*
X72229Y19874D02*
X78579D01*
X102729Y117174D02*
X110990D01*
Y121974D01*
X22279Y136074D02*
X47239D01*
X22279Y130316D02*
Y136074D01*
X22679Y111031D02*
X29728D01*
X43270Y124574D01*
X22279Y110632D02*
X22679Y111031D01*
X43270Y124574D02*
X46542D01*
D148*
X81968Y321299D02*
X96535Y306732D01*
X30000Y321299D02*
X81968D01*
X22520Y328780D02*
X30000Y321299D01*
X37052Y348780D02*
X40516Y345315D01*
X41024D01*
X22520Y348780D02*
X37052D01*
X135906Y322087D02*
X159134Y345315D01*
X135906Y306732D02*
Y322087D01*
X193347Y293228D02*
Y303150D01*
X218347Y328150D02*
Y345709D01*
X193347Y303150D02*
X218347Y328150D01*
X243740Y303543D02*
X268740Y328543D01*
X243740Y293228D02*
Y303543D01*
X268740Y328543D02*
Y345709D01*
D149*
X56329Y21449D02*
D03*
D150*
X345339Y81945D02*
D03*
Y96087D02*
D03*
X331197D02*
D03*
D151*
X303439Y47371D02*
D03*
Y41465D02*
D03*
Y35560D02*
D03*
Y29654D02*
D03*
Y23749D02*
D03*
Y17843D02*
D03*
X274099Y18150D02*
D03*
Y24056D02*
D03*
Y29961D02*
D03*
Y35867D02*
D03*
Y41772D02*
D03*
Y47678D02*
D03*
D152*
X202579Y177374D02*
D03*
X216498Y191293D02*
D03*
X13465Y293347D02*
D03*
X33150D02*
D03*
X13465Y248858D02*
D03*
X33150D02*
D03*
D153*
X193347Y323228D02*
D03*
X223346Y253228D02*
D03*
Y313228D02*
D03*
X193347Y293228D02*
D03*
Y253228D02*
D03*
X243740Y323228D02*
D03*
X273740Y253228D02*
D03*
Y313228D02*
D03*
X243740Y293228D02*
D03*
Y253228D02*
D03*
D154*
X55379Y55374D02*
D03*
Y62598D02*
D03*
X58991Y51762D02*
D03*
Y58986D02*
D03*
Y66211D02*
D03*
X62603Y55374D02*
D03*
Y62598D02*
D03*
X66215Y51762D02*
D03*
Y58986D02*
D03*
Y66211D02*
D03*
X69828Y55374D02*
D03*
Y62598D02*
D03*
D155*
X177548Y52077D02*
D03*
D156*
X200776Y39872D02*
D03*
X23697Y180874D02*
D03*
D157*
X181879Y27274D02*
D03*
X36295Y161976D02*
D03*
D158*
X118193Y9224D02*
D03*
X130004D02*
D03*
D159*
X76850Y227992D02*
D03*
X22279Y110632D02*
D03*
Y130316D02*
D03*
X159134Y345315D02*
D03*
X41024D02*
D03*
X96535Y306732D02*
D03*
X135906D02*
D03*
X155591Y227992D02*
D03*
D160*
X22520Y328780D02*
D03*
Y348780D02*
D03*
X268740Y345709D02*
D03*
X248740D02*
D03*
X218347D02*
D03*
X198346D02*
D03*
D161*
X48500Y185205D02*
D03*
D162*
X380857Y56714D02*
D03*
X374007Y5264D02*
D03*
X333907Y23114D02*
D03*
X321707Y27814D02*
D03*
X369007Y5264D02*
D03*
X311607Y79664D02*
D03*
X313357Y93864D02*
D03*
X214583Y123394D02*
D03*
X156879Y183574D02*
D03*
X160879D02*
D03*
X164879D02*
D03*
X168879D02*
D03*
X187879Y135974D02*
D03*
X192379D02*
D03*
X157879Y126424D02*
D03*
X260979Y17824D02*
D03*
X260729Y10024D02*
D03*
X270329Y115324D02*
D03*
X265329D02*
D03*
X260329D02*
D03*
X267229Y10024D02*
D03*
X255729D02*
D03*
X267229Y18074D02*
D03*
X255979Y17824D02*
D03*
X232129Y232224D02*
D03*
X227629D02*
D03*
X208579Y168374D02*
D03*
X202579D02*
D03*
X208579Y172374D02*
D03*
X196029D02*
D03*
X202579D02*
D03*
X196029Y177374D02*
D03*
X139429Y89374D02*
D03*
Y94374D02*
D03*
Y99874D02*
D03*
X192379Y126974D02*
D03*
X187879D02*
D03*
X163379Y126424D02*
D03*
X145029Y139924D02*
D03*
Y142924D02*
D03*
Y145924D02*
D03*
X248529Y113824D02*
D03*
X239079Y73974D02*
D03*
X252279Y89174D02*
D03*
X241579Y126924D02*
D03*
X280829Y158474D02*
D03*
X223129Y232224D02*
D03*
X252329Y217024D02*
D03*
X257829D02*
D03*
X246829D02*
D03*
X26779Y6174D02*
D03*
X27079Y12824D02*
D03*
Y19824D02*
D03*
X115729Y90224D02*
D03*
Y93224D02*
D03*
X54729Y21174D02*
D03*
X254129Y53574D02*
D03*
X263129D02*
D03*
X259129D02*
D03*
X250129D02*
D03*
X208270Y86924D02*
D03*
X222928Y77025D02*
D03*
X219579Y125374D02*
D03*
X206779Y81424D02*
D03*
X148679Y121874D02*
D03*
X167079Y103874D02*
D03*
X255629Y176524D02*
D03*
X115729Y87224D02*
D03*
X126279Y145074D02*
D03*
X281929Y142374D02*
D03*
X282029Y145474D02*
D03*
X247579Y135874D02*
D03*
X210079Y59374D02*
D03*
X233379Y137774D02*
D03*
X234579Y153374D02*
D03*
X231589Y206890D02*
D03*
X248883Y186890D02*
D03*
Y196890D02*
D03*
X226076Y136474D02*
D03*
X229979Y136274D02*
D03*
X210079Y69274D02*
D03*
X71879Y118474D02*
D03*
X45560Y110355D02*
D03*
X42079Y104874D02*
D03*
X215079Y75374D02*
D03*
X127079Y23555D02*
D03*
X78579Y19874D02*
D03*
X222895Y125927D02*
D03*
X225579Y156374D02*
D03*
X156579Y146374D02*
D03*
Y151374D02*
D03*
Y156374D02*
D03*
X250079Y34074D02*
D03*
X126279Y141074D02*
D03*
X96509Y148354D02*
D03*
X44899Y6934D02*
D03*
X47949D02*
D03*
X41849D02*
D03*
X42669Y188014D02*
D03*
X42569Y181614D02*
D03*
X65079Y125474D02*
D03*
Y129474D02*
D03*
X42569Y175544D02*
D03*
X57649Y187324D02*
D03*
Y192744D02*
D03*
D163*
X340507Y96014D02*
D03*
D164*
X230779Y65578D02*
D03*
X233979Y68556D02*
D03*
X236760Y49174D02*
D03*
X276679Y104844D02*
D03*
X274895Y103060D02*
D03*
D165*
X194379Y92374D02*
D03*
X232679Y74824D02*
D03*
X228834Y23924D02*
D03*
D166*
X236979Y38524D02*
D03*
M02*
