G04*
G04 #@! TF.GenerationSoftware,Altium Limited,Altium Designer,24.2.2 (26)*
G04*
G04 Layer_Color=65535*
%FSLAX25Y25*%
%MOIN*%
G70*
G04*
G04 #@! TF.SameCoordinates,F296BD43-7A1A-4B5F-AFD2-8FBC70BB071E*
G04*
G04*
G04 #@! TF.FilePolarity,Positive*
G04*
G01*
G75*
%ADD10C,0.00787*%
%ADD11C,0.00827*%
%ADD12C,0.00984*%
%ADD13C,0.00315*%
%ADD14C,0.00197*%
%ADD15C,0.00394*%
%ADD16C,0.00059*%
%ADD17C,0.00500*%
%ADD18C,0.00069*%
%ADD19C,0.01968*%
%ADD20C,0.01000*%
%ADD21R,0.00787X0.05118*%
%ADD22R,0.02717X0.00236*%
%ADD23R,0.14173X0.01181*%
G36*
X340184Y65674D02*
X338610Y64099D01*
Y67249D01*
X340184Y65674D01*
D02*
G37*
D10*
X340821Y70679D02*
G03*
X335746Y70679I-2538J17927D01*
G01*
D02*
G03*
X340819Y70693I2532J1703D01*
G01*
X231192Y184334D02*
G03*
X231192Y184334I-21654J0D01*
G01*
X207499Y116778D02*
G03*
X207499Y116778I-394J0D01*
G01*
X33509Y23553D02*
G03*
X33509Y23553I-394J0D01*
G01*
X242429Y46374D02*
G03*
X242429Y46374I-39J0D01*
G01*
X149477Y176376D02*
G03*
X149477Y176376I-240J0D01*
G01*
X101147Y119944D02*
G03*
X97210Y119944I-1969J0D01*
G01*
X42218Y120474D02*
G03*
X42218Y120474I-19940J0D01*
G01*
X44961Y293347D02*
G03*
X44961Y293347I-21654J0D01*
G01*
Y248858D02*
G03*
X44961Y248858I-21654J0D01*
G01*
X73518Y143473D02*
Y153473D01*
Y143473D02*
X97220D01*
X103321Y148368D01*
Y153198D01*
X101038Y145009D02*
X103991D01*
X102573Y143552D02*
Y146505D01*
X73518Y160875D02*
Y170875D01*
X97552D01*
X103321Y166246D01*
Y161032D02*
Y166246D01*
X219282Y188510D02*
X222066Y185726D01*
X219282Y185726D02*
X222066Y188510D01*
X187087Y247284D02*
X229213D01*
X187087D02*
Y329173D01*
X224882D01*
X229213Y247284D02*
Y324449D01*
X226850D02*
X229213D01*
X224882Y326417D02*
X226850Y324449D01*
X224882Y326417D02*
Y329173D01*
X237480Y247284D02*
X279606D01*
X237480D02*
Y329173D01*
X275276D01*
X279606Y247284D02*
Y324449D01*
X277244D02*
X279606D01*
X275276Y326417D02*
X277244Y324449D01*
X275276Y326417D02*
Y329173D01*
X209073Y89219D02*
X234664D01*
Y114809D01*
X212617D02*
X234664D01*
X209073Y111266D02*
X212617Y114809D01*
X209073Y89219D02*
Y111266D01*
X109138Y17885D02*
X113075D01*
X109138Y15917D02*
Y17885D01*
X108744Y7649D02*
Y10799D01*
X117406Y17885D02*
X124886D01*
X129217D02*
X130792D01*
X135122D02*
X139453D01*
Y15917D02*
Y17885D01*
Y7649D02*
Y10799D01*
X148017Y174998D02*
Y189958D01*
Y174998D02*
X173608D01*
Y189958D01*
X148017D02*
X173608D01*
X267799Y54568D02*
X283154D01*
X267799Y11260D02*
Y54568D01*
Y11260D02*
X283154D01*
Y54568D01*
X131752Y145894D02*
X133721D01*
X131752Y124634D02*
Y145894D01*
Y124634D02*
X133721D01*
X143957D02*
X145925D01*
Y145894D01*
X143957D02*
X145925D01*
X82362Y179173D02*
Y182323D01*
Y199055D02*
Y202205D01*
X80787Y200630D02*
X83937D01*
X79606Y174055D02*
X106378D01*
Y207126D01*
X79606D02*
X106378D01*
X79606Y174055D02*
Y207126D01*
X101147Y119944D02*
X107053D01*
X91305D02*
X97210D01*
X91305D02*
Y140810D01*
X107053Y119944D02*
Y140810D01*
X91305D02*
X107053D01*
X239055Y170118D02*
Y173661D01*
Y170118D02*
X287087D01*
Y224055D01*
X239449D02*
X287087D01*
X239449Y220512D02*
Y224055D01*
X30787Y315551D02*
Y362008D01*
X3228D02*
X30787D01*
X3228Y315551D02*
Y362008D01*
Y315551D02*
X4409D01*
X30787D01*
X33150Y285472D02*
Y289409D01*
X31181Y287441D02*
X35118D01*
X33150Y240984D02*
Y244921D01*
X31181Y242953D02*
X35118D01*
X235512Y337441D02*
Y363819D01*
Y365000D01*
X281968D01*
Y337441D02*
Y365000D01*
X235512Y337441D02*
X281968D01*
X185118D02*
Y363819D01*
Y365000D01*
X231575D01*
Y337441D02*
Y365000D01*
X185118Y337441D02*
X231575D01*
D11*
X338416Y52611D02*
G03*
X338416Y52611I-394J0D01*
G01*
X251475Y235366D02*
G03*
X251475Y235366I-394J0D01*
G01*
X205565D02*
G03*
X205565Y235366I-394J0D01*
G01*
X54950Y13647D02*
G03*
X54950Y13647I-394J0D01*
G01*
X51660Y120637D02*
G03*
X51660Y120637I-394J0D01*
G01*
D12*
X266153Y139931D02*
G03*
X266153Y139931I-394J0D01*
G01*
X145236Y92298D02*
G03*
X145236Y92298I-394J0D01*
G01*
X31268Y127480D02*
Y133228D01*
X28342Y130395D02*
X34090D01*
X69961Y327009D02*
X68649D01*
X69305D01*
Y330945D01*
X69961D01*
X68649D01*
X66681D02*
Y327009D01*
X64057Y330945D01*
Y327009D01*
X62745Y330945D02*
Y327009D01*
X60777D01*
X60122Y327665D01*
Y328977D01*
X60777Y329633D01*
X62745D01*
X58810Y327009D02*
Y330289D01*
X58154Y330945D01*
X56842D01*
X56186Y330289D01*
Y327009D01*
X54874D02*
X52250D01*
X53562D01*
Y330945D01*
X160511Y207715D02*
X159199D01*
X158543Y207059D01*
Y204435D01*
X159199Y203780D01*
X160511D01*
X161167Y204435D01*
Y207059D01*
X160511Y207715D01*
X162479D02*
Y204435D01*
X163135Y203780D01*
X164447D01*
X165103Y204435D01*
Y207715D01*
X166415D02*
X169039D01*
X167727D01*
Y203780D01*
X170351D02*
Y207715D01*
X172318D01*
X172974Y207059D01*
Y205747D01*
X172318Y205091D01*
X170351D01*
X174286Y207715D02*
Y204435D01*
X174942Y203780D01*
X176254D01*
X176910Y204435D01*
Y207715D01*
X178222D02*
X180846D01*
X179534D01*
Y203780D01*
D13*
X191165Y100343D02*
G03*
X191165Y100343I-138J0D01*
G01*
D14*
X278668Y148139D02*
G03*
X278668Y148139I-6J0D01*
G01*
X274095Y141209D02*
Y148139D01*
Y141209D02*
X278662D01*
Y147705D01*
X274095Y148139D02*
X278229D01*
X282917Y148169D02*
Y152539D01*
X280161Y148169D02*
X282917D01*
X280161D02*
Y152539D01*
X282917D01*
X250917Y27369D02*
Y31739D01*
X248161Y27369D02*
X250917D01*
X248161D02*
Y31739D01*
X250917D01*
D15*
X340184Y64493D02*
Y66855D01*
X332748Y56455D02*
X343771D01*
X332748D02*
Y60392D01*
X343771D01*
Y56455D02*
Y60392D01*
X332756Y41392D02*
X343780D01*
Y37455D02*
Y41392D01*
X332756Y37455D02*
X343780D01*
X332756D02*
Y41392D01*
X250405Y139538D02*
Y160010D01*
X266153D01*
Y142294D02*
Y160010D01*
X263397Y139538D02*
X266153Y142294D01*
X250405Y139538D02*
X263397D01*
X254210Y29949D02*
X258147D01*
X254210Y26799D02*
X258147D01*
X196860Y86899D02*
X200797D01*
X196860Y90049D02*
X200797D01*
X179586Y107303D02*
X183660Y113577D01*
X191656Y116130D02*
X193967Y114629D01*
X180506Y98960D02*
X182817Y97460D01*
X191456Y101003D02*
X194887Y106286D01*
X124967Y113706D02*
Y117642D01*
Y113706D02*
X135991D01*
Y117642D01*
X124967D02*
X135991D01*
X153727Y103284D02*
Y107221D01*
Y103284D02*
X164751D01*
Y107221D01*
X153727D02*
X164751D01*
X175967Y80405D02*
Y84342D01*
Y80405D02*
X186991D01*
Y84342D01*
X175967D02*
X186991D01*
X176017Y85606D02*
Y89543D01*
Y85606D02*
X187041D01*
Y89543D01*
X176017D02*
X187041D01*
X153727Y98166D02*
Y102102D01*
Y98166D02*
X164751D01*
Y102102D01*
X153727D02*
X164751D01*
X153727Y93047D02*
Y96984D01*
Y93047D02*
X164751D01*
Y96984D01*
X153727D02*
X164751D01*
X170567Y91106D02*
Y95043D01*
Y91106D02*
X181591Y91106D01*
Y95043D01*
X170567Y95043D02*
X181591Y95043D01*
X170117Y114005D02*
Y117943D01*
Y114005D02*
X181141Y114005D01*
Y117943D01*
X170117Y117943D02*
X181141Y117943D01*
X168310Y129599D02*
X172247D01*
X168310Y132749D02*
X172247D01*
X202467Y128443D02*
X213491D01*
Y124505D02*
Y128443D01*
X202467Y124505D02*
X213491D01*
X202467D02*
Y128443D01*
X214610Y137886D02*
X218547D01*
X214610Y126862D02*
Y137886D01*
Y126862D02*
X218547D01*
Y137886D01*
X237910Y139849D02*
X241847D01*
X237910Y136699D02*
X241847D01*
X230147Y139762D02*
Y150786D01*
X226210Y139762D02*
X230147D01*
X226210D02*
Y150786D01*
X230147D01*
X231210D02*
X235147D01*
X231210Y139762D02*
Y150786D01*
Y139762D02*
X235147D01*
Y150786D01*
X242114Y45390D02*
X243020D01*
Y33619D02*
Y45390D01*
X242114Y33619D02*
X243020D01*
X230461Y45430D02*
X231445D01*
X230461Y33658D02*
Y45430D01*
Y33658D02*
X231445D01*
X274410Y154439D02*
X278347D01*
X274410Y157589D02*
X278347D01*
X246547Y111512D02*
Y122536D01*
X242610Y111512D02*
X246547D01*
X242610D02*
Y122536D01*
X246547D01*
X255267Y101622D02*
Y105559D01*
Y101622D02*
X266290D01*
Y105559D01*
X255267D02*
X266290D01*
X255267Y106346D02*
Y110284D01*
Y106346D02*
X266290D01*
Y110284D01*
X255267D02*
X266290D01*
X245217Y93205D02*
Y97142D01*
Y93205D02*
X256241D01*
Y97142D01*
X245217D02*
X256241D01*
X241390Y76306D02*
Y80243D01*
X230367D02*
X241390D01*
X230367Y76306D02*
Y80243D01*
Y76306D02*
X241390D01*
X223110Y74386D02*
X227047D01*
X223110Y63362D02*
Y74386D01*
Y63362D02*
X227047D01*
Y74386D01*
X216110Y73886D02*
X220047D01*
X216110Y62862D02*
Y73886D01*
Y62862D02*
X220047D01*
Y73886D01*
X261888Y45891D02*
X265825D01*
X261888Y42742D02*
X265825D01*
X255195Y45891D02*
X259132D01*
X255195Y42742D02*
X259132D01*
X248108Y45891D02*
X252045D01*
X248108Y42742D02*
X252045D01*
X105347Y7362D02*
Y18386D01*
X101410Y7362D02*
X105347D01*
X101410D02*
Y18386D01*
X105347D01*
X141693Y92298D02*
X146417Y94660D01*
X129095Y92298D02*
X141693D01*
X146417Y94660D02*
Y112770D01*
X129095D02*
X146417D01*
X129095Y92298D02*
Y112770D01*
X131694Y86106D02*
Y90043D01*
X128544Y86106D02*
Y90043D01*
X235078Y225336D02*
Y229273D01*
Y225336D02*
X246102D01*
Y229273D01*
X235078D02*
X246102D01*
X248567Y225306D02*
Y229242D01*
Y225306D02*
X259591D01*
Y229242D01*
X248567D02*
X259591D01*
X28807Y8202D02*
X39830D01*
Y4265D02*
Y8202D01*
X28807Y4265D02*
X39830D01*
X28807D02*
Y8202D01*
X35913Y10635D02*
Y14572D01*
X32764Y10635D02*
Y14572D01*
X35913Y17935D02*
Y21872D01*
X32764Y17935D02*
Y21872D01*
X94067Y115206D02*
X105091D01*
X94067D02*
Y119142D01*
X105091D01*
Y115206D02*
Y119142D01*
X71117Y133389D02*
X75054D01*
X71117Y130239D02*
X75054D01*
X77810Y133389D02*
X81747D01*
X77810Y130239D02*
X81747D01*
X67590Y113906D02*
Y117842D01*
X56567D02*
X67590D01*
X56567Y113906D02*
Y117842D01*
Y113906D02*
X67590D01*
X74291Y17986D02*
Y21923D01*
X63267D02*
X74291D01*
X63267Y17986D02*
Y21923D01*
Y17986D02*
X74291D01*
X216140Y223302D02*
Y234326D01*
X220077D01*
Y223302D02*
Y234326D01*
X216140Y223302D02*
X220077D01*
X198067Y223605D02*
Y227542D01*
Y223605D02*
X209090D01*
Y227542D01*
X198067D02*
X209090D01*
X141128Y174949D02*
X145065D01*
X141128Y171799D02*
X145065D01*
X133710Y174949D02*
X137647D01*
X133710Y171799D02*
X137647D01*
X168394Y159166D02*
Y163102D01*
X165244Y159166D02*
Y163102D01*
X177141Y129599D02*
X181078D01*
X177141Y132749D02*
X181078D01*
X68846Y196831D02*
Y203917D01*
X52311D02*
X68846D01*
X52311Y196831D02*
Y203917D01*
Y196831D02*
X68846D01*
X42400Y8722D02*
Y19746D01*
X46337D01*
Y8722D02*
Y19746D01*
X42400Y8722D02*
X46337D01*
X49404Y134106D02*
Y138042D01*
X52553Y134106D02*
Y138042D01*
X359254Y89324D02*
X358926Y88996D01*
Y88340D01*
X359254Y88012D01*
X359581D01*
X359909Y88340D01*
Y88996D01*
X360237Y89324D01*
X360565D01*
X360893Y88996D01*
Y88340D01*
X360565Y88012D01*
X360893Y89980D02*
Y90636D01*
Y90308D01*
X358926D01*
X359254Y89980D01*
X346726Y64984D02*
X348693D01*
Y65968D01*
X348365Y66296D01*
X347054D01*
X346726Y65968D01*
Y64984D01*
Y68264D02*
X347054Y67608D01*
X347709Y66952D01*
X348365D01*
X348693Y67280D01*
Y67936D01*
X348365Y68264D01*
X348037D01*
X347709Y67936D01*
Y66952D01*
X348693Y55150D02*
X346726D01*
Y56134D01*
X347054Y56462D01*
X347709D01*
X348037Y56134D01*
Y55150D01*
Y55806D02*
X348693Y56462D01*
Y58430D02*
Y57118D01*
X347381Y58430D01*
X347054D01*
X346726Y58102D01*
Y57446D01*
X347054Y57118D01*
X348693Y60070D02*
X346726D01*
X347709Y59086D01*
Y60398D01*
X348365Y47846D02*
X347054D01*
X346726Y47518D01*
Y46862D01*
X347054Y46534D01*
X348365D01*
X348693Y46862D01*
Y47518D01*
X348037Y47190D02*
X348693Y47846D01*
Y47518D02*
X348365Y47846D01*
X346726Y49814D02*
Y48502D01*
X347709D01*
X347381Y49158D01*
Y49486D01*
X347709Y49814D01*
X348365D01*
X348693Y49486D01*
Y48830D01*
X348365Y48502D01*
X348693Y35500D02*
X346726D01*
Y36484D01*
X347054Y36812D01*
X347709D01*
X348037Y36484D01*
Y35500D01*
Y36156D02*
X348693Y36812D01*
Y38780D02*
Y37468D01*
X347381Y38780D01*
X347054D01*
X346726Y38452D01*
Y37796D01*
X347054Y37468D01*
Y39436D02*
X346726Y39764D01*
Y40420D01*
X347054Y40748D01*
X347381D01*
X347709Y40420D01*
Y40092D01*
Y40420D01*
X348037Y40748D01*
X348365D01*
X348693Y40420D01*
Y39764D01*
X348365Y39436D01*
X283154Y55749D02*
Y56405D01*
Y56077D01*
X281186D01*
X281514Y55749D01*
X253894Y11751D02*
Y11095D01*
Y11423D01*
X255534D01*
X255862Y11095D01*
Y10767D01*
X255534Y10439D01*
X254222Y12407D02*
X253894Y12734D01*
Y13390D01*
X254222Y13719D01*
X254550D01*
X254878Y13390D01*
Y13062D01*
Y13390D01*
X255206Y13719D01*
X255534D01*
X255862Y13390D01*
Y12734D01*
X255534Y12407D01*
X283691Y5984D02*
Y6312D01*
X283363Y6640D01*
X281723D01*
X281395Y7952D02*
X281067Y8280D01*
Y8936D01*
X281395Y9264D01*
X281723D01*
X282051Y8936D01*
X282379Y9264D01*
X282707D01*
X283035Y8936D01*
Y8280D01*
X282707Y7952D01*
X282379D01*
X282051Y8280D01*
X281723Y7952D01*
X281395D01*
X282051Y8280D02*
Y8936D01*
X25373Y19596D02*
X25045Y19268D01*
Y18612D01*
X25373Y18284D01*
X26685D01*
X27013Y18612D01*
Y19268D01*
X26685Y19596D01*
X27013Y21236D02*
X25045D01*
X26029Y20252D01*
Y21564D01*
X25523Y5646D02*
X25195Y5318D01*
Y4662D01*
X25523Y4334D01*
X26835D01*
X27163Y4662D01*
Y5318D01*
X26835Y5646D01*
X25195Y7614D02*
Y6302D01*
X26179D01*
X25851Y6958D01*
Y7286D01*
X26179Y7614D01*
X26835D01*
X27163Y7286D01*
Y6630D01*
X26835Y6302D01*
X25473Y12196D02*
X25145Y11868D01*
Y11212D01*
X25473Y10884D01*
X26785D01*
X27113Y11212D01*
Y11868D01*
X26785Y12196D01*
X25473Y12852D02*
X25145Y13180D01*
Y13836D01*
X25473Y14164D01*
X25801D01*
X26129Y13836D01*
Y13508D01*
Y13836D01*
X26457Y14164D01*
X26785D01*
X27113Y13836D01*
Y13180D01*
X26785Y12852D01*
X198945Y105812D02*
X199273D01*
X199929Y106468D01*
X199273Y107124D01*
X198945D01*
X199929Y106468D02*
X200913D01*
Y107780D02*
Y108436D01*
Y108108D01*
X198945D01*
X199273Y107780D01*
X275295Y136284D02*
X275623D01*
X276279Y136940D01*
X275623Y137596D01*
X275295D01*
X276279Y136940D02*
X277263D01*
Y139564D02*
Y138252D01*
X275951Y139564D01*
X275623D01*
X275295Y139236D01*
Y138580D01*
X275623Y138252D01*
X20893Y24803D02*
Y23163D01*
X21221Y22835D01*
X21877D01*
X22205Y23163D01*
Y24803D01*
X22861Y22835D02*
X23517D01*
X23189D01*
Y24803D01*
X22861Y24475D01*
X237695Y85234D02*
X239335D01*
X239663Y85562D01*
Y86218D01*
X239335Y86546D01*
X237695D01*
Y88514D02*
Y87202D01*
X238679D01*
X238351Y87858D01*
Y88186D01*
X238679Y88514D01*
X239335D01*
X239663Y88186D01*
Y87530D01*
X239335Y87202D01*
X267945Y160984D02*
X269585D01*
X269913Y161312D01*
Y161968D01*
X269585Y162296D01*
X267945D01*
Y164264D02*
X268273Y163608D01*
X268929Y162952D01*
X269585D01*
X269913Y163280D01*
Y163936D01*
X269585Y164264D01*
X269257D01*
X268929Y163936D01*
Y162952D01*
X227095Y38434D02*
X228735D01*
X229063Y38762D01*
Y39418D01*
X228735Y39746D01*
X227095D01*
X229063Y41386D02*
X227095D01*
X228079Y40402D01*
Y41714D01*
X170795Y193584D02*
X172435D01*
X172763Y193912D01*
Y194568D01*
X172435Y194896D01*
X170795D01*
X171123Y195552D02*
X170795Y195880D01*
Y196536D01*
X171123Y196864D01*
X171451D01*
X171779Y196536D01*
Y196208D01*
Y196536D01*
X172107Y196864D01*
X172435D01*
X172763Y196536D01*
Y195880D01*
X172435Y195552D01*
X110006Y115534D02*
X111646D01*
X111974Y115862D01*
Y116518D01*
X111646Y116846D01*
X110006D01*
X111974Y118814D02*
Y117502D01*
X110662Y118814D01*
X110334D01*
X110006Y118486D01*
Y117830D01*
X110334Y117502D01*
X143123Y7590D02*
X142795Y7262D01*
Y6606D01*
X143123Y6278D01*
X143451D01*
X143779Y6606D01*
Y7262D01*
X144107Y7590D01*
X144435D01*
X144763Y7262D01*
Y6606D01*
X144435Y6278D01*
X142795Y8246D02*
X144763D01*
X144107Y8902D01*
X144763Y9558D01*
X142795D01*
X144763Y10214D02*
Y10870D01*
Y10542D01*
X142795D01*
X143123Y10214D01*
X150013Y113878D02*
X148045D01*
Y114862D01*
X148373Y115190D01*
X149029D01*
X149357Y114862D01*
Y113878D01*
Y114534D02*
X150013Y115190D01*
X148045Y115846D02*
Y117158D01*
Y116502D01*
X150013D01*
Y117814D02*
Y118470D01*
Y118142D01*
X148045D01*
X148373Y117814D01*
X279605Y327990D02*
Y329958D01*
X280589D01*
X280917Y329630D01*
Y328974D01*
X280589Y328646D01*
X279605D01*
X280261D02*
X280917Y327990D01*
X281573Y329958D02*
Y327990D01*
X282885D01*
X284853D02*
X283541D01*
X284853Y329302D01*
Y329630D01*
X284525Y329958D01*
X283869D01*
X283541Y329630D01*
X229283Y327990D02*
Y329958D01*
X230267D01*
X230595Y329630D01*
Y328974D01*
X230267Y328646D01*
X229283D01*
X229939D02*
X230595Y327990D01*
X231251Y329958D02*
Y327990D01*
X232563D01*
X233219D02*
X233875D01*
X233547D01*
Y329958D01*
X233219Y329630D01*
X77913Y18234D02*
X75945D01*
Y19218D01*
X76273Y19546D01*
X76929D01*
X77257Y19218D01*
Y18234D01*
Y18890D02*
X77913Y19546D01*
Y21186D02*
X75945D01*
X76929Y20202D01*
Y21514D01*
X45263Y3134D02*
X43295D01*
Y4118D01*
X43623Y4446D01*
X44279D01*
X44607Y4118D01*
Y3134D01*
Y3790D02*
X45263Y4446D01*
Y6414D02*
Y5102D01*
X43951Y6414D01*
X43623D01*
X43295Y6086D01*
Y5430D01*
X43623Y5102D01*
X71213Y113684D02*
X69245D01*
Y114668D01*
X69573Y114996D01*
X70229D01*
X70557Y114668D01*
Y113684D01*
Y114340D02*
X71213Y114996D01*
X69573Y115652D02*
X69245Y115980D01*
Y116636D01*
X69573Y116964D01*
X69901D01*
X70229Y116636D01*
Y116308D01*
Y116636D01*
X70557Y116964D01*
X70885D01*
X71213Y116636D01*
Y115980D01*
X70885Y115652D01*
X166969Y99290D02*
Y101258D01*
X167953D01*
X168281Y100930D01*
Y100274D01*
X167953Y99946D01*
X166969D01*
X167625D02*
X168281Y99290D01*
X168937D02*
X169593D01*
X169265D01*
Y101258D01*
X168937Y100930D01*
X170577Y99618D02*
X170905Y99290D01*
X171561D01*
X171889Y99618D01*
Y100930D01*
X171561Y101258D01*
X170905D01*
X170577Y100930D01*
Y100602D01*
X170905Y100274D01*
X171889D01*
X159763Y109664D02*
X157795D01*
Y110648D01*
X158123Y110976D01*
X158779D01*
X159107Y110648D01*
Y109664D01*
Y110320D02*
X159763Y110976D01*
Y111632D02*
Y112288D01*
Y111960D01*
X157795D01*
X158123Y111632D01*
Y113272D02*
X157795Y113600D01*
Y114256D01*
X158123Y114584D01*
X158451D01*
X158779Y114256D01*
X159107Y114584D01*
X159435D01*
X159763Y114256D01*
Y113600D01*
X159435Y113272D01*
X159107D01*
X158779Y113600D01*
X158451Y113272D01*
X158123D01*
X158779Y113600D02*
Y114256D01*
X122613Y113850D02*
X120645D01*
Y114834D01*
X120973Y115162D01*
X121629D01*
X121957Y114834D01*
Y113850D01*
Y114506D02*
X122613Y115162D01*
Y117130D02*
Y115818D01*
X121301Y117130D01*
X120973D01*
X120645Y116802D01*
Y116146D01*
X120973Y115818D01*
X122613Y119098D02*
Y117786D01*
X121301Y119098D01*
X120973D01*
X120645Y118770D01*
Y118114D01*
X120973Y117786D01*
X159963Y84800D02*
X157995D01*
Y85784D01*
X158323Y86112D01*
X158979D01*
X159307Y85784D01*
Y84800D01*
Y85456D02*
X159963Y86112D01*
Y88080D02*
Y86768D01*
X158651Y88080D01*
X158323D01*
X157995Y87752D01*
Y87096D01*
X158323Y86768D01*
Y88736D02*
X157995Y89064D01*
Y89720D01*
X158323Y90048D01*
X159635D01*
X159963Y89720D01*
Y89064D01*
X159635Y88736D01*
X158323D01*
X259119Y94090D02*
Y96058D01*
X260103D01*
X260431Y95730D01*
Y95074D01*
X260103Y94746D01*
X259119D01*
X259775D02*
X260431Y94090D01*
X261087D02*
X261743D01*
X261415D01*
Y96058D01*
X261087Y95730D01*
X264039Y94090D02*
X262727D01*
X264039Y95402D01*
Y95730D01*
X263711Y96058D01*
X263055D01*
X262727Y95730D01*
X217863Y139834D02*
X215895D01*
Y140818D01*
X216223Y141146D01*
X216879D01*
X217207Y140818D01*
Y139834D01*
Y140490D02*
X217863Y141146D01*
X217535Y141802D02*
X217863Y142130D01*
Y142786D01*
X217535Y143114D01*
X216223D01*
X215895Y142786D01*
Y142130D01*
X216223Y141802D01*
X216551D01*
X216879Y142130D01*
Y143114D01*
X191013Y80584D02*
X189045D01*
Y81568D01*
X189373Y81896D01*
X190029D01*
X190357Y81568D01*
Y80584D01*
Y81240D02*
X191013Y81896D01*
X189045Y82552D02*
Y83864D01*
X189373D01*
X190685Y82552D01*
X191013D01*
X219113Y76184D02*
X217145D01*
Y77168D01*
X217473Y77496D01*
X218129D01*
X218457Y77168D01*
Y76184D01*
Y76840D02*
X219113Y77496D01*
X217473Y78152D02*
X217145Y78480D01*
Y79136D01*
X217473Y79464D01*
X217801D01*
X218129Y79136D01*
X218457Y79464D01*
X218785D01*
X219113Y79136D01*
Y78480D01*
X218785Y78152D01*
X218457D01*
X218129Y78480D01*
X217801Y78152D01*
X217473D01*
X218129Y78480D02*
Y79136D01*
X269963Y109164D02*
X267995D01*
Y110148D01*
X268323Y110476D01*
X268979D01*
X269307Y110148D01*
Y109164D01*
Y109820D02*
X269963Y110476D01*
Y111132D02*
Y111788D01*
Y111460D01*
X267995D01*
X268323Y111132D01*
X269963Y113756D02*
X267995D01*
X268979Y112772D01*
Y114084D01*
X270263Y97764D02*
X268295D01*
Y98748D01*
X268623Y99076D01*
X269279D01*
X269607Y98748D01*
Y97764D01*
Y98420D02*
X270263Y99076D01*
Y99732D02*
Y100388D01*
Y100060D01*
X268295D01*
X268623Y99732D01*
Y101372D02*
X268295Y101700D01*
Y102356D01*
X268623Y102684D01*
X268951D01*
X269279Y102356D01*
Y102028D01*
Y102356D01*
X269607Y102684D01*
X269935D01*
X270263Y102356D01*
Y101700D01*
X269935Y101372D01*
X234213Y152742D02*
X232245D01*
Y153726D01*
X232573Y154054D01*
X233229D01*
X233557Y153726D01*
Y152742D01*
Y153398D02*
X234213Y154054D01*
Y154710D02*
Y155366D01*
Y155038D01*
X232245D01*
X232573Y154710D01*
X234213Y156350D02*
Y157006D01*
Y156678D01*
X232245D01*
X232573Y156350D01*
X228617Y153063D02*
X226649D01*
Y154047D01*
X226977Y154375D01*
X227633D01*
X227961Y154047D01*
Y153063D01*
Y153719D02*
X228617Y154375D01*
Y155031D02*
Y155687D01*
Y155359D01*
X226649D01*
X226977Y155031D01*
Y156671D02*
X226649Y156999D01*
Y157655D01*
X226977Y157983D01*
X228289D01*
X228617Y157655D01*
Y156999D01*
X228289Y156671D01*
X226977D01*
X226593Y76653D02*
X224625D01*
Y77637D01*
X224953Y77965D01*
X225609D01*
X225937Y77637D01*
Y76653D01*
Y77309D02*
X226593Y77965D01*
X224625Y79933D02*
X224953Y79277D01*
X225609Y78621D01*
X226265D01*
X226593Y78949D01*
Y79605D01*
X226265Y79933D01*
X225937D01*
X225609Y79605D01*
Y78621D01*
X104413Y20134D02*
X102445D01*
Y21118D01*
X102773Y21446D01*
X103429D01*
X103757Y21118D01*
Y20134D01*
Y20790D02*
X104413Y21446D01*
X102445Y23414D02*
Y22102D01*
X103429D01*
X103101Y22758D01*
Y23086D01*
X103429Y23414D01*
X104085D01*
X104413Y23086D01*
Y22430D01*
X104085Y22102D01*
X264463Y226928D02*
X262495D01*
Y227912D01*
X262823Y228240D01*
X263479D01*
X263807Y227912D01*
Y226928D01*
Y227584D02*
X264463Y228240D01*
Y230208D02*
Y228896D01*
X263151Y230208D01*
X262823D01*
X262495Y229880D01*
Y229224D01*
X262823Y228896D01*
X264463Y230864D02*
Y231520D01*
Y231192D01*
X262495D01*
X262823Y230864D01*
X223913Y226264D02*
X221945D01*
Y227248D01*
X222273Y227576D01*
X222929D01*
X223257Y227248D01*
Y226264D01*
Y226920D02*
X223913Y227576D01*
Y228232D02*
Y228888D01*
Y228560D01*
X221945D01*
X222273Y228232D01*
X221945Y231184D02*
X222273Y230528D01*
X222929Y229872D01*
X223585D01*
X223913Y230200D01*
Y230856D01*
X223585Y231184D01*
X223257D01*
X222929Y230856D01*
Y229872D01*
X233363Y224864D02*
X231395D01*
Y225848D01*
X231723Y226176D01*
X232379D01*
X232707Y225848D01*
Y224864D01*
Y225520D02*
X233363Y226176D01*
Y226832D02*
Y227488D01*
Y227160D01*
X231395D01*
X231723Y226832D01*
X231395Y228472D02*
Y229784D01*
X231723D01*
X233035Y228472D01*
X233363D01*
X212463Y222364D02*
X210495D01*
Y223348D01*
X210823Y223676D01*
X211479D01*
X211807Y223348D01*
Y222364D01*
Y223020D02*
X212463Y223676D01*
Y224332D02*
Y224988D01*
Y224660D01*
X210495D01*
X210823Y224332D01*
X210495Y227284D02*
Y225972D01*
X211479D01*
X211151Y226628D01*
Y226956D01*
X211479Y227284D01*
X212135D01*
X212463Y226956D01*
Y226300D01*
X212135Y225972D01*
X149263Y353462D02*
X147295D01*
Y354446D01*
X147623Y354774D01*
X148279D01*
X148607Y354446D01*
Y353462D01*
Y354118D02*
X149263Y354774D01*
Y355430D02*
Y356086D01*
Y355758D01*
X147295D01*
X147623Y355430D01*
X62585Y13546D02*
X61273D01*
X60945Y13218D01*
Y12562D01*
X61273Y12234D01*
X62585D01*
X62913Y12562D01*
Y13218D01*
X62257Y12890D02*
X62913Y13546D01*
Y13218D02*
X62585Y13546D01*
X62913Y15514D02*
Y14202D01*
X61601Y15514D01*
X61273D01*
X60945Y15186D01*
Y14530D01*
X61273Y14202D01*
X59685Y125074D02*
X58373D01*
X58045Y124746D01*
Y124090D01*
X58373Y123762D01*
X59685D01*
X60013Y124090D01*
Y124746D01*
X59357Y124418D02*
X60013Y125074D01*
Y124746D02*
X59685Y125074D01*
X60013Y125730D02*
Y126386D01*
Y126058D01*
X58045D01*
X58373Y125730D01*
X260635Y241546D02*
X259323D01*
X258995Y241218D01*
Y240562D01*
X259323Y240234D01*
X260635D01*
X260963Y240562D01*
Y241218D01*
X260307Y240890D02*
X260963Y241546D01*
Y241218D02*
X260635Y241546D01*
X260963Y243186D02*
X258995D01*
X259979Y242202D01*
Y243514D01*
X214351Y240368D02*
Y241680D01*
X214023Y242008D01*
X213367D01*
X213039Y241680D01*
Y240368D01*
X213367Y240040D01*
X214023D01*
X213695Y240696D02*
X214351Y240040D01*
X214023D02*
X214351Y240368D01*
X215007Y241680D02*
X215335Y242008D01*
X215991D01*
X216319Y241680D01*
Y241352D01*
X215991Y241024D01*
X215663D01*
X215991D01*
X216319Y240696D01*
Y240368D01*
X215991Y240040D01*
X215335D01*
X215007Y240368D01*
X234645Y169546D02*
Y168890D01*
Y169218D01*
X236285D01*
X236613Y168890D01*
Y168562D01*
X236285Y168234D01*
X234645Y171514D02*
X234973Y170858D01*
X235629Y170202D01*
X236285D01*
X236613Y170530D01*
Y171186D01*
X236285Y171514D01*
X235957D01*
X235629Y171186D01*
Y170202D01*
X285251Y346558D02*
X284595D01*
X284923D01*
Y344918D01*
X284595Y344590D01*
X284267D01*
X283939Y344918D01*
X285907Y346558D02*
X287219D01*
Y346230D01*
X285907Y344918D01*
Y344590D01*
X178491Y346558D02*
X177835D01*
X178163D01*
Y344918D01*
X177835Y344590D01*
X177507D01*
X177179Y344918D01*
X180459Y346558D02*
X179147D01*
Y345574D01*
X179803Y345902D01*
X180131D01*
X180459Y345574D01*
Y344918D01*
X180131Y344590D01*
X179475D01*
X179147Y344918D01*
X208245Y41846D02*
Y41190D01*
Y41518D01*
X209885D01*
X210213Y41190D01*
Y40862D01*
X209885Y40534D01*
X210213Y43486D02*
X208245D01*
X209229Y42502D01*
Y43814D01*
X37045Y150524D02*
Y149868D01*
Y150196D01*
X38685D01*
X39013Y149868D01*
Y149540D01*
X38685Y149212D01*
X39013Y151180D02*
Y151836D01*
Y151508D01*
X37045D01*
X37373Y151180D01*
X33045Y328796D02*
Y328140D01*
Y328468D01*
X34685D01*
X35013Y328140D01*
Y327812D01*
X34685Y327484D01*
X35013Y330764D02*
Y329452D01*
X33701Y330764D01*
X33373D01*
X33045Y330436D01*
Y329780D01*
X33373Y329452D01*
X61395Y193474D02*
Y192162D01*
X62379D01*
Y192818D01*
Y192162D01*
X63363D01*
Y194130D02*
Y194786D01*
Y194458D01*
X61395D01*
X61723Y194130D01*
X280495Y142734D02*
X282463D01*
Y143718D01*
X282135Y144046D01*
X280823D01*
X280495Y143718D01*
Y142734D01*
Y146014D02*
Y144702D01*
X281479D01*
X281151Y145358D01*
Y145686D01*
X281479Y146014D01*
X282135D01*
X282463Y145686D01*
Y145030D01*
X282135Y144702D01*
X147395Y133212D02*
X149363D01*
Y134196D01*
X149035Y134524D01*
X147723D01*
X147395Y134196D01*
Y133212D01*
X149363Y135180D02*
Y135836D01*
Y135508D01*
X147395D01*
X147723Y135180D01*
X248545Y22384D02*
X250513D01*
Y23368D01*
X250185Y23696D01*
X248873D01*
X248545Y23368D01*
Y22384D01*
X250513Y25664D02*
Y24352D01*
X249201Y25664D01*
X248873D01*
X248545Y25336D01*
Y24680D01*
X248873Y24352D01*
X276495Y237584D02*
X278463D01*
Y238568D01*
X278135Y238896D01*
X276823D01*
X276495Y238568D01*
Y237584D01*
X278463Y240536D02*
X276495D01*
X277479Y239552D01*
Y240864D01*
X194095Y232284D02*
X196063D01*
Y233268D01*
X195735Y233596D01*
X194423D01*
X194095Y233268D01*
Y232284D01*
X194423Y234252D02*
X194095Y234580D01*
Y235236D01*
X194423Y235564D01*
X194751D01*
X195079Y235236D01*
Y234908D01*
Y235236D01*
X195407Y235564D01*
X195735D01*
X196063Y235236D01*
Y234580D01*
X195735Y234252D01*
X58373Y135596D02*
X58045Y135268D01*
Y134612D01*
X58373Y134284D01*
X59685D01*
X60013Y134612D01*
Y135268D01*
X59685Y135596D01*
X58045Y137564D02*
X58373Y136908D01*
X59029Y136252D01*
X59685D01*
X60013Y136580D01*
Y137236D01*
X59685Y137564D01*
X59357D01*
X59029Y137236D01*
Y136252D01*
X243273Y76162D02*
X242945Y75834D01*
Y75178D01*
X243273Y74850D01*
X244585D01*
X244913Y75178D01*
Y75834D01*
X244585Y76162D01*
X244913Y78130D02*
Y76818D01*
X243601Y78130D01*
X243273D01*
X242945Y77802D01*
Y77146D01*
X243273Y76818D01*
Y78786D02*
X242945Y79114D01*
Y79770D01*
X243273Y80098D01*
X243601D01*
X243929Y79770D01*
Y79442D01*
Y79770D01*
X244257Y80098D01*
X244585D01*
X244913Y79770D01*
Y79114D01*
X244585Y78786D01*
X199373Y125590D02*
X199045Y125262D01*
Y124606D01*
X199373Y124278D01*
X200685D01*
X201013Y124606D01*
Y125262D01*
X200685Y125590D01*
X201013Y127558D02*
Y126246D01*
X199701Y127558D01*
X199373D01*
X199045Y127230D01*
Y126574D01*
X199373Y126246D01*
X201013Y128214D02*
Y128870D01*
Y128542D01*
X199045D01*
X199373Y128214D01*
X248713Y115654D02*
X248385Y115326D01*
Y114670D01*
X248713Y114342D01*
X250025D01*
X250353Y114670D01*
Y115326D01*
X250025Y115654D01*
X250353Y117622D02*
Y116310D01*
X249041Y117622D01*
X248713D01*
X248385Y117294D01*
Y116638D01*
X248713Y116310D01*
X250353Y119262D02*
X248385D01*
X249369Y118278D01*
Y119590D01*
X169273Y140926D02*
X168945Y140598D01*
Y139942D01*
X169273Y139614D01*
X170585D01*
X170913Y139942D01*
Y140598D01*
X170585Y140926D01*
X170913Y141582D02*
Y142238D01*
Y141910D01*
X168945D01*
X169273Y141582D01*
X170585Y143222D02*
X170913Y143550D01*
Y144206D01*
X170585Y144534D01*
X169273D01*
X168945Y144206D01*
Y143550D01*
X169273Y143222D01*
X169601D01*
X169929Y143550D01*
Y144534D01*
X197973Y97712D02*
X197645Y97384D01*
Y96728D01*
X197973Y96400D01*
X199285D01*
X199613Y96728D01*
Y97384D01*
X199285Y97712D01*
X199613Y99680D02*
Y98368D01*
X198301Y99680D01*
X197973D01*
X197645Y99352D01*
Y98696D01*
X197973Y98368D01*
Y100336D02*
X197645Y100664D01*
Y101320D01*
X197973Y101648D01*
X199285D01*
X199613Y101320D01*
Y100664D01*
X199285Y100336D01*
X197973D01*
X137573Y85262D02*
X137245Y84934D01*
Y84278D01*
X137573Y83950D01*
X138885D01*
X139213Y84278D01*
Y84934D01*
X138885Y85262D01*
X137573Y85918D02*
X137245Y86246D01*
Y86902D01*
X137573Y87230D01*
X137901D01*
X138229Y86902D01*
Y86574D01*
Y86902D01*
X138557Y87230D01*
X138885D01*
X139213Y86902D01*
Y86246D01*
X138885Y85918D01*
X137573Y87886D02*
X137245Y88214D01*
Y88870D01*
X137573Y89198D01*
X138885D01*
X139213Y88870D01*
Y88214D01*
X138885Y87886D01*
X137573D01*
X189981Y88430D02*
X189653Y88758D01*
X188997D01*
X188669Y88430D01*
Y87118D01*
X188997Y86790D01*
X189653D01*
X189981Y87118D01*
X190637Y86790D02*
X191293D01*
X190965D01*
Y88758D01*
X190637Y88430D01*
X193589Y88758D02*
X192933Y88430D01*
X192277Y87774D01*
Y87118D01*
X192605Y86790D01*
X193261D01*
X193589Y87118D01*
Y87446D01*
X193261Y87774D01*
X192277D01*
X239173Y147612D02*
X238845Y147284D01*
Y146628D01*
X239173Y146300D01*
X240485D01*
X240813Y146628D01*
Y147284D01*
X240485Y147612D01*
X240813Y149580D02*
Y148268D01*
X239501Y149580D01*
X239173D01*
X238845Y149252D01*
Y148596D01*
X239173Y148268D01*
X238845Y151548D02*
Y150236D01*
X239829D01*
X239501Y150892D01*
Y151220D01*
X239829Y151548D01*
X240485D01*
X240813Y151220D01*
Y150564D01*
X240485Y150236D01*
X280673Y157662D02*
X280345Y157334D01*
Y156678D01*
X280673Y156350D01*
X281985D01*
X282313Y156678D01*
Y157334D01*
X281985Y157662D01*
X282313Y159630D02*
Y158318D01*
X281001Y159630D01*
X280673D01*
X280345Y159302D01*
Y158646D01*
X280673Y158318D01*
Y160286D02*
X280345Y160614D01*
Y161270D01*
X280673Y161598D01*
X281001D01*
X281329Y161270D01*
X281657Y161598D01*
X281985D01*
X282313Y161270D01*
Y160614D01*
X281985Y160286D01*
X281657D01*
X281329Y160614D01*
X281001Y160286D01*
X280673D01*
X281329Y160614D02*
Y161270D01*
X225623Y203662D02*
X225295Y203334D01*
Y202678D01*
X225623Y202350D01*
X226935D01*
X227263Y202678D01*
Y203334D01*
X226935Y203662D01*
X227263Y205630D02*
Y204318D01*
X225951Y205630D01*
X225623D01*
X225295Y205302D01*
Y204646D01*
X225623Y204318D01*
X227263Y207598D02*
Y206286D01*
X225951Y207598D01*
X225623D01*
X225295Y207270D01*
Y206614D01*
X225623Y206286D01*
X185531Y93030D02*
X185203Y93358D01*
X184547D01*
X184219Y93030D01*
Y91718D01*
X184547Y91390D01*
X185203D01*
X185531Y91718D01*
X186187Y91390D02*
X186843D01*
X186515D01*
Y93358D01*
X186187Y93030D01*
X188811Y91390D02*
Y93358D01*
X187827Y92374D01*
X189139D01*
X166773Y114626D02*
X166445Y114298D01*
Y113642D01*
X166773Y113314D01*
X168085D01*
X168413Y113642D01*
Y114298D01*
X168085Y114626D01*
X168413Y115282D02*
Y115938D01*
Y115610D01*
X166445D01*
X166773Y115282D01*
Y116922D02*
X166445Y117250D01*
Y117906D01*
X166773Y118234D01*
X167101D01*
X167429Y117906D01*
Y117578D01*
Y117906D01*
X167757Y118234D01*
X168085D01*
X168413Y117906D01*
Y117250D01*
X168085Y116922D01*
X178173Y140726D02*
X177845Y140398D01*
Y139742D01*
X178173Y139414D01*
X179485D01*
X179813Y139742D01*
Y140398D01*
X179485Y140726D01*
X179813Y141382D02*
Y142038D01*
Y141710D01*
X177845D01*
X178173Y141382D01*
X177845Y143022D02*
Y144334D01*
X178173D01*
X179485Y143022D01*
X179813D01*
X155041Y161593D02*
X154713Y161921D01*
X154057D01*
X153729Y161593D01*
Y160281D01*
X154057Y159953D01*
X154713D01*
X155041Y160281D01*
X155697Y159953D02*
X156353D01*
X156025D01*
Y161921D01*
X155697Y161593D01*
X157337D02*
X157665Y161921D01*
X158321D01*
X158649Y161593D01*
Y161265D01*
X158321Y160937D01*
X158649Y160609D01*
Y160281D01*
X158321Y159953D01*
X157665D01*
X157337Y160281D01*
Y160609D01*
X157665Y160937D01*
X157337Y161265D01*
Y161593D01*
X157665Y160937D02*
X158321D01*
X134723Y161676D02*
X134395Y161348D01*
Y160692D01*
X134723Y160364D01*
X136035D01*
X136363Y160692D01*
Y161348D01*
X136035Y161676D01*
X136363Y162332D02*
Y162988D01*
Y162660D01*
X134395D01*
X134723Y162332D01*
X136363Y165284D02*
Y163972D01*
X135051Y165284D01*
X134723D01*
X134395Y164956D01*
Y164300D01*
X134723Y163972D01*
X142573Y161676D02*
X142245Y161348D01*
Y160692D01*
X142573Y160364D01*
X143885D01*
X144213Y160692D01*
Y161348D01*
X143885Y161676D01*
X144213Y162332D02*
Y162988D01*
Y162660D01*
X142245D01*
X142573Y162332D01*
X142245Y165284D02*
Y163972D01*
X143229D01*
X142901Y164628D01*
Y164956D01*
X143229Y165284D01*
X143885D01*
X144213Y164956D01*
Y164300D01*
X143885Y163972D01*
X263323Y52962D02*
X262995Y52634D01*
Y51978D01*
X263323Y51650D01*
X264635D01*
X264963Y51978D01*
Y52634D01*
X264635Y52962D01*
X264963Y54930D02*
Y53618D01*
X263651Y54930D01*
X263323D01*
X262995Y54602D01*
Y53946D01*
X263323Y53618D01*
X264635Y55586D02*
X264963Y55914D01*
Y56570D01*
X264635Y56898D01*
X263323D01*
X262995Y56570D01*
Y55914D01*
X263323Y55586D01*
X263651D01*
X263979Y55914D01*
Y56898D01*
X256573Y53212D02*
X256245Y52884D01*
Y52228D01*
X256573Y51900D01*
X257885D01*
X258213Y52228D01*
Y52884D01*
X257885Y53212D01*
X258213Y55180D02*
Y53868D01*
X256901Y55180D01*
X256573D01*
X256245Y54852D01*
Y54196D01*
X256573Y53868D01*
X256245Y55836D02*
Y57148D01*
X256573D01*
X257885Y55836D01*
X258213D01*
X249073Y53362D02*
X248745Y53034D01*
Y52378D01*
X249073Y52050D01*
X250385D01*
X250713Y52378D01*
Y53034D01*
X250385Y53362D01*
X250713Y55330D02*
Y54018D01*
X249401Y55330D01*
X249073D01*
X248745Y55002D01*
Y54346D01*
X249073Y54018D01*
X248745Y57298D02*
X249073Y56642D01*
X249729Y55986D01*
X250385D01*
X250713Y56314D01*
Y56970D01*
X250385Y57298D01*
X250057D01*
X249729Y56970D01*
Y55986D01*
X260973Y28004D02*
X260645Y27676D01*
Y27020D01*
X260973Y26692D01*
X262285D01*
X262613Y27020D01*
Y27676D01*
X262285Y28004D01*
X262613Y28660D02*
Y29316D01*
Y28988D01*
X260645D01*
X260973Y28660D01*
X262613Y30300D02*
Y30956D01*
Y30628D01*
X260645D01*
X260973Y30300D01*
X105923Y164846D02*
X105595Y164518D01*
Y163862D01*
X105923Y163534D01*
X107235D01*
X107563Y163862D01*
Y164518D01*
X107235Y164846D01*
X105923Y165502D02*
X105595Y165830D01*
Y166486D01*
X105923Y166814D01*
X106251D01*
X106579Y166486D01*
X106907Y166814D01*
X107235D01*
X107563Y166486D01*
Y165830D01*
X107235Y165502D01*
X106907D01*
X106579Y165830D01*
X106251Y165502D01*
X105923D01*
X106579Y165830D02*
Y166486D01*
X42123Y231474D02*
X41795Y231146D01*
Y230490D01*
X42123Y230162D01*
X43435D01*
X43763Y230490D01*
Y231146D01*
X43435Y231474D01*
X43763Y232130D02*
Y232786D01*
Y232458D01*
X41795D01*
X42123Y232130D01*
X42123Y275846D02*
X41795Y275518D01*
Y274862D01*
X42123Y274534D01*
X43435D01*
X43763Y274862D01*
Y275518D01*
X43435Y275846D01*
X43763Y277814D02*
Y276502D01*
X42451Y277814D01*
X42123D01*
X41795Y277486D01*
Y276830D01*
X42123Y276502D01*
X3245Y135478D02*
X5213D01*
Y136462D01*
X4885Y136790D01*
X4557D01*
X4229Y136462D01*
Y135478D01*
Y136462D01*
X3901Y136790D01*
X3573D01*
X3245Y136462D01*
Y135478D01*
Y137446D02*
Y138758D01*
X3573D01*
X4885Y137446D01*
X5213D01*
Y138758D01*
Y139414D02*
Y140070D01*
Y139742D01*
X3245D01*
X3573Y139414D01*
D16*
X358320Y14902D02*
X363988D01*
X358438Y16910D02*
X363988D01*
X354896Y20688D02*
X364578D01*
X376976Y13190D02*
X381227D01*
X358320Y25234D02*
X365700D01*
X361213Y29485D02*
X366704D01*
X358674Y18090D02*
X364106D01*
X374379Y17913D02*
X379279D01*
X376150Y13722D02*
X382290D01*
X358379Y16142D02*
X363929D01*
X358969Y19566D02*
X364401D01*
X373729Y27123D02*
X378748D01*
X368888Y17972D02*
X372607D01*
X355368Y22341D02*
X364991D01*
X372430Y24585D02*
X378925D01*
X359914Y27360D02*
X366290D01*
X374320Y18327D02*
X379220D01*
X358615Y25588D02*
X365818D01*
X370423Y20629D02*
X373847D01*
X366940Y15138D02*
X371131D01*
X359029Y11360D02*
X368416D01*
X358320Y14489D02*
X364047D01*
X354955Y20570D02*
X359029D01*
Y19862D02*
X364460D01*
X372135Y23935D02*
X378925D01*
X356372Y23168D02*
X365169D01*
X370482Y20806D02*
X373965D01*
X383471Y18917D02*
X384651D01*
X357611Y24408D02*
X365523D01*
X358320Y15552D02*
X363929D01*
X360859Y28835D02*
X366585D01*
X359383Y10711D02*
X367766D01*
X376032Y13840D02*
X382467D01*
X358556Y17677D02*
X364047D01*
X362571Y32260D02*
X366349D01*
X367707Y16201D02*
X371722D01*
X375323Y14725D02*
X383530D01*
X359973Y9943D02*
X366881D01*
X375264Y14784D02*
X383589D01*
X368829Y17913D02*
X372607D01*
X374261Y20511D02*
X379043D01*
X360505Y28304D02*
X366527D01*
X358910Y11537D02*
X368534D01*
X358438Y13308D02*
X369951D01*
X383294Y18740D02*
X384711D01*
X360386Y9530D02*
X366231D01*
X358320Y16083D02*
X363929D01*
X360918Y29013D02*
X366645D01*
X374261Y18799D02*
X379161D01*
X361921Y30961D02*
X366704D01*
X374910Y15493D02*
X384120D01*
X359265Y26415D02*
X366054D01*
X380814Y17028D02*
X384770D01*
X354719Y21160D02*
X364696D01*
X368239Y17028D02*
X372135D01*
X358733Y12127D02*
X369065D01*
X358792Y18858D02*
X364224D01*
X362512Y32142D02*
X366408D01*
X361036Y29190D02*
X366645D01*
X358438Y16851D02*
X363988D01*
X358910Y19212D02*
X364283D01*
X357257Y23994D02*
X365405D01*
X360209Y27832D02*
X366408D01*
X360505Y9471D02*
X366113D01*
X362984Y32791D02*
X365995D01*
X354660Y21515D02*
X364814D01*
X370482Y20747D02*
X373906D01*
X371899Y23463D02*
X378925D01*
X361921Y31020D02*
X366704D01*
X360741Y28717D02*
X366585D01*
X374261Y18740D02*
X379161D01*
X358733Y25706D02*
X365877D01*
X358556Y17441D02*
X364047D01*
X371781Y23227D02*
X378925D01*
X358379Y13603D02*
X364637D01*
X361980Y31079D02*
X366704D01*
X358379Y16378D02*
X363929D01*
X358733Y18563D02*
X364165D01*
X359383Y26592D02*
X366113D01*
X362039Y31197D02*
X366645D01*
X359087Y11124D02*
X368180D01*
X358379Y16555D02*
X363929D01*
X361508Y30134D02*
X366704D01*
X373906Y27478D02*
X378689D01*
X366290Y14312D02*
X370600D01*
X358320Y13899D02*
X364342D01*
X360800Y9234D02*
X365700D01*
X368416Y17264D02*
X372253D01*
X355073Y20393D02*
X358733D01*
X374261Y19803D02*
X379102D01*
X374320Y18504D02*
X379161D01*
X362276Y31728D02*
X366585D01*
X369124Y18386D02*
X372844D01*
X357493Y24230D02*
X365464D01*
X359501Y26710D02*
X366113D01*
X374261Y19684D02*
X379102D01*
X360091Y9825D02*
X366704D01*
X374556Y28658D02*
X378216D01*
X374320Y18386D02*
X379161D01*
X360623Y28481D02*
X366527D01*
X377449Y13013D02*
X380637D01*
X369655Y19271D02*
X373257D01*
X370128Y20039D02*
X373611D01*
X355132Y22164D02*
X364932D01*
X358438Y13072D02*
X369774D01*
X374261Y19566D02*
X379102D01*
X374438Y17500D02*
X379456D01*
X375205Y29426D02*
X377567D01*
X355014Y22105D02*
X364932D01*
X363515Y33145D02*
X365582D01*
X359206Y26356D02*
X366054D01*
X358969Y19684D02*
X364401D01*
X369774Y19507D02*
X373375D01*
X362099Y31433D02*
X366645D01*
X368770Y17854D02*
X372549D01*
X374969Y15434D02*
X384120D01*
X362807Y32555D02*
X366231D01*
X355781Y22695D02*
X365051D01*
X361567Y30253D02*
X366704D01*
X383884Y19330D02*
X384238D01*
X358320Y15375D02*
X363929D01*
X363043Y32850D02*
X365936D01*
X361744Y30607D02*
X366704D01*
X358497Y12836D02*
X369597D01*
X374261Y19862D02*
X379102D01*
X361803Y30725D02*
X366704D01*
X358615Y12423D02*
X369301D01*
X358556Y17382D02*
X364047D01*
X358615Y12482D02*
X369360D01*
X361390Y29839D02*
X366704D01*
X369715Y19330D02*
X373257D01*
X374320Y18090D02*
X379220D01*
X356017Y22873D02*
X365109D01*
X365759Y13780D02*
X370246D01*
X368947Y18090D02*
X372667D01*
X374261Y19212D02*
X379102D01*
X360563Y28422D02*
X366527D01*
X372844Y25352D02*
X378925D01*
X371131Y21987D02*
X378984D01*
X374261Y18858D02*
X379161D01*
X374497Y17146D02*
X379751D01*
X370777Y21279D02*
X374143D01*
X375500Y14430D02*
X383235D01*
X358674Y25647D02*
X365818D01*
X356490Y23286D02*
X365228D01*
X383589Y19035D02*
X384593D01*
X375855Y14017D02*
X382762D01*
X371840Y23345D02*
X378925D01*
X376209Y29780D02*
X376504D01*
X378393Y12836D02*
X379692D01*
X366763Y14961D02*
X371013D01*
X375028Y15257D02*
X384002D01*
X358674Y18031D02*
X364106D01*
X368298Y17087D02*
X372194D01*
X358320Y14843D02*
X363988D01*
X370187Y20216D02*
X373670D01*
X360032Y9884D02*
X366763D01*
X375205Y14902D02*
X383707D01*
X371722Y23109D02*
X378925D01*
X359678Y27005D02*
X366231D01*
X358320Y15020D02*
X363988D01*
X359147Y20393D02*
X364519D01*
X358320Y14017D02*
X364283D01*
X362807Y32614D02*
X366172D01*
X365877Y13899D02*
X370364D01*
X362748Y32496D02*
X366231D01*
X376091Y13780D02*
X382408D01*
X359855Y27301D02*
X366290D01*
X355250Y20216D02*
X358497D01*
X375619Y29662D02*
X377095D01*
X380991Y17087D02*
X384770D01*
X370069Y19980D02*
X373611D01*
X355368Y20098D02*
X358261D01*
X367589Y16083D02*
X371663D01*
X358497Y17087D02*
X363988D01*
X382526Y18090D02*
X384888D01*
X377095Y13131D02*
X381050D01*
X375028Y15198D02*
X383943D01*
X371427Y22577D02*
X378984D01*
X358143Y24998D02*
X365641D01*
X359324Y26474D02*
X366054D01*
X374083Y27832D02*
X378571D01*
X372489Y24644D02*
X378925D01*
X358733Y18327D02*
X364165D01*
X362276Y31787D02*
X366527D01*
X355545Y19980D02*
X358025D01*
X360623Y9353D02*
X365936D01*
X358556Y12777D02*
X369537D01*
X358379Y16437D02*
X363929D01*
X373493Y26592D02*
X378807D01*
X368534Y17441D02*
X372371D01*
X358969Y19507D02*
X364342D01*
X374497Y16851D02*
X384711D01*
X373316Y26297D02*
X378866D01*
X355545Y22459D02*
X364991D01*
X372903Y25470D02*
X378925D01*
X367058Y15315D02*
X371191D01*
X374379Y17677D02*
X379338D01*
X369892Y19684D02*
X373434D01*
X354837Y20924D02*
X364637D01*
X354955Y22046D02*
X364932D01*
X375382Y14548D02*
X383353D01*
X367589Y16024D02*
X371604D01*
X358320Y15965D02*
X363929D01*
X358320Y14194D02*
X364165D01*
X375087Y15138D02*
X383884D01*
X360505Y28245D02*
X366467D01*
X374261Y19094D02*
X379102D01*
X362099Y31315D02*
X366645D01*
X366585Y14725D02*
X370836D01*
X360977Y29072D02*
X366645D01*
X370187Y20157D02*
X373670D01*
X375441Y29603D02*
X377213D01*
X358910Y25943D02*
X365936D01*
X358969Y19625D02*
X364401D01*
X369774Y19448D02*
X373316D01*
X370777Y21338D02*
X374202D01*
X358320Y15611D02*
X363929D01*
X371309Y22341D02*
X378984D01*
X358674Y12305D02*
X369183D01*
X374792Y15847D02*
X384356D01*
X374261Y21160D02*
X378984D01*
X368593Y17559D02*
X372430D01*
X369597Y19153D02*
X373198D01*
X374851Y29131D02*
X377862D01*
X359619Y10356D02*
X367353D01*
X371191Y22105D02*
X378984D01*
X360918Y28954D02*
X366645D01*
X358792Y18799D02*
X364224D01*
X366054Y14076D02*
X370423D01*
X358497Y17264D02*
X363988D01*
X358379Y13780D02*
X364401D01*
X362453Y8644D02*
X363752D01*
X359087Y20098D02*
X364460D01*
X370128D02*
X373611D01*
X358084Y24939D02*
X365641D01*
X360859Y28895D02*
X366585D01*
X371663Y23050D02*
X378925D01*
X366822Y15020D02*
X371013D01*
X375087Y15079D02*
X383825D01*
X361390Y8939D02*
X364991D01*
X358615Y17736D02*
X364047D01*
X374261Y19271D02*
X379102D01*
X355722Y22636D02*
X365051D01*
X368652Y17677D02*
X372489D01*
X371131Y22046D02*
X378984D01*
X374261Y20570D02*
X379043D01*
X362335Y31906D02*
X366527D01*
X357493Y24290D02*
X365464D01*
X358320Y14253D02*
X364165D01*
X372844Y25411D02*
X378925D01*
X374556Y28717D02*
X378216D01*
X369951Y19803D02*
X373493D01*
X369715Y19389D02*
X373316D01*
X366645Y14784D02*
X370895D01*
X365346Y13544D02*
X370128D01*
X381286Y17205D02*
X384829D01*
X359029Y19803D02*
X364401D01*
X354778Y21928D02*
X364873D01*
X375441Y14489D02*
X383294D01*
X358792Y18681D02*
X364224D01*
X359029Y26120D02*
X365936D01*
X368061Y16733D02*
X372017D01*
X376445Y13485D02*
X381877D01*
X359442Y26651D02*
X366113D01*
X360682Y28540D02*
X366527D01*
X362630Y32319D02*
X366349D01*
X369597Y19212D02*
X373198D01*
X374969Y29249D02*
X377744D01*
X374615Y16378D02*
X384593D01*
X356962Y23699D02*
X365346D01*
X374438Y17441D02*
X379456D01*
X358556Y17500D02*
X364047D01*
X373434Y26474D02*
X378866D01*
X358556Y12600D02*
X369419D01*
X355722Y19862D02*
X357730D01*
X369242Y18563D02*
X372903D01*
X360327Y27950D02*
X366408D01*
X362217Y31669D02*
X366585D01*
X374379Y17736D02*
X379338D01*
X357080Y23817D02*
X365346D01*
X356077Y19744D02*
X357375D01*
X357848Y24644D02*
X365582D01*
X367117Y15375D02*
X371250D01*
X370659Y21101D02*
X374083D01*
X356608Y23404D02*
X365228D01*
X358379Y16496D02*
X363929D01*
X374674Y28895D02*
X378098D01*
X358497Y17323D02*
X363988D01*
X374261Y19153D02*
X379102D01*
X367235Y15611D02*
X371368D01*
X374261Y21101D02*
X378984D01*
X358497Y25411D02*
X365759D01*
X374320Y28245D02*
X378452D01*
X360682Y28599D02*
X366585D01*
X358851Y25884D02*
X365877D01*
X360386Y28068D02*
X366467D01*
X374615Y28776D02*
X378157D01*
X362217Y31610D02*
X366585D01*
X372785Y25293D02*
X378925D01*
X358320Y14725D02*
X364047D01*
X370836Y21456D02*
X378984D01*
X374261Y20157D02*
X379043D01*
X355427Y22400D02*
X364991D01*
X374556Y16614D02*
X384651D01*
X372962Y25647D02*
X378925D01*
X369537Y19094D02*
X373198D01*
X359560Y26828D02*
X366172D01*
X382644Y18209D02*
X384829D01*
X372253Y24171D02*
X378925D01*
X372017Y23758D02*
X378925D01*
X358674Y18209D02*
X364106D01*
X361508Y8880D02*
X364814D01*
X369892Y19625D02*
X373434D01*
X375146Y14961D02*
X383766D01*
X374320Y18445D02*
X379161D01*
X374261Y19507D02*
X379102D01*
X370954Y21633D02*
X378984D01*
X355309Y22282D02*
X364991D01*
X374910Y29190D02*
X377803D01*
X370954Y21692D02*
X378984D01*
X358615Y12541D02*
X369360D01*
X375323Y29544D02*
X377331D01*
X372607Y24880D02*
X378925D01*
X373375Y26356D02*
X378866D01*
X375028Y15315D02*
X384002D01*
X358851Y18917D02*
X364224D01*
X374261Y19448D02*
X379102D01*
X355427Y20039D02*
X358143D01*
X367707Y16260D02*
X371722D01*
X356313Y23109D02*
X365169D01*
X371545Y22814D02*
X378925D01*
X360741Y28658D02*
X366585D01*
X359029Y19744D02*
X364401D01*
X367235Y15552D02*
X371368D01*
X358556Y25470D02*
X365818D01*
X366290Y14371D02*
X370659D01*
X374674Y28835D02*
X378098D01*
X374674Y16201D02*
X384533D01*
X369183Y18504D02*
X372903D01*
X357198Y23935D02*
X365405D01*
X374261Y19035D02*
X379102D01*
X359324Y26533D02*
X366054D01*
X361685Y30489D02*
X366704D01*
X358497Y17205D02*
X363988D01*
X368711Y17736D02*
X372489D01*
X368121Y16851D02*
X372076D01*
X383766Y19212D02*
X384415D01*
X359973Y27419D02*
X366290D01*
X361272Y29662D02*
X366704D01*
X370895Y21515D02*
X378984D01*
X360918Y9176D02*
X365582D01*
X370010Y19862D02*
X373552D01*
X374851Y29072D02*
X377921D01*
X358497Y12954D02*
X369715D01*
X369301Y18681D02*
X372962D01*
X373847Y27360D02*
X378689D01*
X355014Y20511D02*
X358969D01*
X361803Y30666D02*
X366704D01*
X383117Y18622D02*
X384770D01*
X374851Y15729D02*
X384297D01*
X359206Y11006D02*
X368061D01*
X358969Y11478D02*
X368475D01*
X354660Y21397D02*
X364755D01*
X366704Y14843D02*
X370954D01*
X355604Y19921D02*
X357907D01*
X358202Y25057D02*
X365700D01*
X358320Y25175D02*
X365700D01*
X358379Y13544D02*
X364755D01*
X369951Y19744D02*
X373493D01*
X373670Y27005D02*
X378748D01*
X360386Y28127D02*
X366467D01*
X375796Y29721D02*
X376917D01*
X367412Y15847D02*
X371486D01*
X361626Y30312D02*
X366704D01*
X367943Y16555D02*
X371899D01*
X358969Y26002D02*
X365936D01*
X359265Y10888D02*
X367943D01*
X360209Y27773D02*
X366408D01*
X373847Y27301D02*
X378689D01*
X359501Y26769D02*
X366113D01*
X368652Y17618D02*
X372430D01*
X382054Y17736D02*
X384888D01*
X374261Y19980D02*
X379043D01*
X360445Y28186D02*
X366467D01*
X373257Y26120D02*
X378866D01*
X366940Y15198D02*
X371131D01*
X365464Y13603D02*
X370128D01*
X368357Y17205D02*
X372253D01*
X356903Y23640D02*
X365287D01*
X383412Y18858D02*
X384651D01*
X356667Y23463D02*
X365287D01*
X373611Y26887D02*
X378807D01*
X362039Y31256D02*
X366645D01*
X362158Y31492D02*
X366645D01*
X358320Y14076D02*
X364224D01*
X359265Y10829D02*
X367884D01*
X358674Y18149D02*
X364106D01*
X380578Y16969D02*
X384770D01*
X358438Y13131D02*
X369833D01*
X370246Y20334D02*
X373729D01*
X375146Y15020D02*
X383766D01*
X361685Y8821D02*
X364637D01*
X382467Y18031D02*
X384888D01*
X367648Y16142D02*
X371663D01*
X381759Y17500D02*
X384888D01*
X358320Y15906D02*
X363929D01*
X358438Y13190D02*
X369833D01*
X360209Y9707D02*
X366527D01*
X368534Y17500D02*
X372371D01*
X358792Y18740D02*
X364224D01*
X354660Y21810D02*
X364873D01*
X356549Y23345D02*
X365228D01*
X370364Y20570D02*
X373847D01*
X373670Y26946D02*
X378807D01*
X358025Y24880D02*
X365641D01*
X355309Y20157D02*
X358379D01*
X372726Y25116D02*
X378925D01*
X373493Y26651D02*
X378807D01*
X377272Y13072D02*
X380814D01*
X354896Y20747D02*
X364637D01*
X371604Y22873D02*
X378925D01*
X374674Y16260D02*
X384533D01*
X367471Y15906D02*
X371545D01*
X355899Y19803D02*
X357611D01*
X370541Y20924D02*
X374024D01*
X358438Y13367D02*
X369951D01*
X369242Y18622D02*
X372962D01*
X367884Y16496D02*
X371840D01*
X375087Y29367D02*
X377626D01*
X359147Y20452D02*
X364578D01*
X373198Y26002D02*
X378866D01*
X374143Y27891D02*
X378571D01*
X358438Y13426D02*
X370010D01*
X374497Y16910D02*
X384770D01*
X369360Y18799D02*
X373021D01*
X358615Y17854D02*
X364106D01*
X358438Y25352D02*
X365759D01*
X354660Y21574D02*
X364814D01*
X358379Y13840D02*
X364342D01*
X360150Y27714D02*
X366408D01*
X355132Y20334D02*
X358674D01*
X374792Y15788D02*
X384297D01*
X374497Y28599D02*
X378275D01*
X374497Y17028D02*
X379928D01*
X366999Y15257D02*
X371191D01*
X358320D02*
X363929D01*
X358320Y15079D02*
X363988D01*
X374320Y18149D02*
X379220D01*
X359087Y20216D02*
X364519D01*
X368002Y16614D02*
X371958D01*
X358792Y25765D02*
X365877D01*
X373965Y27596D02*
X378629D01*
X383825Y19271D02*
X384356D01*
X361862Y30784D02*
X366704D01*
X362335Y31846D02*
X366527D01*
X360268Y27891D02*
X366408D01*
X370600Y20983D02*
X374024D01*
X361508Y30075D02*
X366704D01*
X374792Y29013D02*
X377980D01*
X358320Y15138D02*
X363988D01*
X372549Y24821D02*
X378925D01*
X375382Y14607D02*
X383412D01*
X358320Y15847D02*
X363929D01*
X358320Y15315D02*
X363929D01*
X361980Y31138D02*
X366704D01*
X374261Y20039D02*
X379043D01*
X372194Y24112D02*
X378925D01*
X381936Y17618D02*
X384888D01*
X381641Y17441D02*
X384829D01*
X374261Y20452D02*
X379043D01*
X359737Y27123D02*
X366231D01*
X374261Y21397D02*
X378984D01*
X381168Y17146D02*
X384829D01*
X372489Y24703D02*
X378925D01*
X358733Y18504D02*
X364165D01*
X382231Y17854D02*
X384888D01*
X359737Y27064D02*
X366231D01*
X359029Y19921D02*
X364460D01*
X359029Y11301D02*
X368357D01*
X361685Y30430D02*
X366704D01*
X368475Y17382D02*
X372312D01*
X372667Y24998D02*
X378925D01*
X382939Y18445D02*
X384829D01*
X369419Y18858D02*
X373080D01*
X374261Y21279D02*
X378984D01*
X374733Y16024D02*
X384415D01*
X370246Y20275D02*
X373729D01*
X358733Y12009D02*
X368947D01*
X359796Y27182D02*
X366231D01*
X375028Y29308D02*
X377685D01*
X375914Y13958D02*
X382644D01*
X371250Y22223D02*
X378984D01*
X358320Y14135D02*
X364224D01*
X375796Y14076D02*
X382821D01*
X372371Y24408D02*
X378925D01*
X383530Y18976D02*
X384593D01*
X368180Y16910D02*
X372076D01*
X370895Y21574D02*
X378984D01*
X360032Y27537D02*
X366349D01*
X375264Y14843D02*
X383648D01*
X370541Y20865D02*
X373965D01*
X359206Y20570D02*
X364578D01*
X381581Y17382D02*
X384829D01*
X358438Y16733D02*
X363929D01*
X358438Y16969D02*
X363988D01*
X358320Y15434D02*
X363929D01*
X359087Y11242D02*
X368298D01*
X358792Y25824D02*
X365877D01*
X356313Y19684D02*
X357021D01*
X359206Y20629D02*
X364578D01*
X357434Y24171D02*
X365464D01*
X357553Y24349D02*
X365523D01*
X367530Y15965D02*
X371604D01*
X382585Y18149D02*
X384888D01*
X362512Y32201D02*
X366408D01*
X354719Y21219D02*
X364696D01*
X359147Y26238D02*
X365995D01*
X361449Y30016D02*
X366704D01*
X374910Y15552D02*
X384179D01*
X362394Y31965D02*
X366467D01*
X354719Y21338D02*
X364755D01*
X361921Y8762D02*
X364401D01*
X360563Y9412D02*
X366054D01*
X374261Y20275D02*
X379043D01*
X360977Y29131D02*
X366645D01*
X369360Y18740D02*
X373021D01*
X374202Y28009D02*
X378511D01*
X359619Y26887D02*
X366172D01*
X373729Y27064D02*
X378748D01*
X367884Y16437D02*
X371840D01*
X359678Y10238D02*
X367235D01*
X358379Y16201D02*
X363929D01*
X358674Y18268D02*
X364165D01*
X382762D02*
X384829D01*
X365641Y13722D02*
X370246D01*
X368239Y16969D02*
X372135D01*
X360268Y9648D02*
X366408D01*
X358320Y14607D02*
X364047D01*
X370718Y21219D02*
X374143D01*
X374733Y28954D02*
X378039D01*
X373611Y26828D02*
X378807D01*
X358320Y15670D02*
X363929D01*
X358733Y12068D02*
X369006D01*
X361626Y30371D02*
X366704D01*
X366172Y14194D02*
X370541D01*
X358615Y17795D02*
X364047D01*
X359737Y10179D02*
X367176D01*
X358851Y19153D02*
X364283D01*
X372667Y25057D02*
X378925D01*
X355604Y22518D02*
X365051D01*
X371899Y23522D02*
X378925D01*
X370718Y21160D02*
X374083D01*
X359147Y11065D02*
X368121D01*
X359796Y10120D02*
X367058D01*
X369183Y18445D02*
X372844D01*
X372076Y23876D02*
X378925D01*
X357139D02*
X365346D01*
X374261Y20806D02*
X379043D01*
X358556Y17618D02*
X364047D01*
X381818Y17559D02*
X384888D01*
X366763Y14902D02*
X370954D01*
X374261Y18681D02*
X379161D01*
X370305Y20452D02*
X373788D01*
X374261Y20983D02*
X378984D01*
X362158Y8703D02*
X364165D01*
X368888Y18031D02*
X372667D01*
X382821Y18327D02*
X384829D01*
X367353Y15729D02*
X371427D01*
X371073Y21869D02*
X378984D01*
X361862Y30902D02*
X366704D01*
X374261Y20216D02*
X379043D01*
X375559Y14312D02*
X383117D01*
X374556Y16733D02*
X384711D01*
X374379Y17795D02*
X379338D01*
X357730Y24526D02*
X365523D01*
X374202Y28068D02*
X378511D01*
X358792Y11950D02*
X368888D01*
X366881Y15079D02*
X371073D01*
X361095Y29308D02*
X366645D01*
X363752Y33263D02*
X365346D01*
X374261Y18917D02*
X379161D01*
X357789Y24585D02*
X365582D01*
X358379Y25293D02*
X365759D01*
X374261Y20334D02*
X379043D01*
X373375Y26415D02*
X378866D01*
X374379Y17854D02*
X379279D01*
X359087Y26179D02*
X365995D01*
X371368Y22459D02*
X378984D01*
X356431Y23227D02*
X365228D01*
X374320Y18563D02*
X379161D01*
X374320Y18209D02*
X379220D01*
X374261Y19921D02*
X379043D01*
X371722Y23168D02*
X378925D01*
X375619Y14253D02*
X383057D01*
X364224Y33382D02*
X364814D01*
X368416Y17323D02*
X372312D01*
X359147Y20511D02*
X364578D01*
X374261Y19330D02*
X379102D01*
X358910D02*
X364342D01*
X361449Y29957D02*
X366704D01*
X371958Y23581D02*
X378925D01*
X359442Y10592D02*
X367648D01*
X374438Y17323D02*
X379574D01*
X359029Y19980D02*
X364460D01*
X374024Y27714D02*
X378629D01*
X374261Y19625D02*
X379102D01*
X361154Y29426D02*
X366645D01*
X371013Y21810D02*
X378984D01*
X358379Y16614D02*
X363929D01*
X374261Y20629D02*
X379043D01*
X363220Y32968D02*
X365818D01*
X383235Y18681D02*
X384770D01*
X374261Y18976D02*
X379161D01*
X359029Y26061D02*
X365936D01*
X374261Y28186D02*
X378452D01*
X374024Y27655D02*
X378629D01*
X368002Y16673D02*
X371958D01*
X360091Y27655D02*
X366349D01*
X383648Y19094D02*
X384533D01*
X359087Y20039D02*
X364460D01*
X374438Y17205D02*
X379633D01*
X372903Y25529D02*
X378925D01*
X373139Y25943D02*
X378866D01*
X374320Y28304D02*
X378393D01*
X358320Y14961D02*
X363988D01*
X358438Y16792D02*
X363929D01*
X374083Y27773D02*
X378571D01*
X366585Y14666D02*
X370836D01*
X359383Y10651D02*
X367707D01*
X374438Y17264D02*
X379574D01*
X372312Y24349D02*
X378925D01*
X372549Y24762D02*
X378925D01*
X376622Y13367D02*
X381641D01*
X358320Y14548D02*
X364047D01*
X356077Y22932D02*
X365109D01*
X360150Y9766D02*
X366585D01*
X373788Y27242D02*
X378748D01*
X373906Y27419D02*
X378689D01*
X359855Y10061D02*
X366999D01*
X367412Y15788D02*
X371486D01*
X382290Y17913D02*
X384888D01*
X356844Y23581D02*
X365287D01*
X371486Y22754D02*
X378925D01*
X372253Y24230D02*
X378925D01*
X359087Y20157D02*
X364519D01*
X360800Y28776D02*
X366585D01*
X368770Y17795D02*
X372549D01*
X361331Y29721D02*
X366704D01*
X359560Y10415D02*
X367471D01*
X358379Y13663D02*
X364578D01*
X355191Y22223D02*
X364932D01*
X371427Y22636D02*
X378925D01*
X370423Y20688D02*
X373906D01*
X370659Y21042D02*
X374083D01*
X374497Y16969D02*
X380105D01*
X359324Y10769D02*
X367825D01*
X374733Y16083D02*
X384474D01*
X382172Y17795D02*
X384888D01*
X354719Y21101D02*
X364696D01*
X362453Y32083D02*
X366467D01*
X363338Y33027D02*
X365759D01*
X365995Y14017D02*
X370423D01*
X365818Y13840D02*
X370305D01*
X373316Y26238D02*
X378866D01*
X358320Y14371D02*
X364106D01*
X361390Y29898D02*
X366704D01*
X356785Y23522D02*
X365287D01*
X372371Y24467D02*
X378925D01*
X358556Y12659D02*
X369478D01*
X358320Y14312D02*
X364106D01*
X376563Y13426D02*
X381759D01*
X374379Y17972D02*
X379279D01*
X362689Y32437D02*
X366290D01*
X358674Y12246D02*
X369183D01*
X358851Y11714D02*
X368711D01*
X367117Y15434D02*
X371250D01*
X359973Y27478D02*
X366349D01*
X354719Y21869D02*
X364873D01*
X358792Y18622D02*
X364224D01*
X373552Y26710D02*
X378807D01*
X374261Y28127D02*
X378452D01*
X374261Y19389D02*
X379102D01*
X376740Y13308D02*
X381463D01*
X374674Y16142D02*
X384474D01*
X361154Y29367D02*
X366645D01*
X374261Y21338D02*
X378984D01*
X358320Y15493D02*
X363929D01*
X371958Y23640D02*
X378925D01*
X375323Y14666D02*
X383471D01*
X371486Y22695D02*
X378925D01*
X369419Y18917D02*
X373080D01*
X373552Y26769D02*
X378807D01*
X363633Y33204D02*
X365464D01*
X369537Y19035D02*
X373139D01*
X374261Y20688D02*
X379043D01*
X358674Y12186D02*
X369124D01*
X372962Y25588D02*
X378925D01*
X358379Y16319D02*
X363929D01*
X374261Y20098D02*
X379043D01*
X372607Y24939D02*
X378925D01*
X359147Y20275D02*
X364519D01*
X355073Y20452D02*
X358851D01*
X370836Y21397D02*
X374202D01*
X371073Y21928D02*
X378984D01*
X358910Y19271D02*
X364342D01*
X355958Y22814D02*
X365109D01*
X358261Y25116D02*
X365700D01*
X374379Y28422D02*
X378334D01*
X358615Y25529D02*
X365818D01*
X359087Y11183D02*
X368239D01*
X374261Y19744D02*
X379102D01*
X357966Y24762D02*
X365582D01*
X367176Y15493D02*
X371309D01*
X361036Y9116D02*
X365464D01*
X358320Y14430D02*
X364106D01*
X358851Y19094D02*
X364283D01*
X357375Y24112D02*
X365405D01*
X371781Y23286D02*
X378925D01*
X374615Y16437D02*
X384593D01*
X372430Y24526D02*
X378925D01*
X374438Y28481D02*
X378334D01*
X360563Y28363D02*
X366527D01*
X358851Y18976D02*
X364283D01*
X372726Y25175D02*
X378925D01*
X362630Y32378D02*
X366290D01*
X355663Y22577D02*
X365051D01*
X374969Y15375D02*
X384061D01*
X371191Y22164D02*
X378984D01*
X359914Y10002D02*
X366940D01*
X382880Y18386D02*
X384829D01*
X358910Y19389D02*
X364342D01*
X358969Y19448D02*
X364342D01*
X357316Y24053D02*
X365405D01*
X374615Y16496D02*
X384651D01*
X365582Y13663D02*
X370187D01*
X374379Y17618D02*
X379397D01*
X369065Y18268D02*
X372785D01*
X375559Y14371D02*
X383175D01*
X372135Y23994D02*
X378925D01*
X358320Y15788D02*
X363929D01*
X358379Y16260D02*
X363929D01*
X383707Y19153D02*
X384474D01*
X375677Y14194D02*
X382998D01*
X367825Y16378D02*
X371781D01*
X360741Y9294D02*
X365818D01*
X382998Y18504D02*
X384770D01*
X359619Y26946D02*
X366172D01*
X357966Y24821D02*
X365641D01*
X372785Y25234D02*
X378925D01*
X363397Y33086D02*
X365700D01*
X361862Y30843D02*
X366704D01*
X359442Y10533D02*
X367589D01*
X374792Y15906D02*
X384356D01*
X359206Y10947D02*
X368002D01*
X382349Y17972D02*
X384888D01*
X366113Y14135D02*
X370482D01*
X358497Y17146D02*
X363988D01*
X381463Y17323D02*
X384829D01*
X374261Y21219D02*
X378984D01*
X372017Y23699D02*
X378925D01*
X358497Y13013D02*
X369715D01*
X366527Y14607D02*
X370777D01*
X376268Y13603D02*
X382113D01*
X374556Y16673D02*
X384711D01*
X358733Y18386D02*
X364165D01*
X374320Y18622D02*
X379161D01*
X362866Y32673D02*
X366113D01*
X358733Y18445D02*
X364165D01*
X373788Y27182D02*
X378748D01*
X361272Y8998D02*
X365169D01*
X358615Y12364D02*
X369242D01*
X373257Y26179D02*
X378866D01*
X374379Y28363D02*
X378393D01*
X357671Y24467D02*
X365523D01*
X381404Y17264D02*
X384829D01*
X354660Y21456D02*
X364755D01*
X371604Y22932D02*
X378925D01*
X358910Y11596D02*
X368593D01*
X377626Y12954D02*
X380401D01*
X366467Y14548D02*
X370777D01*
X373080Y25824D02*
X378925D01*
X371250Y22282D02*
X378984D01*
X354660Y21633D02*
X364814D01*
X375973Y13899D02*
X382585D01*
X356195Y22991D02*
X365169D01*
X374320Y18268D02*
X379220D01*
X354660Y21751D02*
X364873D01*
X354778Y20983D02*
X364696D01*
X355899Y22754D02*
X365109D01*
X361095Y29249D02*
X366645D01*
X358497Y12895D02*
X369655D01*
X369478Y18976D02*
X373139D01*
X365936Y13958D02*
X370364D01*
X358438Y16673D02*
X363929D01*
X359855Y27242D02*
X366290D01*
X358320Y16024D02*
X363929D01*
X358851Y11655D02*
X368652D01*
X371840Y23404D02*
X378925D01*
X374261Y20865D02*
X379043D01*
X358438Y13249D02*
X369892D01*
X362925Y32732D02*
X366054D01*
X359678Y10297D02*
X367294D01*
X358556Y12718D02*
X369537D01*
X374438Y17382D02*
X379515D01*
X355191Y20275D02*
X358556D01*
X373434Y26533D02*
X378866D01*
X362453Y32024D02*
X366467D01*
X371663Y22991D02*
X378925D01*
X367766Y16319D02*
X371781D01*
X361154Y9057D02*
X365287D01*
X358615Y17972D02*
X364106D01*
X366349Y14430D02*
X370659D01*
X371368Y22518D02*
X378984D01*
X358792Y11891D02*
X368888D01*
X383353Y18799D02*
X384711D01*
X383943Y19389D02*
X384179D01*
X357021Y23758D02*
X365346D01*
X354837Y20806D02*
X364637D01*
X374379Y17559D02*
X379397D01*
X354778Y21042D02*
X364696D01*
X360327Y28009D02*
X366467D01*
X361744Y30548D02*
X366704D01*
X358379Y13485D02*
X370069D01*
X373198Y26061D02*
X378866D01*
X357907Y24703D02*
X365582D01*
X358615Y17913D02*
X364106D01*
X374674Y16319D02*
X384593D01*
X374851Y15670D02*
X384238D01*
X374261Y20747D02*
X379043D01*
X358320Y14666D02*
X364047D01*
X376386Y13544D02*
X381995D01*
X363929Y33323D02*
X365169D01*
X363161Y32909D02*
X365936D01*
X374261Y21042D02*
X378984D01*
X366231Y14253D02*
X370541D01*
X373021Y25706D02*
X378925D01*
X371013Y21751D02*
X378984D01*
X361272Y29603D02*
X366704D01*
X366408Y14489D02*
X370718D01*
X359206Y26297D02*
X365995D01*
X362158Y31551D02*
X366585D01*
X358792Y11832D02*
X368829D01*
X372194Y24053D02*
X378925D01*
X367294Y15670D02*
X371427D01*
X374320Y18031D02*
X379279D01*
X376858Y13249D02*
X381345D01*
X354719Y21279D02*
X364755D01*
X370010Y19921D02*
X373552D01*
X372076Y23817D02*
X378925D01*
X362099Y31374D02*
X366645D01*
X358497Y17028D02*
X363988D01*
X373080Y25884D02*
X378925D01*
X371309Y22400D02*
X378984D01*
X354837Y21987D02*
X364932D01*
X374851Y15611D02*
X384238D01*
X361213Y29544D02*
X366704D01*
X369065Y18327D02*
X372785D01*
X358320Y13958D02*
X364283D01*
X374556Y16792D02*
X384711D01*
X375737Y14135D02*
X382880D01*
X369006Y18209D02*
X372726D01*
X373965Y27537D02*
X378629D01*
X368121Y16792D02*
X372017D01*
X354660Y21692D02*
X364814D01*
X376209Y13663D02*
X382172D01*
X358320Y15729D02*
X363929D01*
X359501Y10474D02*
X367530D01*
X358969Y11419D02*
X368475D01*
X370364Y20511D02*
X373847D01*
X375264Y29485D02*
X377449D01*
X358320Y14784D02*
X363988D01*
X360327Y9589D02*
X366349D01*
X374261Y20393D02*
X379043D01*
X358379Y13722D02*
X364460D01*
X374497Y28540D02*
X378275D01*
X354837Y20865D02*
X364637D01*
X358556Y17559D02*
X364047D01*
X374143Y27950D02*
X378511D01*
X358320Y15198D02*
X363929D01*
X374615Y16555D02*
X384651D01*
X358851Y11773D02*
X368770D01*
X374733Y15965D02*
X384415D01*
X374497Y17087D02*
X379810D01*
X360091Y27596D02*
X366349D01*
X373021Y25765D02*
X378925D01*
X359147Y20334D02*
X364519D01*
X368357Y17146D02*
X372194D01*
X374261Y20924D02*
X379043D01*
X370305Y20393D02*
X373788D01*
X369833Y19566D02*
X373375D01*
X354955Y20629D02*
X359147D01*
X361567Y30193D02*
X366704D01*
X361331Y29780D02*
X366704D01*
X377921Y12895D02*
X380165D01*
X358851Y19035D02*
X364283D01*
X356254Y23050D02*
X365169D01*
X381995Y17677D02*
X384888D01*
X383057Y18563D02*
X384770D01*
X372312Y24290D02*
X378925D01*
X369006Y18149D02*
X372726D01*
D17*
X3587Y98356D02*
X29178D01*
X3587Y27490D02*
Y98356D01*
Y27490D02*
X29178D01*
X101422Y98356D02*
X103981D01*
Y88711D02*
Y98356D01*
Y27490D02*
Y37136D01*
X101422Y27490D02*
X103981D01*
D18*
X16685Y11750D02*
Y16722D01*
X16616Y11681D02*
Y16791D01*
X16547Y11612D02*
Y16860D01*
X16478Y11543D02*
Y16929D01*
X16409Y11543D02*
Y16929D01*
X16340Y11474D02*
Y16998D01*
X16271Y11474D02*
Y16998D01*
X16202Y11474D02*
Y16998D01*
X16132Y11543D02*
Y16929D01*
X16063Y11543D02*
Y16929D01*
X15994Y11543D02*
Y16929D01*
X15925Y11612D02*
Y16860D01*
X15856Y11681D02*
Y16791D01*
X15787Y11819D02*
Y16653D01*
X15718Y12440D02*
Y16032D01*
X15649Y12440D02*
Y16032D01*
X15580Y12440D02*
Y16032D01*
X15511Y12440D02*
Y15962D01*
X15442Y12509D02*
Y15962D01*
X15373Y12509D02*
Y15962D01*
X15304Y12509D02*
Y15962D01*
X15235Y12509D02*
Y15962D01*
X15166Y12509D02*
Y15962D01*
X15097Y12509D02*
Y15962D01*
X15027Y12509D02*
Y15962D01*
X14958Y12579D02*
Y15893D01*
X14889Y12579D02*
Y15893D01*
X14820Y12579D02*
Y15893D01*
X14751Y12579D02*
Y15893D01*
X14682Y12579D02*
Y15893D01*
X14613Y12579D02*
Y15893D01*
X14544Y12579D02*
Y15893D01*
X14475Y12579D02*
Y15893D01*
X14406Y12648D02*
Y15824D01*
X14337Y12648D02*
Y15824D01*
X14268Y12648D02*
Y15824D01*
X14199Y12648D02*
Y15824D01*
X14130Y12648D02*
Y15824D01*
X14061Y12648D02*
Y15824D01*
X13992Y12648D02*
Y15824D01*
X13923Y12648D02*
Y15824D01*
X13853Y12717D02*
Y15755D01*
X13784Y12717D02*
Y15755D01*
X13715Y12717D02*
Y15755D01*
X13646Y12717D02*
Y15755D01*
X13577Y12717D02*
Y15755D01*
X13508Y12717D02*
Y15755D01*
X13439Y12717D02*
Y15755D01*
X13370Y12717D02*
Y15755D01*
X13301Y12786D02*
Y15686D01*
X13232Y12786D02*
Y15686D01*
X13163Y12786D02*
Y15686D01*
X13094Y12786D02*
Y15686D01*
X13025Y12786D02*
Y15686D01*
X12956Y12786D02*
Y15686D01*
X12887Y12786D02*
Y15686D01*
X12818Y12786D02*
Y15686D01*
X12749Y12855D02*
Y15617D01*
X12679Y12855D02*
Y15617D01*
X12610Y12855D02*
Y15617D01*
X12541Y12855D02*
Y15617D01*
X12472Y12855D02*
Y15617D01*
X12403Y12855D02*
Y15617D01*
X12334Y12855D02*
Y15617D01*
X12265Y12855D02*
Y15617D01*
X12196Y12924D02*
Y15548D01*
X12127Y18725D02*
Y18794D01*
Y12924D02*
Y15548D01*
Y9678D02*
Y9747D01*
X12058Y18656D02*
Y18863D01*
Y12924D02*
Y15548D01*
Y9609D02*
Y9816D01*
X11989Y18587D02*
Y18932D01*
Y12924D02*
Y15548D01*
Y9540D02*
Y9885D01*
X11920Y18518D02*
Y19001D01*
Y12924D02*
Y15548D01*
Y9471D02*
Y9954D01*
X11851Y18449D02*
Y19070D01*
Y12924D02*
Y15548D01*
Y9402D02*
Y10023D01*
X11782Y18380D02*
Y19139D01*
Y12924D02*
Y15548D01*
Y9333D02*
Y10092D01*
X11713Y18311D02*
Y19208D01*
Y12993D02*
Y15479D01*
Y9264D02*
Y10161D01*
X11643Y18241D02*
Y19208D01*
Y12993D02*
Y15479D01*
Y9264D02*
Y10231D01*
X11575Y18172D02*
Y19277D01*
Y12993D02*
Y15479D01*
Y9195D02*
Y10300D01*
X11505Y18172D02*
Y19346D01*
Y12993D02*
Y15479D01*
Y9126D02*
Y10300D01*
X11436Y18241D02*
Y19415D01*
Y12993D02*
Y15479D01*
Y9057D02*
Y10231D01*
X11367Y18311D02*
Y19415D01*
Y12993D02*
Y15479D01*
Y9057D02*
Y10161D01*
X11298Y18380D02*
Y19485D01*
Y12993D02*
Y15479D01*
Y8987D02*
Y10092D01*
X11229Y18449D02*
Y19554D01*
Y12993D02*
Y15479D01*
Y8918D02*
Y10023D01*
X11160Y18518D02*
Y19623D01*
Y13062D02*
Y15410D01*
Y8849D02*
Y9954D01*
X11091Y18518D02*
Y19623D01*
Y17689D02*
Y17758D01*
Y13062D02*
Y15410D01*
Y10714D02*
Y10783D01*
Y8849D02*
Y9954D01*
X11022Y18587D02*
Y19692D01*
Y17620D02*
Y17827D01*
Y13062D02*
Y15410D01*
Y10645D02*
Y10852D01*
Y8780D02*
Y9885D01*
X10953Y18656D02*
Y19692D01*
Y17551D02*
Y17896D01*
Y13062D02*
Y15410D01*
Y10576D02*
Y10921D01*
Y8780D02*
Y9816D01*
X10884Y18725D02*
Y19761D01*
Y17482D02*
Y17965D01*
Y13062D02*
Y15410D01*
Y10507D02*
Y10990D01*
Y8711D02*
Y9747D01*
X10815Y18725D02*
Y19830D01*
Y17413D02*
Y18034D01*
Y13062D02*
Y15410D01*
Y10438D02*
Y11059D01*
Y8642D02*
Y9747D01*
X10746Y18794D02*
Y19830D01*
Y17344D02*
Y18103D01*
Y13062D02*
Y15410D01*
Y10369D02*
Y11128D01*
Y8642D02*
Y9678D01*
X10677Y18863D02*
Y19899D01*
Y17275D02*
Y18103D01*
Y13062D02*
Y15410D01*
Y10369D02*
Y11197D01*
Y8573D02*
Y9609D01*
X10608Y18863D02*
Y19899D01*
Y17206D02*
Y18172D01*
Y13131D02*
Y15341D01*
Y10300D02*
Y11266D01*
Y8573D02*
Y9609D01*
X10539Y18932D02*
Y19968D01*
Y17136D02*
Y18241D01*
Y13131D02*
Y15341D01*
Y10231D02*
Y11336D01*
Y8504D02*
Y9540D01*
X10469Y19001D02*
Y19968D01*
Y17136D02*
Y18311D01*
Y13131D02*
Y15341D01*
Y10161D02*
Y11336D01*
Y8504D02*
Y9471D01*
X10401Y19001D02*
Y20037D01*
Y17206D02*
Y18311D01*
Y13131D02*
Y15341D01*
Y10161D02*
Y11266D01*
Y8435D02*
Y9471D01*
X10331Y19070D02*
Y20037D01*
Y17275D02*
Y18380D01*
Y13131D02*
Y15341D01*
Y10092D02*
Y11197D01*
Y8435D02*
Y9402D01*
X10262Y19070D02*
Y20106D01*
Y17344D02*
Y18380D01*
Y13131D02*
Y15341D01*
Y10023D02*
Y11128D01*
Y8366D02*
Y9402D01*
X10193Y19139D02*
Y20106D01*
Y17413D02*
Y18449D01*
Y13131D02*
Y15341D01*
Y10023D02*
Y11059D01*
Y8366D02*
Y9333D01*
X10124Y19139D02*
Y20106D01*
Y17413D02*
Y18518D01*
Y13131D02*
Y15341D01*
Y9954D02*
Y11059D01*
Y8366D02*
Y9333D01*
X10055Y19208D02*
Y20175D01*
Y17482D02*
Y18518D01*
Y16653D02*
Y16722D01*
Y13200D02*
Y15272D01*
Y11750D02*
Y11819D01*
Y9954D02*
Y10990D01*
Y8297D02*
Y9264D01*
X9986Y19208D02*
Y20175D01*
Y17551D02*
Y18587D01*
Y16584D02*
Y16791D01*
Y13200D02*
Y15272D01*
Y11681D02*
Y11888D01*
Y9885D02*
Y10921D01*
Y8297D02*
Y9264D01*
X9917Y19277D02*
Y20244D01*
Y17551D02*
Y18587D01*
Y16515D02*
Y16860D01*
Y13200D02*
Y15272D01*
Y11612D02*
Y11957D01*
Y9885D02*
Y10852D01*
Y8228D02*
Y9195D01*
X9848Y19277D02*
Y20244D01*
Y17620D02*
Y18656D01*
Y16446D02*
Y16929D01*
Y13200D02*
Y15272D01*
Y11543D02*
Y12026D01*
Y9816D02*
Y10852D01*
Y8228D02*
Y9195D01*
X9779Y19346D02*
Y20244D01*
Y17689D02*
Y18656D01*
Y16377D02*
Y16929D01*
Y14443D02*
Y15272D01*
Y13200D02*
Y14029D01*
Y11543D02*
Y12095D01*
Y9816D02*
Y10783D01*
Y8228D02*
Y9126D01*
X9710Y19346D02*
Y20313D01*
Y17689D02*
Y18725D01*
Y16308D02*
Y16998D01*
Y14788D02*
Y15272D01*
Y13200D02*
Y13614D01*
Y11474D02*
Y12164D01*
Y9747D02*
Y10783D01*
Y8159D02*
Y9126D01*
X9641Y19346D02*
Y20313D01*
Y17758D02*
Y18725D01*
Y16239D02*
Y17067D01*
Y14996D02*
Y15272D01*
Y13200D02*
Y13476D01*
Y11405D02*
Y12233D01*
Y9747D02*
Y10714D01*
Y8159D02*
Y9126D01*
X9572Y19415D02*
Y20313D01*
Y17758D02*
Y18794D01*
Y16170D02*
Y17136D01*
Y15134D02*
Y15272D01*
Y11336D02*
Y12302D01*
Y9678D02*
Y10645D01*
Y8159D02*
Y9057D01*
X9503Y19415D02*
Y20382D01*
Y17827D02*
Y18794D01*
Y16101D02*
Y17136D01*
Y11336D02*
Y12371D01*
Y9678D02*
Y10645D01*
Y8090D02*
Y9057D01*
X9434Y19415D02*
Y20382D01*
Y17827D02*
Y18794D01*
Y16101D02*
Y17206D01*
Y11266D02*
Y12371D01*
Y9678D02*
Y10576D01*
Y8090D02*
Y9057D01*
X9365Y19485D02*
Y20382D01*
Y17896D02*
Y18863D01*
Y16170D02*
Y17206D01*
Y11266D02*
Y12302D01*
Y9609D02*
Y10576D01*
Y8090D02*
Y8987D01*
X9296Y19485D02*
Y20382D01*
Y17896D02*
Y18863D01*
Y16239D02*
Y17275D01*
Y11197D02*
Y12233D01*
Y9609D02*
Y10576D01*
Y8021D02*
Y8987D01*
X9227Y19485D02*
Y20451D01*
Y17965D02*
Y18932D01*
Y16239D02*
Y17275D01*
Y11197D02*
Y12233D01*
Y9540D02*
Y10507D01*
Y8021D02*
Y8918D01*
X9157Y19554D02*
Y20451D01*
Y17965D02*
Y18932D01*
Y16308D02*
Y17344D01*
Y13891D02*
Y14581D01*
Y11128D02*
Y12164D01*
Y9540D02*
Y10507D01*
Y8021D02*
Y8918D01*
X9088Y19554D02*
Y20451D01*
Y18034D02*
Y18932D01*
Y16377D02*
Y17344D01*
Y13683D02*
Y14788D01*
Y11128D02*
Y12095D01*
Y9540D02*
Y10438D01*
Y8021D02*
Y8918D01*
X9019Y19554D02*
Y20451D01*
Y18034D02*
Y18932D01*
Y16377D02*
Y17413D01*
Y13545D02*
Y14927D01*
Y11059D02*
Y12095D01*
Y9540D02*
Y10438D01*
Y8021D02*
Y8918D01*
X8950Y19554D02*
Y20520D01*
Y18034D02*
Y19001D01*
Y16446D02*
Y17413D01*
Y13407D02*
Y15065D01*
Y11059D02*
Y12026D01*
Y9471D02*
Y10438D01*
Y7952D02*
Y8849D01*
X8881Y19623D02*
Y20520D01*
Y18103D02*
Y19001D01*
Y16515D02*
Y17482D01*
Y13338D02*
Y15134D01*
Y10990D02*
Y11957D01*
Y9471D02*
Y10369D01*
Y7952D02*
Y8849D01*
X8812Y19623D02*
Y20520D01*
Y18103D02*
Y19001D01*
Y16515D02*
Y17482D01*
Y13200D02*
Y15272D01*
Y10990D02*
Y11957D01*
Y9471D02*
Y10369D01*
Y7952D02*
Y8849D01*
X8743Y19623D02*
Y20520D01*
Y18103D02*
Y19001D01*
Y16584D02*
Y17482D01*
Y13131D02*
Y15341D01*
Y10990D02*
Y11888D01*
Y9471D02*
Y10369D01*
Y7952D02*
Y8849D01*
X8674Y19623D02*
Y20520D01*
Y18172D02*
Y19070D01*
Y16584D02*
Y17551D01*
Y13062D02*
Y15410D01*
Y10921D02*
Y11888D01*
Y9402D02*
Y10300D01*
Y7952D02*
Y8849D01*
X8605Y19692D02*
Y20590D01*
Y18172D02*
Y19070D01*
Y16584D02*
Y17551D01*
Y13062D02*
Y15410D01*
Y10921D02*
Y11819D01*
Y9402D02*
Y10300D01*
Y7882D02*
Y8780D01*
X8536Y19692D02*
Y20590D01*
Y18172D02*
Y19070D01*
Y16653D02*
Y17551D01*
Y12993D02*
Y15479D01*
Y10921D02*
Y11819D01*
Y9402D02*
Y10300D01*
Y7882D02*
Y8780D01*
X8467Y19692D02*
Y20590D01*
Y18172D02*
Y19070D01*
Y16653D02*
Y17551D01*
Y12924D02*
Y15548D01*
Y10852D02*
Y11819D01*
Y9402D02*
Y10300D01*
Y7882D02*
Y8780D01*
X8398Y19692D02*
Y20590D01*
Y18172D02*
Y19070D01*
Y16722D02*
Y17620D01*
Y12924D02*
Y15548D01*
Y10852D02*
Y11750D01*
Y9402D02*
Y10300D01*
Y7882D02*
Y8780D01*
X8329Y19692D02*
Y20590D01*
Y18241D02*
Y19139D01*
Y16722D02*
Y17620D01*
Y12855D02*
Y15617D01*
Y10852D02*
Y11750D01*
Y9333D02*
Y10231D01*
Y7882D02*
Y8780D01*
X8260Y19692D02*
Y20590D01*
Y18241D02*
Y19139D01*
Y16722D02*
Y17620D01*
Y12855D02*
Y15617D01*
Y10852D02*
Y11750D01*
Y9333D02*
Y10231D01*
Y7882D02*
Y8780D01*
X8191Y19692D02*
Y20590D01*
Y18241D02*
Y19139D01*
Y16722D02*
Y17620D01*
Y12786D02*
Y15686D01*
Y10852D02*
Y11750D01*
Y9333D02*
Y10231D01*
Y7882D02*
Y8780D01*
X8122Y19692D02*
Y20590D01*
Y18241D02*
Y19139D01*
Y16722D02*
Y17620D01*
Y12786D02*
Y15686D01*
Y10852D02*
Y11750D01*
Y9333D02*
Y10231D01*
Y7882D02*
Y8780D01*
X8052Y19692D02*
Y20590D01*
Y18241D02*
Y19139D01*
Y16791D02*
Y17689D01*
Y12786D02*
Y15686D01*
Y10783D02*
Y11681D01*
Y9333D02*
Y10231D01*
Y7882D02*
Y8711D01*
X7983Y19761D02*
Y20590D01*
Y18241D02*
Y19139D01*
Y16791D02*
Y17689D01*
Y12717D02*
Y15755D01*
Y10783D02*
Y11681D01*
Y9333D02*
Y10231D01*
Y7882D02*
Y8711D01*
X7914Y19761D02*
Y20590D01*
Y18241D02*
Y19139D01*
Y16791D02*
Y17689D01*
Y12717D02*
Y15755D01*
Y10783D02*
Y11681D01*
Y9333D02*
Y10231D01*
Y7882D02*
Y8711D01*
X7845Y19761D02*
Y20659D01*
Y18241D02*
Y19139D01*
Y16791D02*
Y17689D01*
Y12717D02*
Y15755D01*
Y10783D02*
Y11681D01*
Y9333D02*
Y10231D01*
Y7813D02*
Y8711D01*
X7776Y19761D02*
Y20659D01*
Y18241D02*
Y19139D01*
Y16791D02*
Y17689D01*
Y12717D02*
Y15755D01*
Y10783D02*
Y11681D01*
Y9333D02*
Y10231D01*
Y7813D02*
Y8711D01*
X7707Y19761D02*
Y20659D01*
Y18241D02*
Y19139D01*
Y16791D02*
Y17689D01*
Y12717D02*
Y15755D01*
Y10783D02*
Y11681D01*
Y9333D02*
Y10231D01*
Y7813D02*
Y8711D01*
X7638Y19761D02*
Y20659D01*
Y18241D02*
Y19139D01*
Y16791D02*
Y17689D01*
Y12717D02*
Y15755D01*
Y10783D02*
Y11681D01*
Y9333D02*
Y10231D01*
Y7813D02*
Y8711D01*
X7569Y19761D02*
Y20659D01*
Y18241D02*
Y19139D01*
Y16791D02*
Y17689D01*
Y12717D02*
Y15755D01*
Y10783D02*
Y11681D01*
Y9333D02*
Y10231D01*
Y7813D02*
Y8711D01*
X7500Y19761D02*
Y20659D01*
Y18241D02*
Y19139D01*
Y16791D02*
Y17689D01*
Y12717D02*
Y15755D01*
Y10783D02*
Y11681D01*
Y9333D02*
Y10231D01*
Y7813D02*
Y8711D01*
X7431Y19761D02*
Y20590D01*
Y18241D02*
Y19139D01*
Y16791D02*
Y17689D01*
Y12717D02*
Y15755D01*
Y10783D02*
Y11681D01*
Y9333D02*
Y10231D01*
Y7882D02*
Y8711D01*
X7362Y19761D02*
Y20590D01*
Y18241D02*
Y19139D01*
Y16791D02*
Y17689D01*
Y12717D02*
Y15755D01*
Y10783D02*
Y11681D01*
Y9333D02*
Y10231D01*
Y7882D02*
Y8711D01*
X7293Y19692D02*
Y20590D01*
Y18241D02*
Y19139D01*
Y16791D02*
Y17689D01*
Y12786D02*
Y15686D01*
Y10783D02*
Y11681D01*
Y9333D02*
Y10231D01*
Y7882D02*
Y8711D01*
X7224Y19692D02*
Y20590D01*
Y18241D02*
Y19139D01*
Y16722D02*
Y17620D01*
Y12786D02*
Y15686D01*
Y10852D02*
Y11750D01*
Y9333D02*
Y10231D01*
Y7882D02*
Y8780D01*
X7155Y19692D02*
Y20590D01*
Y18241D02*
Y19139D01*
Y16722D02*
Y17620D01*
Y12786D02*
Y15686D01*
Y10852D02*
Y11750D01*
Y9333D02*
Y10231D01*
Y7882D02*
Y8780D01*
X7086Y19692D02*
Y20590D01*
Y18241D02*
Y19139D01*
Y16722D02*
Y17620D01*
Y12855D02*
Y15617D01*
Y10852D02*
Y11750D01*
Y9333D02*
Y10231D01*
Y7882D02*
Y8780D01*
X7017Y19692D02*
Y20590D01*
Y18241D02*
Y19139D01*
Y16722D02*
Y17620D01*
Y12855D02*
Y15617D01*
Y10852D02*
Y11750D01*
Y9333D02*
Y10231D01*
Y7882D02*
Y8780D01*
X6948Y19692D02*
Y20590D01*
Y18172D02*
Y19070D01*
Y16722D02*
Y17620D01*
Y12855D02*
Y15548D01*
Y10852D02*
Y11750D01*
Y9402D02*
Y10300D01*
Y7882D02*
Y8780D01*
X6878Y19692D02*
Y20590D01*
Y18172D02*
Y19070D01*
Y16653D02*
Y17620D01*
Y12924D02*
Y15548D01*
Y10852D02*
Y11819D01*
Y9402D02*
Y10300D01*
Y7882D02*
Y8780D01*
X6809Y19692D02*
Y20590D01*
Y18172D02*
Y19070D01*
Y16653D02*
Y17551D01*
Y12993D02*
Y15479D01*
Y10921D02*
Y11819D01*
Y9402D02*
Y10300D01*
Y7882D02*
Y8780D01*
X6740Y19692D02*
Y20590D01*
Y18172D02*
Y19070D01*
Y16653D02*
Y17551D01*
Y12993D02*
Y15479D01*
Y10921D02*
Y11819D01*
Y9402D02*
Y10300D01*
Y7882D02*
Y8780D01*
X6671Y19623D02*
Y20520D01*
Y18172D02*
Y19070D01*
Y16584D02*
Y17551D01*
Y13062D02*
Y15410D01*
Y10921D02*
Y11888D01*
Y9402D02*
Y10300D01*
Y7952D02*
Y8849D01*
X6602Y19623D02*
Y20520D01*
Y18103D02*
Y19001D01*
Y16584D02*
Y17482D01*
Y13131D02*
Y15341D01*
Y10990D02*
Y11888D01*
Y9471D02*
Y10369D01*
Y7952D02*
Y8849D01*
X6533Y19623D02*
Y20520D01*
Y18103D02*
Y19001D01*
Y16515D02*
Y17482D01*
Y13200D02*
Y15272D01*
Y10990D02*
Y11957D01*
Y9471D02*
Y10369D01*
Y7952D02*
Y8849D01*
X6464Y19623D02*
Y20520D01*
Y18103D02*
Y19001D01*
Y16515D02*
Y17482D01*
Y13269D02*
Y15203D01*
Y10990D02*
Y11957D01*
Y9471D02*
Y10369D01*
Y7952D02*
Y8849D01*
X6395Y19554D02*
Y20520D01*
Y18034D02*
Y19001D01*
Y16446D02*
Y17413D01*
Y13407D02*
Y15065D01*
Y11059D02*
Y12026D01*
Y9471D02*
Y10438D01*
Y7952D02*
Y8849D01*
X6326Y19554D02*
Y20451D01*
Y18034D02*
Y18932D01*
Y16446D02*
Y17413D01*
Y13476D02*
Y14996D01*
Y11059D02*
Y12026D01*
Y9540D02*
Y10438D01*
Y8021D02*
Y8918D01*
X6257Y19554D02*
Y20451D01*
Y18034D02*
Y18932D01*
Y16377D02*
Y17344D01*
Y13683D02*
Y14788D01*
Y11128D02*
Y12095D01*
Y9540D02*
Y10438D01*
Y8021D02*
Y8918D01*
X6188Y19554D02*
Y20451D01*
Y17965D02*
Y18932D01*
Y16308D02*
Y17344D01*
Y13891D02*
Y14581D01*
Y11128D02*
Y12164D01*
Y9540D02*
Y10507D01*
Y8021D02*
Y8918D01*
X6119Y19554D02*
Y20451D01*
Y17965D02*
Y18932D01*
Y16239D02*
Y17275D01*
Y11128D02*
Y12233D01*
Y9540D02*
Y10507D01*
Y8021D02*
Y8918D01*
X6050Y19485D02*
Y20451D01*
Y17896D02*
Y18863D01*
Y16239D02*
Y17275D01*
Y11197D02*
Y12233D01*
Y9609D02*
Y10576D01*
Y8021D02*
Y8987D01*
X5981Y19485D02*
Y20382D01*
Y17896D02*
Y18863D01*
Y16170D02*
Y17206D01*
Y11266D02*
Y12302D01*
Y9609D02*
Y10576D01*
Y8090D02*
Y8987D01*
X5912Y19415D02*
Y20382D01*
Y17896D02*
Y18794D01*
Y16101D02*
Y17206D01*
Y11266D02*
Y12371D01*
Y9678D02*
Y10576D01*
Y8090D02*
Y8987D01*
X5843Y19415D02*
Y20382D01*
Y17827D02*
Y18794D01*
Y16101D02*
Y17136D01*
Y11336D02*
Y12371D01*
Y9678D02*
Y10645D01*
Y8090D02*
Y9057D01*
X5773Y19415D02*
Y20313D01*
Y17827D02*
Y18794D01*
Y16101D02*
Y17136D01*
Y11336D02*
Y12371D01*
Y9678D02*
Y10645D01*
Y8159D02*
Y9057D01*
X5704Y19346D02*
Y20313D01*
Y17758D02*
Y18725D01*
Y16170D02*
Y17067D01*
Y11405D02*
Y12302D01*
Y9747D02*
Y10714D01*
Y8159D02*
Y9126D01*
X5635Y19346D02*
Y20313D01*
Y17689D02*
Y18725D01*
Y16239D02*
Y16998D01*
Y11474D02*
Y12233D01*
Y9747D02*
Y10783D01*
Y8159D02*
Y9126D01*
X5566Y19346D02*
Y20244D01*
Y17689D02*
Y18656D01*
Y16308D02*
Y16929D01*
Y11543D02*
Y12164D01*
Y9816D02*
Y10783D01*
Y8228D02*
Y9126D01*
X5497Y19277D02*
Y20244D01*
Y17620D02*
Y18656D01*
Y16377D02*
Y16929D01*
Y11543D02*
Y12095D01*
Y9816D02*
Y10852D01*
Y8228D02*
Y9195D01*
X5428Y19277D02*
Y20244D01*
Y17620D02*
Y18587D01*
Y16446D02*
Y16860D01*
Y11612D02*
Y12026D01*
Y9885D02*
Y10852D01*
Y8228D02*
Y9195D01*
X5359Y19208D02*
Y20175D01*
Y17551D02*
Y18587D01*
Y16515D02*
Y16791D01*
Y11681D02*
Y11957D01*
Y9885D02*
Y10921D01*
Y8297D02*
Y9264D01*
X5290Y19208D02*
Y20175D01*
Y17482D02*
Y18518D01*
Y16584D02*
Y16722D01*
Y11750D02*
Y11888D01*
Y9954D02*
Y10990D01*
Y8297D02*
Y9264D01*
X5221Y19139D02*
Y20106D01*
Y17413D02*
Y18518D01*
Y9954D02*
Y11059D01*
Y8297D02*
Y9333D01*
X5152Y19139D02*
Y20106D01*
Y17413D02*
Y18449D01*
Y10023D02*
Y11059D01*
Y8366D02*
Y9333D01*
X5083Y19070D02*
Y20106D01*
Y17344D02*
Y18449D01*
Y10023D02*
Y11128D01*
Y8366D02*
Y9402D01*
X5014Y19070D02*
Y20037D01*
Y17275D02*
Y18380D01*
Y10092D02*
Y11197D01*
Y8435D02*
Y9402D01*
X4945Y19001D02*
Y20037D01*
Y17206D02*
Y18311D01*
Y10161D02*
Y11266D01*
Y8435D02*
Y9471D01*
X4876Y19001D02*
Y19968D01*
Y17136D02*
Y18311D01*
Y10161D02*
Y11336D01*
Y8504D02*
Y9471D01*
X4807Y18932D02*
Y19968D01*
Y17136D02*
Y18241D01*
Y10231D02*
Y11336D01*
Y8504D02*
Y9540D01*
X4738Y18863D02*
Y19899D01*
Y17136D02*
Y18172D01*
Y10300D02*
Y11336D01*
Y8573D02*
Y9609D01*
X4668Y18863D02*
Y19899D01*
Y17206D02*
Y18103D01*
Y10369D02*
Y11266D01*
Y8573D02*
Y9609D01*
X4600Y18794D02*
Y19830D01*
Y17275D02*
Y18103D01*
Y10369D02*
Y11197D01*
Y8642D02*
Y9678D01*
X4530Y18725D02*
Y19830D01*
Y17344D02*
Y18034D01*
Y10438D02*
Y11128D01*
Y8642D02*
Y9747D01*
X4461Y18725D02*
Y19761D01*
Y17413D02*
Y17965D01*
Y10507D02*
Y11059D01*
Y8711D02*
Y9747D01*
X4392Y18656D02*
Y19692D01*
Y17482D02*
Y17896D01*
Y10576D02*
Y10990D01*
Y8780D02*
Y9816D01*
X4323Y18587D02*
Y19692D01*
Y17551D02*
Y17827D01*
Y10645D02*
Y10921D01*
Y8780D02*
Y9885D01*
X4254Y18518D02*
Y19623D01*
Y17620D02*
Y17758D01*
Y10714D02*
Y10852D01*
Y8849D02*
Y9885D01*
X4185Y18518D02*
Y19623D01*
Y8849D02*
Y9954D01*
X4116Y18449D02*
Y19554D01*
Y8918D02*
Y10023D01*
X4047Y18380D02*
Y19485D01*
Y8987D02*
Y10092D01*
X3978Y18311D02*
Y19485D01*
Y8987D02*
Y10161D01*
X3909Y18241D02*
Y19415D01*
Y9057D02*
Y10231D01*
X3840Y18172D02*
Y19346D01*
Y9126D02*
Y10300D01*
X3771Y18172D02*
Y19277D01*
Y9195D02*
Y10300D01*
X3702Y18172D02*
Y19277D01*
Y9195D02*
Y10300D01*
X3633Y18241D02*
Y19208D01*
Y9264D02*
Y10231D01*
X3564Y18311D02*
Y19139D01*
Y9333D02*
Y10161D01*
X3494Y18380D02*
Y19070D01*
Y9402D02*
Y10092D01*
X3426Y18449D02*
Y19001D01*
Y9471D02*
Y10023D01*
X3356Y18518D02*
Y18932D01*
Y9540D02*
Y9954D01*
X3287Y18587D02*
Y18863D01*
Y9609D02*
Y9885D01*
X3218Y18656D02*
Y18794D01*
Y9678D02*
Y9816D01*
D19*
X49291Y324449D02*
X183150D01*
X183150Y210276D01*
X49291D02*
X183150D01*
X49291D02*
Y324449D01*
D20*
X327325Y97626D02*
X326669Y98282D01*
X325357D01*
X324701Y97626D01*
Y95002D01*
X325357Y94346D01*
X326669D01*
X327325Y95002D01*
Y96314D01*
X326013D01*
X351734Y97626D02*
X351078Y98282D01*
X349766D01*
X349110Y97626D01*
Y96970D01*
X349766Y96314D01*
X351078D01*
X351734Y95658D01*
Y95002D01*
X351078Y94346D01*
X349766D01*
X349110Y95002D01*
X338480Y83322D02*
Y79386D01*
X340448D01*
X341104Y80042D01*
Y82666D01*
X340448Y83322D01*
X338480D01*
X104197Y178993D02*
X103410Y179780D01*
Y181354D01*
X102623Y182141D01*
X104590Y199070D02*
X103803Y199857D01*
Y201431D01*
X103016Y202218D01*
D21*
X271411Y239803D02*
D03*
X192992Y239803D02*
D03*
D22*
X281559Y150728D02*
D03*
X249559Y29928D02*
D03*
D23*
X138841Y138216D02*
D03*
M02*
