G04*
G04 #@! TF.GenerationSoftware,Altium Limited,Altium Designer,24.2.2 (26)*
G04*
G04 Layer_Color=128*
%FSLAX25Y25*%
%MOIN*%
G70*
G04*
G04 #@! TF.SameCoordinates,F296BD43-7A1A-4B5F-AFD2-8FBC70BB071E*
G04*
G04*
G04 #@! TF.FilePolarity,Positive*
G04*
G01*
G75*
%ADD17C,0.00500*%
D17*
X344355Y81945D02*
X346323D01*
X345339Y80960D02*
Y82929D01*
X344355Y96087D02*
X346323D01*
X345339Y95103D02*
Y97071D01*
X330212Y96087D02*
X332181D01*
X331197Y95103D02*
Y97071D01*
X301864Y47371D02*
X305013D01*
X303439Y45796D02*
Y48945D01*
X301864Y41465D02*
X305013D01*
X303439Y39890D02*
Y43040D01*
X301864Y35560D02*
X305013D01*
X303439Y33985D02*
Y37134D01*
X301864Y29654D02*
X305013D01*
X303439Y28079D02*
Y31229D01*
X301864Y23749D02*
X305013D01*
X303439Y22174D02*
Y25323D01*
X301864Y17843D02*
X305013D01*
X303439Y16268D02*
Y19418D01*
X201201Y177374D02*
X203957D01*
X202579Y175996D02*
Y178752D01*
X215120Y191293D02*
X217876D01*
X216498Y189916D02*
Y192671D01*
X190787Y323228D02*
X195905D01*
X193347Y320669D02*
Y325787D01*
X220787Y253228D02*
X225905D01*
X223346Y250669D02*
Y255787D01*
X220787Y313228D02*
X225905D01*
X223346Y310669D02*
Y315787D01*
X190787Y293228D02*
X195905D01*
X193347Y290669D02*
Y295787D01*
X190787Y253228D02*
X195905D01*
X193347Y250669D02*
Y255787D01*
X241181Y323228D02*
X246299D01*
X243740Y320669D02*
Y325787D01*
X271181Y253228D02*
X276299D01*
X273740Y250669D02*
Y255787D01*
X271181Y313228D02*
X276299D01*
X273740Y310669D02*
Y315787D01*
X241181Y293228D02*
X246299D01*
X243740Y290669D02*
Y295787D01*
X241181Y253228D02*
X246299D01*
X243740Y250669D02*
Y255787D01*
X54985Y55374D02*
X55772D01*
X55379Y54980D02*
Y55768D01*
X54985Y62598D02*
X55772D01*
X55379Y62205D02*
Y62992D01*
X58597Y51762D02*
X59385D01*
X58991Y51368D02*
Y52156D01*
X58597Y58986D02*
X59385D01*
X58991Y58592D02*
Y59380D01*
X58597Y66211D02*
X59385D01*
X58991Y65817D02*
Y66604D01*
X62209Y55374D02*
X62997D01*
X62603Y54980D02*
Y55768D01*
X62209Y62598D02*
X62997D01*
X62603Y62205D02*
Y62992D01*
X65822Y51762D02*
X66609D01*
X66215Y51368D02*
Y52156D01*
X65822Y58986D02*
X66609D01*
X66215Y58592D02*
Y59380D01*
X65822Y66211D02*
X66609D01*
X66215Y65817D02*
Y66604D01*
X69434Y55374D02*
X70221D01*
X69828Y54980D02*
Y55768D01*
X69434Y62598D02*
X70221D01*
X69828Y62205D02*
Y62992D01*
X175186Y52077D02*
X179910D01*
X177548Y49715D02*
Y54439D01*
X198414Y39872D02*
X203139D01*
X200776Y37510D02*
Y42235D01*
X179910Y27274D02*
X183847D01*
X181879Y25306D02*
Y29243D01*
X177745Y9557D02*
X186013D01*
X181879Y5424D02*
Y13691D01*
X116422Y9224D02*
X119965D01*
X118193Y7452D02*
Y10996D01*
X128233Y9224D02*
X131776D01*
X130004Y7452D02*
Y10996D01*
X272524Y18150D02*
X275674D01*
X274099Y16575D02*
Y19725D01*
X272524Y24056D02*
X275674D01*
X274099Y22481D02*
Y25631D01*
X272524Y29961D02*
X275674D01*
X274099Y28387D02*
Y31536D01*
X272524Y35867D02*
X275674D01*
X274099Y34292D02*
Y37442D01*
X272524Y41772D02*
X275674D01*
X274099Y40198D02*
Y43347D01*
X272524Y47678D02*
X275674D01*
X274099Y46103D02*
Y49253D01*
X75079Y227992D02*
X78622D01*
X76850Y226220D02*
Y229764D01*
X20704Y110632D02*
X23854D01*
X22279Y109057D02*
Y112206D01*
X20704Y130316D02*
X23854D01*
X22279Y128742D02*
Y131891D01*
X157165Y345315D02*
X161102D01*
X159134Y343347D02*
Y347284D01*
X39055Y345315D02*
X42992D01*
X41024Y343347D02*
Y347284D01*
X19173Y328780D02*
X25866D01*
X22520Y325433D02*
Y332126D01*
X19173Y348780D02*
X25866D01*
X22520Y345433D02*
Y352126D01*
X12087Y293347D02*
X14842D01*
X13465Y291968D02*
Y294724D01*
X31772Y293347D02*
X34528D01*
X33150Y291968D02*
Y294724D01*
X12087Y248858D02*
X14842D01*
X13465Y247480D02*
Y250236D01*
X31772Y248858D02*
X34528D01*
X33150Y247480D02*
Y250236D01*
X46138Y185205D02*
X50862D01*
X48500Y182843D02*
Y187567D01*
X33933Y161976D02*
X38658D01*
X36295Y159614D02*
Y164339D01*
X21728Y180874D02*
X25665D01*
X23697Y178905D02*
Y182843D01*
X1846Y180874D02*
X10114D01*
X5980Y176740D02*
Y185008D01*
X265394Y345709D02*
X272087D01*
X268740Y342362D02*
Y349055D01*
X245394Y345709D02*
X252087D01*
X248740Y342362D02*
Y349055D01*
X215000Y345709D02*
X221693D01*
X218347Y342362D02*
Y349055D01*
X195000Y345709D02*
X201693D01*
X198346Y342362D02*
Y349055D01*
X94764Y306732D02*
X98307D01*
X96535Y304961D02*
Y308504D01*
X134134Y306732D02*
X137677D01*
X135906Y304961D02*
Y308504D01*
X153819Y227992D02*
X157362D01*
X155591Y226220D02*
Y229764D01*
X380069Y56714D02*
X381644D01*
X380857Y55927D02*
Y57502D01*
X373219Y5264D02*
X374794D01*
X374007Y4477D02*
Y6052D01*
X333119Y23114D02*
X334694D01*
X333907Y22327D02*
Y23902D01*
X320919Y27814D02*
X322494D01*
X321707Y27027D02*
Y28602D01*
X368219Y5264D02*
X369794D01*
X369007Y4477D02*
Y6052D01*
X310819Y79664D02*
X312394D01*
X311607Y78877D02*
Y80452D01*
X312569Y93864D02*
X314144D01*
X313357Y93077D02*
Y94652D01*
X339707Y96014D02*
X341307D01*
X340507Y95214D02*
Y96814D01*
X230188Y65578D02*
X231369D01*
X230779Y64987D02*
Y66168D01*
X233388Y68556D02*
X234569D01*
X233979Y67965D02*
Y69146D01*
X213894Y123394D02*
X215272D01*
X214583Y122705D02*
Y124083D01*
X156091Y183574D02*
X157666D01*
X156879Y182787D02*
Y184361D01*
X160091Y183574D02*
X161666D01*
X160879Y182787D02*
Y184361D01*
X164091Y183574D02*
X165666D01*
X164879Y182787D02*
Y184361D01*
X168091Y183574D02*
X169666D01*
X168879Y182787D02*
Y184361D01*
X187091Y135974D02*
X188666D01*
X187879Y135187D02*
Y136761D01*
X191591Y135974D02*
X193166D01*
X192379Y135187D02*
Y136761D01*
X157091Y126424D02*
X158666D01*
X157879Y125637D02*
Y127211D01*
X260191Y17824D02*
X261766D01*
X260979Y17037D02*
Y18611D01*
X259941Y10024D02*
X261516D01*
X260729Y9237D02*
Y10811D01*
X269541Y115324D02*
X271116D01*
X270329Y114537D02*
Y116111D01*
X264541Y115324D02*
X266116D01*
X265329Y114537D02*
Y116111D01*
X259541Y115324D02*
X261116D01*
X260329Y114537D02*
Y116111D01*
X193788Y92374D02*
X194969D01*
X194379Y91783D02*
Y92965D01*
X266441Y10024D02*
X268016D01*
X267229Y9237D02*
Y10811D01*
X254941Y10024D02*
X256516D01*
X255729Y9237D02*
Y10811D01*
X266441Y18074D02*
X268016D01*
X267229Y17287D02*
Y18861D01*
X255191Y17824D02*
X256766D01*
X255979Y17037D02*
Y18611D01*
X231341Y232224D02*
X232916D01*
X232129Y231437D02*
Y233011D01*
X226841Y232224D02*
X228416D01*
X227629Y231437D02*
Y233011D01*
X207791Y168374D02*
X209366D01*
X208579Y167587D02*
Y169161D01*
X201791Y168374D02*
X203366D01*
X202579Y167587D02*
Y169161D01*
X207791Y172374D02*
X209366D01*
X208579Y171587D02*
Y173161D01*
X195241Y172374D02*
X196816D01*
X196029Y171587D02*
Y173161D01*
X201791Y172374D02*
X203366D01*
X202579Y171587D02*
Y173161D01*
X195241Y177374D02*
X196816D01*
X196029Y176587D02*
Y178161D01*
X138641Y89374D02*
X140216D01*
X139429Y88587D02*
Y90161D01*
X138641Y94374D02*
X140216D01*
X139429Y93587D02*
Y95161D01*
X138641Y99874D02*
X140216D01*
X139429Y99087D02*
Y100661D01*
X191591Y126974D02*
X193166D01*
X192379Y126187D02*
Y127761D01*
X187091Y126974D02*
X188666D01*
X187879Y126187D02*
Y127761D01*
X162591Y126424D02*
X164166D01*
X163379Y125637D02*
Y127211D01*
X144241Y139924D02*
X145816D01*
X145029Y139137D02*
Y140711D01*
X144241Y142924D02*
X145816D01*
X145029Y142137D02*
Y143711D01*
X144241Y145924D02*
X145816D01*
X145029Y145137D02*
Y146711D01*
X247741Y113824D02*
X249316D01*
X248529Y113037D02*
Y114611D01*
X232088Y74824D02*
X233269D01*
X232679Y74234D02*
Y75415D01*
X238291Y73974D02*
X239866D01*
X239079Y73187D02*
Y74761D01*
X251590Y89174D02*
X252968D01*
X252279Y88485D02*
Y89863D01*
X228243Y23924D02*
X229424D01*
X228834Y23334D02*
Y24515D01*
X240791Y126924D02*
X242366D01*
X241579Y126137D02*
Y127711D01*
X280041Y158474D02*
X281616D01*
X280829Y157687D02*
Y159261D01*
X222341Y232224D02*
X223916D01*
X223129Y231437D02*
Y233011D01*
X251541Y217024D02*
X253116D01*
X252329Y216237D02*
Y217811D01*
X257041Y217024D02*
X258616D01*
X257829Y216237D02*
Y217811D01*
X246041Y217024D02*
X247616D01*
X246829Y216237D02*
Y217811D01*
X25991Y6174D02*
X27566D01*
X26779Y5387D02*
Y6961D01*
X26291Y12824D02*
X27866D01*
X27079Y12037D02*
Y13611D01*
X26291Y19824D02*
X27866D01*
X27079Y19037D02*
Y20611D01*
X115040Y90224D02*
X116418D01*
X115729Y89535D02*
Y90913D01*
X115040Y93224D02*
X116418D01*
X115729Y92535D02*
Y93913D01*
X53941Y21174D02*
X55516D01*
X54729Y20387D02*
Y21961D01*
X236379Y38524D02*
X237579D01*
X236979Y37924D02*
Y39124D01*
X236268Y49174D02*
X237252D01*
X236760Y48682D02*
Y49666D01*
X253341Y53574D02*
X254916D01*
X254129Y52787D02*
Y54361D01*
X262341Y53574D02*
X263916D01*
X263129Y52787D02*
Y54361D01*
X258341Y53574D02*
X259916D01*
X259129Y52787D02*
Y54361D01*
X249341Y53574D02*
X250916D01*
X250129Y52787D02*
Y54361D01*
X207581Y86924D02*
X208959D01*
X208270Y86235D02*
Y87613D01*
X222239Y77025D02*
X223617D01*
X222928Y76336D02*
Y77714D01*
X218890Y125374D02*
X220268D01*
X219579Y124685D02*
Y126063D01*
X206090Y81424D02*
X207468D01*
X206779Y80735D02*
Y82113D01*
X276088Y104844D02*
X277269D01*
X276679Y104253D02*
Y105434D01*
X274305Y103060D02*
X275486D01*
X274895Y102470D02*
Y103651D01*
X147990Y121874D02*
X149368D01*
X148679Y121185D02*
Y122563D01*
X166390Y103874D02*
X167768D01*
X167079Y103185D02*
Y104563D01*
X254940Y176524D02*
X256318D01*
X255629Y175835D02*
Y177213D01*
X115040Y87224D02*
X116418D01*
X115729Y86535D02*
Y87913D01*
X125590Y145074D02*
X126968D01*
X126279Y144385D02*
Y145763D01*
X281240Y142374D02*
X282618D01*
X281929Y141685D02*
Y143063D01*
X281340Y145474D02*
X282718D01*
X282029Y144785D02*
Y146163D01*
X246890Y135874D02*
X248268D01*
X247579Y135185D02*
Y136563D01*
X209390Y59374D02*
X210768D01*
X210079Y58685D02*
Y60063D01*
X232690Y137774D02*
X234068D01*
X233379Y137085D02*
Y138463D01*
X233890Y153374D02*
X235268D01*
X234579Y152685D02*
Y154063D01*
X230901Y206890D02*
X232278D01*
X231589Y206201D02*
Y207579D01*
X248194Y186890D02*
X249572D01*
X248883Y186201D02*
Y187579D01*
X248194Y196890D02*
X249572D01*
X248883Y196201D02*
Y197579D01*
X225387Y136474D02*
X226765D01*
X226076Y135785D02*
Y137163D01*
X229290Y136274D02*
X230668D01*
X229979Y135585D02*
Y136963D01*
X209390Y69274D02*
X210768D01*
X210079Y68585D02*
Y69963D01*
X71190Y118474D02*
X72568D01*
X71879Y117785D02*
Y119163D01*
X44871Y110355D02*
X46249D01*
X45560Y109666D02*
Y111044D01*
X41390Y104874D02*
X42768D01*
X42079Y104185D02*
Y105563D01*
X214390Y75374D02*
X215768D01*
X215079Y74685D02*
Y76063D01*
X126390Y23555D02*
X127768D01*
X127079Y22866D02*
Y24244D01*
X77890Y19874D02*
X79268D01*
X78579Y19185D02*
Y20563D01*
X222206Y125927D02*
X223584D01*
X222895Y125238D02*
Y126616D01*
X224890Y156374D02*
X226268D01*
X225579Y155685D02*
Y157063D01*
X155890Y146374D02*
X157268D01*
X156579Y145685D02*
Y147063D01*
X155890Y151374D02*
X157268D01*
X156579Y150685D02*
Y152063D01*
X155890Y156374D02*
X157268D01*
X156579Y155685D02*
Y157063D01*
X249390Y34074D02*
X250768D01*
X250079Y33385D02*
Y34763D01*
X125590Y141074D02*
X126968D01*
X126279Y140385D02*
Y141763D01*
X95820Y148354D02*
X97198D01*
X96509Y147665D02*
Y149043D01*
X44210Y6934D02*
X45588D01*
X44899Y6245D02*
Y7623D01*
X47260Y6934D02*
X48638D01*
X47949Y6245D02*
Y7623D01*
X41160Y6934D02*
X42538D01*
X41849Y6245D02*
Y7623D01*
X41980Y188014D02*
X43358D01*
X42669Y187325D02*
Y188703D01*
X41880Y181614D02*
X43258D01*
X42569Y180925D02*
Y182303D01*
X64390Y125474D02*
X65768D01*
X65079Y124785D02*
Y126163D01*
X64390Y129474D02*
X65768D01*
X65079Y128785D02*
Y130163D01*
X41880Y175544D02*
X43258D01*
X42569Y174855D02*
Y176233D01*
X56960Y187324D02*
X58338D01*
X57649Y186635D02*
Y188013D01*
X56960Y192744D02*
X58338D01*
X57649Y192055D02*
Y193433D01*
M02*
