G04*
G04 #@! TF.GenerationSoftware,Altium Limited,Altium Designer,24.2.2 (26)*
G04*
G04 Layer_Color=128*
%FSLAX25Y25*%
%MOIN*%
G70*
G04*
G04 #@! TF.SameCoordinates,F296BD43-7A1A-4B5F-AFD2-8FBC70BB071E*
G04*
G04*
G04 #@! TF.FilePolarity,Positive*
G04*
G01*
G75*
%ADD26R,0.03800X0.03100*%
%ADD30R,0.05512X0.03150*%
%ADD31R,0.06512X0.04150*%
%ADD40R,0.03100X0.03800*%
%ADD223R,0.03362X0.05331*%
%ADD224R,0.05528X0.07693*%
%ADD225R,0.06669X0.08165*%
G04:AMPARAMS|DCode=226|XSize=72.99mil|YSize=34.02mil|CornerRadius=8mil|HoleSize=0mil|Usage=FLASHONLY|Rotation=180.000|XOffset=0mil|YOffset=0mil|HoleType=Round|Shape=RoundedRectangle|*
%AMROUNDEDRECTD226*
21,1,0.07299,0.01801,0,0,180.0*
21,1,0.05699,0.03402,0,0,180.0*
1,1,0.01600,-0.02849,0.00901*
1,1,0.01600,0.02849,0.00901*
1,1,0.01600,0.02849,-0.00901*
1,1,0.01600,-0.02849,-0.00901*
%
%ADD226ROUNDEDRECTD226*%
%ADD227R,0.08165X0.06669*%
D26*
X341626Y49114D02*
D03*
X347926D02*
D03*
X329676Y27564D02*
D03*
X335976D02*
D03*
X329476Y19014D02*
D03*
X335776D02*
D03*
X319976Y61364D02*
D03*
X313676D02*
D03*
X335722Y101898D02*
D03*
X329422D02*
D03*
X379026Y27564D02*
D03*
X372726D02*
D03*
D30*
X310919Y89497D02*
D03*
X320761Y67056D02*
D03*
X312888Y66662D02*
D03*
X321311Y16662D02*
D03*
X320854Y49014D02*
D03*
X328335D02*
D03*
X313374D02*
D03*
D31*
X310919Y82016D02*
D03*
X320761Y74536D02*
D03*
X312888Y74142D02*
D03*
X321311Y9182D02*
D03*
X320854Y41533D02*
D03*
X328335D02*
D03*
X313374D02*
D03*
D40*
X383360Y32606D02*
D03*
Y38906D02*
D03*
X388478D02*
D03*
Y32606D02*
D03*
X378242Y34106D02*
D03*
Y40406D02*
D03*
X373124Y34106D02*
D03*
Y40406D02*
D03*
X379348Y7953D02*
D03*
Y14253D02*
D03*
X339541Y32906D02*
D03*
Y39206D02*
D03*
X334422D02*
D03*
Y32906D02*
D03*
X321705Y21583D02*
D03*
Y27883D02*
D03*
X379423Y55442D02*
D03*
Y49142D02*
D03*
X374230Y14253D02*
D03*
Y7953D02*
D03*
X326667Y73945D02*
D03*
Y67645D02*
D03*
D223*
X325289Y80245D02*
D03*
X321549D02*
D03*
X317809D02*
D03*
X325289Y90481D02*
D03*
X317809D02*
D03*
D224*
X311313Y97961D02*
D03*
X322336D02*
D03*
D225*
X361565Y49536D02*
D03*
X372084D02*
D03*
D226*
X345670Y38964D02*
D03*
Y33964D02*
D03*
Y28964D02*
D03*
Y23964D02*
D03*
Y18964D02*
D03*
Y13964D02*
D03*
Y8964D02*
D03*
X366182D02*
D03*
Y13964D02*
D03*
Y18964D02*
D03*
Y23964D02*
D03*
Y28964D02*
D03*
Y33964D02*
D03*
Y38964D02*
D03*
D227*
X386509Y15142D02*
D03*
Y25662D02*
D03*
M02*
