G04*
G04 #@! TF.GenerationSoftware,Altium Limited,Altium Designer,24.2.2 (26)*
G04*
G04 Layer_Color=8388736*
%FSLAX25Y25*%
%MOIN*%
G70*
G04*
G04 #@! TF.SameCoordinates,F296BD43-7A1A-4B5F-AFD2-8FBC70BB071E*
G04*
G04*
G04 #@! TF.FilePolarity,Negative*
G04*
G01*
G75*
%ADD63R,0.03622X0.05984*%
%ADD64R,0.04194X0.03494*%
%ADD65R,0.04016X0.03622*%
%ADD66R,0.12284X0.06378*%
%ADD67R,0.05591X0.03032*%
%ADD68R,0.05984X0.03622*%
G04:AMPARAMS|DCode=69|XSize=67.72mil|YSize=53.94mil|CornerRadius=0mil|HoleSize=0mil|Usage=FLASHONLY|Rotation=237.000|XOffset=0mil|YOffset=0mil|HoleType=Round|Shape=Rectangle|*
%AMROTATEDRECTD69*
4,1,4,-0.00418,0.04308,0.04106,0.01371,0.00418,-0.04308,-0.04106,-0.01371,-0.00418,0.04308,0.0*
%
%ADD69ROTATEDRECTD69*%

%ADD70R,0.02441X0.02047*%
%ADD71R,0.03622X0.04016*%
%ADD72R,0.01575X0.05118*%
%ADD73R,0.05118X0.01575*%
%ADD74R,0.05709X0.05709*%
%ADD75R,0.04016X0.08346*%
%ADD76R,0.08346X0.04016*%
%ADD77R,0.03494X0.04194*%
G04:AMPARAMS|DCode=78|XSize=52.36mil|YSize=27.95mil|CornerRadius=5.27mil|HoleSize=0mil|Usage=FLASHONLY|Rotation=270.000|XOffset=0mil|YOffset=0mil|HoleType=Round|Shape=RoundedRectangle|*
%AMROUNDEDRECTD78*
21,1,0.05236,0.01742,0,0,270.0*
21,1,0.04183,0.02795,0,0,270.0*
1,1,0.01053,-0.00871,-0.02092*
1,1,0.01053,-0.00871,0.02092*
1,1,0.01053,0.00871,0.02092*
1,1,0.01053,0.00871,-0.02092*
%
%ADD78ROUNDEDRECTD78*%
%ADD79R,0.04409X0.02441*%
%ADD80R,0.02559X0.01614*%
%ADD81R,0.07490X0.07490*%
%ADD82R,0.06309X0.05522*%
%ADD83R,0.05719X0.05128*%
%ADD84R,0.01585X0.05325*%
%ADD85R,0.15364X0.24420*%
%ADD86R,0.13002X0.17333*%
%ADD87R,0.02766X0.05916*%
%ADD88R,0.03947X0.03160*%
%ADD89R,0.05197X0.06772*%
%ADD90R,0.13465X0.06772*%
%ADD91R,0.05197X0.03032*%
%ADD92R,0.13396X0.05128*%
%ADD93R,0.08475X0.08868*%
%ADD94R,0.06575X0.05197*%
%ADD95R,0.06299X0.02362*%
%ADD96R,0.07884X0.04341*%
%ADD97R,0.24420X0.15364*%
%ADD98R,0.17333X0.13002*%
%ADD99C,0.04409*%
%ADD100O,0.06378X0.05197*%
%ADD101C,0.06378*%
%ADD102C,0.10236*%
%ADD103C,0.01654*%
%ADD104O,0.14183X0.07097*%
%ADD105O,0.07884X0.15758*%
%ADD106O,0.15758X0.07884*%
%ADD107C,0.08278*%
%ADD108C,0.03553*%
%ADD109C,0.08346*%
%ADD110C,0.08268*%
%ADD111C,0.10049*%
%ADD112O,0.07097X0.14183*%
G36*
X300572Y16223D02*
Y19289D01*
X301707Y20424D01*
X305722D01*
X306772Y19374D01*
X306772Y16339D01*
X304364Y13931D01*
X302864D01*
X300572Y16223D01*
D02*
G37*
G36*
X306662Y49243D02*
Y46178D01*
X305526Y45042D01*
X301512D01*
X300462Y46092D01*
X300462Y49128D01*
X302870Y51535D01*
X304370D01*
X306662Y49243D01*
D02*
G37*
D63*
X334869Y65674D02*
D03*
X342350D02*
D03*
X133859Y88074D02*
D03*
X126379D02*
D03*
X38079Y12604D02*
D03*
X30598D02*
D03*
X38079Y19904D02*
D03*
X30598D02*
D03*
X170559Y161134D02*
D03*
X163079D02*
D03*
X47239Y136074D02*
D03*
X54719D02*
D03*
D64*
X335109Y58424D02*
D03*
X341409D02*
D03*
X341418Y39424D02*
D03*
X335118D02*
D03*
X127329Y115674D02*
D03*
X133629D02*
D03*
X156089Y105252D02*
D03*
X162389D02*
D03*
X178329Y82374D02*
D03*
X184629D02*
D03*
X178379Y87574D02*
D03*
X184679D02*
D03*
X156089Y100134D02*
D03*
X162389D02*
D03*
X156089Y95016D02*
D03*
X162389D02*
D03*
X172929Y93074D02*
D03*
X179229D02*
D03*
X172479Y115974D02*
D03*
X178779D02*
D03*
X211129Y126474D02*
D03*
X204829D02*
D03*
X257629Y103591D02*
D03*
X263929D02*
D03*
X257629Y108315D02*
D03*
X263929D02*
D03*
X247579Y95174D02*
D03*
X253879D02*
D03*
X239029Y78274D02*
D03*
X232729D02*
D03*
X237440Y227304D02*
D03*
X243740D02*
D03*
X250929Y227274D02*
D03*
X257229D02*
D03*
X37469Y6234D02*
D03*
X31169D02*
D03*
X96429Y117174D02*
D03*
X102729D02*
D03*
X65229Y115874D02*
D03*
X58929D02*
D03*
X71929Y19954D02*
D03*
X65629D02*
D03*
X200429Y225574D02*
D03*
X206729D02*
D03*
D65*
X334872Y52414D02*
D03*
Y44934D02*
D03*
X342746Y48674D02*
D03*
X57706Y13844D02*
D03*
Y21324D02*
D03*
X49832Y17584D02*
D03*
X54416Y120834D02*
D03*
Y128314D02*
D03*
X46542Y124574D02*
D03*
D66*
X76668Y157174D02*
D03*
X100290D02*
D03*
D67*
X269302Y142274D02*
D03*
Y147274D02*
D03*
Y152274D02*
D03*
Y157274D02*
D03*
X247255D02*
D03*
Y152274D02*
D03*
Y147274D02*
D03*
Y142274D02*
D03*
D68*
X256179Y32114D02*
D03*
Y24634D02*
D03*
X198829Y84734D02*
D03*
Y92214D02*
D03*
X170279Y127434D02*
D03*
Y134914D02*
D03*
X239879Y142014D02*
D03*
Y134534D02*
D03*
X276379Y152274D02*
D03*
Y159754D02*
D03*
X263856Y48057D02*
D03*
Y40576D02*
D03*
X257164Y48057D02*
D03*
Y40576D02*
D03*
X250077Y48057D02*
D03*
Y40576D02*
D03*
X73086Y135554D02*
D03*
Y128074D02*
D03*
X79779Y135554D02*
D03*
Y128074D02*
D03*
X143096Y177114D02*
D03*
Y169634D02*
D03*
X135679Y177114D02*
D03*
Y169634D02*
D03*
X179110Y127434D02*
D03*
Y134914D02*
D03*
D69*
X186902Y98328D02*
D03*
X194835Y110545D02*
D03*
X187571Y115262D02*
D03*
X179638Y103045D02*
D03*
D70*
X274167Y239803D02*
D03*
X263931D02*
D03*
X190236Y239803D02*
D03*
X200472D02*
D03*
D71*
X255019Y240091D02*
D03*
X258759Y232217D02*
D03*
X251279D02*
D03*
X205369D02*
D03*
X212849D02*
D03*
X209109Y240091D02*
D03*
D72*
X211042Y118746D02*
D03*
X213011D02*
D03*
X214979D02*
D03*
X216948D02*
D03*
X218916D02*
D03*
X220884D02*
D03*
X222853D02*
D03*
X224821D02*
D03*
X226790D02*
D03*
X228759D02*
D03*
X230727D02*
D03*
X232696D02*
D03*
Y85282D02*
D03*
X230727D02*
D03*
X228759D02*
D03*
X226790D02*
D03*
X224821D02*
D03*
X222853D02*
D03*
X220884D02*
D03*
X218916D02*
D03*
X216948D02*
D03*
X214979D02*
D03*
X213011D02*
D03*
X211042D02*
D03*
D73*
X238601Y112841D02*
D03*
Y110872D02*
D03*
Y108904D02*
D03*
Y106935D02*
D03*
Y104967D02*
D03*
Y102998D02*
D03*
Y101030D02*
D03*
Y99061D02*
D03*
Y97093D02*
D03*
Y95124D02*
D03*
Y93156D02*
D03*
Y91187D02*
D03*
X205136D02*
D03*
Y93156D02*
D03*
Y95124D02*
D03*
Y97093D02*
D03*
Y99061D02*
D03*
Y101030D02*
D03*
Y102998D02*
D03*
Y104967D02*
D03*
Y106935D02*
D03*
Y108904D02*
D03*
Y110872D02*
D03*
Y112841D02*
D03*
D74*
X69828Y66211D02*
D03*
X55379D02*
D03*
X62603D02*
D03*
X55379Y51762D02*
D03*
Y58986D02*
D03*
X62603Y51762D02*
D03*
Y58986D02*
D03*
X69828D02*
D03*
Y51762D02*
D03*
D75*
X33076Y96388D02*
D03*
X38076D02*
D03*
X43076D02*
D03*
X48076D02*
D03*
X53076D02*
D03*
X58076D02*
D03*
X63076D02*
D03*
X68076D02*
D03*
X73076D02*
D03*
X78076D02*
D03*
X83076D02*
D03*
X88076D02*
D03*
X93076D02*
D03*
X98076D02*
D03*
Y29459D02*
D03*
X93076D02*
D03*
X88076D02*
D03*
X83076D02*
D03*
X78076D02*
D03*
X73076D02*
D03*
X68076D02*
D03*
X63076D02*
D03*
X58076D02*
D03*
X53076D02*
D03*
X48076D02*
D03*
X43076D02*
D03*
X38076D02*
D03*
X33076D02*
D03*
D76*
X102013Y85423D02*
D03*
Y80423D02*
D03*
Y75423D02*
D03*
Y70423D02*
D03*
Y65423D02*
D03*
Y60423D02*
D03*
Y55423D02*
D03*
Y50423D02*
D03*
Y45423D02*
D03*
Y40423D02*
D03*
D77*
X216579Y135524D02*
D03*
Y129224D02*
D03*
X228179Y142124D02*
D03*
Y148424D02*
D03*
X233179D02*
D03*
Y142124D02*
D03*
X244579Y113874D02*
D03*
Y120174D02*
D03*
X225079Y72024D02*
D03*
Y65724D02*
D03*
X218079Y71524D02*
D03*
Y65224D02*
D03*
X103379Y9724D02*
D03*
Y16024D02*
D03*
X218109Y231964D02*
D03*
Y225664D02*
D03*
X44369Y17384D02*
D03*
Y11084D02*
D03*
D78*
X233020Y44465D02*
D03*
X240500D02*
D03*
X236760D02*
D03*
X233020Y34583D02*
D03*
X236760D02*
D03*
X240500D02*
D03*
D79*
X276379Y142509D02*
D03*
Y146839D02*
D03*
D80*
X281579Y149094D02*
D03*
Y151654D02*
D03*
X249579Y28295D02*
D03*
Y30854D02*
D03*
D81*
X240203Y7708D02*
D03*
X230754D02*
D03*
D82*
X248077Y17354D02*
D03*
X222880D02*
D03*
D83*
X248963Y7708D02*
D03*
X221994D02*
D03*
D84*
X240597Y18240D02*
D03*
X238038D02*
D03*
X235479D02*
D03*
X232920D02*
D03*
X230361D02*
D03*
D85*
X156485Y24518D02*
D03*
X207272D02*
D03*
D86*
X184438Y59754D02*
D03*
D87*
X115241Y16114D02*
D03*
X127051D02*
D03*
X132957D02*
D03*
D88*
X109729Y13358D02*
D03*
Y5090D02*
D03*
X138469Y13358D02*
D03*
Y5090D02*
D03*
D89*
X151758Y169879D02*
D03*
X169868D02*
D03*
X160813D02*
D03*
X55067Y200374D02*
D03*
X66091D02*
D03*
D90*
X160813Y195076D02*
D03*
D91*
X126339Y95034D02*
D03*
Y100034D02*
D03*
Y105034D02*
D03*
Y110034D02*
D03*
X149173D02*
D03*
Y105034D02*
D03*
Y100034D02*
D03*
Y95034D02*
D03*
D92*
X122579Y126606D02*
D03*
Y134874D02*
D03*
D93*
X138839Y126603D02*
D03*
Y143925D02*
D03*
D94*
X110197Y200640D02*
D03*
X75787D02*
D03*
X110197Y180541D02*
D03*
X75787D02*
D03*
D95*
X87368Y123074D02*
D03*
Y128074D02*
D03*
Y133074D02*
D03*
Y138074D02*
D03*
X110990D02*
D03*
Y133074D02*
D03*
Y128074D02*
D03*
Y123074D02*
D03*
D96*
X240236Y216890D02*
D03*
Y206890D02*
D03*
Y196890D02*
D03*
Y186890D02*
D03*
Y176890D02*
D03*
D97*
X20941Y206268D02*
D03*
Y155480D02*
D03*
D98*
X56177Y178315D02*
D03*
D99*
X345339Y81945D02*
D03*
Y96087D02*
D03*
X331197D02*
D03*
D100*
X303439Y47371D02*
D03*
Y41465D02*
D03*
Y35560D02*
D03*
Y29654D02*
D03*
Y23749D02*
D03*
Y17843D02*
D03*
X274099Y18150D02*
D03*
Y24056D02*
D03*
Y29961D02*
D03*
Y35867D02*
D03*
Y41772D02*
D03*
Y47678D02*
D03*
D101*
X202579Y177374D02*
D03*
X216498Y191293D02*
D03*
X13465Y293347D02*
D03*
X33150D02*
D03*
X13465Y248858D02*
D03*
X33150D02*
D03*
D102*
X193347Y323228D02*
D03*
X223346Y253228D02*
D03*
Y313228D02*
D03*
X193347Y293228D02*
D03*
Y253228D02*
D03*
X243740Y323228D02*
D03*
X273740Y253228D02*
D03*
Y313228D02*
D03*
X243740Y293228D02*
D03*
Y253228D02*
D03*
D103*
X55379Y55374D02*
D03*
Y62598D02*
D03*
X58991Y51762D02*
D03*
Y58986D02*
D03*
Y66211D02*
D03*
X62603Y55374D02*
D03*
Y62598D02*
D03*
X66215Y51762D02*
D03*
Y58986D02*
D03*
Y66211D02*
D03*
X69828Y55374D02*
D03*
Y62598D02*
D03*
D104*
X177548Y52077D02*
D03*
D105*
X200776Y39872D02*
D03*
X23697Y180874D02*
D03*
D106*
X181879Y27274D02*
D03*
X36295Y161976D02*
D03*
D107*
X181879Y9557D02*
D03*
X5980Y180874D02*
D03*
D108*
X118193Y9224D02*
D03*
X130004D02*
D03*
D109*
X76850Y227992D02*
D03*
X159134Y345315D02*
D03*
X41024D02*
D03*
X96535Y306732D02*
D03*
X135906D02*
D03*
X155591Y227992D02*
D03*
D110*
X22279Y110632D02*
D03*
Y130316D02*
D03*
D111*
X22520Y328780D02*
D03*
Y348780D02*
D03*
X268740Y345709D02*
D03*
X248740D02*
D03*
X218347D02*
D03*
X198346D02*
D03*
D112*
X48500Y185205D02*
D03*
M02*
