G04*
G04 #@! TF.GenerationSoftware,Altium Limited,Altium Designer,24.2.2 (26)*
G04*
G04 Layer_Color=65535*
%FSLAX44Y44*%
%MOMM*%
G71*
G04*
G04 #@! TF.SameCoordinates,EEB9E67A-43F7-4525-8043-77EAD86446EF*
G04*
G04*
G04 #@! TF.FilePolarity,Positive*
G04*
G01*
G75*
%ADD10C,0.1000*%
%ADD11C,0.1524*%
%ADD12C,0.0762*%
%ADD13C,0.2032*%
G36*
X25400Y163020D02*
X31400Y157020D01*
X19400D01*
X25400Y163020D01*
D02*
G37*
G36*
X139700D02*
X145700Y157020D01*
X133700D01*
X139700Y163020D01*
D02*
G37*
D10*
X20400D02*
X30400D01*
X134700D02*
X144700D01*
X86820Y233220D02*
Y239220D01*
X80820Y233220D02*
Y239220D01*
X52030Y99410D02*
Y111410D01*
X47030Y99410D02*
Y111410D01*
D11*
X57023Y159131D02*
Y201549D01*
X110617Y159131D02*
Y201549D01*
X33301Y8382D02*
Y25744D01*
X131599Y45392D02*
Y66020D01*
X33301Y8382D02*
X131599D01*
Y25744D01*
X33301Y45392D02*
Y66020D01*
D12*
X42864Y159916D02*
X51328Y168380D01*
Y159916D02*
X42864Y168380D01*
X47096Y159916D02*
Y168380D01*
X51328Y164148D02*
X42864D01*
D13*
X114300Y238759D02*
X113031Y240029D01*
X110492D01*
X109222Y238759D01*
Y233681D01*
X110492Y232411D01*
X113031D01*
X114300Y233681D01*
X121918Y232411D02*
X116840D01*
X121918Y237490D01*
Y238759D01*
X120648Y240029D01*
X118109D01*
X116840Y238759D01*
X41912Y186689D02*
Y180341D01*
X43181Y179071D01*
X45720D01*
X46990Y180341D01*
Y186689D01*
X49529Y179071D02*
X52068D01*
X50799D01*
Y186689D01*
X49529Y185419D01*
X71122Y118111D02*
Y125729D01*
X74931D01*
X76200Y124459D01*
Y121920D01*
X74931Y120650D01*
X71122D01*
X73661D02*
X76200Y118111D01*
X83818Y125729D02*
X81279Y124459D01*
X78740Y121920D01*
Y119381D01*
X80009Y118111D01*
X82548D01*
X83818Y119381D01*
Y120650D01*
X82548Y121920D01*
X78740D01*
X90172Y118111D02*
Y125729D01*
X93981D01*
X95250Y124459D01*
Y121920D01*
X93981Y120650D01*
X90172D01*
X92711D02*
X95250Y118111D01*
X102868Y125729D02*
X97790D01*
Y121920D01*
X100329Y123190D01*
X101598D01*
X102868Y121920D01*
Y119381D01*
X101598Y118111D01*
X99059D01*
X97790Y119381D01*
X24132Y203201D02*
Y210819D01*
X27941D01*
X29210Y209549D01*
Y207010D01*
X27941Y205740D01*
X24132D01*
X26671D02*
X29210Y203201D01*
X35558D02*
Y210819D01*
X31750Y207010D01*
X36828D01*
X133352Y203201D02*
Y210819D01*
X137161D01*
X138430Y209549D01*
Y207010D01*
X137161Y205740D01*
X133352D01*
X135891D02*
X138430Y203201D01*
X140970Y209549D02*
X142239Y210819D01*
X144778D01*
X146048Y209549D01*
Y208280D01*
X144778Y207010D01*
X143509D01*
X144778D01*
X146048Y205740D01*
Y204471D01*
X144778Y203201D01*
X142239D01*
X140970Y204471D01*
X119382Y123191D02*
Y130809D01*
X123191D01*
X124460Y129539D01*
Y127000D01*
X123191Y125730D01*
X119382D01*
X121921D02*
X124460Y123191D01*
X132078D02*
X127000D01*
X132078Y128270D01*
Y129539D01*
X130808Y130809D01*
X128269D01*
X127000Y129539D01*
X33608Y123571D02*
Y131188D01*
X37417D01*
X38687Y129919D01*
Y127380D01*
X37417Y126110D01*
X33608D01*
X36148D02*
X38687Y123571D01*
X41226D02*
X43765D01*
X42495D01*
Y131188D01*
X41226Y129919D01*
X22860Y86359D02*
X20321D01*
X21590D01*
Y80011D01*
X20321Y78741D01*
X19051D01*
X17782Y80011D01*
X25399Y78741D02*
X27938D01*
X26669D01*
Y86359D01*
X25399Y85089D01*
X133352Y182879D02*
Y175261D01*
X137161D01*
X138430Y176531D01*
Y181609D01*
X137161Y182879D01*
X133352D01*
X146048Y175261D02*
X140970D01*
X146048Y180340D01*
Y181609D01*
X144778Y182879D01*
X142239D01*
X140970Y181609D01*
X20322Y182879D02*
Y175261D01*
X24130D01*
X25400Y176531D01*
Y181609D01*
X24130Y182879D01*
X20322D01*
X27939Y175261D02*
X30478D01*
X29209D01*
Y182879D01*
X27939Y181609D01*
X24130Y107949D02*
X22860Y109219D01*
X20321D01*
X19052Y107949D01*
Y102871D01*
X20321Y101601D01*
X22860D01*
X24130Y102871D01*
X26669Y101601D02*
X29208D01*
X27939D01*
Y109219D01*
X26669Y107949D01*
M02*
