G04*
G04 #@! TF.GenerationSoftware,Altium Limited,Altium Designer,24.2.2 (26)*
G04*
G04 Layer_Physical_Order=1*
G04 Layer_Color=255*
%FSLAX44Y44*%
%MOMM*%
G71*
G04*
G04 #@! TF.SameCoordinates,EEB9E67A-43F7-4525-8043-77EAD86446EF*
G04*
G04*
G04 #@! TF.FilePolarity,Positive*
G04*
G01*
G75*
%ADD11C,0.1524*%
%ADD13C,0.2032*%
G04:AMPARAMS|DCode=14|XSize=0.6mm|YSize=0.7mm|CornerRadius=0.075mm|HoleSize=0mm|Usage=FLASHONLY|Rotation=90.000|XOffset=0mm|YOffset=0mm|HoleType=Round|Shape=RoundedRectangle|*
%AMROUNDEDRECTD14*
21,1,0.6000,0.5500,0,0,90.0*
21,1,0.4500,0.7000,0,0,90.0*
1,1,0.1500,0.2750,0.2250*
1,1,0.1500,0.2750,-0.2250*
1,1,0.1500,-0.2750,-0.2250*
1,1,0.1500,-0.2750,0.2250*
%
%ADD14ROUNDEDRECTD14*%
G04:AMPARAMS|DCode=15|XSize=0.6mm|YSize=0.7mm|CornerRadius=0.075mm|HoleSize=0mm|Usage=FLASHONLY|Rotation=0.000|XOffset=0mm|YOffset=0mm|HoleType=Round|Shape=RoundedRectangle|*
%AMROUNDEDRECTD15*
21,1,0.6000,0.5500,0,0,0.0*
21,1,0.4500,0.7000,0,0,0.0*
1,1,0.1500,0.2250,-0.2750*
1,1,0.1500,-0.2250,-0.2750*
1,1,0.1500,-0.2250,0.2750*
1,1,0.1500,0.2250,0.2750*
%
%ADD15ROUNDEDRECTD15*%
%ADD16R,1.3000X0.7000*%
%ADD17R,0.5588X1.4605*%
G04:AMPARAMS|DCode=18|XSize=1.4mm|YSize=1.7mm|CornerRadius=0.175mm|HoleSize=0mm|Usage=FLASHONLY|Rotation=180.000|XOffset=0mm|YOffset=0mm|HoleType=Round|Shape=RoundedRectangle|*
%AMROUNDEDRECTD18*
21,1,1.4000,1.3500,0,0,180.0*
21,1,1.0500,1.7000,0,0,180.0*
1,1,0.3500,-0.5250,0.6750*
1,1,0.3500,0.5250,0.6750*
1,1,0.3500,0.5250,-0.6750*
1,1,0.3500,-0.5250,-0.6750*
%
%ADD18ROUNDEDRECTD18*%
%ADD19R,0.3048X1.1430*%
%ADD20R,0.7000X1.3000*%
%ADD24R,3.3528X2.3622*%
%ADD30R,0.5842X1.1430*%
%ADD31C,0.2540*%
%ADD32R,1.8758X1.1532*%
%ADD33R,2.0320X3.5662*%
%ADD34R,1.7780X2.5400*%
%ADD35R,1.5240X2.4130*%
%ADD36C,0.6604*%
%ADD37O,0.9906X2.1082*%
%ADD38O,0.9906X1.8034*%
%ADD39C,1.5000*%
%ADD40C,0.6096*%
G36*
X166370Y294640D02*
Y12700D01*
X158750Y5080D01*
X6350D01*
X-0Y11430D01*
X0Y290830D01*
X8890Y299720D01*
X161290D01*
X166370Y294640D01*
D02*
G37*
%LPC*%
G36*
X100500Y247344D02*
X96520D01*
Y237490D01*
X104874D01*
Y242970D01*
X104541Y244644D01*
X103593Y246063D01*
X102174Y247011D01*
X100500Y247344D01*
D02*
G37*
G36*
X93980D02*
X90000D01*
X88326Y247011D01*
X86907Y246063D01*
X85959Y244644D01*
X85626Y242970D01*
Y237490D01*
X93980D01*
Y247344D01*
D02*
G37*
G36*
X104874Y234950D02*
X96520D01*
Y225096D01*
X100500D01*
X102174Y225429D01*
X103593Y226377D01*
X104541Y227796D01*
X104874Y229470D01*
Y234950D01*
D02*
G37*
G36*
X93980D02*
X85626D01*
Y229470D01*
X85959Y227796D01*
X86907Y226377D01*
X88326Y225429D01*
X90000Y225096D01*
X93980D01*
Y234950D01*
D02*
G37*
G36*
X108204Y217424D02*
X104140D01*
Y208852D01*
X108204D01*
Y217424D01*
D02*
G37*
G36*
X101600D02*
X97536D01*
Y208852D01*
X101600D01*
Y217424D01*
D02*
G37*
G36*
X18288Y293242D02*
X7366D01*
X6200Y292758D01*
X2136Y288694D01*
X1652Y287528D01*
Y271272D01*
X2136Y270106D01*
X5184Y267058D01*
X6350Y266574D01*
X17859D01*
X52960Y231473D01*
Y205740D01*
X53444Y204574D01*
X58524Y199494D01*
X59690Y199010D01*
X60452D01*
Y198755D01*
X63172D01*
X63699Y197485D01*
X61843Y195630D01*
X40049D01*
Y195790D01*
X39872Y196677D01*
X39369Y197430D01*
X38617Y197932D01*
X37730Y198109D01*
X33230D01*
X32343Y197932D01*
X31912Y197644D01*
X30659Y197721D01*
X30327Y197825D01*
X30102Y198162D01*
X29014Y198889D01*
X27730Y199144D01*
X26750D01*
Y193040D01*
Y186936D01*
X27730D01*
X29014Y187191D01*
X30102Y187918D01*
X30327Y188255D01*
X30659Y188359D01*
X31912Y188436D01*
X32343Y188148D01*
X33230Y187971D01*
X37730D01*
X38617Y188148D01*
X39369Y188650D01*
X39872Y189403D01*
X40049Y190290D01*
Y190450D01*
X62916D01*
X63246Y190516D01*
X64516Y189643D01*
Y181610D01*
X82550D01*
Y194691D01*
X74546D01*
X74021Y195961D01*
X76814Y198755D01*
X81788D01*
Y216408D01*
X73152D01*
Y203251D01*
X72770Y202993D01*
X71500Y203669D01*
Y220600D01*
X78740D01*
X79906Y221084D01*
X82446Y223624D01*
X82930Y224790D01*
Y246380D01*
X82446Y247546D01*
X79906Y250086D01*
X78740Y250570D01*
X61643D01*
X19454Y292758D01*
X18288Y293242D01*
D02*
G37*
G36*
X145760Y199144D02*
X144780D01*
Y194310D01*
X149115D01*
Y195790D01*
X148859Y197074D01*
X148132Y198162D01*
X147044Y198889D01*
X145760Y199144D01*
D02*
G37*
G36*
X24210D02*
X23230D01*
X21946Y198889D01*
X20858Y198162D01*
X20131Y197074D01*
X19876Y195790D01*
Y194310D01*
X24210D01*
Y199144D01*
D02*
G37*
G36*
X149115Y191770D02*
X144780D01*
Y186936D01*
X145760D01*
X147044Y187191D01*
X148132Y187918D01*
X148859Y189006D01*
X149115Y190290D01*
Y191770D01*
D02*
G37*
G36*
X94488Y216408D02*
X85852D01*
Y198755D01*
X90826D01*
X93619Y195961D01*
X93094Y194691D01*
X85090D01*
Y181610D01*
X103124D01*
Y189643D01*
X104394Y190516D01*
X104724Y190450D01*
X128941D01*
Y190290D01*
X129118Y189403D01*
X129621Y188650D01*
X130373Y188148D01*
X131260Y187971D01*
X135760D01*
X136647Y188148D01*
X137078Y188436D01*
X138331Y188359D01*
X138663Y188255D01*
X138888Y187918D01*
X139976Y187191D01*
X141260Y186936D01*
X142240D01*
Y193040D01*
Y199144D01*
X141260D01*
X139976Y198889D01*
X138888Y198162D01*
X138663Y197825D01*
X138331Y197721D01*
X137078Y197644D01*
X136647Y197932D01*
X135760Y198109D01*
X131260D01*
X130373Y197932D01*
X129621Y197430D01*
X129118Y196677D01*
X128941Y195790D01*
Y195630D01*
X105797D01*
X104861Y196566D01*
X105347Y197739D01*
X108204D01*
Y206311D01*
X102870D01*
X97536D01*
Y201029D01*
X96363Y200543D01*
X94488Y202418D01*
Y216408D01*
D02*
G37*
G36*
X24210Y191770D02*
X19876D01*
Y190290D01*
X20131Y189006D01*
X20858Y187918D01*
X21946Y187191D01*
X23230Y186936D01*
X24210D01*
Y191770D01*
D02*
G37*
G36*
X82550Y179070D02*
X64516D01*
Y167568D01*
X48551D01*
X44584Y171534D01*
X43660Y172152D01*
X42570Y172369D01*
X42570Y172369D01*
X33424D01*
Y174544D01*
X17376D01*
Y164496D01*
X33424D01*
Y166671D01*
X41390D01*
X45357Y162705D01*
X45357Y162705D01*
X46281Y162087D01*
X47371Y161870D01*
X47371Y161870D01*
X53601D01*
X54127Y160600D01*
X53444Y159916D01*
X52960Y158750D01*
Y141653D01*
X38687Y127380D01*
X36535D01*
X35940Y128270D01*
Y154940D01*
X35456Y156106D01*
X34290Y156590D01*
X16510D01*
X15344Y156106D01*
X14860Y154940D01*
Y128270D01*
X15344Y127104D01*
X16016Y126825D01*
X16434Y125447D01*
X15344Y124356D01*
X14860Y123190D01*
Y115570D01*
X15344Y114404D01*
X15344Y114404D01*
X16510Y113920D01*
X22551Y113920D01*
Y52578D01*
X22551Y52578D01*
X22551Y52578D01*
Y32930D01*
X16752Y27131D01*
X16183Y27459D01*
X13888Y28074D01*
X11512D01*
X9217Y27459D01*
X7159Y26271D01*
X5479Y24591D01*
X4291Y22533D01*
X3676Y20238D01*
Y17862D01*
X4291Y15567D01*
X5479Y13509D01*
X7159Y11829D01*
X9217Y10641D01*
X11512Y10026D01*
X13888D01*
X16183Y10641D01*
X18241Y11829D01*
X19921Y13509D01*
X21109Y15567D01*
X21724Y17862D01*
Y20238D01*
X21109Y22533D01*
X20781Y23102D01*
X27414Y29736D01*
X27414Y29736D01*
X28032Y30660D01*
X28249Y31750D01*
X28249Y31750D01*
Y51398D01*
X30344Y53493D01*
X51516D01*
X51516Y53493D01*
X52606Y53710D01*
X53530Y54328D01*
X65022Y65819D01*
X65022Y65819D01*
X65639Y66743D01*
X65856Y67833D01*
X65856Y67833D01*
Y70303D01*
X102362D01*
X103452Y70520D01*
X104376Y71138D01*
X104994Y72062D01*
X105254Y72108D01*
X106524Y71408D01*
X107259Y69634D01*
X108616Y68277D01*
X110390Y67542D01*
X112310D01*
X114084Y68277D01*
X115441Y69634D01*
X116176Y71408D01*
Y73328D01*
X115977Y73807D01*
X116683Y74863D01*
X118092D01*
Y71780D01*
X118350Y69824D01*
X119105Y68001D01*
X120306Y66436D01*
X121871Y65235D01*
X123694Y64480D01*
X124380Y64390D01*
Y77368D01*
X126920D01*
Y64390D01*
X127606Y64480D01*
X129429Y65235D01*
X130994Y66436D01*
X132195Y68001D01*
X132950Y69824D01*
X133208Y71780D01*
Y75718D01*
X134374Y76202D01*
X134857Y77368D01*
Y88900D01*
X134374Y90066D01*
X133208Y90550D01*
X119911D01*
Y91373D01*
X115720D01*
Y83118D01*
X113180D01*
Y91373D01*
X112991D01*
X112505Y92546D01*
X138660Y118701D01*
X142450D01*
X143337Y118878D01*
X144089Y119381D01*
X144592Y120133D01*
X144768Y121020D01*
Y125520D01*
X144592Y126407D01*
X144089Y127159D01*
X143869Y128710D01*
X144204Y129160D01*
X147320D01*
X148486Y129644D01*
X148970Y130810D01*
Y154940D01*
X148486Y156106D01*
X147320Y156590D01*
X132080D01*
X130914Y156106D01*
X130430Y154940D01*
Y130810D01*
X130914Y129644D01*
X132080Y129160D01*
X135196D01*
X135531Y128710D01*
X135310Y127159D01*
X134808Y126407D01*
X134632Y125520D01*
Y122730D01*
X104556Y92655D01*
X103939Y91731D01*
X103722Y90640D01*
X103551Y90432D01*
X103185Y90428D01*
X102281Y91320D01*
Y96210D01*
X102103Y97102D01*
X101598Y97858D01*
X100318Y99138D01*
Y102660D01*
X100142Y103547D01*
X99854Y103978D01*
X99931Y105231D01*
X100035Y105563D01*
X100372Y105788D01*
X101099Y106876D01*
X101355Y108160D01*
Y109140D01*
X95250D01*
X89145D01*
Y108160D01*
X89401Y106876D01*
X90128Y105788D01*
X90465Y105563D01*
X90569Y105231D01*
X90646Y103978D01*
X90358Y103547D01*
X90182Y102660D01*
Y98160D01*
X90358Y97273D01*
X90861Y96521D01*
X91613Y96018D01*
X92500Y95841D01*
X97022D01*
X97619Y95245D01*
Y90357D01*
X72281D01*
Y92425D01*
X75698Y95841D01*
X80220D01*
X81107Y96018D01*
X81860Y96521D01*
X82362Y97273D01*
X82538Y98160D01*
Y102660D01*
X82362Y103547D01*
X82074Y103978D01*
X82151Y105231D01*
X82255Y105563D01*
X82592Y105788D01*
X83319Y106876D01*
X83574Y108160D01*
Y109140D01*
X77470D01*
X71365D01*
Y108160D01*
X71621Y106876D01*
X72348Y105788D01*
X72685Y105563D01*
X72789Y105231D01*
X72866Y103978D01*
X72578Y103547D01*
X72401Y102660D01*
Y99138D01*
X68302Y95038D01*
X67797Y94282D01*
X67619Y93390D01*
Y90357D01*
X62736D01*
X62210Y91627D01*
X67206Y96624D01*
X67690Y97790D01*
Y141557D01*
X69746Y143614D01*
X70230Y144780D01*
X70230Y158750D01*
X70037Y159215D01*
X71113Y159935D01*
X73152Y157896D01*
Y144272D01*
X81788D01*
Y161925D01*
X77181D01*
X74290Y164816D01*
X74776Y165989D01*
X82550D01*
Y179070D01*
D02*
G37*
G36*
X103124D02*
X85090D01*
Y165989D01*
X92864D01*
X93350Y164816D01*
X90459Y161925D01*
X85852D01*
Y144272D01*
X94488D01*
Y157896D01*
X97282Y160690D01*
X98552Y160164D01*
Y144272D01*
X107188D01*
Y161477D01*
X113525D01*
X113525Y161477D01*
X114616Y161694D01*
X115540Y162311D01*
X119900Y166671D01*
X131676D01*
Y164496D01*
X147724D01*
Y174544D01*
X131676D01*
Y172369D01*
X118720D01*
X118720Y172369D01*
X117630Y172152D01*
X116706Y171534D01*
X112346Y167174D01*
X103124D01*
Y179070D01*
D02*
G37*
G36*
X98000Y116014D02*
X96520D01*
Y111680D01*
X101355D01*
Y112660D01*
X101099Y113944D01*
X100372Y115032D01*
X99284Y115759D01*
X98000Y116014D01*
D02*
G37*
G36*
X80220D02*
X78740D01*
Y111680D01*
X83574D01*
Y112660D01*
X83319Y113944D01*
X82592Y115032D01*
X81504Y115759D01*
X80220Y116014D01*
D02*
G37*
G36*
X93980D02*
X92500D01*
X91216Y115759D01*
X90128Y115032D01*
X89401Y113944D01*
X89145Y112660D01*
Y111680D01*
X93980D01*
Y116014D01*
D02*
G37*
G36*
X76200D02*
X74720D01*
X73436Y115759D01*
X72348Y115032D01*
X71621Y113944D01*
X71365Y112660D01*
Y111680D01*
X76200D01*
Y116014D01*
D02*
G37*
G36*
X40520Y47023D02*
Y36838D01*
X46808D01*
Y39632D01*
X46550Y41588D01*
X45795Y43411D01*
X44594Y44976D01*
X43029Y46177D01*
X41206Y46932D01*
X40520Y47023D01*
D02*
G37*
G36*
X126920D02*
Y36838D01*
X133208D01*
Y39632D01*
X132950Y41588D01*
X132195Y43411D01*
X130994Y44976D01*
X129429Y46177D01*
X127606Y46932D01*
X126920Y47023D01*
D02*
G37*
G36*
X37980D02*
X37294Y46932D01*
X35471Y46177D01*
X33906Y44976D01*
X32705Y43411D01*
X31950Y41588D01*
X31692Y39632D01*
Y36838D01*
X37980D01*
Y47023D01*
D02*
G37*
G36*
X124380D02*
X123694Y46932D01*
X121871Y46177D01*
X120306Y44976D01*
X119105Y43411D01*
X118350Y41588D01*
X118092Y39632D01*
Y36838D01*
X124380D01*
Y47023D01*
D02*
G37*
G36*
X46808Y34298D02*
X40520D01*
Y24114D01*
X41206Y24204D01*
X43029Y24959D01*
X44594Y26160D01*
X45795Y27725D01*
X46550Y29548D01*
X46808Y31504D01*
Y34298D01*
D02*
G37*
G36*
X133208D02*
X126920D01*
Y24114D01*
X127606Y24204D01*
X129429Y24959D01*
X130994Y26160D01*
X132195Y27725D01*
X132950Y29548D01*
X133208Y31504D01*
Y34298D01*
D02*
G37*
G36*
X124380D02*
X118092D01*
Y31504D01*
X118350Y29548D01*
X119105Y27725D01*
X120306Y26160D01*
X121871Y24959D01*
X123694Y24204D01*
X124380Y24114D01*
Y34298D01*
D02*
G37*
G36*
X37980D02*
X31692D01*
Y31504D01*
X31950Y29548D01*
X32705Y27725D01*
X33906Y26160D01*
X35471Y24959D01*
X37294Y24204D01*
X37980Y24114D01*
Y34298D01*
D02*
G37*
%LPD*%
G36*
X60960Y248920D02*
X78740D01*
X81280Y246380D01*
Y224790D01*
X78740Y222250D01*
X69850D01*
Y201930D01*
X68580Y200660D01*
X59690D01*
X54610Y205740D01*
Y232156D01*
X18542Y268224D01*
X6350D01*
X3302Y271272D01*
Y287528D01*
X7366Y291592D01*
X18288D01*
X60960Y248920D01*
D02*
G37*
G36*
X68580Y158750D02*
X68580Y144780D01*
X66040Y142240D01*
Y97790D01*
X59690Y91440D01*
X58166D01*
X52070Y97536D01*
Y115569D01*
X16510Y115570D01*
Y123190D01*
X17780Y124460D01*
X38100D01*
X54610Y140970D01*
Y158750D01*
X55880Y160020D01*
X67310D01*
X68580Y158750D01*
D02*
G37*
G36*
X40520Y64390D02*
X41206Y64480D01*
X43029Y65235D01*
X44594Y66436D01*
X45795Y68001D01*
X46550Y69824D01*
X46808Y71780D01*
Y74863D01*
X48217D01*
X48923Y73807D01*
X48724Y73328D01*
Y71408D01*
X49459Y69634D01*
X50816Y68277D01*
X52590Y67542D01*
X54510D01*
X56284Y68277D01*
X57641Y69634D01*
X58376Y71408D01*
Y71816D01*
X59646Y72453D01*
X60159Y72070D01*
Y69013D01*
X50336Y59191D01*
X29164D01*
X29164Y59191D01*
X28249Y59942D01*
Y75076D01*
X29210Y75718D01*
X31692D01*
Y71780D01*
X31950Y69824D01*
X32705Y68001D01*
X33906Y66436D01*
X35471Y65235D01*
X37294Y64480D01*
X37980Y64390D01*
Y77368D01*
X40520D01*
Y64390D01*
D02*
G37*
D11*
X102362Y73152D02*
X105220Y76010D01*
X106570Y83238D02*
Y90640D01*
X105220Y76010D02*
Y81888D01*
X60124Y76035D02*
Y81444D01*
Y76035D02*
X63007Y73152D01*
X58450Y83118D02*
X60124Y81444D01*
X105220Y81888D02*
X106570Y83238D01*
X95750Y100410D02*
X99950Y96210D01*
Y83118D02*
Y96210D01*
X69950Y93390D02*
X76970Y100410D01*
X77470D01*
X69950Y83118D02*
Y93390D01*
D13*
X125650Y77368D02*
Y79481D01*
X122013Y83118D02*
X125650Y79481D01*
X101041Y196723D02*
X104724Y193040D01*
X96520Y196723D02*
X101041D01*
X90170Y203073D02*
X96520Y196723D01*
X104724Y193040D02*
X133510D01*
X90170Y203073D02*
Y207582D01*
X62916Y193040D02*
X66409Y196532D01*
X35480Y193040D02*
X62916D01*
X66409Y196532D02*
X70929D01*
X77470Y203073D01*
Y207582D01*
D14*
X25400Y121920D02*
D03*
Y131920D02*
D03*
X95250Y110410D02*
D03*
Y100410D02*
D03*
X139700Y123270D02*
D03*
Y133270D02*
D03*
X77470Y100410D02*
D03*
Y110410D02*
D03*
D15*
X25480Y193040D02*
D03*
X35480D02*
D03*
X143510D02*
D03*
X133510D02*
D03*
D16*
X25400Y150520D02*
D03*
Y169520D02*
D03*
X139700Y150520D02*
D03*
Y169520D02*
D03*
D17*
X64770Y207582D02*
D03*
X77470D02*
D03*
X90170D02*
D03*
X102870D02*
D03*
Y153098D02*
D03*
X90170D02*
D03*
X77470D02*
D03*
X64770D02*
D03*
D18*
X72390Y236220D02*
D03*
X95250D02*
D03*
D19*
X64950Y83118D02*
D03*
X69950D02*
D03*
X74950D02*
D03*
X79950D02*
D03*
X84950D02*
D03*
X89950D02*
D03*
X94950D02*
D03*
X99950D02*
D03*
D20*
X59030Y105410D02*
D03*
X40030D02*
D03*
D24*
X83820Y180340D02*
D03*
D30*
X50450Y83118D02*
D03*
X58450D02*
D03*
X106450D02*
D03*
X114450D02*
D03*
D31*
X29164Y56342D02*
X51516D01*
X63007Y67833D02*
Y73152D01*
X51516Y56342D02*
X63007Y67833D01*
Y73152D02*
X102362D01*
X106570Y90640D02*
X139200Y123270D01*
X58450Y83118D02*
X58740Y83408D01*
X139200Y123270D02*
X139700D01*
X25400Y31750D02*
Y52578D01*
X12700Y19050D02*
X25400Y31750D01*
Y52578D02*
X29164Y56342D01*
X25400Y52578D02*
Y121920D01*
X58740Y105120D02*
X59030Y105410D01*
X58740Y83408D02*
Y105120D01*
X95250Y100410D02*
X95750D01*
X42570Y169520D02*
X47371Y164719D01*
X70358D01*
X25400Y169520D02*
X42570D01*
X113525Y164326D02*
X118720Y169520D01*
X96889Y164326D02*
X113525D01*
X118720Y169520D02*
X139700D01*
X70358Y164719D02*
X77470Y157607D01*
Y153098D02*
Y157607D01*
X90170Y153098D02*
Y157607D01*
X96889Y164326D01*
D32*
X123829Y83134D02*
D03*
D33*
X39370Y95199D02*
D03*
D34*
X25400Y142240D02*
D03*
D35*
X139700Y142875D02*
D03*
D36*
X53550Y72368D02*
D03*
X111350D02*
D03*
D37*
X39250Y77368D02*
D03*
X125650D02*
D03*
D38*
Y35568D02*
D03*
X39250D02*
D03*
D39*
X12700Y19050D02*
D03*
Y279400D02*
D03*
X152400D02*
D03*
Y19050D02*
D03*
D40*
X125650Y79481D02*
Y82829D01*
Y77368D02*
Y79481D01*
Y71907D02*
Y77368D01*
X39250Y31631D02*
Y39505D01*
X125650Y31631D02*
Y39505D01*
X39250Y71907D02*
Y82829D01*
M02*
