G04*
G04 #@! TF.GenerationSoftware,Altium Limited,Altium Designer,24.2.2 (26)*
G04*
G04 Layer_Physical_Order=2*
G04 Layer_Color=16711680*
%FSLAX44Y44*%
%MOMM*%
G71*
G04*
G04 #@! TF.SameCoordinates,EEB9E67A-43F7-4525-8043-77EAD86446EF*
G04*
G04*
G04 #@! TF.FilePolarity,Positive*
G04*
G01*
G75*
%ADD36C,0.6604*%
%ADD37O,0.9906X2.1082*%
%ADD38O,0.9906X1.8034*%
%ADD39C,1.5000*%
%ADD40C,0.6096*%
G36*
X166370Y294640D02*
Y12700D01*
X158750Y5080D01*
X6350D01*
X-0Y11430D01*
X0Y290830D01*
X8890Y299720D01*
X161290D01*
X166370Y294640D01*
D02*
G37*
%LPC*%
G36*
X13888Y288424D02*
X11512D01*
X9217Y287809D01*
X7159Y286621D01*
X5479Y284941D01*
X4291Y282883D01*
X3676Y280588D01*
Y278212D01*
X4291Y275917D01*
X5479Y273859D01*
X7159Y272179D01*
X9217Y270991D01*
X11512Y270376D01*
X13888D01*
X16183Y270991D01*
X18241Y272179D01*
X19921Y273859D01*
X21109Y275917D01*
X21724Y278212D01*
Y280588D01*
X21109Y282883D01*
X19921Y284941D01*
X18241Y286621D01*
X16183Y287809D01*
X13888Y288424D01*
D02*
G37*
G36*
X40520Y90346D02*
Y78638D01*
X46808D01*
Y82956D01*
X46550Y84912D01*
X45795Y86735D01*
X44594Y88300D01*
X43029Y89501D01*
X41206Y90256D01*
X40520Y90346D01*
D02*
G37*
G36*
X126920D02*
Y78638D01*
X133208D01*
Y82956D01*
X132950Y84912D01*
X132195Y86735D01*
X130994Y88300D01*
X129429Y89501D01*
X127606Y90256D01*
X126920Y90346D01*
D02*
G37*
G36*
X37980D02*
X37294Y90256D01*
X35471Y89501D01*
X33906Y88300D01*
X32705Y86735D01*
X31950Y84912D01*
X31692Y82956D01*
Y78638D01*
X37980D01*
Y90346D01*
D02*
G37*
G36*
X124380D02*
X123694Y90256D01*
X121871Y89501D01*
X120306Y88300D01*
X119105Y86735D01*
X118350Y84912D01*
X118092Y82956D01*
Y78638D01*
X124380D01*
Y90346D01*
D02*
G37*
G36*
X112310Y77194D02*
X110390D01*
X108616Y76459D01*
X107259Y75102D01*
X106524Y73328D01*
Y71408D01*
X107259Y69634D01*
X108616Y68277D01*
X110390Y67542D01*
X112310D01*
X114084Y68277D01*
X115441Y69634D01*
X116176Y71408D01*
Y73328D01*
X115441Y75102D01*
X114084Y76459D01*
X112310Y77194D01*
D02*
G37*
G36*
X54510D02*
X52590D01*
X50816Y76459D01*
X49459Y75102D01*
X48724Y73328D01*
Y71408D01*
X49459Y69634D01*
X50816Y68277D01*
X52590Y67542D01*
X54510D01*
X56284Y68277D01*
X57641Y69634D01*
X58376Y71408D01*
Y73328D01*
X57641Y75102D01*
X56284Y76459D01*
X54510Y77194D01*
D02*
G37*
G36*
X46808Y76098D02*
X40520D01*
Y64390D01*
X41206Y64480D01*
X43029Y65235D01*
X44594Y66436D01*
X45795Y68001D01*
X46550Y69824D01*
X46808Y71780D01*
Y76098D01*
D02*
G37*
G36*
X133208D02*
X126920D01*
Y64390D01*
X127606Y64480D01*
X129429Y65235D01*
X130994Y66436D01*
X132195Y68001D01*
X132950Y69824D01*
X133208Y71780D01*
Y76098D01*
D02*
G37*
G36*
X124380D02*
X118092D01*
Y71780D01*
X118350Y69824D01*
X119105Y68001D01*
X120306Y66436D01*
X121871Y65235D01*
X123694Y64480D01*
X124380Y64390D01*
Y76098D01*
D02*
G37*
G36*
X37980D02*
X31692D01*
Y71780D01*
X31950Y69824D01*
X32705Y68001D01*
X33906Y66436D01*
X35471Y65235D01*
X37294Y64480D01*
X37980Y64390D01*
Y76098D01*
D02*
G37*
G36*
X40520Y47023D02*
Y36838D01*
X46808D01*
Y39632D01*
X46550Y41588D01*
X45795Y43411D01*
X44594Y44976D01*
X43029Y46177D01*
X41206Y46932D01*
X40520Y47023D01*
D02*
G37*
G36*
X126920D02*
Y36838D01*
X133208D01*
Y39632D01*
X132950Y41588D01*
X132195Y43411D01*
X130994Y44976D01*
X129429Y46177D01*
X127606Y46932D01*
X126920Y47023D01*
D02*
G37*
G36*
X37980D02*
X37294Y46932D01*
X35471Y46177D01*
X33906Y44976D01*
X32705Y43411D01*
X31950Y41588D01*
X31692Y39632D01*
Y36838D01*
X37980D01*
Y47023D01*
D02*
G37*
G36*
X124380D02*
X123694Y46932D01*
X121871Y46177D01*
X120306Y44976D01*
X119105Y43411D01*
X118350Y41588D01*
X118092Y39632D01*
Y36838D01*
X124380D01*
Y47023D01*
D02*
G37*
G36*
X46808Y34298D02*
X40520D01*
Y24114D01*
X41206Y24204D01*
X43029Y24959D01*
X44594Y26160D01*
X45795Y27725D01*
X46550Y29548D01*
X46808Y31504D01*
Y34298D01*
D02*
G37*
G36*
X133208D02*
X126920D01*
Y24114D01*
X127606Y24204D01*
X129429Y24959D01*
X130994Y26160D01*
X132195Y27725D01*
X132950Y29548D01*
X133208Y31504D01*
Y34298D01*
D02*
G37*
G36*
X124380D02*
X118092D01*
Y31504D01*
X118350Y29548D01*
X119105Y27725D01*
X120306Y26160D01*
X121871Y24959D01*
X123694Y24204D01*
X124380Y24114D01*
Y34298D01*
D02*
G37*
G36*
X37980D02*
X31692D01*
Y31504D01*
X31950Y29548D01*
X32705Y27725D01*
X33906Y26160D01*
X35471Y24959D01*
X37294Y24204D01*
X37980Y24114D01*
Y34298D01*
D02*
G37*
G36*
X13888Y28074D02*
X11512D01*
X9217Y27459D01*
X7159Y26271D01*
X5479Y24591D01*
X4291Y22533D01*
X3676Y20238D01*
Y17862D01*
X4291Y15567D01*
X5479Y13509D01*
X7159Y11829D01*
X9217Y10641D01*
X11512Y10026D01*
X13888D01*
X16183Y10641D01*
X18241Y11829D01*
X19921Y13509D01*
X21109Y15567D01*
X21724Y17862D01*
Y20238D01*
X21109Y22533D01*
X19921Y24591D01*
X18241Y26271D01*
X16183Y27459D01*
X13888Y28074D01*
D02*
G37*
%LPD*%
D36*
X53550Y72368D02*
D03*
X111350D02*
D03*
D37*
X39250Y77368D02*
D03*
X125650D02*
D03*
D38*
Y35568D02*
D03*
X39250D02*
D03*
D39*
X12700Y19050D02*
D03*
Y279400D02*
D03*
X152400D02*
D03*
Y19050D02*
D03*
D40*
X125650Y79481D02*
Y82829D01*
Y77368D02*
Y79481D01*
Y71907D02*
Y77368D01*
X39250Y31631D02*
Y39505D01*
X125650Y31631D02*
Y39505D01*
X39250Y71907D02*
Y82829D01*
M02*
