G04*
G04 #@! TF.GenerationSoftware,Altium Limited,Altium Designer,24.2.2 (26)*
G04*
G04 Layer_Color=8388736*
%FSLAX44Y44*%
%MOMM*%
G71*
G04*
G04 #@! TF.SameCoordinates,EEB9E67A-43F7-4525-8043-77EAD86446EF*
G04*
G04*
G04 #@! TF.FilePolarity,Negative*
G04*
G01*
G75*
%ADD17R,0.5588X1.4605*%
%ADD19R,0.3048X1.1430*%
G04:AMPARAMS|DCode=21|XSize=0.8032mm|YSize=0.9032mm|CornerRadius=0.1766mm|HoleSize=0mm|Usage=FLASHONLY|Rotation=90.000|XOffset=0mm|YOffset=0mm|HoleType=Round|Shape=RoundedRectangle|*
%AMROUNDEDRECTD21*
21,1,0.8032,0.5500,0,0,90.0*
21,1,0.4500,0.9032,0,0,90.0*
1,1,0.3532,0.2750,0.2250*
1,1,0.3532,0.2750,-0.2250*
1,1,0.3532,-0.2750,-0.2250*
1,1,0.3532,-0.2750,0.2250*
%
%ADD21ROUNDEDRECTD21*%
G04:AMPARAMS|DCode=22|XSize=0.8032mm|YSize=0.9032mm|CornerRadius=0.1766mm|HoleSize=0mm|Usage=FLASHONLY|Rotation=0.000|XOffset=0mm|YOffset=0mm|HoleType=Round|Shape=RoundedRectangle|*
%AMROUNDEDRECTD22*
21,1,0.8032,0.5500,0,0,0.0*
21,1,0.4500,0.9032,0,0,0.0*
1,1,0.3532,0.2250,-0.2750*
1,1,0.3532,-0.2250,-0.2750*
1,1,0.3532,-0.2250,0.2750*
1,1,0.3532,0.2250,0.2750*
%
%ADD22ROUNDEDRECTD22*%
%ADD23R,1.4000X0.8000*%
%ADD24R,3.3528X2.3622*%
G04:AMPARAMS|DCode=25|XSize=1.52mm|YSize=1.82mm|CornerRadius=0.235mm|HoleSize=0mm|Usage=FLASHONLY|Rotation=180.000|XOffset=0mm|YOffset=0mm|HoleType=Round|Shape=RoundedRectangle|*
%AMROUNDEDRECTD25*
21,1,1.5200,1.3500,0,0,180.0*
21,1,1.0500,1.8200,0,0,180.0*
1,1,0.4700,-0.5250,0.6750*
1,1,0.4700,0.5250,0.6750*
1,1,0.4700,0.5250,-0.6750*
1,1,0.4700,-0.5250,-0.6750*
%
%ADD25ROUNDEDRECTD25*%
%ADD26R,0.8000X1.4000*%
%ADD27O,1.1938X2.3114*%
%ADD28O,1.1938X2.0066*%
%ADD29C,1.7032*%
D17*
X64770Y207582D02*
D03*
X77470D02*
D03*
X90170D02*
D03*
X102870D02*
D03*
Y153098D02*
D03*
X90170D02*
D03*
X77470D02*
D03*
X64770D02*
D03*
D19*
X64950Y83118D02*
D03*
X69950D02*
D03*
X74950D02*
D03*
X79950D02*
D03*
X84950D02*
D03*
X89950D02*
D03*
X94950D02*
D03*
X99950D02*
D03*
D21*
X25400Y121920D02*
D03*
Y131920D02*
D03*
X95250Y110410D02*
D03*
Y100410D02*
D03*
X139700Y123270D02*
D03*
Y133270D02*
D03*
X77470Y100410D02*
D03*
Y110410D02*
D03*
D22*
X25480Y193040D02*
D03*
X35480D02*
D03*
X143510D02*
D03*
X133510D02*
D03*
D23*
X25400Y150520D02*
D03*
Y169520D02*
D03*
X139700Y150520D02*
D03*
Y169520D02*
D03*
D24*
X83820Y180340D02*
D03*
D25*
X72390Y236220D02*
D03*
X95250D02*
D03*
D26*
X59030Y105410D02*
D03*
X40030D02*
D03*
D27*
X39250Y77368D02*
D03*
X125650D02*
D03*
D28*
Y35568D02*
D03*
X39250D02*
D03*
D29*
X12700Y19050D02*
D03*
Y279400D02*
D03*
X152400D02*
D03*
Y19050D02*
D03*
M02*
